<svg width="21" height="25" viewBox="0 0 21 25" fill="none" xmlns="http://www.w3.org/2000/svg">
<path d="M19.6449 8.68282C19.5057 8.79082 17.0481 10.1756 17.0481 13.2548C17.0481 16.8164 20.1753 18.0764 20.2689 18.1076C20.2545 18.1844 19.7721 19.8332 18.6201 21.5132C17.5929 22.9916 16.5201 24.4676 14.8881 24.4676C13.2561 24.4676 12.8361 23.5196 10.9521 23.5196C9.11607 23.5196 8.46327 24.4988 6.97047 24.4988C5.47767 24.4988 4.43607 23.1308 3.23847 21.4508C1.85127 19.478 0.730469 16.4132 0.730469 13.5044C0.730469 8.83882 3.76407 6.36442 6.74967 6.36442C8.33607 6.36442 9.65847 7.40602 10.6545 7.40602C11.6025 7.40602 13.0809 6.30202 14.8857 6.30202C15.5697 6.30202 18.0273 6.36442 19.6449 8.68282ZM14.0289 4.32682C14.7753 3.44122 15.3033 2.21242 15.3033 0.983621C15.3033 0.813221 15.2889 0.640421 15.2577 0.501221C14.0433 0.546821 12.5985 1.31002 11.7273 2.32042C11.0433 3.09802 10.4049 4.32682 10.4049 5.57242C10.4049 5.75962 10.4361 5.94682 10.4505 6.00682C10.5273 6.02122 10.6521 6.03802 10.7769 6.03802C11.8665 6.03802 13.2369 5.30842 14.0289 4.32682Z" fill="#292D32"/>
</svg>
