<svg width="20" height="20" viewBox="0 0 20 20" fill="none" xmlns="http://www.w3.org/2000/svg">
<path opacity="0.2" d="M15.8334 5.83333V6.775C15.5667 6.7 15.2917 6.66667 15.0001 6.66667H5.00008C4.70841 6.66667 4.43341 6.7 4.16675 6.775V5.83333C4.16675 4.91667 4.91675 4.16667 5.83341 4.16667H14.1667C15.0834 4.16667 15.8334 4.91667 15.8334 5.83333Z" fill="#292D32"/>
<path opacity="0.1" d="M13.3334 2.92501V4.16667H6.66675V2.92501C6.66675 2.23334 7.23342 1.66667 7.92509 1.66667H12.0751C12.7667 1.66667 13.3334 2.23334 13.3334 2.92501Z" fill="#292D32"/>
<path opacity="0.3" d="M18.3334 10V15C18.3334 16.8333 16.8334 18.3333 15.0001 18.3333H5.00008C3.16675 18.3333 1.66675 16.8333 1.66675 15V10C1.66675 8.45833 2.73341 7.15 4.16675 6.775C4.43341 6.7 4.70841 6.66667 5.00008 6.66667H15.0001C15.2917 6.66667 15.5667 6.7 15.8334 6.775C17.2667 7.15 18.3334 8.45833 18.3334 10Z" fill="#292D32"/>
<path d="M12.7916 8.75836C12.5416 8.56669 12.0916 8.38333 11.3832 8.575L9.17493 9.18337C8.48326 9.3667 8.04161 9.95001 8.04161 10.6667V11.9583V13.4584C7.89161 13.4167 7.72492 13.3833 7.55826 13.3833C6.60826 13.3833 5.83325 14.1584 5.83325 15.1084C5.83325 16.0584 6.60826 16.8334 7.55826 16.8334C8.50826 16.8334 9.27493 16.0667 9.28326 15.125C9.28326 15.1167 9.29161 15.1083 9.29161 15.1V12.425L12.0833 11.6667V12.7167C11.9333 12.675 11.7749 12.6417 11.6082 12.6417C10.6582 12.6417 9.88324 13.4167 9.88324 14.3667C9.88324 15.3167 10.6582 16.0917 11.6082 16.0917C12.5582 16.0917 13.3333 15.3167 13.3333 14.3667V10.85V10.0584C13.3333 9.33336 13.0332 8.95003 12.7916 8.75836ZM7.55826 15.5917C7.29159 15.5917 7.08325 15.375 7.08325 15.1167C7.08325 14.8584 7.29992 14.6417 7.55826 14.6417C7.81659 14.6417 8.03326 14.8584 8.03326 15.1167C8.03326 15.375 7.82492 15.5917 7.55826 15.5917ZM11.6082 14.85C11.3416 14.85 11.1332 14.6334 11.1332 14.375C11.1332 14.1167 11.3499 13.9 11.6082 13.9C11.8666 13.9 12.0833 14.1167 12.0833 14.375C12.0833 14.6334 11.8666 14.85 11.6082 14.85Z" fill="#292D32"/>
</svg>
