<svg width="314" height="133" viewBox="0 0 314 133" fill="none" xmlns="http://www.w3.org/2000/svg">
<path d="M22.198 113.729L17.0107 118.994L22.198 124.258L27.3852 118.994L22.198 113.729Z" fill="#B8CAB7"/>
<path d="M22.1912 103.981L17.5205 108.721L22.1912 113.462L26.862 108.721L22.1912 103.981Z" fill="#CDE6CD"/>
<path d="M22.1841 94.2717L18.041 98.4765L22.1841 102.681L26.3271 98.4765L22.1841 94.2717Z" fill="#CDE6CD"/>
<path d="M22.1773 84.5237L18.5508 88.2043L22.1773 91.8849L25.8039 88.2043L22.1773 84.5237Z" fill="#CDE6CD"/>
<path d="M22.1823 74.8031L19.0723 77.9596L22.1823 81.116L25.2924 77.9596L22.1823 74.8031Z" fill="#CDE6CD"/>
<path d="M22.1874 65.0664L19.5938 67.6987L22.1874 70.331L24.781 67.6987L22.1874 65.0664Z" fill="#CDE6CD"/>
<path d="M22.1806 55.3345L20.1035 57.4426L22.1806 59.5507L24.2578 57.4426L22.1806 55.3345Z" fill="#CDE6CD"/>
<path d="M22.1847 45.614L20.624 47.1979L22.1847 48.7818L23.7453 47.1979L22.1847 45.614Z" fill="#CDE6CD"/>
<path d="M22.1874 34.2432L19.5938 36.8755L22.1874 39.5078L24.781 36.8755L22.1874 34.2432Z" fill="#CDE6CD"/>
<path d="M22.1806 24.5113L20.1035 26.6194L22.1806 28.7275L24.2578 26.6194L22.1806 24.5113Z" fill="#CDE6CD"/>
<path d="M22.1847 14.7907L20.624 16.3746L22.1847 17.9586L23.7453 16.3746L22.1847 14.7907Z" fill="#CDE6CD"/>
<path d="M32.5622 113.717L27.375 118.982L32.5622 124.246L37.7494 118.982L32.5622 113.717Z" fill="#B8CAB7"/>
<path d="M32.5555 103.985L27.8848 108.725L32.5555 113.466L37.2262 108.725L32.5555 103.985Z" fill="#B8CAB7"/>
<path d="M32.5516 65.0706L29.958 67.7029L32.5516 70.3352L35.1452 67.7029L32.5516 65.0706Z" fill="#CDE6CD"/>
<path d="M32.5605 55.3387L30.4834 57.4468L32.5605 59.5549L34.6377 57.4468L32.5605 55.3387Z" fill="#CDE6CD"/>
<path d="M32.5646 45.602L31.0039 47.1859L32.5646 48.7699L34.1252 47.1859L32.5646 45.602Z" fill="#CDE6CD"/>
<path d="M32.5493 94.2759L28.4062 98.4807L32.5493 102.686L36.6923 98.4807L32.5493 94.2759Z" fill="#B8CAB7"/>
<path d="M32.5426 84.5279L28.916 88.2085L32.5426 91.8891L36.1691 88.2085L32.5426 84.5279Z" fill="#CDE6CD"/>
<path d="M32.5476 74.8073L29.4375 77.9637L32.5476 81.1202L35.6577 77.9637L32.5476 74.8073Z" fill="#CDE6CD"/>
<path d="M32.5516 34.2474L29.958 36.8797L32.5516 39.5119L35.1452 36.8797L32.5516 34.2474Z" fill="#CDE6CD"/>
<path d="M32.5605 24.5154L30.4834 26.6235L32.5605 28.7316L34.6377 26.6235L32.5605 24.5154Z" fill="#CDE6CD"/>
<path d="M42.9325 65.0748L40.3389 67.7071L42.9325 70.3394L45.5261 67.7071L42.9325 65.0748Z" fill="#B8CAB7"/>
<path d="M42.9248 55.3429L40.8477 57.451L42.9248 59.5591L45.0019 57.451L42.9248 55.3429Z" fill="#B8CAB7"/>
<path d="M42.9298 45.6062L41.3691 47.1901L42.9298 48.774L44.4905 47.1901L42.9298 45.6062Z" fill="#B8CAB7"/>
<path d="M32.5646 14.7788L31.0039 16.3627L32.5646 17.9467L34.1252 16.3627L32.5646 14.7788Z" fill="#CDE6CD"/>
<path d="M42.9274 113.721L37.7402 118.986L42.9274 124.25L48.1147 118.986L42.9274 113.721Z" fill="#B8CAB7"/>
<path d="M42.9207 103.989L38.25 108.73L42.9207 113.47L47.5915 108.73L42.9207 103.989Z" fill="#B8CAB7"/>
<path d="M42.9145 94.264L38.7715 98.4688L42.9145 102.674L47.0576 98.4688L42.9145 94.264Z" fill="#B8CAB7"/>
<path d="M42.9225 84.532L39.2959 88.2126L42.9225 91.8933L46.549 88.2126L42.9225 84.532Z" fill="#B8CAB7"/>
<path d="M53.2967 65.079L50.7031 67.7113L53.2967 70.3435L55.8903 67.7113L53.2967 65.079Z" fill="#CDE6CD"/>
<path d="M53.29 55.3309L51.2129 57.439L53.29 59.5471L55.3672 57.439L53.29 55.3309Z" fill="#CDE6CD"/>
<path d="M53.3048 45.599L51.7441 47.1829L53.3048 48.7668L54.8655 47.1829L53.3048 45.599Z" fill="#CDE6CD"/>
<path d="M42.9275 74.8115L39.8174 77.9679L42.9275 81.1244L46.0375 77.9679L42.9275 74.8115Z" fill="#B8CAB7"/>
<path d="M42.9325 34.2516L40.3389 36.8839L42.9325 39.5162L45.5261 36.8839L42.9325 34.2516Z" fill="#B8CAB7"/>
<path d="M42.9248 24.5197L40.8477 26.6278L42.9248 28.7359L45.0019 26.6278L42.9248 24.5197Z" fill="#B8CAB7"/>
<path d="M42.9298 14.783L41.3691 16.3669L42.9298 17.9508L44.4905 16.3669L42.9298 14.783Z" fill="#B8CAB7"/>
<path d="M53.3073 113.725L48.1201 118.99L53.3073 124.254L58.4945 118.99L53.3073 113.725Z" fill="#B8CAB7"/>
<path d="M63.661 65.0832L61.0674 67.7154L63.661 70.3477L66.2546 67.7154L63.661 65.0832Z" fill="#CDE6CD"/>
<path d="M63.665 55.3237L61.5879 57.4318L63.665 59.5399L65.7422 57.4318L63.665 55.3237Z" fill="#CDE6CD"/>
<path d="M63.6857 45.6032L62.125 47.1871L63.6857 48.771L65.2463 47.1871L63.6857 45.6032Z" fill="#CDE6CD"/>
<path d="M53.3006 103.993L48.6299 108.734L53.3006 113.474L57.9714 108.734L53.3006 103.993Z" fill="#B8CAB7"/>
<path d="M53.2934 94.2681L49.1504 98.4729L53.2934 102.678L57.4365 98.4729L53.2934 94.2681Z" fill="#B8CAB7"/>
<path d="M53.2867 84.5362L49.6602 88.2168L53.2867 91.8975L56.9133 88.2168L53.2867 84.5362Z" fill="#B8CAB7"/>
<path d="M53.2927 74.7995L50.1826 77.956L53.2927 81.1124L56.4028 77.956L53.2927 74.7995Z" fill="#CDE6CD"/>
<path d="M53.2967 34.2558L50.7031 36.8881L53.2967 39.5203L55.8903 36.8881L53.2967 34.2558Z" fill="#CDE6CD"/>
<path d="M74.0526 65.0759L71.459 67.7082L74.0526 70.3405L76.6462 67.7082L74.0526 65.0759Z" fill="#B8CAB7"/>
<path d="M74.0459 55.3279L71.9688 57.436L74.0459 59.5441L76.123 57.436L74.0459 55.3279Z" fill="#B8CAB7"/>
<path d="M74.0499 45.6074L72.4893 47.1913L74.0499 48.7752L75.6106 47.1913L74.0499 45.6074Z" fill="#B8CAB7"/>
<path d="M53.29 24.5077L51.2129 26.6158L53.29 28.7239L55.3672 26.6158L53.29 24.5077Z" fill="#CDE6CD"/>
<path d="M53.3048 14.7757L51.7441 16.3597L53.3048 17.9436L54.8655 16.3597L53.3048 14.7757Z" fill="#CDE6CD"/>
<path d="M63.6716 113.73L58.4844 118.994L63.6716 124.259L68.8588 118.994L63.6716 113.73Z" fill="#B8CAB7"/>
<path d="M63.6649 103.982L58.9941 108.722L63.6649 113.462L68.3356 108.722L63.6649 103.982Z" fill="#B8CAB7"/>
<path d="M63.6587 94.2724L59.5156 98.4772L63.6587 102.682L67.8017 98.4772L63.6587 94.2724Z" fill="#CDE6CD"/>
<path d="M84.4169 65.064L81.8232 67.6963L84.4168 70.3286L87.0105 67.6963L84.4169 65.064Z" fill="#CDE6CD"/>
<path d="M84.4101 55.3321L82.333 57.4402L84.4101 59.5483L86.4873 57.4402L84.4101 55.3321Z" fill="#CDE6CD"/>
<path d="M84.4144 45.5954L82.8538 47.1794L84.4144 48.7633L85.9751 47.1793L84.4144 45.5954Z" fill="#CDE6CD"/>
<path d="M63.6519 84.5404L60.0254 88.221L63.6519 91.9017L67.2785 88.221L63.6519 84.5404Z" fill="#CDE6CD"/>
<path d="M63.657 74.8037L60.5469 77.9602L63.657 81.1166L66.767 77.9602L63.657 74.8037Z" fill="#CDE6CD"/>
<path d="M63.661 34.2599L61.0674 36.8922L63.661 39.5245L66.2546 36.8922L63.661 34.2599Z" fill="#CDE6CD"/>
<path d="M63.665 24.5005L61.5879 26.6086L63.665 28.7167L65.7422 26.6086L63.665 24.5005Z" fill="#CDE6CD"/>
<path d="M63.6857 14.78L62.125 16.3639L63.6857 17.9478L65.2463 16.3639L63.6857 14.78Z" fill="#CDE6CD"/>
<path d="M94.7813 65.0682L92.1877 67.7005L94.7814 70.3327L97.375 67.7005L94.7813 65.0682Z" fill="#CDE6CD"/>
<path d="M94.7746 55.3362L92.6975 57.4443L94.7746 59.5524L96.8518 57.4443L94.7746 55.3362Z" fill="#CDE6CD"/>
<path d="M94.7784 45.5996L93.2178 47.1835L94.7784 48.7675L96.3391 47.1835L94.7784 45.5996Z" fill="#CDE6CD"/>
<path d="M74.0368 113.734L68.8496 118.998L74.0368 124.263L79.224 118.998L74.0368 113.734Z" fill="#B8CAB7"/>
<path d="M74.0301 103.986L69.3594 108.726L74.0301 113.466L78.7009 108.726L74.0301 103.986Z" fill="#B8CAB7"/>
<path d="M74.0229 94.2765L69.8799 98.4813L74.0229 102.686L78.166 98.4813L74.0229 94.2765Z" fill="#B8CAB7"/>
<path d="M74.0162 84.5284L70.3896 88.2091L74.0162 91.8897L77.6428 88.2091L74.0162 84.5284Z" fill="#B8CAB7"/>
<path d="M74.0359 74.8079L70.9258 77.9643L74.0359 81.1208L77.1459 77.9643L74.0359 74.8079Z" fill="#B8CAB7"/>
<path d="M105.145 65.0723L102.552 67.7046L105.145 70.3369L107.739 67.7046L105.145 65.0723Z" fill="#CDE6CD"/>
<path d="M105.155 55.3243L103.078 57.4324L105.155 59.5405L107.232 57.4324L105.155 55.3243Z" fill="#CDE6CD"/>
<path d="M105.159 45.6038L103.599 47.1877L105.159 48.7716L106.72 47.1877L105.159 45.6038Z" fill="#CDE6CD"/>
<path d="M74.0526 34.2527L71.459 36.885L74.0526 39.5173L76.6462 36.885L74.0526 34.2527Z" fill="#B8CAB7"/>
<path d="M74.0459 24.5047L71.9688 26.6128L74.0459 28.7209L76.123 26.6128L74.0459 24.5047Z" fill="#B8CAB7"/>
<path d="M74.0499 14.7841L72.4893 16.3681L74.0499 17.952L75.6106 16.3681L74.0499 14.7841Z" fill="#B8CAB7"/>
<path d="M84.4011 113.722L79.2139 118.986L84.4011 124.251L89.5883 118.986L84.4011 113.722Z" fill="#B8CAB7"/>
<path d="M84.3944 103.99L79.7236 108.73L84.3944 113.471L89.0651 108.73L84.3944 103.99Z" fill="#B8CAB7"/>
<path d="M84.4038 94.2807L80.2607 98.4855L84.4038 102.69L88.5468 98.4855L84.4038 94.2807Z" fill="#B8CAB7"/>
<path d="M84.3961 84.5326L80.7695 88.2132L84.3961 91.8939L88.0226 88.2132L84.3961 84.5326Z" fill="#B8CAB7"/>
<path d="M84.4128 74.8007L81.3027 77.9572L84.4128 81.1136L87.5229 77.9572L84.4128 74.8007Z" fill="#B8CAB7"/>
<path d="M84.4169 34.2408L81.8232 36.8731L84.4168 39.5053L87.0105 36.8731L84.4169 34.2408Z" fill="#CDE6CD"/>
<path d="M84.4101 24.5088L82.333 26.617L84.4101 28.7251L86.4873 26.6169L84.4101 24.5088Z" fill="#CDE6CD"/>
<path d="M84.4144 14.7722L82.8538 16.3561L84.4144 17.9401L85.9751 16.3561L84.4144 14.7722Z" fill="#CDE6CD"/>
<path d="M94.7819 113.726L89.5947 118.991L94.7819 124.255L99.9692 118.991L94.7819 113.726Z" fill="#B8CAB7"/>
<path d="M94.7752 103.994L90.1045 108.734L94.7752 113.475L99.446 108.734L94.7752 103.994Z" fill="#B8CAB7"/>
<path d="M94.768 94.2688L90.625 98.4736L94.768 102.678L98.9111 98.4736L94.768 94.2688Z" fill="#B8CAB7"/>
<path d="M94.7728 84.5254L91.1462 88.2061L94.7728 91.8867L98.3994 88.2061L94.7728 84.5254Z" fill="#CDE6CD"/>
<path d="M94.7771 74.8049L91.667 77.9613L94.7771 81.1178L97.8872 77.9613L94.7771 74.8049Z" fill="#CDE6CD"/>
<path d="M94.7813 34.245L92.1877 36.8772L94.7814 39.5095L97.375 36.8772L94.7813 34.245Z" fill="#CDE6CD"/>
<path d="M94.7746 24.513L92.6975 26.6211L94.7746 28.7292L96.8518 26.6211L94.7746 24.513Z" fill="#CDE6CD"/>
<path d="M94.7784 14.7764L93.2178 16.3603L94.7784 17.9442L96.3391 16.3603L94.7784 14.7764Z" fill="#CDE6CD"/>
<path d="M105.146 113.73L99.9587 118.995L105.146 124.259L110.333 118.995L105.146 113.73Z" fill="#B8CAB7"/>
<path d="M105.139 103.998L100.469 108.739L105.139 113.479L109.81 108.739L105.139 103.998Z" fill="#CDE6CD"/>
<path d="M105.144 94.2615L101.001 98.4663L105.144 102.671L109.287 98.4663L105.144 94.2615Z" fill="#CDE6CD"/>
<path d="M105.137 84.5296L101.511 88.2102L105.137 91.8909L108.764 88.2102L105.137 84.5296Z" fill="#CDE6CD"/>
<path d="M105.142 74.7929L102.031 77.9494L105.142 81.1058L108.252 77.9494L105.142 74.7929Z" fill="#CDE6CD"/>
<path d="M105.145 34.2491L102.552 36.8814L105.145 39.5137L107.739 36.8814L105.145 34.2491Z" fill="#CDE6CD"/>
<path d="M105.155 24.5011L103.078 26.6092L105.155 28.7173L107.232 26.6092L105.155 24.5011Z" fill="#CDE6CD"/>
<path d="M105.159 14.7805L103.599 16.3645L105.159 17.9484L106.72 16.3645L105.159 14.7805Z" fill="#CDE6CD"/>
<path d="M115.531 113.729L110.344 118.994L115.531 124.258L120.718 118.994L115.531 113.729Z" fill="#B8CAB7"/>
<path d="M115.524 103.981L110.854 108.721L115.524 113.462L120.195 108.721L115.524 103.981Z" fill="#CDE6CD"/>
<path d="M115.517 94.2717L111.374 98.4765L115.517 102.681L119.66 98.4765L115.517 94.2717Z" fill="#CDE6CD"/>
<path d="M115.51 84.5237L111.884 88.2043L115.51 91.8849L119.137 88.2043L115.51 84.5237Z" fill="#CDE6CD"/>
<path d="M115.515 74.8031L112.405 77.9596L115.515 81.116L118.625 77.9596L115.515 74.8031Z" fill="#CDE6CD"/>
<path d="M115.52 65.0664L112.927 67.6987L115.52 70.331L118.114 67.6987L115.52 65.0664Z" fill="#CDE6CD"/>
<path d="M115.514 55.3345L113.437 57.4426L115.514 59.5507L117.591 57.4426L115.514 55.3345Z" fill="#CDE6CD"/>
<path d="M115.517 45.614L113.957 47.1979L115.517 48.7818L117.078 47.1979L115.517 45.614Z" fill="#CDE6CD"/>
<path d="M115.52 34.2432L112.927 36.8755L115.52 39.5078L118.114 36.8755L115.52 34.2432Z" fill="#CDE6CD"/>
<path d="M115.514 24.5113L113.437 26.6194L115.514 28.7275L117.591 26.6194L115.514 24.5113Z" fill="#CDE6CD"/>
<path d="M115.517 14.7907L113.957 16.3746L115.517 17.9586L117.078 16.3746L115.517 14.7907Z" fill="#CDE6CD"/>
<path d="M125.895 113.717L120.708 118.982L125.895 124.246L131.082 118.982L125.895 113.717Z" fill="#B8CAB7"/>
<path d="M125.889 103.985L121.218 108.725L125.889 113.466L130.559 108.725L125.889 103.985Z" fill="#B8CAB7"/>
<path d="M125.885 65.0706L123.291 67.7029L125.885 70.3352L128.478 67.7029L125.885 65.0706Z" fill="#CDE6CD"/>
<path d="M125.894 55.3387L123.816 57.4468L125.894 59.5549L127.971 57.4468L125.894 55.3387Z" fill="#CDE6CD"/>
<path d="M125.898 45.602L124.337 47.1859L125.898 48.7699L127.458 47.1859L125.898 45.602Z" fill="#CDE6CD"/>
<path d="M125.882 94.2759L121.739 98.4807L125.882 102.686L130.025 98.4807L125.882 94.2759Z" fill="#B8CAB7"/>
<path d="M125.876 84.5279L122.249 88.2085L125.876 91.8891L129.502 88.2085L125.876 84.5279Z" fill="#CDE6CD"/>
<path d="M125.881 74.8073L122.771 77.9637L125.881 81.1202L128.991 77.9637L125.881 74.8073Z" fill="#CDE6CD"/>
<path d="M125.885 34.2474L123.291 36.8797L125.885 39.5119L128.478 36.8797L125.885 34.2474Z" fill="#CDE6CD"/>
<path d="M125.894 24.5154L123.816 26.6235L125.894 28.7316L127.971 26.6235L125.894 24.5154Z" fill="#CDE6CD"/>
<path d="M136.265 65.0748L133.672 67.7071L136.265 70.3394L138.859 67.7071L136.265 65.0748Z" fill="#B8CAB7"/>
<path d="M136.258 55.3429L134.181 57.451L136.258 59.5591L138.335 57.451L136.258 55.3429Z" fill="#B8CAB7"/>
<path d="M136.263 45.6062L134.702 47.1901L136.263 48.774L137.823 47.1901L136.263 45.6062Z" fill="#B8CAB7"/>
<path d="M125.898 14.7788L124.337 16.3627L125.898 17.9467L127.458 16.3627L125.898 14.7788Z" fill="#CDE6CD"/>
<path d="M136.26 113.721L131.073 118.986L136.26 124.25L141.448 118.986L136.26 113.721Z" fill="#B8CAB7"/>
<path d="M136.254 103.989L131.583 108.73L136.254 113.47L140.924 108.73L136.254 103.989Z" fill="#B8CAB7"/>
<path d="M136.248 94.264L132.104 98.4688L136.248 102.674L140.391 98.4688L136.248 94.264Z" fill="#B8CAB7"/>
<path d="M136.256 84.532L132.629 88.2126L136.256 91.8933L139.882 88.2126L136.256 84.532Z" fill="#B8CAB7"/>
<path d="M146.63 65.079L144.036 67.7113L146.63 70.3435L149.223 67.7113L146.63 65.079Z" fill="#CDE6CD"/>
<path d="M146.623 55.3309L144.546 57.439L146.623 59.5471L148.7 57.439L146.623 55.3309Z" fill="#CDE6CD"/>
<path d="M146.638 45.599L145.077 47.1829L146.638 48.7668L148.199 47.1829L146.638 45.599Z" fill="#CDE6CD"/>
<path d="M136.26 74.8115L133.15 77.9679L136.26 81.1244L139.371 77.9679L136.26 74.8115Z" fill="#B8CAB7"/>
<path d="M136.265 34.2516L133.672 36.8839L136.265 39.5162L138.859 36.8839L136.265 34.2516Z" fill="#B8CAB7"/>
<path d="M136.258 24.5197L134.181 26.6278L136.258 28.7359L138.335 26.6278L136.258 24.5197Z" fill="#B8CAB7"/>
<path d="M136.263 14.783L134.702 16.3669L136.263 17.9508L137.823 16.3669L136.263 14.783Z" fill="#B8CAB7"/>
<path d="M146.64 113.725L141.453 118.99L146.64 124.254L151.828 118.99L146.64 113.725Z" fill="#B8CAB7"/>
<path d="M156.994 65.0832L154.4 67.7154L156.994 70.3477L159.588 67.7154L156.994 65.0832Z" fill="#CDE6CD"/>
<path d="M156.998 55.3237L154.921 57.4318L156.998 59.5399L159.075 57.4318L156.998 55.3237Z" fill="#CDE6CD"/>
<path d="M157.018 45.6032L155.458 47.1871L157.018 48.771L158.579 47.1871L157.018 45.6032Z" fill="#CDE6CD"/>
<path d="M146.634 103.993L141.963 108.734L146.634 113.474L151.304 108.734L146.634 103.993Z" fill="#B8CAB7"/>
<path d="M146.626 94.2681L142.483 98.4729L146.626 102.678L150.769 98.4729L146.626 94.2681Z" fill="#B8CAB7"/>
<path d="M146.62 84.5362L142.993 88.2168L146.62 91.8975L150.246 88.2168L146.62 84.5362Z" fill="#B8CAB7"/>
<path d="M146.626 74.7995L143.516 77.956L146.626 81.1124L149.736 77.956L146.626 74.7995Z" fill="#CDE6CD"/>
<path d="M146.63 34.2558L144.036 36.8881L146.63 39.5203L149.223 36.8881L146.63 34.2558Z" fill="#CDE6CD"/>
<path d="M167.385 65.0759L164.792 67.7082L167.385 70.3405L169.979 67.7082L167.385 65.0759Z" fill="#B8CAB7"/>
<path d="M167.379 55.3279L165.302 57.436L167.379 59.5441L169.456 57.436L167.379 55.3279Z" fill="#B8CAB7"/>
<path d="M167.383 45.6074L165.822 47.1913L167.383 48.7752L168.944 47.1913L167.383 45.6074Z" fill="#B8CAB7"/>
<path d="M146.623 24.5077L144.546 26.6158L146.623 28.7239L148.7 26.6158L146.623 24.5077Z" fill="#CDE6CD"/>
<path d="M146.638 14.7757L145.077 16.3597L146.638 17.9436L148.199 16.3597L146.638 14.7757Z" fill="#CDE6CD"/>
<path d="M157.005 113.73L151.817 118.994L157.005 124.259L162.192 118.994L157.005 113.73Z" fill="#B8CAB7"/>
<path d="M156.998 103.982L152.327 108.722L156.998 113.462L161.669 108.722L156.998 103.982Z" fill="#B8CAB7"/>
<path d="M156.992 94.2724L152.849 98.4772L156.992 102.682L161.135 98.4772L156.992 94.2724Z" fill="#CDE6CD"/>
<path d="M177.75 65.064L175.156 67.6963L177.75 70.3286L180.343 67.6963L177.75 65.064Z" fill="#CDE6CD"/>
<path d="M177.743 55.3321L175.666 57.4402L177.743 59.5483L179.82 57.4402L177.743 55.3321Z" fill="#CDE6CD"/>
<path d="M177.747 45.5954L176.187 47.1794L177.747 48.7633L179.308 47.1793L177.747 45.5954Z" fill="#CDE6CD"/>
<path d="M156.985 84.5404L153.358 88.221L156.985 91.9017L160.612 88.221L156.985 84.5404Z" fill="#CDE6CD"/>
<path d="M156.99 74.8037L153.88 77.9602L156.99 81.1166L160.1 77.9602L156.99 74.8037Z" fill="#CDE6CD"/>
<path d="M156.994 34.2599L154.4 36.8922L156.994 39.5245L159.588 36.8922L156.994 34.2599Z" fill="#CDE6CD"/>
<path d="M156.998 24.5005L154.921 26.6086L156.998 28.7167L159.075 26.6086L156.998 24.5005Z" fill="#CDE6CD"/>
<path d="M157.018 14.78L155.458 16.3639L157.018 17.9478L158.579 16.3639L157.018 14.78Z" fill="#CDE6CD"/>
<path d="M188.114 65.0682L185.521 67.7005L188.114 70.3327L190.708 67.7005L188.114 65.0682Z" fill="#CDE6CD"/>
<path d="M188.108 55.3362L186.031 57.4443L188.108 59.5524L190.185 57.4443L188.108 55.3362Z" fill="#CDE6CD"/>
<path d="M188.111 45.5996L186.551 47.1835L188.111 48.7675L189.672 47.1835L188.111 45.5996Z" fill="#CDE6CD"/>
<path d="M167.37 113.734L162.183 118.998L167.37 124.263L172.557 118.998L167.37 113.734Z" fill="#B8CAB7"/>
<path d="M167.363 103.986L162.692 108.726L167.363 113.466L172.034 108.726L167.363 103.986Z" fill="#B8CAB7"/>
<path d="M167.356 94.2765L163.213 98.4813L167.356 102.686L171.499 98.4813L167.356 94.2765Z" fill="#B8CAB7"/>
<path d="M167.349 84.5284L163.722 88.2091L167.349 91.8897L170.976 88.2091L167.349 84.5284Z" fill="#B8CAB7"/>
<path d="M167.369 74.8079L164.259 77.9643L167.369 81.1208L170.479 77.9643L167.369 74.8079Z" fill="#B8CAB7"/>
<path d="M198.478 65.0723L195.885 67.7046L198.478 70.3369L201.072 67.7046L198.478 65.0723Z" fill="#CDE6CD"/>
<path d="M198.488 55.3243L196.411 57.4324L198.488 59.5405L200.565 57.4324L198.488 55.3243Z" fill="#CDE6CD"/>
<path d="M198.492 45.6038L196.932 47.1877L198.492 48.7716L200.053 47.1877L198.492 45.6038Z" fill="#CDE6CD"/>
<path d="M167.385 34.2527L164.792 36.885L167.385 39.5173L169.979 36.885L167.385 34.2527Z" fill="#B8CAB7"/>
<path d="M167.379 24.5047L165.302 26.6128L167.379 28.7209L169.456 26.6128L167.379 24.5047Z" fill="#B8CAB7"/>
<path d="M167.383 14.7841L165.822 16.3681L167.383 17.952L168.944 16.3681L167.383 14.7841Z" fill="#B8CAB7"/>
<path d="M177.734 113.722L172.547 118.986L177.734 124.251L182.921 118.986L177.734 113.722Z" fill="#B8CAB7"/>
<path d="M177.727 103.99L173.057 108.73L177.727 113.471L182.398 108.73L177.727 103.99Z" fill="#B8CAB7"/>
<path d="M177.737 94.2807L173.594 98.4855L177.737 102.69L181.88 98.4855L177.737 94.2807Z" fill="#B8CAB7"/>
<path d="M177.729 84.5326L174.103 88.2132L177.729 91.8939L181.356 88.2132L177.729 84.5326Z" fill="#B8CAB7"/>
<path d="M177.746 74.8007L174.635 77.9572L177.746 81.1136L180.856 77.9572L177.746 74.8007Z" fill="#B8CAB7"/>
<path d="M177.75 34.2408L175.156 36.8731L177.75 39.5053L180.343 36.8731L177.75 34.2408Z" fill="#CDE6CD"/>
<path d="M177.743 24.5088L175.666 26.617L177.743 28.7251L179.82 26.6169L177.743 24.5088Z" fill="#CDE6CD"/>
<path d="M177.747 14.7722L176.187 16.3561L177.747 17.9401L179.308 16.3561L177.747 14.7722Z" fill="#CDE6CD"/>
<path d="M188.115 113.726L182.928 118.991L188.115 124.255L193.302 118.991L188.115 113.726Z" fill="#B8CAB7"/>
<path d="M188.108 103.994L183.438 108.734L188.108 113.475L192.779 108.734L188.108 103.994Z" fill="#B8CAB7"/>
<path d="M188.101 94.2688L183.958 98.4736L188.101 102.678L192.244 98.4736L188.101 94.2688Z" fill="#B8CAB7"/>
<path d="M188.106 84.5254L184.479 88.2061L188.106 91.8867L191.732 88.2061L188.106 84.5254Z" fill="#CDE6CD"/>
<path d="M188.11 74.8049L185 77.9613L188.11 81.1178L191.22 77.9613L188.11 74.8049Z" fill="#CDE6CD"/>
<path d="M188.114 34.245L185.521 36.8772L188.114 39.5095L190.708 36.8772L188.114 34.245Z" fill="#CDE6CD"/>
<path d="M188.108 24.513L186.031 26.6211L188.108 28.7292L190.185 26.6211L188.108 24.513Z" fill="#CDE6CD"/>
<path d="M188.111 14.7764L186.551 16.3603L188.111 17.9442L189.672 16.3603L188.111 14.7764Z" fill="#CDE6CD"/>
<path d="M198.479 113.73L193.292 118.995L198.479 124.259L203.666 118.995L198.479 113.73Z" fill="#B8CAB7"/>
<path d="M198.472 103.998L193.802 108.739L198.472 113.479L203.143 108.739L198.472 103.998Z" fill="#CDE6CD"/>
<path d="M198.477 94.2615L194.334 98.4663L198.477 102.671L202.62 98.4663L198.477 94.2615Z" fill="#CDE6CD"/>
<path d="M198.47 84.5296L194.844 88.2102L198.47 91.8909L202.097 88.2102L198.47 84.5296Z" fill="#CDE6CD"/>
<path d="M198.475 74.7929L195.365 77.9494L198.475 81.1058L201.585 77.9494L198.475 74.7929Z" fill="#CDE6CD"/>
<path d="M198.478 34.2491L195.885 36.8814L198.478 39.5137L201.072 36.8814L198.478 34.2491Z" fill="#CDE6CD"/>
<path d="M198.488 24.5011L196.411 26.6092L198.488 28.7173L200.565 26.6092L198.488 24.5011Z" fill="#CDE6CD"/>
<path d="M198.492 14.7805L196.932 16.3645L198.492 17.9484L200.053 16.3645L198.492 14.7805Z" fill="#CDE6CD"/>
<path d="M208.865 113.729L203.678 118.994L208.865 124.258L214.052 118.994L208.865 113.729Z" fill="#B8CAB7"/>
<path d="M208.858 103.981L204.188 108.721L208.858 113.462L213.529 108.721L208.858 103.981Z" fill="#CDE6CD"/>
<path d="M208.851 94.2717L204.708 98.4765L208.851 102.681L212.994 98.4765L208.851 94.2717Z" fill="#CDE6CD"/>
<path d="M208.844 84.5237L205.218 88.2043L208.844 91.8849L212.471 88.2043L208.844 84.5237Z" fill="#CDE6CD"/>
<path d="M208.849 74.8031L205.739 77.9596L208.849 81.116L211.959 77.9596L208.849 74.8031Z" fill="#CDE6CD"/>
<path d="M208.854 65.0664L206.261 67.6987L208.854 70.331L211.448 67.6987L208.854 65.0664Z" fill="#CDE6CD"/>
<path d="M208.848 55.3345L206.771 57.4426L208.848 59.5507L210.925 57.4426L208.848 55.3345Z" fill="#CDE6CD"/>
<path d="M208.851 45.614L207.291 47.1979L208.851 48.7818L210.412 47.1979L208.851 45.614Z" fill="#CDE6CD"/>
<path d="M208.854 34.2432L206.261 36.8755L208.854 39.5078L211.448 36.8755L208.854 34.2432Z" fill="#CDE6CD"/>
<path d="M208.848 24.5113L206.771 26.6194L208.848 28.7275L210.925 26.6194L208.848 24.5113Z" fill="#CDE6CD"/>
<path d="M208.851 14.7907L207.291 16.3746L208.851 17.9586L210.412 16.3746L208.851 14.7907Z" fill="#CDE6CD"/>
<path d="M219.229 113.717L214.042 118.982L219.229 124.246L224.416 118.982L219.229 113.717Z" fill="#B8CAB7"/>
<path d="M219.222 103.985L214.552 108.725L219.222 113.466L223.893 108.725L219.222 103.985Z" fill="#B8CAB7"/>
<path d="M219.219 65.0706L216.625 67.7029L219.219 70.3352L221.812 67.7029L219.219 65.0706Z" fill="#CDE6CD"/>
<path d="M219.228 55.3387L217.15 57.4468L219.228 59.5549L221.305 57.4468L219.228 55.3387Z" fill="#CDE6CD"/>
<path d="M219.232 45.602L217.671 47.1859L219.232 48.7699L220.792 47.1859L219.232 45.602Z" fill="#CDE6CD"/>
<path d="M219.216 94.2759L215.073 98.4807L219.216 102.686L223.359 98.4807L219.216 94.2759Z" fill="#B8CAB7"/>
<path d="M219.21 84.5279L215.583 88.2085L219.21 91.8891L222.836 88.2085L219.21 84.5279Z" fill="#CDE6CD"/>
<path d="M219.215 74.8073L216.104 77.9637L219.215 81.1202L222.325 77.9637L219.215 74.8073Z" fill="#CDE6CD"/>
<path d="M219.219 34.2474L216.625 36.8797L219.219 39.5119L221.812 36.8797L219.219 34.2474Z" fill="#CDE6CD"/>
<path d="M219.228 24.5154L217.15 26.6235L219.228 28.7316L221.305 26.6235L219.228 24.5154Z" fill="#CDE6CD"/>
<path d="M229.599 65.0748L227.006 67.7071L229.599 70.3394L232.193 67.7071L229.599 65.0748Z" fill="#B8CAB7"/>
<path d="M229.592 55.3429L227.515 57.451L229.592 59.5591L231.669 57.451L229.592 55.3429Z" fill="#B8CAB7"/>
<path d="M229.597 45.6062L228.036 47.1901L229.597 48.774L231.157 47.1901L229.597 45.6062Z" fill="#B8CAB7"/>
<path d="M219.232 14.7788L217.671 16.3627L219.232 17.9467L220.792 16.3627L219.232 14.7788Z" fill="#CDE6CD"/>
<path d="M229.594 113.721L224.407 118.986L229.594 124.25L234.782 118.986L229.594 113.721Z" fill="#B8CAB7"/>
<path d="M229.588 103.989L224.917 108.73L229.588 113.47L234.258 108.73L229.588 103.989Z" fill="#B8CAB7"/>
<path d="M229.582 94.264L225.438 98.4688L229.582 102.674L233.725 98.4688L229.582 94.264Z" fill="#B8CAB7"/>
<path d="M229.59 84.532L225.963 88.2126L229.59 91.8933L233.216 88.2126L229.59 84.532Z" fill="#B8CAB7"/>
<path d="M239.964 65.079L237.37 67.7113L239.964 70.3435L242.557 67.7113L239.964 65.079Z" fill="#CDE6CD"/>
<path d="M239.957 55.3309L237.88 57.439L239.957 59.5471L242.034 57.439L239.957 55.3309Z" fill="#CDE6CD"/>
<path d="M239.972 45.599L238.411 47.1829L239.972 48.7668L241.533 47.1829L239.972 45.599Z" fill="#CDE6CD"/>
<path d="M229.594 74.8115L226.484 77.9679L229.594 81.1244L232.705 77.9679L229.594 74.8115Z" fill="#B8CAB7"/>
<path d="M229.599 34.2516L227.006 36.8839L229.599 39.5162L232.193 36.8839L229.599 34.2516Z" fill="#B8CAB7"/>
<path d="M229.592 24.5197L227.515 26.6278L229.592 28.7359L231.669 26.6278L229.592 24.5197Z" fill="#B8CAB7"/>
<path d="M229.597 14.783L228.036 16.3669L229.597 17.9508L231.157 16.3669L229.597 14.783Z" fill="#B8CAB7"/>
<path d="M239.974 113.725L234.787 118.99L239.974 124.254L245.162 118.99L239.974 113.725Z" fill="#B8CAB7"/>
<path d="M250.328 65.0832L247.734 67.7154L250.328 70.3477L252.922 67.7154L250.328 65.0832Z" fill="#CDE6CD"/>
<path d="M250.332 55.3237L248.255 57.4318L250.332 59.5399L252.409 57.4318L250.332 55.3237Z" fill="#CDE6CD"/>
<path d="M250.352 45.6032L248.792 47.1871L250.352 48.771L251.913 47.1871L250.352 45.6032Z" fill="#CDE6CD"/>
<path d="M239.968 103.993L235.297 108.734L239.968 113.474L244.638 108.734L239.968 103.993Z" fill="#B8CAB7"/>
<path d="M239.96 94.2681L235.817 98.4729L239.96 102.678L244.103 98.4729L239.96 94.2681Z" fill="#B8CAB7"/>
<path d="M239.954 84.5362L236.327 88.2168L239.954 91.8975L243.58 88.2168L239.954 84.5362Z" fill="#B8CAB7"/>
<path d="M239.96 74.7995L236.85 77.956L239.96 81.1124L243.07 77.956L239.96 74.7995Z" fill="#CDE6CD"/>
<path d="M239.964 34.2558L237.37 36.8881L239.964 39.5203L242.557 36.8881L239.964 34.2558Z" fill="#CDE6CD"/>
<path d="M260.719 65.0759L258.126 67.7082L260.719 70.3405L263.313 67.7082L260.719 65.0759Z" fill="#B8CAB7"/>
<path d="M260.713 55.3279L258.635 57.436L260.713 59.5441L262.79 57.436L260.713 55.3279Z" fill="#B8CAB7"/>
<path d="M260.717 45.6074L259.156 47.1913L260.717 48.7752L262.278 47.1913L260.717 45.6074Z" fill="#B8CAB7"/>
<path d="M239.957 24.5077L237.88 26.6158L239.957 28.7239L242.034 26.6158L239.957 24.5077Z" fill="#CDE6CD"/>
<path d="M239.972 14.7757L238.411 16.3597L239.972 17.9436L241.533 16.3597L239.972 14.7757Z" fill="#CDE6CD"/>
<path d="M250.339 113.73L245.151 118.994L250.339 124.259L255.526 118.994L250.339 113.73Z" fill="#B8CAB7"/>
<path d="M250.332 103.982L245.661 108.722L250.332 113.462L255.003 108.722L250.332 103.982Z" fill="#B8CAB7"/>
<path d="M250.326 94.2724L246.183 98.4772L250.326 102.682L254.469 98.4772L250.326 94.2724Z" fill="#CDE6CD"/>
<path d="M271.084 65.064L268.49 67.6963L271.084 70.3286L273.677 67.6963L271.084 65.064Z" fill="#CDE6CD"/>
<path d="M271.077 55.3321L269 57.4402L271.077 59.5483L273.154 57.4402L271.077 55.3321Z" fill="#CDE6CD"/>
<path d="M271.081 45.5954L269.521 47.1794L271.081 48.7633L272.642 47.1793L271.081 45.5954Z" fill="#CDE6CD"/>
<path d="M250.319 84.5404L246.692 88.221L250.319 91.9017L253.945 88.221L250.319 84.5404Z" fill="#CDE6CD"/>
<path d="M250.324 74.8037L247.214 77.9602L250.324 81.1166L253.434 77.9602L250.324 74.8037Z" fill="#CDE6CD"/>
<path d="M250.328 34.2599L247.734 36.8922L250.328 39.5245L252.922 36.8922L250.328 34.2599Z" fill="#CDE6CD"/>
<path d="M250.332 24.5005L248.255 26.6086L250.332 28.7167L252.409 26.6086L250.332 24.5005Z" fill="#CDE6CD"/>
<path d="M250.352 14.78L248.792 16.3639L250.352 17.9478L251.913 16.3639L250.352 14.78Z" fill="#CDE6CD"/>
<path d="M281.448 65.0682L278.855 67.7005L281.448 70.3327L284.042 67.7005L281.448 65.0682Z" fill="#CDE6CD"/>
<path d="M281.442 55.3362L279.365 57.4443L281.442 59.5524L283.519 57.4443L281.442 55.3362Z" fill="#CDE6CD"/>
<path d="M281.445 45.5996L279.885 47.1835L281.445 48.7675L283.006 47.1835L281.445 45.5996Z" fill="#CDE6CD"/>
<path d="M260.704 113.734L255.517 118.998L260.704 124.263L265.891 118.998L260.704 113.734Z" fill="#B8CAB7"/>
<path d="M260.697 103.986L256.026 108.726L260.697 113.466L265.368 108.726L260.697 103.986Z" fill="#B8CAB7"/>
<path d="M260.69 94.2765L256.547 98.4813L260.69 102.686L264.833 98.4813L260.69 94.2765Z" fill="#B8CAB7"/>
<path d="M260.683 84.5284L257.056 88.2091L260.683 91.8897L264.31 88.2091L260.683 84.5284Z" fill="#B8CAB7"/>
<path d="M260.703 74.8079L257.593 77.9643L260.703 81.1208L263.813 77.9643L260.703 74.8079Z" fill="#B8CAB7"/>
<path d="M291.812 65.0723L289.219 67.7046L291.812 70.3369L294.406 67.7046L291.812 65.0723Z" fill="#CDE6CD"/>
<path d="M291.822 55.3243L289.745 57.4324L291.822 59.5405L293.899 57.4324L291.822 55.3243Z" fill="#CDE6CD"/>
<path d="M291.826 45.6038L290.266 47.1877L291.826 48.7716L293.387 47.1877L291.826 45.6038Z" fill="#CDE6CD"/>
<path d="M260.719 34.2527L258.126 36.885L260.719 39.5173L263.313 36.885L260.719 34.2527Z" fill="#B8CAB7"/>
<path d="M260.713 24.5047L258.635 26.6128L260.713 28.7209L262.79 26.6128L260.713 24.5047Z" fill="#B8CAB7"/>
<path d="M260.717 14.7841L259.156 16.3681L260.717 17.952L262.278 16.3681L260.717 14.7841Z" fill="#B8CAB7"/>
<path d="M271.068 113.722L265.881 118.986L271.068 124.251L276.255 118.986L271.068 113.722Z" fill="#B8CAB7"/>
<path d="M271.061 103.99L266.391 108.73L271.061 113.471L275.732 108.73L271.061 103.99Z" fill="#B8CAB7"/>
<path d="M271.071 94.2807L266.928 98.4855L271.071 102.69L275.214 98.4855L271.071 94.2807Z" fill="#B8CAB7"/>
<path d="M271.063 84.5326L267.437 88.2132L271.063 91.8939L274.69 88.2132L271.063 84.5326Z" fill="#B8CAB7"/>
<path d="M271.08 74.8007L267.969 77.9572L271.08 81.1136L274.19 77.9572L271.08 74.8007Z" fill="#B8CAB7"/>
<path d="M271.084 34.2408L268.49 36.8731L271.084 39.5053L273.677 36.8731L271.084 34.2408Z" fill="#CDE6CD"/>
<path d="M271.077 24.5088L269 26.617L271.077 28.7251L273.154 26.6169L271.077 24.5088Z" fill="#CDE6CD"/>
<path d="M271.081 14.7722L269.521 16.3561L271.081 17.9401L272.642 16.3561L271.081 14.7722Z" fill="#CDE6CD"/>
<path d="M281.449 113.726L276.262 118.991L281.449 124.255L286.636 118.991L281.449 113.726Z" fill="#B8CAB7"/>
<path d="M281.442 103.994L276.771 108.734L281.442 113.475L286.113 108.734L281.442 103.994Z" fill="#B8CAB7"/>
<path d="M281.435 94.2688L277.292 98.4736L281.435 102.678L285.578 98.4736L281.435 94.2688Z" fill="#B8CAB7"/>
<path d="M281.44 84.5254L277.813 88.2061L281.44 91.8867L285.066 88.2061L281.44 84.5254Z" fill="#CDE6CD"/>
<path d="M281.444 74.8049L278.334 77.9613L281.444 81.1178L284.554 77.9613L281.444 74.8049Z" fill="#CDE6CD"/>
<path d="M281.448 34.245L278.855 36.8772L281.448 39.5095L284.042 36.8772L281.448 34.245Z" fill="#CDE6CD"/>
<path d="M281.442 24.513L279.365 26.6211L281.442 28.7292L283.519 26.6211L281.442 24.513Z" fill="#CDE6CD"/>
<path d="M281.445 14.7764L279.885 16.3603L281.445 17.9442L283.006 16.3603L281.445 14.7764Z" fill="#CDE6CD"/>
<path d="M291.813 113.73L286.626 118.995L291.813 124.259L297 118.995L291.813 113.73Z" fill="#B8CAB7"/>
<path d="M291.806 103.998L287.136 108.739L291.806 113.479L296.477 108.739L291.806 103.998Z" fill="#CDE6CD"/>
<path d="M291.811 94.2615L287.668 98.4663L291.811 102.671L295.954 98.4663L291.811 94.2615Z" fill="#CDE6CD"/>
<path d="M291.804 84.5296L288.178 88.2102L291.804 91.8909L295.431 88.2102L291.804 84.5296Z" fill="#CDE6CD"/>
<path d="M291.809 74.7929L288.698 77.9494L291.809 81.1058L294.919 77.9494L291.809 74.7929Z" fill="#CDE6CD"/>
<path d="M291.812 34.2491L289.219 36.8814L291.812 39.5137L294.406 36.8814L291.812 34.2491Z" fill="#CDE6CD"/>
<path d="M291.822 24.5011L289.745 26.6092L291.822 28.7173L293.899 26.6092L291.822 24.5011Z" fill="#CDE6CD"/>
<path d="M291.826 14.7805L290.266 16.3645L291.826 17.9484L293.387 16.3645L291.826 14.7805Z" fill="#CDE6CD"/>
</svg>
