<svg width="40" height="40" viewBox="0 0 40 40" fill="none" xmlns="http://www.w3.org/2000/svg">
<path opacity="0.4" d="M20.0002 8.83336V35.55C19.7168 35.55 19.4168 35.5 19.1835 35.3667L19.1168 35.3334C15.9168 33.5834 10.3335 31.75 6.71683 31.2667L6.2335 31.2C4.6335 31 3.3335 29.5 3.3335 27.9V7.7667C3.3335 5.78336 4.95016 4.28336 6.9335 4.45003C10.4335 4.73336 15.7335 6.50003 18.7002 8.35003L19.1168 8.60003C19.3668 8.75003 19.6835 8.83336 20.0002 8.83336Z" fill="#42999B"/>
<path d="M36.6667 7.78342V27.9001C36.6667 29.5001 35.3667 31.0001 33.7667 31.2001L33.2167 31.2668C29.5833 31.7501 23.9833 33.6001 20.7833 35.3668C20.5667 35.5001 20.3 35.5501 20 35.5501V8.83342C20.3167 8.83342 20.6333 8.75009 20.8833 8.60009L21.1667 8.41676C24.1333 6.55009 29.45 4.76676 32.95 4.46676H33.05C35.0333 4.30009 36.6667 5.78342 36.6667 7.78342Z" fill="#42999B"/>
<path d="M12.9165 15.4H9.1665C8.48317 15.4 7.9165 14.8334 7.9165 14.15C7.9165 13.4667 8.48317 12.9 9.1665 12.9H12.9165C13.5998 12.9 14.1665 13.4667 14.1665 14.15C14.1665 14.8334 13.5998 15.4 12.9165 15.4Z" fill="#42999B"/>
<path d="M14.1665 20.4H9.1665C8.48317 20.4 7.9165 19.8334 7.9165 19.15C7.9165 18.4667 8.48317 17.9 9.1665 17.9H14.1665C14.8498 17.9 15.4165 18.4667 15.4165 19.15C15.4165 19.8334 14.8498 20.4 14.1665 20.4Z" fill="#42999B"/>
</svg>
