<svg width="18" height="18" viewBox="0 0 18 18" fill="none" xmlns="http://www.w3.org/2000/svg">
<path d="M12.75 3.72V9.06C12.75 10.5525 11.6925 11.13 10.395 10.35L9.405 9.75C9.18 9.615 8.82 9.615 8.595 9.75L7.605 10.35C6.3075 11.13 5.25 10.5525 5.25 9.06V3.7425C5.2575 2.25 6.0075 1.5 7.5 1.5H10.5C11.985 1.5 12.735 2.2425 12.75 3.72Z" fill="#292D32"/>
<path opacity="0.2" d="M16.5 8.92497V11.1975C16.5 14.985 15 16.5 11.25 16.5H6.75C3 16.5 1.5 14.985 1.5 11.1975V8.92497C1.5 5.74497 2.5575 4.16997 5.115 3.74247H5.25V9.05997C5.25 10.5525 6.3075 11.13 7.605 10.35L8.595 9.74997C8.82 9.61497 9.18 9.61497 9.405 9.74997L10.395 10.35C11.6925 11.13 12.75 10.5525 12.75 9.05997V3.71997C15.405 4.10997 16.5 5.69247 16.5 8.92497Z" fill="#292D32"/>
</svg>
