<svg width="1920" height="170" viewBox="0 0 1920 170" fill="none" xmlns="http://www.w3.org/2000/svg">
<g clip-path="url(#clip0_523_27818)">
<path fill-rule="evenodd" clip-rule="evenodd" d="M1920 110.579C1920 110.579 1789.39 90.4309 1601.07 103.92C1412.75 117.408 1339.88 144.175 1157.84 134.207C975.795 124.239 964.33 130.127 749.517 155.093C534.704 180.061 434.605 193.546 331.082 178.387C227.558 163.23 2.86102e-06 201.681 2.86102e-06 201.681L0 282.674H1920V110.579Z" fill="#E5EBE1"/>
<path fill-rule="evenodd" clip-rule="evenodd" d="M1754.19 136.043L1752.62 135.553C1752.76 135.134 1766.33 92.1198 1767.04 60.6016L1768.64 60.6374C1767.97 92.3898 1754.33 135.589 1754.19 136.032V136.043Z" fill="#E5EBE1"/>
<path fill-rule="evenodd" clip-rule="evenodd" d="M1767.76 61.2869C1767.76 61.2869 1785.74 65.3073 1770.5 86.8476C1770.86 84.4695 1771.93 78.6993 1771.71 76.8117C1771.31 78.8578 1770.74 80.8691 1770.01 82.8272C1770.01 82.8272 1771.46 72.582 1771.43 69.9918L1770.11 75.693C1769.68 70.842 1768.89 66.0276 1767.76 61.2869Z" fill="#E5EBE1"/>
<path fill-rule="evenodd" clip-rule="evenodd" d="M1766.68 61.2871C1766.68 61.2871 1774.3 58.0328 1780.96 62.3342C1787.62 66.6357 1786.8 75.8669 1781.11 79.9699C1782.32 75.8779 1781.96 71.6481 1781.96 71.6481C1781.96 71.6481 1781.04 75.3901 1779.79 76.5447C1780.47 73.712 1780.86 69.3058 1779.57 67.1758C1779.85 69.518 1779.32 71.4745 1778.97 72.1358C1778.93 69.9313 1777.79 65.5611 1775.55 64.1612C1777.12 66.8892 1776.76 69.1213 1776.76 69.1213C1776.76 69.1213 1773.27 61.7776 1766.68 61.2899V61.2871Z" fill="#E5EBE1"/>
<path fill-rule="evenodd" clip-rule="evenodd" d="M1766.86 62.3003C1766.86 62.3003 1770.07 54.7445 1777.9 53.3116C1785.74 51.8787 1791.68 59.0459 1790.44 65.9018C1788.4 62.1239 1785.2 59.327 1785.2 59.327C1785.2 59.327 1787.16 62.6475 1787.09 64.2871C1785.56 61.8401 1782.74 58.3763 1780.32 57.7122C1782.17 59.2168 1783.17 60.9997 1783.38 61.7326C1781.82 60.1591 1777.87 57.7811 1775.3 58.3074C1778.33 59.2168 1779.65 61.0354 1779.65 61.0354C1779.65 61.0354 1771.96 58.1669 1766.86 62.2947V62.3003Z" fill="#E5EBE1"/>
<path fill-rule="evenodd" clip-rule="evenodd" d="M1768.11 61.8789C1768.11 61.8789 1749.7 61.0522 1758.53 85.8C1758.81 83.4219 1759.35 77.5801 1760.1 75.7972C1759.94 77.8811 1759.94 79.974 1760.1 82.0579C1760.1 82.0579 1761.49 71.81 1762.23 69.3272C1762.09 71.7052 1761.95 75.1332 1761.95 75.1332C1763.67 70.5735 1765.73 66.1435 1768.11 61.8789Z" fill="#E5EBE1"/>
<path fill-rule="evenodd" clip-rule="evenodd" d="M1769.14 62.1597C1769.14 62.1597 1762.69 57.0178 1755.11 59.4317C1747.54 61.8456 1745.78 70.9363 1750.2 76.3923C1750.21 73.5805 1750.68 70.7887 1751.6 68.1255C1751.6 68.1255 1751.5 71.9833 1752.38 73.4052C1752.53 70.5037 1753.34 66.1305 1755.13 64.4193C1754.24 66.6238 1754.24 68.6161 1754.38 69.3794C1755.02 67.2466 1757.33 63.3171 1759.83 62.5951C1757.58 64.7996 1757.33 67.0344 1757.33 67.0344C1757.33 67.0344 1762.71 60.917 1769.16 62.1404L1769.14 62.1597Z" fill="#E5EBE1"/>
<path fill-rule="evenodd" clip-rule="evenodd" d="M1768.68 63.1036C1768.68 63.1036 1767.65 54.9912 1760.52 51.5661C1753.4 48.1409 1745.68 53.4536 1745 60.3838C1747.99 57.2701 1751.84 55.4238 1751.84 55.4238C1751.84 55.4238 1749.06 58.116 1748.67 59.7225C1750.8 57.766 1754.47 55.1786 1756.96 55.1786C1754.76 56.121 1753.37 57.5566 1752.94 58.2097C1754.9 57.091 1759.31 55.8647 1761.66 57.0551C1758.46 57.124 1756.71 58.5597 1756.71 58.5597C1756.71 58.5597 1764.9 57.7881 1768.68 63.1036Z" fill="#E5EBE1"/>
<path fill-rule="evenodd" clip-rule="evenodd" d="M1769.39 62.7893C1769.39 62.7893 1766.44 55.1316 1771.1 48.8021C1775.76 42.4725 1785.13 43.663 1789.01 49.4662C1784.92 48.0884 1780.61 48.2427 1780.61 48.2427C1780.61 48.2427 1784.35 49.3256 1785.49 50.5849C1782.64 49.8161 1778.19 49.2209 1775.95 50.3755C1778.37 50.2018 1780.29 50.8301 1781 51.2159C1778.72 51.1443 1774.23 52.0894 1772.7 54.1865C1775.55 52.7894 1777.79 53.244 1777.79 53.244C1777.79 53.244 1770.22 56.355 1769.37 62.7893H1769.39Z" fill="#E5EBE1"/>
<path fill-rule="evenodd" clip-rule="evenodd" d="M1766.97 62.4688C1766.97 62.4688 1772.35 56.244 1770.1 48.7267C1767.86 41.2096 1758.67 39.2503 1753.01 43.4443C1757.35 43.4802 1761.34 45.0536 1761.34 45.0536C1761.34 45.0536 1757.46 44.8441 1755.97 45.6488C1758.92 45.8582 1763.34 46.8034 1765.01 48.5862C1762.8 47.6411 1760.77 47.608 1759.99 47.7458C1762.16 48.4099 1766.04 50.7769 1766.76 53.2707C1764.55 51.0001 1762.3 50.6832 1762.3 50.6832C1762.3 50.6832 1768.39 56.1392 1766.97 62.4688Z" fill="#E5EBE1"/>
<path fill-rule="evenodd" clip-rule="evenodd" d="M1754.19 136.043L1752.65 135.493C1752.8 135.071 1785.91 61.4612 1789.55 19.254L1791.18 19.3588C1784.77 68.5237 1754.33 135.644 1754.19 136.052V136.043Z" fill="#E5EBE1"/>
<path fill-rule="evenodd" clip-rule="evenodd" d="M1790.26 19.9496C1790.26 19.9496 1808.06 24.6726 1791.97 45.5764C1792.43 43.2314 1793.75 37.497 1793.6 35.6094C1793.09 37.6342 1792.44 39.6205 1791.64 41.5532C1791.64 41.5532 1793.49 31.3769 1793.56 28.7895C1792.96 31.0628 1792.03 34.419 1792.03 34.419C1791.79 29.5578 1791.19 24.7198 1790.25 19.9413L1790.26 19.9496Z" fill="#E5EBE1"/>
<path fill-rule="evenodd" clip-rule="evenodd" d="M1789.19 19.9167C1789.19 19.9167 1796.95 16.9435 1803.4 21.526C1809.84 26.1085 1808.7 35.268 1802.83 39.1148C1804.24 35.0587 1804.05 30.8481 1804.05 30.8481C1804.05 30.8481 1802.98 34.5185 1801.7 35.6373C1802.44 32.8404 1803.05 28.4342 1801.87 26.2684C1802.02 28.6464 1801.41 30.5368 1801.03 31.2008C1801.1 28.9964 1800.1 24.5874 1797.97 23.0884C1799.39 25.8853 1798.97 28.087 1798.97 28.087C1798.97 28.087 1795.76 20.647 1789.21 19.9057L1789.19 19.9167Z" fill="#E5EBE1"/>
<path fill-rule="evenodd" clip-rule="evenodd" d="M1789.33 20.9306C1789.33 20.9306 1792.86 13.5154 1800.72 12.3883C1808.59 11.2614 1814.26 18.649 1812.76 25.4333C1810.87 21.5754 1807.78 18.649 1807.78 18.649C1807.78 18.649 1809.59 22.0412 1809.46 23.7193C1808.03 21.1676 1805.36 17.635 1802.98 16.8661C1804.76 18.4396 1805.68 20.2225 1805.86 20.9995C1804.37 19.3462 1800.53 16.8661 1797.92 17.2574C1800.95 18.3074 1802.16 20.1949 1802.16 20.1949C1802.16 20.1949 1794.61 17.0122 1789.34 20.9306H1789.33Z" fill="#E5EBE1"/>
<path fill-rule="evenodd" clip-rule="evenodd" d="M1790.61 20.5465C1790.61 20.5465 1772.2 19.0089 1780.07 44.0819C1780.43 41.7038 1781.21 35.8978 1782 34.1618C1781.76 36.2389 1781.67 38.3305 1781.75 40.4197C1781.75 40.4197 1783.56 30.2434 1784.42 27.7965C1784.2 30.1387 1783.88 33.6024 1783.88 33.6024C1785.81 29.104 1788.06 24.7449 1790.62 20.5575L1790.61 20.5465Z" fill="#E5EBE1"/>
<path fill-rule="evenodd" clip-rule="evenodd" d="M1791.61 20.8606C1791.61 20.8606 1785.34 15.4763 1777.69 17.6091C1770.03 19.7419 1767.93 28.7636 1772.1 34.3602C1772.24 30.0946 1773.84 26.1762 1773.84 26.1762C1773.84 26.1762 1773.59 29.9898 1774.4 31.4585C1774.65 28.59 1775.65 24.2527 1777.49 22.6104C1776.49 24.7791 1776.42 26.7714 1776.53 27.5401C1777.24 25.4432 1779.7 21.6322 1782.26 20.9682C1779.95 23.101 1779.59 25.3027 1779.59 25.3027C1779.59 25.3027 1785.18 19.3919 1791.59 20.8606H1791.61Z" fill="#E5EBE1"/>
<path fill-rule="evenodd" clip-rule="evenodd" d="M1791.11 21.8052C1791.11 21.8052 1790.4 13.6569 1783.42 9.95628C1776.44 6.25551 1768.5 11.2845 1767.54 18.1733C1769.62 16.2478 1772 14.655 1774.59 13.453C1774.59 13.453 1771.71 16.0405 1771.24 17.6498C1773.45 15.7622 1777.23 13.3125 1779.72 13.4173C1777.51 14.2935 1776.01 15.6906 1775.59 16.3216C1777.58 15.2717 1782.04 14.2219 1784.35 15.4949C1781.14 15.426 1779.32 16.7901 1779.32 16.7901C1779.32 16.7901 1787.55 16.3684 1791.11 21.8245V21.8052Z" fill="#E5EBE1"/>
<path fill-rule="evenodd" clip-rule="evenodd" d="M1791.82 21.527C1791.82 21.527 1789.19 13.7618 1794.1 7.60858C1799.02 1.45538 1808.35 3.02604 1811.98 8.97257C1807.92 7.4322 1803.65 7.39915 1803.65 7.39915C1803.65 7.39915 1807.35 8.65569 1808.38 9.95079C1805.6 9.07729 1801.15 8.29745 1798.91 9.3556C1801.29 9.28671 1803.22 9.98667 1803.9 10.4054C1801.65 10.2319 1797.09 11.0006 1795.48 13.0618C1798.4 11.7695 1800.6 12.293 1800.6 12.293C1800.6 12.293 1792.88 15.1258 1791.81 21.527H1791.82Z" fill="#E5EBE1"/>
<path fill-rule="evenodd" clip-rule="evenodd" d="M1789.4 21.1051C1789.4 21.1051 1795.06 15.0925 1793.11 7.50364C1791.15 -0.0852094 1782.07 -2.3944 1776.27 1.5571C1780.61 1.76651 1784.53 3.48599 1784.53 3.48599C1784.53 3.48599 1780.65 3.13604 1779.12 3.9076C1782.04 4.22174 1786.41 5.30469 1788.06 7.19226C1785.88 6.14514 1783.85 6.00459 1783.07 6.1093C1785.17 6.87811 1788.98 9.39672 1789.59 11.9153C1787.49 9.57032 1785.24 9.18729 1785.24 9.18729C1785.24 9.18729 1791.12 14.8169 1789.41 21.1107L1789.4 21.1051Z" fill="#E5EBE1"/>
<path fill-rule="evenodd" clip-rule="evenodd" d="M1735.14 118.715L1735.97 118.452C1735.89 118.228 1728.71 95.1621 1728.33 78.261L1727.48 78.2802C1727.84 95.3069 1735.06 118.471 1735.14 118.709V118.715Z" fill="#E5EBE1"/>
<path fill-rule="evenodd" clip-rule="evenodd" d="M1727.95 78.6278C1727.95 78.6278 1718.43 80.7836 1726.5 92.3342C1726.31 91.059 1725.74 87.9649 1725.86 86.9528C1726.07 88.0498 1726.38 89.1284 1726.76 90.1784C1726.76 90.1784 1725.99 84.6845 1726.01 83.2956L1726.71 86.3528C1726.93 83.7515 1727.35 81.1699 1727.95 78.6278Z" fill="#E5EBE1"/>
<path fill-rule="evenodd" clip-rule="evenodd" d="M1728.52 78.6292C1728.52 78.6292 1724.49 76.8841 1720.96 79.1907C1717.44 81.4972 1717.87 86.4473 1720.89 88.6475C1720.24 86.4532 1720.43 84.1851 1720.43 84.1851C1720.43 84.1851 1720.92 86.1917 1721.58 86.8108C1721.22 85.2918 1721.02 82.9291 1721.7 81.7868C1721.55 83.0428 1721.83 84.092 1722.02 84.4466C1722.03 83.2645 1722.64 80.921 1723.83 80.1703C1723 81.6332 1723.18 82.83 1723.18 82.83C1723.18 82.83 1725.03 78.8922 1728.52 78.6306V78.6292Z" fill="#E5EBE1"/>
<path fill-rule="evenodd" clip-rule="evenodd" d="M1728.43 79.1724C1728.43 79.1724 1726.73 75.1208 1722.58 74.3524C1718.43 73.5841 1715.29 77.4274 1715.95 81.1037C1717.02 79.0779 1718.72 77.5781 1718.72 77.5781C1718.72 77.5781 1717.68 79.3586 1717.72 80.2378C1718.53 78.9256 1720.02 77.0683 1721.3 76.7122C1720.32 77.519 1719.79 78.4749 1719.68 78.868C1720.51 78.0243 1722.6 76.7491 1723.96 77.0313C1722.36 77.519 1721.66 78.4942 1721.66 78.4942C1721.66 78.4942 1725.73 76.956 1728.43 79.1695V79.1724Z" fill="#E5EBE1"/>
<path fill-rule="evenodd" clip-rule="evenodd" d="M1727.77 78.9461C1727.77 78.9461 1737.51 78.5028 1732.84 91.7734C1732.69 90.4982 1732.4 87.3657 1732.01 86.4096C1732.09 87.5271 1732.09 88.6494 1732.01 89.7668C1732.01 89.7668 1731.27 84.2716 1730.88 82.9401C1730.95 84.2153 1731.02 86.0535 1731.02 86.0535C1730.11 83.6085 1729.02 81.233 1727.76 78.9461H1727.77Z" fill="#E5EBE1"/>
<path fill-rule="evenodd" clip-rule="evenodd" d="M1727.22 79.0967C1727.22 79.0967 1730.64 76.3394 1734.65 77.6338C1738.66 78.9282 1739.59 83.8029 1737.25 86.7286C1737.24 85.2207 1736.99 83.7237 1736.5 82.2957C1736.5 82.2957 1736.56 84.3644 1736.09 85.1268C1736.01 83.5708 1735.58 81.2259 1734.64 80.3083C1735.11 81.4904 1735.11 82.5588 1735.04 82.968C1734.7 81.8243 1733.47 79.7173 1732.15 79.3301C1733.34 80.5122 1733.47 81.7105 1733.47 81.7105C1733.47 81.7105 1730.62 78.4302 1727.21 79.0863L1727.22 79.0967Z" fill="#E5EBE1"/>
<path fill-rule="evenodd" clip-rule="evenodd" d="M1727.46 79.6021C1727.46 79.6021 1728.01 75.2518 1731.78 73.4151C1735.55 71.5786 1739.64 74.4273 1740 78.1436C1738.42 76.4739 1736.38 75.4839 1736.38 75.4839C1736.38 75.4839 1737.85 76.9275 1738.06 77.789C1736.93 76.7398 1734.99 75.3524 1733.67 75.3524C1734.84 75.8577 1735.57 76.6276 1735.8 76.9777C1734.76 76.3778 1732.42 75.7203 1731.18 76.3586C1732.87 76.3956 1733.8 77.1654 1733.8 77.1654C1733.8 77.1654 1729.46 76.7517 1727.46 79.6021Z" fill="#E5EBE1"/>
<path fill-rule="evenodd" clip-rule="evenodd" d="M1727.09 79.4334C1727.09 79.4334 1728.65 75.3271 1726.18 71.933C1723.71 68.5389 1718.76 69.1773 1716.7 72.2892C1718.87 71.5503 1721.15 71.6331 1721.15 71.6331C1721.15 71.6331 1719.17 72.2137 1718.57 72.889C1720.07 72.4767 1722.43 72.1576 1723.62 72.7767C1722.33 72.6836 1721.32 73.0205 1720.94 73.2274C1722.15 73.189 1724.52 73.6958 1725.34 74.8203C1723.83 74.0711 1722.64 74.3149 1722.64 74.3149C1722.64 74.3149 1726.65 75.9832 1727.1 79.4334H1727.09Z" fill="#E5EBE1"/>
<path fill-rule="evenodd" clip-rule="evenodd" d="M1728.37 79.2627C1728.37 79.2627 1725.52 75.9247 1726.71 71.8938C1727.9 67.8628 1732.76 66.8122 1735.76 69.0611C1733.46 69.0803 1731.35 69.9241 1731.35 69.9241C1731.35 69.9241 1733.4 69.8118 1734.19 70.2432C1732.63 70.3555 1730.29 70.8623 1729.41 71.8184C1730.57 71.3116 1731.65 71.2939 1732.06 71.3677C1730.91 71.7238 1728.86 72.9931 1728.48 74.3304C1729.65 73.1128 1730.84 72.9429 1730.84 72.9429C1730.84 72.9429 1727.62 75.8685 1728.37 79.2627Z" fill="#E5EBE1"/>
<path fill-rule="evenodd" clip-rule="evenodd" d="M1735.14 118.714L1735.95 118.419C1735.87 118.192 1718.34 78.721 1716.42 56.0883L1715.55 56.1444C1718.94 82.5082 1735.06 118.5 1735.14 118.719V118.714Z" fill="#E5EBE1"/>
<path fill-rule="evenodd" clip-rule="evenodd" d="M1716.04 56.4634C1716.04 56.4634 1706.61 58.996 1715.13 70.2053C1714.89 68.9478 1714.19 65.8729 1714.27 64.8607C1714.54 65.9465 1714.89 67.0116 1715.31 68.048C1715.31 68.048 1714.33 62.5911 1714.29 61.2036C1714.61 62.4227 1715.1 64.2224 1715.1 64.2224C1715.23 61.6157 1715.55 59.0214 1716.04 56.4589V56.4634Z" fill="#E5EBE1"/>
<path fill-rule="evenodd" clip-rule="evenodd" d="M1716.61 56.4443C1716.61 56.4443 1712.5 54.85 1709.08 57.3073C1705.67 59.7646 1706.28 64.6762 1709.38 66.7389C1708.64 64.5639 1708.74 62.3061 1708.74 62.3061C1708.74 62.3061 1709.31 64.2743 1709.98 64.8741C1709.59 63.3744 1709.27 61.0117 1709.89 59.8502C1709.82 61.1254 1710.14 62.1391 1710.34 62.4952C1710.3 61.3131 1710.83 58.9489 1711.96 58.145C1711.2 59.6449 1711.43 60.8255 1711.43 60.8255C1711.43 60.8255 1713.13 56.8359 1716.6 56.4384L1716.61 56.4443Z" fill="#E5EBE1"/>
<path fill-rule="evenodd" clip-rule="evenodd" d="M1716.53 56.9892C1716.53 56.9892 1714.66 53.013 1710.5 52.4086C1706.33 51.8042 1703.33 55.7658 1704.13 59.4037C1705.13 57.3351 1706.77 55.7658 1706.77 55.7658C1706.77 55.7658 1705.8 57.5847 1705.87 58.4847C1706.63 57.1163 1708.04 55.222 1709.31 54.8098C1708.36 55.6535 1707.87 56.6095 1707.78 57.0262C1708.57 56.1396 1710.6 54.8098 1711.98 55.0196C1710.38 55.5826 1709.74 56.5948 1709.74 56.5948C1709.74 56.5948 1713.74 54.8881 1716.53 56.9892Z" fill="#E5EBE1"/>
<path fill-rule="evenodd" clip-rule="evenodd" d="M1715.85 56.7815C1715.85 56.7815 1725.6 55.957 1721.43 69.4019C1721.24 68.1267 1720.83 65.0133 1720.41 64.0824C1720.54 65.1963 1720.59 66.3178 1720.55 67.4381C1720.55 67.4381 1719.58 61.9812 1719.13 60.6691C1719.25 61.9251 1719.41 63.7824 1719.41 63.7824C1718.39 61.3702 1717.2 59.0327 1715.85 56.7874V56.7815Z" fill="#E5EBE1"/>
<path fill-rule="evenodd" clip-rule="evenodd" d="M1715.32 56.9493C1715.32 56.9493 1718.64 54.0621 1722.69 55.2057C1726.75 56.3494 1727.86 61.1871 1725.65 64.1882C1725.58 61.9008 1724.73 59.7997 1724.73 59.7997C1724.73 59.7997 1724.86 61.8447 1724.43 62.6322C1724.3 61.094 1723.77 58.7683 1722.8 57.8876C1723.33 59.0505 1723.36 60.1188 1723.31 60.5311C1722.93 59.4066 1721.63 57.363 1720.27 57.0069C1721.5 58.1507 1721.69 59.3313 1721.69 59.3313C1721.69 59.3313 1718.73 56.1618 1715.33 56.9493H1715.32Z" fill="#E5EBE1"/>
<path fill-rule="evenodd" clip-rule="evenodd" d="M1715.59 57.4572C1715.59 57.4572 1715.97 53.0879 1719.66 51.1035C1723.35 49.119 1727.56 51.8157 1728.07 55.5098C1726.96 54.4772 1725.7 53.6232 1724.33 52.9786C1724.33 52.9786 1725.86 54.3661 1726.11 55.2291C1724.94 54.2169 1722.94 52.9032 1721.62 52.9594C1722.79 53.4292 1723.58 54.1784 1723.81 54.5168C1722.75 53.9539 1720.39 53.3909 1719.17 54.0736C1720.87 54.0366 1721.83 54.768 1721.83 54.768C1721.83 54.768 1717.47 54.5419 1715.59 57.4676V57.4572Z" fill="#E5EBE1"/>
<path fill-rule="evenodd" clip-rule="evenodd" d="M1715.21 57.3074C1715.21 57.3074 1716.61 53.1435 1714 49.8439C1711.4 46.5444 1706.46 47.3866 1704.54 50.5754C1706.69 49.7494 1708.95 49.7316 1708.95 49.7316C1708.95 49.7316 1706.99 50.4054 1706.45 51.0999C1707.92 50.6315 1710.27 50.2134 1711.46 50.7808C1710.2 50.7438 1709.18 51.1191 1708.82 51.3438C1710.01 51.2507 1712.42 51.6629 1713.28 52.7682C1711.73 52.0752 1710.56 52.356 1710.56 52.356C1710.56 52.356 1714.65 53.8749 1715.22 57.3074H1715.21Z" fill="#E5EBE1"/>
<path fill-rule="evenodd" clip-rule="evenodd" d="M1716.49 57.0816C1716.49 57.0816 1713.5 53.8574 1714.53 49.788C1715.57 45.7187 1720.38 44.4804 1723.44 46.5993C1721.15 46.7116 1719.07 47.6337 1719.07 47.6337C1719.07 47.6337 1721.13 47.446 1721.94 47.8597C1720.39 48.0282 1718.07 48.6089 1717.2 49.6211C1718.36 49.0596 1719.43 48.9842 1719.84 49.0403C1718.73 49.4526 1716.71 50.8032 1716.39 52.1537C1717.51 50.8963 1718.69 50.6909 1718.69 50.6909C1718.69 50.6909 1715.58 53.7097 1716.49 57.0846V57.0816Z" fill="#E5EBE1"/>
</g>
<defs>
<clipPath id="clip0_523_27818">
<rect width="1920" height="170" fill="white"/>
</clipPath>
</defs>
</svg>
