<svg width="338" height="138" viewBox="0 0 338 138" fill="none" xmlns="http://www.w3.org/2000/svg">
<path d="M46.0778 27.3993C46.1471 26.3133 46.5231 23.8863 49.9969 21.6863C53.4707 19.4873 56.7268 19.8013 60.735 19.9303C64.7433 20.0583 65.5351 18.9703 68.2171 17.5023C70.8992 16.0343 73.0764 16.7053 74.6896 16.8653C76.3028 17.0253 78.5396 15.1523 79.5491 16.3863C80.5684 17.6193 80.4002 19.3223 81.667 21.5263C82.9338 23.7313 89.5746 45.0583 100.808 45.0583C112.031 45.0583 120.958 31.0633 123.402 26.9223C125.847 22.7803 134.774 18.6853 142.612 17.9163C150.45 17.1483 155.716 8.34028 166.424 9.39128C177.123 10.4423 177.598 16.6713 187.643 18.5883C197.679 20.5043 210.851 27.6903 214.068 45.0263C217.294 62.3633 217.007 68.5923 224.4 71.0823C231.783 73.5733 233.773 70.6023 233.773 70.6023C233.773 70.6023 234.713 79.5623 225.152 79.1283C218.056 78.8083 215.107 74.8693 213.89 71.7023C214.939 76.0383 216.928 82.8213 219.759 86.3023C224.113 91.6663 225.726 92.5293 224.964 98.1813C224.202 103.833 222.421 120.021 222.886 124.234C223.341 128.447 225.143 130.94 224.113 132.282C223.084 133.625 213.603 134.484 212.841 132.377C212.079 130.269 217.769 129.024 218.333 125.002C218.907 120.981 217.858 98.6583 215.968 95.2993C214.068 91.9403 207.249 83.0383 206.586 81.4103C205.933 79.7823 201.093 75.9493 201.093 75.9493C201.093 75.9493 198.55 80.6443 197.491 88.8013C196.441 96.9583 197.966 99.8173 195.521 103.367C193.067 106.917 187.178 114.863 183.773 121.281C180.359 127.698 179.884 130.572 179.884 131.434C179.884 132.297 180.27 135.267 177.905 135.267C175.549 135.267 168.809 134.019 169.007 132.391C169.195 130.763 174.025 129.82 175.064 127.89C176.113 125.959 185.584 109.594 186.149 107.103C186.723 104.613 186.624 99.6323 188.237 93.9653C189.84 88.2993 188.514 78.8283 188.237 75.5723C187.95 72.3163 186.277 69.9233 187 66.5703C187.237 65.5013 187.544 64.4513 187.92 63.4283C187.95 63.3753 187.95 63.3163 187.93 63.2613C187.91 63.2063 187.881 63.1593 187.831 63.1283C187.782 63.0963 187.732 63.0833 187.673 63.0903C187.613 63.0973 187.564 63.1233 187.524 63.1653C184.565 66.2753 179.221 69.7913 169.759 71.0743C162.475 72.0363 155.132 72.4853 147.788 72.4163C147.788 72.4163 142.206 78.9223 137.446 84.8833C138.515 91.9743 139.485 99.8173 139.039 102.591C138.634 105.095 137.862 110.225 137.169 115.357C138.139 116.625 139.188 117.832 140.296 118.973C142.761 121.258 148.57 121.778 143.998 128.264C141.622 131.617 139.544 131.137 138.693 129.221C137.832 127.304 139.257 126.73 136.882 122.994C136.694 122.683 136.496 122.372 136.318 122.06C135.922 125.488 135.674 128.247 135.754 129.286C136.011 132.351 137.278 135.033 136.14 136.566C135.001 138.1 127.163 138.737 127.163 136.309C127.163 133.882 130.073 133.628 130.578 131.203C130.884 129.74 131.557 121.521 131.953 114.597C131.3 113.598 130.558 112.573 129.697 111.501C126.282 107.286 121.076 105.561 120.502 102.016C119.938 98.4723 122.314 95.9623 127.895 87.2653C128.232 86.7433 128.549 86.2253 128.836 85.7113L123.224 63.1113C122.907 62.9183 122.561 62.7623 122.215 62.6453C120.235 62.0743 109.487 70.2773 92.5536 63.1913C75.62 56.1053 70.8299 37.3263 70.8299 37.3263C70.8299 37.3263 65.5846 37.8063 59.5574 32.6653C59.5574 32.6653 54.7177 30.4293 53.8369 30.4923C52.9561 30.5553 48.5619 31.6083 47.394 30.5893C46.8101 30.0783 47.1169 29.2463 47.1169 29.2463C46.5824 28.6753 46.0184 28.4843 46.0778 27.3993ZM128.252 102.402C128.628 103.482 130.251 105.998 132.201 108.771C132.28 107.479 132.27 106.184 132.191 104.893C131.904 102.893 131.132 97.2703 130.696 94.2453C128.776 97.9813 127.351 99.8463 128.252 102.402Z" fill="#E5EBE1"/>
<path d="M121.926 19.7327C120.838 17.3647 120.719 14.5917 121.837 12.2497C122.124 11.6407 122.649 11.2297 123.718 11.2297C126.825 11.2297 124.054 6.50869 129.052 6.39769C134.05 6.28569 141.829 11.4527 150.607 10.2157C159.386 8.9797 157.387 2.01669 160.94 2.23869C164.493 2.46169 170.827 9.99369 173.608 10.1047C176.389 10.2157 188.166 -1.0173 191.056 -0.00630154C193.946 1.0047 187.721 9.31869 188.612 11.7897C189.502 14.2607 198.281 14.9317 202.279 16.0737C206.278 17.2167 203.388 22.1397 201.834 24.2767C200.28 26.4127 124.945 26.2987 124.945 26.2987L121.926 19.7327Z" fill="#E5EBE1"/>
<path d="M218.283 40.4179C220.857 38.7879 223.262 39.0239 226.231 39.1189C229.2 39.214 229.784 38.4099 231.773 37.3229C233.762 36.2369 235.365 36.733 236.563 36.85C237.751 36.968 239.413 35.5759 240.156 36.4969C240.908 37.4189 240.789 38.6709 241.729 40.3009C242.659 41.9309 247.568 57.715 255.882 57.715C264.205 57.715 270.797 47.364 272.618 44.294C274.439 41.225 281.04 38.1969 286.829 37.6309C292.619 37.0659 296.518 30.543 304.446 31.322C312.363 32.1 312.72 36.7099 320.142 38.1269C327.575 39.5439 337.323 44.8599 339.709 57.6899C342.094 70.5199 341.886 75.1279 347.349 76.9699C352.822 78.8129 354.287 76.6169 354.287 76.6169C354.287 76.6169 354.979 83.2449 347.903 82.9249C342.648 82.674 340.48 79.7749 339.57 77.4359C340.342 80.6459 341.817 85.667 343.915 88.241C347.131 92.212 348.329 92.8479 347.765 97.0319C347.21 101.216 345.874 113.192 346.221 116.312C346.577 119.432 347.903 121.272 347.131 122.266C346.369 123.26 339.352 123.896 338.788 122.336C338.234 120.776 342.44 119.855 342.856 116.878C343.281 113.901 342.509 97.385 341.104 94.904C339.709 92.422 334.671 85.832 334.176 84.637C333.681 83.443 330.109 80.5959 330.109 80.5959C330.109 80.5959 328.208 84.0689 327.446 90.0929C326.674 96.118 327.793 98.2459 325.952 100.86C324.121 103.474 319.786 109.374 317.262 114.116C314.739 118.858 314.392 120.992 314.392 121.628C314.392 122.264 314.669 124.462 312.908 124.462C311.136 124.462 306.178 123.541 306.316 122.336C306.455 121.132 310.028 120.423 310.8 119.004C311.572 117.584 318.589 105.465 319.004 103.622C319.43 101.779 319.351 98.0939 320.548 93.9119C321.746 89.7299 320.756 82.7119 320.548 80.3029C320.34 77.8939 319.103 76.1219 319.638 73.6399C319.806 72.8489 320.034 72.072 320.321 71.314C320.33 71.275 320.33 71.2309 320.321 71.1909C320.311 71.1509 320.281 71.116 320.251 71.0929C320.212 71.0699 320.172 71.0599 320.132 71.0649C320.083 71.0699 320.053 71.089 320.024 71.1189C317.826 73.42 313.878 76.0209 306.881 76.9699C301.487 77.6869 296.053 78.021 290.61 77.9719C290.61 77.9719 286.493 82.7899 282.96 87.1989C283.751 92.4569 284.474 98.2509 284.137 100.302C283.84 102.155 283.267 105.951 282.762 109.747C283.484 110.678 284.256 111.565 285.088 112.403C286.909 114.104 291.214 114.479 287.809 119.279C286.057 121.758 284.523 121.405 283.89 119.988C283.257 118.571 284.306 118.145 282.554 115.381C282.405 115.148 282.267 114.917 282.128 114.687C281.832 117.218 281.653 119.267 281.713 120.035C281.901 122.289 282.841 124.292 282 125.421C281.159 126.551 275.359 127.029 275.359 125.233C275.359 123.438 277.507 123.248 277.883 121.453C278.11 120.371 278.605 114.289 278.902 109.166C278.407 108.427 277.873 107.663 277.229 106.875C274.706 103.755 270.846 102.478 270.43 99.8639C270.005 97.2499 271.766 95.382 275.893 88.947C276.141 88.561 276.378 88.178 276.586 87.797L272.459 71.089C272.222 70.947 271.974 70.8319 271.717 70.7459C270.242 70.3199 262.305 76.392 249.775 71.146C237.246 65.901 233.703 52.0089 233.703 52.0089C233.703 52.0089 229.823 52.364 225.36 48.559C225.36 48.559 221.787 46.9059 221.124 46.9539C220.471 47.0009 217.224 47.7769 216.363 47.0239C215.928 46.646 216.156 46.0219 216.156 46.0219C215.78 45.5959 215.354 45.4539 215.403 44.6499C215.463 43.8459 215.72 42.0429 218.283 40.4179ZM276.19 100.149C276.477 100.948 277.675 102.808 279.12 104.862C279.179 103.906 279.179 102.948 279.12 101.992C278.922 100.505 278.338 96.351 278.021 94.112C276.576 96.879 275.527 98.2589 276.19 100.149Z" fill="#E5EBE1"/>
<path d="M20.1868 39.3737C21.0874 38.3337 17.4354 37.7947 17.0593 36.2147C16.6931 34.6357 16.327 30.0767 16.327 30.0767C16.327 30.0767 16.238 24.2227 17.8907 23.1997C19.5435 22.1777 26.5307 20.2267 29.0149 24.8737C31.4891 29.5207 27.4511 33.7957 27.3521 36.5837C27.2631 39.3707 32.1422 47.2707 32.0432 53.2197C31.9542 59.1697 32.9637 86.4987 32.7855 90.2177C32.5975 93.9367 29.6581 92.5397 29.4701 94.6787C29.2919 96.8177 30.7171 112.898 32.3699 117.499C34.0227 122.1 24.5118 124.191 20.0977 123.634C15.6837 123.077 1.62017 123.214 0.511715 120.984C-0.586842 118.753 6.16288 108.574 6.85567 101.325C7.54845 94.0757 11.2697 77.9047 11.4082 71.1387C11.5468 64.3727 12.6453 60.1917 11.7546 58.2407C10.854 56.2907 6.50924 52.9427 7.06346 49.1787C7.61769 45.4147 12.0317 51.1977 13.9616 51.7487C15.8915 52.3007 16.901 43.1607 20.1868 39.3737Z" fill="#E5EBE1"/>
<path d="M7.67619 48.0914C28.5785 58.2784 44.0672 53.1694 53.4 47.0914C63.5344 40.4884 68.7995 31.3484 68.849 31.2574L69.4527 31.6084C69.4032 31.7004 64.0688 40.9734 53.8057 47.6714C47.7685 51.6074 41.2267 53.9035 34.3681 54.4915C33.1904 54.5945 32.0028 54.6454 30.8053 54.6434C23.3034 54.6434 15.4354 52.6614 7.35954 48.7254L7.67619 48.0914Z" fill="#E5EBE1"/>
<path d="M178.161 38.5367C193.689 54.1257 208.425 55.3128 218.065 53.5878C228.506 51.7018 235.375 46.0537 235.444 45.9957L235.761 46.3837C235.691 46.4417 228.744 52.1628 218.184 54.0758C212.008 55.2048 205.664 54.8087 199.677 52.9217C192.096 50.5627 184.742 45.8428 177.814 38.8997L178.161 38.5367Z" fill="#E5EBE1"/>
</svg>
