<svg width="21" height="20" viewBox="0 0 21 20" fill="" xmlns="http://www.w3.org/2000/svg">
<path d="M19.2283 0.000366211H1.43733C0.828112 0.000366211 0.333496 0.493994 0.333496 1.1042V18.8952C0.333496 19.5054 0.828112 19.9997 1.43733 19.9997H11.0155V12.2548H8.40937V9.23605H11.0155V7.00995C11.0155 4.42721 12.5925 3.02009 14.897 3.02009C16.0018 3.02009 16.9492 3.10275 17.2255 3.13864V5.83828L15.6271 5.83894C14.3741 5.83894 14.1324 6.43465 14.1324 7.3083V9.23506H17.1218L16.7309 12.2535H14.132V19.9987H19.228C19.8379 19.9987 20.3328 19.5038 20.3328 18.8952V1.10354C20.3325 0.493994 19.8382 0.000366211 19.2283 0.000366211Z" fill="#1877F2"/>
</svg>
