<svg width="1920" height="462" viewBox="0 0 1920 462" fill="none" xmlns="http://www.w3.org/2000/svg">
<g clip-path="url(#clip0_523_27807)">
<g clip-path="url(#clip1_523_27807)">
<path fill-rule="evenodd" clip-rule="evenodd" d="M411.16 321.419L409.595 320.922C409.735 320.499 423.301 276.978 424.014 245.089L425.616 245.125C424.94 277.251 411.306 320.959 411.16 321.407V321.419Z" fill="#E5EBE1"/>
<path fill-rule="evenodd" clip-rule="evenodd" d="M424.735 245.784C424.735 245.784 442.718 249.852 427.477 271.646C427.833 269.24 428.902 263.402 428.689 261.492C428.281 263.562 427.709 265.597 426.98 267.578C426.98 267.578 428.439 257.212 428.403 254.591L427.087 260.36C426.654 255.452 425.868 250.581 424.735 245.784Z" fill="#E5EBE1"/>
<path fill-rule="evenodd" clip-rule="evenodd" d="M423.657 245.784C423.657 245.784 431.277 242.492 437.936 246.844C444.594 251.196 443.775 260.535 438.079 264.687C439.288 260.547 438.935 256.267 438.935 256.267C438.935 256.267 438.009 260.053 436.76 261.221C437.439 258.355 437.829 253.897 436.547 251.742C436.827 254.112 436.297 256.091 435.943 256.761C435.907 254.53 434.768 250.108 432.523 248.692C434.092 251.452 433.735 253.71 433.735 253.71C433.735 253.71 430.245 246.28 423.657 245.787V245.784Z" fill="#E5EBE1"/>
<path fill-rule="evenodd" clip-rule="evenodd" d="M423.837 246.809C423.837 246.809 427.042 239.165 434.875 237.715C442.709 236.265 448.655 243.517 447.409 250.453C445.378 246.631 442.174 243.801 442.174 243.801C442.174 243.801 444.138 247.16 444.062 248.819C442.53 246.344 439.718 242.839 437.297 242.167C439.149 243.689 440.145 245.493 440.358 246.235C438.792 244.643 434.839 242.237 432.275 242.769C435.302 243.689 436.621 245.53 436.621 245.53C436.621 245.53 428.93 242.627 423.837 246.804V246.809Z" fill="#E5EBE1"/>
<path fill-rule="evenodd" clip-rule="evenodd" d="M425.082 246.383C425.082 246.383 406.673 245.546 415.503 270.585C415.784 268.179 416.322 262.269 417.071 260.465C416.909 262.573 416.909 264.691 417.071 266.799C417.071 266.799 418.46 256.431 419.207 253.919C419.064 256.325 418.926 259.793 418.926 259.793C420.647 255.18 422.706 250.698 425.085 246.383H425.082Z" fill="#E5EBE1"/>
<path fill-rule="evenodd" clip-rule="evenodd" d="M426.115 246.667C426.115 246.667 419.662 241.465 412.086 243.907C404.51 246.349 402.757 255.547 407.173 261.067C407.183 258.222 407.657 255.397 408.576 252.703C408.576 252.703 408.469 256.606 409.359 258.045C409.502 255.109 410.318 250.684 412.1 248.953C411.211 251.184 411.211 253.199 411.351 253.972C411.994 251.814 414.308 247.838 416.8 247.107C414.555 249.338 414.308 251.599 414.308 251.599C414.308 251.599 419.684 245.41 426.129 246.647L426.115 246.667Z" fill="#E5EBE1"/>
<path fill-rule="evenodd" clip-rule="evenodd" d="M425.653 247.62C425.653 247.62 424.62 239.413 417.499 235.947C410.378 232.482 402.65 237.857 401.974 244.869C404.965 241.718 408.809 239.85 408.809 239.85C408.809 239.85 406.034 242.574 405.641 244.2C407.777 242.22 411.447 239.602 413.938 239.602C411.73 240.556 410.341 242.008 409.915 242.669C411.879 241.537 416.287 240.296 418.638 241.501C415.434 241.571 413.688 243.023 413.688 243.023C413.688 243.023 421.879 242.242 425.653 247.62Z" fill="#E5EBE1"/>
<path fill-rule="evenodd" clip-rule="evenodd" d="M426.365 247.305C426.365 247.305 423.411 239.557 428.074 233.153C432.737 226.749 442.103 227.953 445.984 233.825C441.89 232.431 437.58 232.587 437.58 232.587C437.58 232.587 441.32 233.683 442.46 234.957C439.612 234.179 435.164 233.577 432.92 234.745C435.341 234.569 437.263 235.205 437.97 235.595C435.692 235.523 431.205 236.479 429.673 238.601C432.521 237.187 434.766 237.647 434.766 237.647C434.766 237.647 427.19 240.795 426.348 247.305H426.365Z" fill="#E5EBE1"/>
<path fill-rule="evenodd" clip-rule="evenodd" d="M423.944 246.98C423.944 246.98 429.32 240.682 427.078 233.077C424.836 225.471 415.647 223.489 409.985 227.732C414.328 227.768 418.318 229.36 418.318 229.36C418.318 229.36 414.438 229.148 412.942 229.962C415.897 230.174 420.31 231.131 421.985 232.934C419.777 231.978 417.749 231.945 416.966 232.084C419.137 232.756 423.018 235.151 423.731 237.674C421.522 235.377 419.278 235.056 419.278 235.056C419.278 235.056 425.366 240.576 423.944 246.98Z" fill="#E5EBE1"/>
<path fill-rule="evenodd" clip-rule="evenodd" d="M411.16 321.419L409.628 320.861C409.771 320.434 442.886 245.959 446.52 203.255L448.156 203.361C441.747 253.104 411.303 321.014 411.16 321.427V321.419Z" fill="#E5EBE1"/>
<path fill-rule="evenodd" clip-rule="evenodd" d="M447.23 203.961C447.23 203.961 465.036 208.739 448.941 229.889C449.404 227.516 450.72 221.714 450.577 219.805C450.068 221.853 449.411 223.863 448.613 225.818C448.613 225.818 450.465 215.522 450.538 212.904C449.932 215.205 449.006 218.6 449.006 218.6C448.761 213.682 448.165 208.787 447.224 203.952L447.23 203.961Z" fill="#E5EBE1"/>
<path fill-rule="evenodd" clip-rule="evenodd" d="M446.163 203.927C446.163 203.927 453.924 200.919 460.369 205.555C466.815 210.192 465.675 219.459 459.808 223.351C461.211 219.247 461.02 214.987 461.02 214.987C461.02 214.987 459.951 218.701 458.669 219.833C459.415 217.003 460.022 212.545 458.846 210.353C458.989 212.759 458.383 214.672 458.004 215.344C458.074 213.114 457.078 208.653 454.943 207.136C456.365 209.966 455.939 212.193 455.939 212.193C455.939 212.193 452.735 204.666 446.183 203.916L446.163 203.927Z" fill="#E5EBE1"/>
<path fill-rule="evenodd" clip-rule="evenodd" d="M446.304 204.953C446.304 204.953 449.831 197.451 457.698 196.31C465.566 195.17 471.231 202.645 469.735 209.509C467.847 205.605 464.75 202.645 464.75 202.645C464.75 202.645 466.565 206.077 466.433 207.775C465.008 205.193 462.336 201.619 459.952 200.841C461.73 202.433 462.656 204.237 462.836 205.023C461.34 203.35 457.505 200.841 454.895 201.237C457.92 202.299 459.132 204.209 459.132 204.209C459.132 204.209 451.584 200.989 446.312 204.953H446.304Z" fill="#E5EBE1"/>
<path fill-rule="evenodd" clip-rule="evenodd" d="M447.585 204.564C447.585 204.564 429.176 203.008 437.046 228.376C437.403 225.97 438.186 220.096 438.968 218.339C438.729 220.441 438.645 222.557 438.719 224.671C438.719 224.671 440.537 214.375 441.39 211.899C441.177 214.269 440.857 217.773 440.857 217.773C442.786 213.222 445.036 208.811 447.591 204.575L447.585 204.564Z" fill="#E5EBE1"/>
<path fill-rule="evenodd" clip-rule="evenodd" d="M448.585 204.883C448.585 204.883 442.317 199.435 434.662 201.593C427.008 203.751 424.906 212.879 429.07 218.541C429.213 214.225 430.815 210.261 430.815 210.261C430.815 210.261 430.566 214.119 431.377 215.605C431.626 212.703 432.622 208.315 434.463 206.653C433.467 208.847 433.397 210.863 433.504 211.641C434.213 209.519 436.671 205.663 439.236 204.991C436.921 207.149 436.565 209.377 436.565 209.377C436.565 209.377 442.154 203.397 448.565 204.883H448.585Z" fill="#E5EBE1"/>
<path fill-rule="evenodd" clip-rule="evenodd" d="M448.085 205.838C448.085 205.838 447.372 197.594 440.394 193.85C433.416 190.105 425.475 195.193 424.513 202.163C426.597 200.215 428.977 198.604 431.564 197.387C431.564 197.387 428.679 200.005 428.216 201.634C430.424 199.724 434.198 197.245 436.69 197.351C434.482 198.238 432.986 199.651 432.56 200.29C434.555 199.228 439.013 198.165 441.32 199.453C438.115 199.384 436.297 200.764 436.297 200.764C436.297 200.764 444.524 200.337 448.082 205.857L448.085 205.838Z" fill="#E5EBE1"/>
<path fill-rule="evenodd" clip-rule="evenodd" d="M448.798 205.556C448.798 205.556 446.164 197.7 451.077 191.474C455.99 185.249 465.319 186.838 468.953 192.854C464.893 191.296 460.619 191.262 460.619 191.262C460.619 191.262 464.323 192.534 465.356 193.844C462.578 192.96 458.128 192.171 455.883 193.242C458.268 193.172 460.193 193.88 460.869 194.304C458.624 194.128 454.068 194.906 452.451 196.992C455.37 195.684 457.578 196.214 457.578 196.214C457.578 196.214 449.85 199.08 448.784 205.556H448.798Z" fill="#E5EBE1"/>
<path fill-rule="evenodd" clip-rule="evenodd" d="M446.377 205.13C446.377 205.13 452.039 199.046 450.08 191.368C448.122 183.69 439.042 181.354 433.245 185.352C437.589 185.564 441.506 187.303 441.506 187.303C441.506 187.303 437.625 186.949 436.093 187.73C439.014 188.048 443.388 189.143 445.033 191.053C442.858 189.994 440.824 189.852 440.047 189.957C442.148 190.735 445.959 193.284 446.562 195.832C444.463 193.459 442.218 193.072 442.218 193.072C442.218 193.072 448.094 198.768 446.385 205.135L446.377 205.13Z" fill="#E5EBE1"/>
<path d="M141.323 189.353H-59.5674V325.659H141.323V189.353Z" fill="#F7FAF4"/>
<path d="M98.2962 154.355H-16.6416V189.353H98.2962V154.355Z" fill="#F7FAF4"/>
<path d="M137.737 170.843H115.165V189.353H137.737V170.843Z" fill="#F7FAF4"/>
<path fill-rule="evenodd" clip-rule="evenodd" d="M41.4829 29.5791V42.7384C41.8871 43.2436 42.1297 44.2056 42.1297 45.2679C42.16 46.0492 42.0037 46.8264 41.6737 47.5351C42.3819 48.2411 42.8347 49.8022 42.8347 51.6322C42.8347 53.6046 42.2817 55.2726 41.4732 55.8783V72.9759H40.1603V55.8783C39.3518 55.2726 38.7471 53.6111 38.7471 51.6322C38.7471 49.812 39.2516 48.2411 39.9565 47.5351C39.6102 46.8305 39.4373 46.0531 39.4521 45.2679C39.4521 44.2056 39.756 43.2436 40.1603 42.7384V29.5305C37.9954 29.299 35.9098 28.5845 34.0568 27.4396C32.2038 26.2947 30.6305 24.7485 29.4526 22.9147C28.2747 21.0808 27.522 19.0059 27.25 16.8424C26.9779 14.6789 27.1934 12.4819 27.8806 10.4128C28.5677 8.3437 29.7091 6.45511 31.2208 4.88585C32.7325 3.31659 34.5761 2.10654 36.6161 1.34464C38.6561 0.58275 40.8407 0.288365 43.0092 0.483147C45.1777 0.677928 47.2751 1.35692 49.1472 2.4702C47.1184 1.88707 44.9669 1.88707 42.9381 2.4702C41.4365 2.86628 40.0277 3.55554 38.7928 4.49842C37.5578 5.44129 36.521 6.6192 35.7418 7.9645C34.9627 9.30981 34.4565 10.796 34.2525 12.3378C34.0484 13.8796 34.1505 15.4465 34.5527 16.9487C34.955 18.4508 35.6496 19.8586 36.5966 21.0912C37.5436 22.3237 38.7244 23.3568 40.0712 24.131C41.418 24.9053 42.9042 25.4054 44.4445 25.6028C45.9848 25.8002 47.5489 25.6909 49.0469 25.2812C51.1007 24.7396 52.9722 23.6571 54.4669 22.146C53.5116 23.8457 52.2292 25.3387 50.6937 26.5384C49.1583 27.7382 47.4005 28.6209 45.522 29.1354C44.2049 29.4828 42.8441 29.6356 41.4829 29.5888V29.5791Z" fill="#F7FAF4"/>
<path d="M408.973 267.849H303.782V347.43H408.973V267.849Z" fill="#F7FAF4"/>
<path d="M408.973 255.104H303.782V267.849H408.973V255.104Z" fill="#F7FAF4"/>
<path d="M395.036 241.702H372.464V255.104H395.036V241.702Z" fill="#F7FAF4"/>
<path d="M390.591 166.646H376.905V187.788H390.591V166.646Z" fill="#F7FAF4"/>
<path fill-rule="evenodd" clip-rule="evenodd" d="M388.571 164.217C389.732 158.756 384.48 158.387 383.775 156.023C383.067 158.4 377.763 158.756 378.924 164.217H388.571Z" fill="#F7FAF4"/>
<path d="M388.574 164.216H378.927V166.645H388.574V164.216Z" fill="#F7FAF4"/>
<path d="M390.591 187.786H376.905V241.702H390.591V187.786Z" fill="#F7FAF4"/>
<path fill-rule="evenodd" clip-rule="evenodd" d="M395.591 187.786H371.907V191.834H371.958C372.612 191.837 373.258 191.968 373.861 192.222C374.463 192.475 375.01 192.845 375.47 193.31C375.929 193.775 376.293 194.326 376.539 194.932C376.786 195.538 376.91 196.187 376.906 196.841H390.592C390.589 196.183 390.716 195.531 390.966 194.922C391.216 194.313 391.585 193.76 392.049 193.294C392.514 192.829 393.067 192.46 393.675 192.209C394.283 191.959 394.934 191.831 395.591 191.834V187.786Z" fill="#F7FAF4"/>
<path d="M293.122 133.011H260.147V228.3H293.122V133.011Z" fill="#F7FAF4"/>
<path fill-rule="evenodd" clip-rule="evenodd" d="M264.992 127.194H288.276C291.102 113.944 278.377 113.186 276.66 107.317C274.891 113.186 262.217 113.944 264.995 127.194H264.992Z" fill="#F7FAF4"/>
<path d="M303.782 228.3H141.323V325.662H303.782V228.3Z" fill="#F7FAF4"/>
<path d="M249.796 204.374H141.323V228.296H249.796V204.374Z" fill="#F7FAF4"/>
<path d="M235.858 179.743H155.261V204.374H235.858V179.743Z" fill="#F7FAF4"/>
<path fill-rule="evenodd" clip-rule="evenodd" d="M276.957 94.2346V100.842C277.206 101.216 277.33 101.659 277.31 102.108C277.315 102.51 277.229 102.908 277.057 103.271C277.41 103.624 277.662 104.382 277.662 105.292C277.662 106.306 277.361 107.164 276.957 107.469V116.068H276.31V107.469C275.906 107.164 275.602 106.306 275.602 105.292C275.602 104.382 275.854 103.624 276.207 103.271C276.037 102.907 275.951 102.51 275.955 102.108C275.934 101.659 276.058 101.215 276.31 100.842V94.1666C274.837 94.0186 273.446 93.4196 272.325 92.4512C271.204 91.4828 270.408 90.192 270.046 88.7545C269.657 87.3447 269.699 85.8502 270.167 84.4646C270.635 83.079 271.508 81.8662 272.673 80.9833C273.837 80.1004 275.24 79.588 276.698 79.5126C278.157 79.4372 279.605 79.8022 280.854 80.5603C279.974 80.3162 279.049 80.2785 278.152 80.4502C277.255 80.6219 276.41 80.9984 275.682 81.5505C274.954 82.1025 274.363 82.8152 273.954 83.6333C273.546 84.4513 273.331 85.3526 273.327 86.2672C273.323 87.1818 273.53 88.085 273.931 88.9067C274.332 89.7284 274.916 90.4464 275.639 91.005C276.363 91.5637 277.204 91.9478 278.1 92.1276C278.995 92.3074 279.92 92.2781 280.802 92.0419C281.823 91.7442 282.759 91.2068 283.531 90.4743C282.876 91.6364 281.919 92.5994 280.761 93.2613C279.604 93.9233 278.29 94.2596 276.957 94.2346Z" fill="#F7FAF4"/>
<path fill-rule="evenodd" clip-rule="evenodd" d="M53.8217 154.354C42.6616 139.99 35.4404 117.635 35.4404 92.4468C35.4404 79.3976 37.3581 67.1063 40.7924 56.2822C49.3783 85.0623 112.151 88.9553 98.3131 154.354H53.8217Z" fill="#F7FAF4"/>
<path fill-rule="evenodd" clip-rule="evenodd" d="M235.857 179.74H204.648C196.822 169.726 191.771 153.998 191.771 136.34C191.771 127.184 193.136 118.527 195.558 110.948C201.569 131.181 245.604 133.911 235.857 179.734V179.74Z" fill="#F7FAF4"/>
<path fill-rule="evenodd" clip-rule="evenodd" d="M363.273 239.729H343.779C338.88 233.458 335.695 223.645 335.695 212.568C335.671 207.187 336.471 201.835 338.068 196.698C341.807 209.329 369.379 211.062 363.27 239.738L363.273 239.729Z" fill="#F7FAF4"/>
<path fill-rule="evenodd" clip-rule="evenodd" d="M18.3545 314.081H63.3989V259.154C63.3989 246.71 48.9565 239.378 40.8751 231.183C32.7905 239.378 18.3545 246.71 18.3545 259.154V314.081Z" fill="#E5EBE1"/>
<path fill-rule="evenodd" clip-rule="evenodd" d="M40.8859 233.204C38.0078 235.986 34.7254 238.467 31.6468 240.977C26.1913 245.579 19.8271 251.396 19.8271 259.137V314.064H61.9967V259.153C62.0023 257.425 61.6944 255.711 61.0878 254.094C58.006 245.799 47.5056 239.425 40.8859 233.204Z" fill="#F7FAF4"/>
<path fill-rule="evenodd" clip-rule="evenodd" d="M21.6377 314.08H60.1206V259.153C60.1317 257.648 59.8573 256.154 59.3121 254.751C57.5464 249.893 52.7991 245.699 48.9088 242.46C46.2829 240.235 43.505 238.062 40.8791 235.733C38.292 238.062 35.5271 240.235 32.8494 242.46C27.9016 246.609 21.6409 252.07 21.6409 259.153L21.6377 314.08Z" fill="#E5EBE1"/>
<path fill-rule="evenodd" clip-rule="evenodd" d="M82.1377 325.663H117.183V274.882C117.183 267.245 111.478 261.227 106.983 256.725C104.558 254.296 102.032 251.97 99.662 249.392C97.2883 251.983 94.7626 254.296 92.3373 256.725C87.8422 261.227 82.1377 267.245 82.1377 274.882V325.663Z" fill="#E5EBE1"/>
<path fill-rule="evenodd" clip-rule="evenodd" d="M98.2968 154.354H-16.641C-30.5466 88.9553 32.2937 85.0623 40.7761 56.2822C49.362 85.0623 112.135 88.9553 98.2968 154.354Z" fill="#F7FAF4"/>
<path fill-rule="evenodd" clip-rule="evenodd" d="M24.1123 177.671H32.2422V172.615C32.2422 170.643 30.9292 169.075 29.8685 167.912C29.3123 167.307 28.7076 166.698 28.1514 166.04C27.5951 166.688 27.0421 167.307 26.4342 167.912C25.4252 169.075 24.1123 170.643 24.1123 172.615V177.671Z" fill="#E5EBE1"/>
<path fill-rule="evenodd" clip-rule="evenodd" d="M-0.685909 177.671H6.42858V172.615C6.42858 170.643 5.26762 169.075 4.3589 167.912C3.85442 167.307 3.34994 166.698 2.84222 166.04C2.38948 166.688 1.87208 167.307 1.38053 167.912C0.471817 169.075 -0.692383 170.643 -0.692383 172.615L-0.685909 177.671Z" fill="#E5EBE1"/>
<path fill-rule="evenodd" clip-rule="evenodd" d="M11.4873 177.671H19.3132V172.615C19.3132 170.643 18.052 169.075 17.0495 167.912C16.5418 167.307 15.937 166.698 15.4326 166.04C14.8763 166.688 14.3201 167.307 13.7671 167.912C12.7549 169.075 11.5034 170.643 11.5034 172.615L11.4873 177.671Z" fill="#E5EBE1"/>
<path fill-rule="evenodd" clip-rule="evenodd" d="M45.1181 177.671H36.5322V172.615C36.5322 170.643 37.8969 169.075 39.0094 167.912C39.6141 167.307 40.2188 166.698 40.8268 166.04C41.383 166.688 42.0395 167.307 42.5925 167.912C43.7049 169.075 45.1181 170.643 45.1181 172.615V177.671Z" fill="#E5EBE1"/>
<path fill-rule="evenodd" clip-rule="evenodd" d="M57.5424 177.671H49.4092V172.615C49.4092 170.643 50.7254 169.075 51.7829 167.912C52.3391 167.307 52.8953 166.698 53.4515 166.04C54.0078 166.688 54.6125 167.307 55.1687 167.912C56.2294 169.075 57.5424 170.643 57.5424 172.615V177.671Z" fill="#E5EBE1"/>
<path fill-rule="evenodd" clip-rule="evenodd" d="M82.3377 177.671H75.165V172.615C75.165 170.643 76.326 169.075 77.2347 167.912C77.7392 167.307 78.2954 166.698 78.7481 166.04C79.2558 166.688 79.7603 167.307 80.2648 167.912C81.1735 169.075 82.3345 170.643 82.3345 172.615L82.3377 177.671Z" fill="#E5EBE1"/>
<path fill-rule="evenodd" clip-rule="evenodd" d="M92.389 177.671H88.0459V172.615C88.0459 170.643 88.7509 169.075 89.3071 167.912C89.6111 167.307 89.9151 166.698 90.2158 166.04C90.5198 166.688 90.8238 167.307 91.1245 167.912C91.6808 169.075 92.389 170.643 92.389 172.615V177.671Z" fill="#E5EBE1"/>
<path fill-rule="evenodd" clip-rule="evenodd" d="M70.1159 177.671H62.29V172.615C62.29 170.643 63.5512 169.075 64.5537 167.912C65.1099 167.307 65.6661 166.698 66.2223 166.04C66.7268 166.688 67.2831 167.307 67.8393 167.912C68.8515 169.075 70.103 170.643 70.103 172.615L70.1159 177.671Z" fill="#E5EBE1"/>
<path d="M98.2968 154.354H-16.641L-16.6414 156.58H98.2964L98.2968 154.354Z" fill="#E5EBE1"/>
<path d="M98.2962 184.751H-16.6416V189.353H98.2962V184.751Z" fill="#E5EBE1"/>
<path d="M122.99 175.04H118.747V189.352H122.99V175.04Z" fill="#E5EBE1"/>
<path d="M134.151 175.04H129.96V189.352H134.151V175.04Z" fill="#E5EBE1"/>
<path fill-rule="evenodd" clip-rule="evenodd" d="M369.838 257.472C369.407 257.471 368.979 257.555 368.581 257.72C368.182 257.885 367.82 258.127 367.515 258.433C367.21 258.738 366.968 259.101 366.804 259.5C366.639 259.899 366.555 260.327 366.556 260.759V267.843H373.169V260.759C373.159 259.882 372.804 259.044 372.18 258.428C371.556 257.812 370.714 257.468 369.838 257.472Z" fill="#E5EBE1"/>
<path fill-rule="evenodd" clip-rule="evenodd" d="M382.059 257.472C381.342 257.466 380.652 257.745 380.14 258.248C379.629 258.75 379.337 259.436 379.329 260.154V267.843H384.733V260.154C384.729 259.444 384.446 258.765 383.945 258.263C383.445 257.761 382.767 257.477 382.059 257.472Z" fill="#E5EBE1"/>
<path fill-rule="evenodd" clip-rule="evenodd" d="M392.865 257.472C392.151 257.474 391.466 257.756 390.956 258.257C390.446 258.758 390.152 259.439 390.136 260.154V267.843H395.591V260.154C395.584 259.436 395.292 258.751 394.781 258.249C394.27 257.746 393.581 257.467 392.865 257.472Z" fill="#E5EBE1"/>
<path fill-rule="evenodd" clip-rule="evenodd" d="M402.712 257.472C401.995 257.466 401.305 257.745 400.794 258.248C400.282 258.75 399.99 259.436 399.983 260.154V267.843H405.387V260.154C405.382 259.444 405.099 258.765 404.599 258.263C404.098 257.761 403.42 257.477 402.712 257.472Z" fill="#E5EBE1"/>
<path fill-rule="evenodd" clip-rule="evenodd" d="M356.403 257.472C356.956 257.469 357.504 257.576 358.016 257.786C358.527 257.997 358.992 258.307 359.383 258.698C359.774 259.09 360.083 259.555 360.293 260.068C360.504 260.58 360.61 261.129 360.607 261.682V267.856H352.173V261.682C352.176 261.127 352.288 260.577 352.502 260.065C352.717 259.553 353.03 259.088 353.424 258.697C353.818 258.306 354.285 257.997 354.799 257.786C355.312 257.576 355.862 257.469 356.416 257.472H356.403Z" fill="#E5EBE1"/>
<path fill-rule="evenodd" clip-rule="evenodd" d="M342.927 257.472C343.803 257.468 344.647 257.812 345.271 258.428C345.896 259.044 346.251 259.882 346.262 260.759V267.843H339.646V260.759C339.645 260.327 339.728 259.899 339.893 259.5C340.057 259.101 340.299 258.738 340.604 258.433C340.909 258.127 341.272 257.885 341.671 257.72C342.069 257.555 342.496 257.471 342.927 257.472Z" fill="#E5EBE1"/>
<path fill-rule="evenodd" clip-rule="evenodd" d="M330.75 257.472C331.464 257.475 332.148 257.757 332.657 258.258C333.167 258.759 333.46 259.439 333.476 260.154V267.843H328.021V260.154C328.029 259.436 328.32 258.75 328.832 258.248C329.344 257.745 330.033 257.466 330.75 257.472Z" fill="#E5EBE1"/>
<path fill-rule="evenodd" clip-rule="evenodd" d="M319.891 257.472C320.608 257.466 321.297 257.745 321.809 258.248C322.321 258.75 322.613 259.436 322.62 260.154V267.843H317.216V260.154C317.221 259.444 317.504 258.765 318.004 258.263C318.505 257.761 319.183 257.477 319.891 257.472Z" fill="#E5EBE1"/>
<path d="M312.772 255.104H303.782V267.85H312.772V255.104Z" fill="#E5EBE1"/>
<path fill-rule="evenodd" clip-rule="evenodd" d="M363.269 239.729C369.377 211.052 341.806 209.332 338.067 196.688C334.332 209.319 306.757 211.052 312.817 239.729H363.269Z" fill="#F7FAF4"/>
<path d="M363.269 239.729L312.821 239.73V255.104H363.269L363.269 239.729Z" fill="#F7FAF4"/>
<path fill-rule="evenodd" clip-rule="evenodd" d="M339.94 249.998H336.202V247.773C336.202 246.911 336.809 246.205 337.262 245.7C337.514 245.447 337.818 245.195 338.071 244.89C338.323 245.195 338.575 245.447 338.827 245.7C339.335 246.205 339.94 246.911 339.94 247.773V249.998Z" fill="#E5EBE1"/>
<path fill-rule="evenodd" clip-rule="evenodd" d="M345.392 249.998H341.858V247.773C341.858 246.911 342.414 246.205 342.87 245.7C343.122 245.447 343.374 245.195 343.627 244.89C343.879 245.195 344.131 245.447 344.383 245.7C344.839 246.205 345.392 246.911 345.392 247.773V249.998Z" fill="#E5EBE1"/>
<path fill-rule="evenodd" clip-rule="evenodd" d="M356.304 249.998H353.171V247.773C353.171 246.911 353.675 246.205 354.079 245.7C354.283 245.447 354.483 245.195 354.726 244.89C354.914 245.181 355.131 245.452 355.373 245.7C355.777 246.205 356.285 246.911 356.285 247.773L356.304 249.998Z" fill="#E5EBE1"/>
<path fill-rule="evenodd" clip-rule="evenodd" d="M360.694 249.998H358.825V247.773C358.854 247.055 359.025 246.351 359.329 245.7C359.494 245.446 359.63 245.175 359.733 244.89C359.885 245.195 359.985 245.447 360.137 245.7C360.484 246.337 360.675 247.047 360.694 247.773V249.998Z" fill="#E5EBE1"/>
<path fill-rule="evenodd" clip-rule="evenodd" d="M350.949 249.998H347.515V247.773C347.515 246.911 348.071 246.205 348.485 245.7C348.737 245.447 348.989 245.195 349.241 244.89C349.45 245.183 349.688 245.454 349.95 245.7C350.402 246.205 350.959 246.911 350.959 247.773L350.949 249.998Z" fill="#E5EBE1"/>
<path fill-rule="evenodd" clip-rule="evenodd" d="M336.202 249.998H339.94V247.773C339.94 246.911 339.335 246.205 338.827 245.7C338.575 245.447 338.323 245.195 338.071 244.89C337.818 245.195 337.514 245.447 337.262 245.7C336.809 246.205 336.202 246.911 336.202 247.773V249.998Z" fill="#E5EBE1"/>
<path fill-rule="evenodd" clip-rule="evenodd" d="M330.749 249.998H334.284V247.773C334.284 246.911 333.728 246.205 333.275 245.7C333.008 245.443 332.754 245.173 332.515 244.89C332.263 245.195 332.011 245.447 331.758 245.7C331.306 246.205 330.749 246.911 330.749 247.773V249.998Z" fill="#E5EBE1"/>
<path fill-rule="evenodd" clip-rule="evenodd" d="M319.841 249.998H322.972V247.773C322.972 246.911 322.467 246.205 322.063 245.7C321.834 245.441 321.618 245.171 321.416 244.89C321.212 245.195 320.96 245.447 320.769 245.7C320.365 246.205 319.861 246.911 319.861 247.773L319.841 249.998Z" fill="#E5EBE1"/>
<path fill-rule="evenodd" clip-rule="evenodd" d="M315.44 249.998H317.309V247.773C317.29 247.047 317.1 246.337 316.753 245.7C316.653 245.447 316.501 245.195 316.349 244.89C316.249 245.195 316.097 245.447 315.996 245.7C315.65 246.337 315.459 247.047 315.44 247.773V249.998Z" fill="#E5EBE1"/>
<path fill-rule="evenodd" clip-rule="evenodd" d="M325.194 249.998H328.628V247.773C328.628 246.911 328.072 246.205 327.619 245.7C327.415 245.447 327.163 245.195 326.911 244.89C326.702 245.183 326.465 245.454 326.203 245.7C325.75 246.205 325.194 246.911 325.194 247.773V249.998Z" fill="#E5EBE1"/>
<path d="M363.269 239.729L312.821 239.73V240.74H363.269L363.269 239.729Z" fill="#E5EBE1"/>
<path d="M391.45 244.784H387.259V255.103H391.45V244.784Z" fill="#E5EBE1"/>
<path d="M380.289 244.784H376.046V255.103H380.289V244.784Z" fill="#E5EBE1"/>
<path d="M388.419 171.448H385.845V187.785H388.419V171.448Z" fill="#E5EBE1"/>
<path d="M381.649 171.448H379.075V187.785H381.649V171.448Z" fill="#E5EBE1"/>
<path fill-rule="evenodd" clip-rule="evenodd" d="M385.693 165.228C385.566 165.226 385.444 165.272 385.35 165.357C385.258 165.442 385.199 165.559 385.188 165.685V166.657H386.158V165.685C386.158 165.625 386.146 165.566 386.124 165.51C386.101 165.455 386.067 165.405 386.025 165.362C385.982 165.32 385.932 165.286 385.877 165.263C385.821 165.24 385.762 165.228 385.702 165.228H385.693Z" fill="#E5EBE1"/>
<path fill-rule="evenodd" clip-rule="evenodd" d="M387.409 165.227C387.358 165.228 387.308 165.24 387.262 165.261C387.217 165.283 387.176 165.314 387.143 165.352C387.11 165.39 387.085 165.434 387.07 165.483C387.055 165.531 387.05 165.582 387.056 165.632V166.646H387.813V165.632C387.818 165.578 387.811 165.523 387.792 165.472C387.774 165.42 387.744 165.374 387.705 165.335C387.667 165.296 387.62 165.267 387.569 165.248C387.518 165.229 387.463 165.222 387.409 165.227Z" fill="#E5EBE1"/>
<path fill-rule="evenodd" clip-rule="evenodd" d="M383.775 165.226C383.935 165.23 384.087 165.295 384.2 165.409C384.313 165.522 384.377 165.675 384.38 165.835V166.645H383.167V165.835C383.164 165.754 383.177 165.674 383.207 165.599C383.236 165.523 383.281 165.455 383.338 165.398C383.395 165.34 383.463 165.296 383.538 165.266C383.614 165.237 383.694 165.223 383.775 165.226Z" fill="#E5EBE1"/>
<path fill-rule="evenodd" clip-rule="evenodd" d="M381.855 165.228C381.915 165.228 381.974 165.24 382.029 165.263C382.085 165.286 382.135 165.32 382.177 165.362C382.22 165.405 382.253 165.455 382.276 165.51C382.299 165.566 382.311 165.625 382.311 165.685V166.657H381.341V165.685C381.351 165.559 381.409 165.442 381.503 165.357C381.597 165.272 381.719 165.226 381.845 165.228H381.855Z" fill="#E5EBE1"/>
<path fill-rule="evenodd" clip-rule="evenodd" d="M380.088 165.228C380.141 165.228 380.194 165.238 380.243 165.258C380.292 165.279 380.337 165.308 380.375 165.346C380.412 165.384 380.442 165.428 380.462 165.478C380.482 165.527 380.493 165.58 380.492 165.633V166.647H379.732V165.633C379.726 165.583 379.731 165.532 379.746 165.483C379.761 165.434 379.787 165.39 379.82 165.351C379.854 165.313 379.895 165.283 379.941 165.261C379.987 165.24 380.037 165.229 380.088 165.228Z" fill="#E5EBE1"/>
<path d="M388.574 164.216H378.927V164.417H388.574V164.216Z" fill="#E5EBE1"/>
<path d="M312.772 267.85H303.782L303.782 347.43H312.772L312.772 267.85Z" fill="#E5EBE1"/>
<path d="M288.28 127.194H264.999V133.011H288.28V127.194Z" fill="#F7FAF4"/>
<path fill-rule="evenodd" clip-rule="evenodd" d="M281.258 129.57C280.964 129.573 280.683 129.691 280.474 129.899C280.266 130.108 280.148 130.39 280.146 130.684V133.01H282.41V130.684C282.407 130.535 282.375 130.387 282.315 130.25C282.255 130.113 282.169 129.989 282.061 129.885C281.953 129.781 281.826 129.7 281.686 129.646C281.547 129.592 281.397 129.566 281.249 129.57H281.258Z" fill="#E5EBE1"/>
<path fill-rule="evenodd" clip-rule="evenodd" d="M285.5 129.571C285.376 129.564 285.252 129.583 285.135 129.625C285.018 129.667 284.911 129.733 284.821 129.818C284.73 129.903 284.657 130.006 284.607 130.12C284.558 130.234 284.531 130.357 284.53 130.481V133.011H286.399V130.481C286.4 130.362 286.376 130.243 286.331 130.133C286.285 130.022 286.219 129.921 286.134 129.837C286.05 129.752 285.949 129.685 285.839 129.64C285.728 129.594 285.61 129.571 285.491 129.571H285.5Z" fill="#E5EBE1"/>
<path fill-rule="evenodd" clip-rule="evenodd" d="M276.663 129.571C277.035 129.579 277.39 129.731 277.653 129.995C277.916 130.258 278.068 130.614 278.076 130.987V133.011H275.198V130.987C275.209 130.606 275.369 130.244 275.642 129.98C275.916 129.715 276.283 129.568 276.663 129.571Z" fill="#E5EBE1"/>
<path fill-rule="evenodd" clip-rule="evenodd" d="M272.015 129.57C272.309 129.573 272.591 129.691 272.799 129.899C273.007 130.108 273.125 130.39 273.127 130.684V133.01H270.864V130.684C270.866 130.535 270.898 130.387 270.958 130.25C271.018 130.113 271.104 129.989 271.212 129.885C271.32 129.781 271.447 129.7 271.587 129.646C271.726 129.592 271.875 129.566 272.025 129.57H272.015Z" fill="#E5EBE1"/>
<path fill-rule="evenodd" clip-rule="evenodd" d="M267.825 129.571C267.944 129.571 268.063 129.594 268.173 129.64C268.284 129.685 268.384 129.752 268.468 129.837C268.553 129.921 268.62 130.022 268.665 130.133C268.711 130.243 268.734 130.362 268.733 130.481V133.011H266.864V130.481C266.865 130.357 266.892 130.234 266.942 130.12C266.992 130.006 267.064 129.903 267.155 129.818C267.246 129.733 267.353 129.667 267.469 129.625C267.586 129.583 267.71 129.564 267.835 129.571H267.825Z" fill="#E5EBE1"/>
<path d="M288.28 127.194H264.999V127.651H288.28V127.194Z" fill="#E5EBE1"/>
<path fill-rule="evenodd" clip-rule="evenodd" d="M217.173 212.265C215.761 212.263 214.406 212.82 213.404 213.815C212.401 214.811 211.832 216.163 211.821 217.576V228.3H222.493V217.576C222.493 216.167 221.934 214.816 220.939 213.82C219.945 212.824 218.596 212.265 217.189 212.265H217.173Z" fill="#E5EBE1"/>
<path fill-rule="evenodd" clip-rule="evenodd" d="M236.719 212.265C235.57 212.273 234.47 212.734 233.658 213.548C232.845 214.362 232.385 215.463 232.376 216.614V228.3H241.062V216.614C241.054 215.463 240.594 214.362 239.781 213.548C238.968 212.734 237.869 212.273 236.719 212.265Z" fill="#E5EBE1"/>
<path fill-rule="evenodd" clip-rule="evenodd" d="M195.558 212.265C196.446 212.265 197.327 212.44 198.148 212.781C198.969 213.121 199.715 213.621 200.344 214.25C200.972 214.88 201.471 215.627 201.811 216.449C202.151 217.272 202.326 218.153 202.326 219.044V228.3H188.792V219.044C188.792 217.246 189.505 215.523 190.774 214.251C192.042 212.98 193.763 212.266 195.558 212.265Z" fill="#E5EBE1"/>
<path fill-rule="evenodd" clip-rule="evenodd" d="M173.946 212.265C175.358 212.263 176.713 212.82 177.715 213.815C178.718 214.811 179.287 216.163 179.298 217.576V228.3H168.626V217.576C168.626 216.167 169.185 214.816 170.18 213.82C171.174 212.824 172.523 212.265 173.93 212.265H173.946Z" fill="#E5EBE1"/>
<path fill-rule="evenodd" clip-rule="evenodd" d="M154.395 212.265C155.544 212.273 156.644 212.734 157.457 213.548C158.27 214.362 158.73 215.463 158.738 216.614V228.3H150.052V216.614C150.061 215.463 150.521 214.362 151.334 213.548C152.146 212.734 153.246 212.273 154.395 212.265Z" fill="#E5EBE1"/>
<path d="M150.06 204.374H141.323V228.296H150.06V204.374Z" fill="#E5EBE1"/>
<path fill-rule="evenodd" clip-rule="evenodd" d="M155.261 179.739H235.858C245.605 133.917 201.579 131.186 195.61 110.954C189.549 131.186 145.514 133.917 155.261 179.739Z" fill="#F7FAF4"/>
<path fill-rule="evenodd" clip-rule="evenodd" d="M207.273 196.131H201.569V192.591C201.569 191.224 202.539 190.113 203.234 189.304C203.638 188.847 204.043 188.442 204.447 187.989C204.799 188.442 205.255 188.847 205.608 189.304C206.364 190.113 207.273 191.224 207.273 192.591V196.131Z" fill="#E5EBE1"/>
<path fill-rule="evenodd" clip-rule="evenodd" d="M224.697 196.131H219.698V192.591C219.698 191.224 220.506 190.113 221.111 189.304C221.467 188.847 221.819 188.442 222.171 187.989C222.524 188.442 222.88 188.847 223.232 189.304C223.879 190.113 224.697 191.224 224.697 192.591V196.131Z" fill="#E5EBE1"/>
<path fill-rule="evenodd" clip-rule="evenodd" d="M231.719 196.131H228.737V192.591C228.76 191.443 229.055 190.316 229.597 189.304C229.798 188.847 230.002 188.442 230.202 187.989C230.406 188.442 230.658 188.847 230.849 189.304C231.391 190.316 231.686 191.443 231.709 192.591L231.719 196.131Z" fill="#E5EBE1"/>
<path fill-rule="evenodd" clip-rule="evenodd" d="M216.111 196.131H210.614V192.591C210.614 191.224 211.522 190.113 212.231 189.304C212.635 188.847 213.039 188.442 213.391 187.989C213.744 188.442 214.148 188.847 214.552 189.304C215.261 190.113 216.118 191.224 216.118 192.591L216.111 196.131Z" fill="#E5EBE1"/>
<path fill-rule="evenodd" clip-rule="evenodd" d="M192.53 196.131H198.587V192.591C198.587 191.224 197.578 190.113 196.821 189.304C196.417 188.847 195.961 188.442 195.557 187.989C195.156 188.442 194.7 188.847 194.296 189.304C193.539 190.113 192.53 191.224 192.53 192.591V196.131Z" fill="#E5EBE1"/>
<path fill-rule="evenodd" clip-rule="evenodd" d="M183.845 196.131H189.549V192.591C189.549 191.224 188.579 190.113 187.884 189.304C187.479 188.847 187.075 188.442 186.671 187.989C186.319 188.442 185.863 188.847 185.51 189.304C184.753 190.113 183.845 191.224 183.845 192.591V196.131Z" fill="#E5EBE1"/>
<path fill-rule="evenodd" clip-rule="evenodd" d="M166.421 196.131H171.472V192.591C171.472 191.224 170.664 190.113 170.007 189.304C169.651 188.847 169.299 188.442 168.946 187.989C168.591 188.442 168.238 188.847 167.886 189.304C167.239 190.113 166.421 191.224 166.421 192.591V196.131Z" fill="#E5EBE1"/>
<path fill-rule="evenodd" clip-rule="evenodd" d="M159.399 196.131H162.429V192.591C162.392 191.438 162.081 190.311 161.52 189.304C161.32 188.847 161.116 188.442 160.916 187.989C160.712 188.442 160.46 188.847 160.269 189.304C159.916 190.113 159.409 191.224 159.409 192.591L159.399 196.131Z" fill="#E5EBE1"/>
<path fill-rule="evenodd" clip-rule="evenodd" d="M175.008 196.131H180.505V192.591C180.505 191.224 179.596 190.113 178.888 189.304C178.484 188.847 178.131 188.442 177.727 187.989C177.375 188.442 176.971 188.847 176.566 189.304C175.858 190.113 175.001 191.224 175.001 192.591L175.008 196.131Z" fill="#E5EBE1"/>
<path d="M235.858 179.743H155.261V181.31H235.858V179.743Z" fill="#E5EBE1"/>
<path d="M235.858 201.491H155.261V204.325H235.858V201.491Z" fill="#E5EBE1"/>
<path fill-rule="evenodd" clip-rule="evenodd" d="M229.041 276.952C226.357 276.964 223.787 278.04 221.894 279.946C220.001 281.851 218.939 284.431 218.942 287.119V325.661H239.192V287.119C239.191 284.423 238.122 281.838 236.218 279.931C234.315 278.025 231.733 276.953 229.041 276.952Z" fill="#E5EBE1"/>
<path fill-rule="evenodd" clip-rule="evenodd" d="M261.312 276.952C259.213 276.964 257.203 277.805 255.718 279.292C254.234 280.778 253.394 282.791 253.382 284.894V325.661H269.228V284.894C269.225 282.789 268.389 280.772 266.903 279.283C265.418 277.795 263.404 276.957 261.302 276.952H261.312Z" fill="#E5EBE1"/>
<path fill-rule="evenodd" clip-rule="evenodd" d="M290.539 276.952H290.49C288.771 276.967 287.127 277.661 285.916 278.883C284.704 280.105 284.024 281.757 284.022 283.479V325.661H297.006V283.479C297.005 281.757 296.324 280.105 295.113 278.883C293.902 277.661 292.258 276.967 290.539 276.952Z" fill="#E5EBE1"/>
<path fill-rule="evenodd" clip-rule="evenodd" d="M229.041 276.952C231.733 276.953 234.315 278.025 236.218 279.931C238.122 281.838 239.191 284.423 239.192 287.119V325.661H218.942V287.119C218.939 284.431 220.001 281.851 221.894 279.946C223.787 278.04 226.357 276.964 229.041 276.952Z" fill="#E5EBE1"/>
<path d="M303.782 248.075H141.323V250.705H303.782V248.075Z" fill="#E5EBE1"/>
<path d="M150.06 228.3H141.323V325.662H150.06V228.3Z" fill="#E5EBE1"/>
<path fill-rule="evenodd" clip-rule="evenodd" d="M190.306 276.952C192.408 276.956 194.423 277.794 195.909 279.282C197.395 280.771 198.232 282.789 198.235 284.894V325.661H182.39V284.894C182.401 282.792 183.24 280.779 184.724 279.293C186.208 277.806 188.217 276.965 190.316 276.952H190.306Z" fill="#E5EBE1"/>
<path fill-rule="evenodd" clip-rule="evenodd" d="M161.117 276.952C161.97 276.955 162.814 277.126 163.601 277.455C164.387 277.785 165.101 278.266 165.702 278.873C166.303 279.479 166.778 280.198 167.101 280.988C167.424 281.778 167.589 282.625 167.585 283.479V325.661H154.608V283.479C154.612 281.75 155.299 280.093 156.52 278.87C157.74 277.647 159.394 276.958 161.121 276.952H161.117Z" fill="#E5EBE1"/>
<path fill-rule="evenodd" clip-rule="evenodd" d="M98.2968 154.354H-16.641C-30.5466 88.9553 32.2937 85.0623 40.7761 56.2822C49.362 85.0623 112.135 88.9553 98.2968 154.354Z" fill="#E5EBE1"/>
<path fill-rule="evenodd" clip-rule="evenodd" d="M235.858 179.739H155.261C145.514 133.917 189.539 131.186 195.558 110.954C201.569 131.186 245.605 133.917 235.858 179.739Z" fill="#E5EBE1"/>
<path fill-rule="evenodd" clip-rule="evenodd" d="M312.825 239.729C306.765 211.052 334.34 209.332 338.075 196.688C341.813 209.32 369.385 211.052 363.277 239.729H312.825Z" fill="#E5EBE1"/>
<path fill-rule="evenodd" clip-rule="evenodd" d="M-0.0263672 309.136C-0.0263672 309.136 130.588 272.339 318.905 296.975C507.222 321.612 580.096 370.476 762.137 352.278C944.179 334.081 955.644 344.829 1170.45 390.414C1385.27 435.999 1485.37 460.632 1588.89 432.949C1692.41 405.265 1919.97 475.483 1919.97 475.483H-0.0263672V309.136Z" fill="#E5EBE1"/>
</g>
<g clip-path="url(#clip2_523_27807)">
<path d="M1628.08 238.399C1628.15 237.313 1628.52 234.886 1632 232.686C1635.47 230.487 1638.73 230.801 1642.74 230.93C1646.74 231.058 1647.54 229.97 1650.22 228.502C1652.9 227.034 1655.08 227.705 1656.69 227.865C1658.3 228.025 1660.54 226.152 1661.55 227.386C1662.57 228.619 1662.4 230.322 1663.67 232.526C1664.93 234.731 1671.57 256.058 1682.81 256.058C1694.03 256.058 1702.96 242.063 1705.4 237.922C1707.85 233.78 1716.77 229.685 1724.61 228.916C1732.45 228.148 1737.72 219.34 1748.42 220.391C1759.12 221.442 1759.6 227.671 1769.64 229.588C1779.68 231.504 1792.85 238.69 1796.07 256.026C1799.29 273.363 1799.01 279.592 1806.4 282.082C1813.78 284.573 1815.77 281.602 1815.77 281.602C1815.77 281.602 1816.71 290.562 1807.15 290.128C1800.06 289.808 1797.11 285.869 1795.89 282.702C1796.94 287.038 1798.93 293.821 1801.76 297.302C1806.11 302.666 1807.73 303.529 1806.96 309.181C1806.2 314.833 1804.42 331.021 1804.89 335.234C1805.34 339.447 1807.14 341.94 1806.11 343.282C1805.08 344.625 1795.6 345.484 1794.84 343.377C1794.08 341.269 1799.77 340.024 1800.33 336.002C1800.91 331.981 1799.86 309.658 1797.97 306.299C1796.07 302.94 1789.25 294.038 1788.59 292.41C1787.93 290.782 1783.09 286.949 1783.09 286.949C1783.09 286.949 1780.55 291.644 1779.49 299.801C1778.44 307.958 1779.97 310.817 1777.52 314.367C1775.07 317.917 1769.18 325.863 1765.77 332.281C1762.36 338.698 1761.88 341.572 1761.88 342.434C1761.88 343.297 1762.27 346.267 1759.9 346.267C1757.55 346.267 1750.81 345.019 1751.01 343.391C1751.2 341.763 1756.02 340.82 1757.06 338.89C1758.11 336.959 1767.58 320.594 1768.15 318.103C1768.72 315.613 1768.62 310.632 1770.24 304.965C1771.84 299.299 1770.51 289.828 1770.24 286.572C1769.95 283.316 1768.28 280.923 1769 277.57C1769.24 276.501 1769.54 275.451 1769.92 274.428C1769.95 274.375 1769.95 274.316 1769.93 274.261C1769.91 274.206 1769.88 274.159 1769.83 274.128C1769.78 274.096 1769.73 274.083 1769.67 274.09C1769.61 274.097 1769.56 274.123 1769.52 274.165C1766.57 277.275 1761.22 280.791 1751.76 282.074C1744.48 283.036 1737.13 283.485 1729.79 283.416C1729.79 283.416 1724.21 289.922 1719.45 295.883C1720.51 302.974 1721.48 310.817 1721.04 313.591C1720.63 316.095 1719.86 321.225 1719.17 326.357C1720.14 327.625 1721.19 328.832 1722.3 329.973C1724.76 332.258 1730.57 332.778 1726 339.264C1723.62 342.617 1721.54 342.137 1720.69 340.221C1719.83 338.304 1721.26 337.73 1718.88 333.994C1718.69 333.683 1718.5 333.372 1718.32 333.06C1717.92 336.488 1717.67 339.247 1717.75 340.286C1718.01 343.351 1719.28 346.033 1718.14 347.566C1717 349.1 1709.16 349.737 1709.16 347.309C1709.16 344.882 1712.07 344.628 1712.58 342.203C1712.88 340.74 1713.56 332.521 1713.95 325.597C1713.3 324.598 1712.56 323.573 1711.7 322.501C1708.28 318.286 1703.08 316.561 1702.5 313.016C1701.94 309.472 1704.31 306.962 1709.9 298.265C1710.23 297.743 1710.55 297.225 1710.84 296.711L1705.22 274.111C1704.91 273.918 1704.56 273.762 1704.21 273.645C1702.24 273.074 1691.49 281.277 1674.55 274.191C1657.62 267.105 1652.83 248.326 1652.83 248.326C1652.83 248.326 1647.58 248.806 1641.56 243.665C1641.56 243.665 1636.72 241.429 1635.84 241.492C1634.96 241.555 1630.56 242.608 1629.39 241.589C1628.81 241.078 1629.12 240.246 1629.12 240.246C1628.58 239.675 1628.02 239.484 1628.08 238.399ZM1710.25 313.402C1710.63 314.482 1712.25 316.998 1714.2 319.771C1714.28 318.479 1714.27 317.184 1714.19 315.893C1713.9 313.893 1713.13 308.27 1712.7 305.245C1710.78 308.981 1709.35 310.846 1710.25 313.402Z" fill="#E5EBE1"/>
<path d="M1703.93 230.733C1702.84 228.365 1702.72 225.592 1703.84 223.25C1704.12 222.641 1704.65 222.23 1705.72 222.23C1708.83 222.23 1706.05 217.509 1711.05 217.398C1716.05 217.286 1723.83 222.453 1732.61 221.216C1741.39 219.98 1739.39 213.017 1742.94 213.239C1746.49 213.462 1752.83 220.994 1755.61 221.105C1758.39 221.216 1770.17 209.983 1773.06 210.994C1775.95 212.005 1769.72 220.319 1770.61 222.79C1771.5 225.261 1780.28 225.932 1784.28 227.074C1788.28 228.217 1785.39 233.14 1783.83 235.277C1782.28 237.413 1706.94 237.299 1706.94 237.299L1703.93 230.733Z" fill="#E5EBE1"/>
<path d="M1800.28 251.418C1802.86 249.788 1805.26 250.024 1808.23 250.119C1811.2 250.214 1811.78 249.41 1813.77 248.323C1815.76 247.237 1817.37 247.733 1818.56 247.85C1819.75 247.968 1821.41 246.576 1822.16 247.497C1822.91 248.419 1822.79 249.671 1823.73 251.301C1824.66 252.931 1829.57 268.715 1837.88 268.715C1846.21 268.715 1852.8 258.364 1854.62 255.294C1856.44 252.225 1863.04 249.197 1868.83 248.631C1874.62 248.066 1878.52 241.543 1886.45 242.322C1894.36 243.1 1894.72 247.71 1902.14 249.127C1909.57 250.544 1919.32 255.86 1921.71 268.69C1924.09 281.52 1923.89 286.128 1929.35 287.97C1934.82 289.813 1936.29 287.617 1936.29 287.617C1936.29 287.617 1936.98 294.245 1929.9 293.925C1924.65 293.674 1922.48 290.775 1921.57 288.436C1922.34 291.646 1923.82 296.667 1925.91 299.241C1929.13 303.212 1930.33 303.848 1929.76 308.032C1929.21 312.216 1927.87 324.192 1928.22 327.312C1928.58 330.432 1929.9 332.272 1929.13 333.266C1928.37 334.26 1921.35 334.896 1920.79 333.336C1920.23 331.776 1924.44 330.855 1924.86 327.878C1925.28 324.901 1924.51 308.385 1923.1 305.904C1921.71 303.422 1916.67 296.832 1916.18 295.637C1915.68 294.443 1912.11 291.596 1912.11 291.596C1912.11 291.596 1910.21 295.069 1909.45 301.093C1908.67 307.118 1909.79 309.246 1907.95 311.86C1906.12 314.474 1901.79 320.374 1899.26 325.116C1896.74 329.858 1896.39 331.992 1896.39 332.628C1896.39 333.264 1896.67 335.462 1894.91 335.462C1893.14 335.462 1888.18 334.541 1888.32 333.336C1888.45 332.132 1892.03 331.423 1892.8 330.004C1893.57 328.584 1900.59 316.465 1901 314.622C1901.43 312.779 1901.35 309.094 1902.55 304.912C1903.75 300.73 1902.76 293.712 1902.55 291.303C1902.34 288.894 1901.1 287.122 1901.64 284.64C1901.81 283.849 1902.03 283.072 1902.32 282.314C1902.33 282.275 1902.33 282.231 1902.32 282.191C1902.31 282.151 1902.28 282.116 1902.25 282.093C1902.21 282.07 1902.17 282.06 1902.13 282.065C1902.08 282.07 1902.05 282.089 1902.02 282.119C1899.83 284.42 1895.88 287.021 1888.88 287.97C1883.49 288.687 1878.05 289.021 1872.61 288.972C1872.61 288.972 1868.49 293.79 1864.96 298.199C1865.75 303.457 1866.47 309.251 1866.14 311.302C1865.84 313.155 1865.27 316.951 1864.76 320.747C1865.48 321.678 1866.26 322.565 1867.09 323.403C1868.91 325.104 1873.21 325.479 1869.81 330.279C1868.06 332.758 1866.52 332.405 1865.89 330.988C1865.26 329.571 1866.31 329.145 1864.55 326.381C1864.41 326.148 1864.27 325.917 1864.13 325.687C1863.83 328.218 1863.65 330.267 1863.71 331.035C1863.9 333.289 1864.84 335.292 1864 336.421C1863.16 337.551 1857.36 338.029 1857.36 336.233C1857.36 334.438 1859.51 334.248 1859.88 332.453C1860.11 331.371 1860.61 325.289 1860.9 320.166C1860.41 319.427 1859.87 318.663 1859.23 317.875C1856.71 314.755 1852.85 313.478 1852.43 310.864C1852 308.25 1853.77 306.382 1857.89 299.947C1858.14 299.561 1858.38 299.178 1858.59 298.797L1854.46 282.089C1854.22 281.947 1853.97 281.832 1853.72 281.746C1852.24 281.32 1844.3 287.392 1831.78 282.146C1819.25 276.901 1815.7 263.009 1815.7 263.009C1815.7 263.009 1811.82 263.364 1807.36 259.559C1807.36 259.559 1803.79 257.906 1803.12 257.954C1802.47 258.001 1799.22 258.777 1798.36 258.024C1797.93 257.646 1798.16 257.022 1798.16 257.022C1797.78 256.596 1797.35 256.454 1797.4 255.65C1797.46 254.846 1797.72 253.043 1800.28 251.418ZM1858.19 311.149C1858.48 311.948 1859.67 313.808 1861.12 315.862C1861.18 314.906 1861.18 313.948 1861.12 312.992C1860.92 311.505 1860.34 307.351 1860.02 305.112C1858.58 307.879 1857.53 309.259 1858.19 311.149Z" fill="#E5EBE1"/>
<path d="M1602.19 250.374C1603.09 249.334 1599.44 248.795 1599.06 247.215C1598.69 245.636 1598.33 241.077 1598.33 241.077C1598.33 241.077 1598.24 235.223 1599.89 234.2C1601.54 233.178 1608.53 231.227 1611.01 235.874C1613.49 240.521 1609.45 244.796 1609.35 247.584C1609.26 250.371 1614.14 258.271 1614.04 264.22C1613.95 270.17 1614.96 297.499 1614.79 301.218C1614.6 304.937 1611.66 303.54 1611.47 305.679C1611.29 307.818 1612.72 323.898 1614.37 328.499C1616.02 333.1 1606.51 335.191 1602.1 334.634C1597.68 334.077 1583.62 334.214 1582.51 331.984C1581.41 329.753 1588.16 319.574 1588.86 312.325C1589.55 305.076 1593.27 288.905 1593.41 282.139C1593.55 275.373 1594.65 271.192 1593.75 269.241C1592.85 267.291 1588.51 263.943 1589.06 260.179C1589.62 256.415 1594.03 262.198 1595.96 262.749C1597.89 263.301 1598.9 254.161 1602.19 250.374Z" fill="#E5EBE1"/>
<path d="M1589.68 259.091C1610.58 269.278 1626.07 264.169 1635.4 258.091C1645.53 251.488 1650.8 242.348 1650.85 242.257L1651.45 242.608C1651.4 242.7 1646.07 251.973 1635.81 258.671C1629.77 262.607 1623.23 264.903 1616.37 265.491C1615.19 265.594 1614 265.645 1612.81 265.643C1605.3 265.643 1597.44 263.661 1589.36 259.725L1589.68 259.091Z" fill="#E5EBE1"/>
<path d="M1760.16 249.537C1775.69 265.126 1790.43 266.313 1800.07 264.588C1810.51 262.702 1817.37 257.054 1817.44 256.996L1817.76 257.384C1817.69 257.442 1810.74 263.163 1800.18 265.076C1794.01 266.205 1787.66 265.809 1781.68 263.922C1774.1 261.563 1766.74 256.843 1759.81 249.9L1760.16 249.537Z" fill="#E5EBE1"/>
<path fill-rule="evenodd" clip-rule="evenodd" d="M1919.88 331.212C1919.88 331.212 1790.61 310.826 1604.24 324.474C1417.86 338.121 1345.74 365.203 1165.58 355.118C985.407 345.033 974.06 350.989 761.462 376.25C548.863 401.511 449.796 415.155 347.341 399.818C244.884 384.482 -0.12207 423.386 -0.12207 423.386V475.332H1919.88V331.212Z" fill="#F7FAF4"/>
</g>
<path d="M320 461.5H1600" stroke="#E5EBE1"/>
</g>
<defs>
<clipPath id="clip0_523_27807">
<rect width="1920" height="462" fill="white"/>
</clipPath>
<clipPath id="clip1_523_27807">
<rect width="1920" height="475" fill="white"/>
</clipPath>
<clipPath id="clip2_523_27807">
<rect width="1920" height="264" fill="white" transform="translate(0 211)"/>
</clipPath>
</defs>
</svg>
