<svg width="40" height="40" viewBox="0 0 40 40" fill="none" xmlns="http://www.w3.org/2000/svg">
<path opacity="0.4" d="M33.0999 13.4833C33.0999 13.7333 33.0999 13.9833 33.0833 14.2166C30.5333 13.2666 27.5333 13.8499 25.5333 15.6499C24.1833 14.4333 22.4332 13.7499 20.5666 13.7499C16.4666 13.7499 13.1333 17.1 13.1333 21.2333C13.1333 25.95 15.4999 29.3999 17.7666 31.6333C17.5833 31.6166 17.4333 31.5833 17.2999 31.5333C12.9833 30.0499 3.33325 23.9166 3.33325 13.4833C3.33325 8.88328 7.03324 5.16663 11.5999 5.16663C14.3166 5.16663 16.7166 6.46661 18.2166 8.48328C19.7332 6.46661 22.1332 5.16663 24.8332 5.16663C29.3999 5.16663 33.0999 8.88328 33.0999 13.4833Z" fill="#68983C"/>
<path d="M29.9999 15.9834C28.2166 15.9834 26.5999 16.8501 25.5999 18.1834C24.5999 16.8501 22.9999 15.9834 21.1999 15.9834C18.1666 15.9834 15.7 18.4501 15.7 21.5167C15.7 22.7001 15.8833 23.7834 16.2166 24.7834C17.7833 29.7334 22.5999 32.6834 24.9832 33.5001C25.3166 33.6167 25.8666 33.6167 26.2166 33.5001C28.5999 32.6834 33.4166 29.7334 34.9832 24.7834C35.3166 23.7667 35.4999 22.6834 35.4999 21.5167C35.4999 18.4501 33.0333 15.9834 29.9999 15.9834Z" fill="#68983C"/>
</svg>
