<svg width="31" height="24" viewBox="0 0 31 24" fill="none" xmlns="http://www.w3.org/2000/svg">
<g clip-path="url(#clip0_523_27833)">
<path opacity="0.4" d="M4.25 4.875C4.25 3.83906 3.41094 3 2.375 3C1.33906 3 0.5 3.83906 0.5 4.875V7.5V10.5V15.2578C0.5 16.4531 0.973438 17.5969 1.81719 18.4406L6.5 23.1234C7.0625 23.6859 7.82656 24 8.62344 24H11.75C12.9922 24 14 22.9922 14 21.75V18.0516C14 16.6594 13.4469 15.3234 12.4625 14.3391L11.2766 13.1531L10.5641 12.4406L9.06406 10.9406C8.47812 10.3547 7.52656 10.3547 6.94062 10.9406C6.35469 11.5266 6.35469 12.4781 6.94062 13.0641L8.44062 14.5641L9.15313 15.2766C9.66875 15.7922 9.58437 16.6453 8.97969 17.0484C8.525 17.3531 7.91562 17.2922 7.52656 16.9031L5.12656 14.5078C4.56406 13.9453 4.25 13.1813 4.25 12.3844V10.5V6.75V4.875ZM26.75 4.875V6.75V10.5V12.3844C26.75 13.1813 26.4359 13.9453 25.8734 14.5078L23.4781 16.9031C23.0891 17.2922 22.4797 17.3531 22.025 17.0484C21.4203 16.6453 21.3359 15.7875 21.8516 15.2766L22.5641 14.5641L24.0641 13.0641C24.65 12.4781 24.65 11.5266 24.0641 10.9406C23.4781 10.3547 22.5266 10.3547 21.9406 10.9406L20.4406 12.4406L19.7281 13.1531L18.5422 14.3391C17.5578 15.3234 17.0047 16.6594 17.0047 18.0516V21.75C17.0047 22.9922 18.0125 24 19.2547 24H22.3812C23.1781 24 23.9422 23.6859 24.5047 23.1234L29.1875 18.4406C30.0312 17.5969 30.5047 16.4531 30.5047 15.2578V10.5V7.5V4.875C30.5047 3.83906 29.6656 3 28.6297 3C27.5937 3 26.7547 3.83906 26.7547 4.875H26.75Z" fill="white"/>
<path d="M9.68301 1.35466C8.30488 2.75154 8.30488 5.02029 9.68301 6.41716L14.4455 11.2547C14.7361 11.55 15.1158 11.6953 15.5002 11.6953C15.8846 11.6953 16.2643 11.55 16.5549 11.2547L21.3174 6.41716C22.6955 5.02029 22.6955 2.75154 21.3174 1.35466C19.9393 -0.0422119 17.708 -0.0422119 16.3299 1.35466L15.5002 2.19841L14.6705 1.35466C13.2924 -0.0422119 11.0611 -0.0422119 9.68301 1.35466Z" fill="white"/>
</g>
<defs>
<clipPath id="clip0_523_27833">
<rect width="30" height="24" fill="white" transform="translate(0.5)"/>
</clipPath>
</defs>
</svg>
