<svg width="66" height="186" viewBox="0 0 66 186" fill="none" xmlns="http://www.w3.org/2000/svg">
<g clip-path="url(#clip0_523_27113)">
<path d="M55.0637 95.3108C55.0637 95.3108 53.9192 95.5651 53.5377 95.9465C53.5377 95.9465 52.9019 96.9638 52.9019 97.4724C52.9019 97.981 53.1562 98.6168 53.5377 98.9983C53.5377 98.9983 54.5551 99.634 55.0637 99.634C55.5724 99.634 56.2082 99.3797 56.5897 98.9983C56.9713 98.6168 57.2256 97.981 57.2256 97.4724C57.2256 96.9638 56.9713 96.328 56.5897 95.9465C56.5897 95.9465 55.5724 95.3108 55.0637 95.3108ZM54.0464 96.4552C54.0464 96.4552 54.6822 96.0737 55.0637 96.0737C55.4452 96.0737 55.8267 96.2009 56.0811 96.4552C56.0811 96.4552 56.4626 97.091 56.4626 97.4724C56.4626 97.8539 56.3354 98.2353 56.0811 98.4896C55.8267 98.7439 55.4452 98.8711 55.0637 98.8711C54.6822 98.8711 54.3007 98.7439 54.0464 98.4896C54.0464 98.4896 53.6649 97.8539 53.6649 97.4724C53.6649 97.091 53.7921 96.7095 54.0464 96.4552Z" fill="#C6D6C5"/>
<path d="M54.6818 -329H55.1904V95.4381H54.6818V-329Z" fill="#C6D6C5"/>
<path fill-rule="evenodd" clip-rule="evenodd" d="M64.7285 109.425H63.0753V109.044C63.0753 109.044 64.6013 103.576 57.3528 101.287C56.4626 101.033 55.6996 100.651 55.0638 100.143C54.4279 100.651 53.6649 100.906 52.7748 101.287C45.5262 103.576 46.925 108.789 46.925 109.044V109.425H45.399C45.6534 109.425 45.9077 109.298 46.162 109.298C46.162 109.298 44.3817 103.194 52.5204 100.651C53.6649 100.27 54.4279 99.8885 55.0638 99.2527C55.6996 99.7613 56.4626 100.27 57.6071 100.651C65.7459 103.194 63.9655 109.298 63.9655 109.298C64.2198 109.298 64.4742 109.298 64.7285 109.425Z" fill="#C6D6C5"/>
<path d="M54.9366 99.3799L55.1909 99.7614C55.5725 100.27 56.0811 100.651 56.5898 101.033C60.9135 103.194 60.7863 108.026 60.6592 109.552H59.8962C59.8962 108.281 60.1505 103.576 56.0811 101.542C55.5725 101.287 55.0638 100.906 54.6823 100.397L54.9366 99.3799Z" fill="#C6D6C5"/>
<path d="M55.064 99.3799L54.8097 99.7614C54.4282 100.27 53.9195 100.651 53.4108 101.033C49.0871 103.194 49.2143 108.026 49.3415 109.552H50.1045C50.1045 108.281 49.8502 103.576 53.9195 101.542C54.4282 101.287 54.9369 100.906 55.3184 100.397L55.064 99.3799Z" fill="#C6D6C5"/>
<path fill-rule="evenodd" clip-rule="evenodd" d="M56.9716 128.498C56.9716 128.498 57.2259 128.498 57.4803 128.498C57.7346 128.498 57.8618 128.752 58.1161 129.007C58.4976 129.515 58.752 129.388 58.752 129.388C58.752 129.388 58.6248 129.388 58.3704 128.879C58.2433 128.625 57.8618 128.371 57.6074 128.371C57.3531 128.371 57.0988 128.371 57.0988 128.371L56.9716 128.498Z" fill="#C6D6C5"/>
<path fill-rule="evenodd" clip-rule="evenodd" d="M56.9709 128.498C56.9709 128.498 57.4796 128.371 57.6068 127.735C57.8611 127.099 57.6068 126.336 57.6068 125.828C57.6068 125.574 57.8611 125.573 57.9883 125.573C57.9883 125.573 57.9883 125.828 57.9883 125.955C57.9883 126.082 57.7339 126.082 57.7339 126.082C57.7339 126.082 57.8611 126.082 57.9883 125.955C57.9883 125.955 57.9883 125.574 57.9883 125.446C57.7339 125.192 57.2253 125.446 57.2253 125.828C57.2253 126.591 57.4796 127.226 57.3524 127.735C57.2253 128.244 56.7166 128.498 56.8438 128.498H56.9709Z" fill="#C6D6C5"/>
<path fill-rule="evenodd" clip-rule="evenodd" d="M57.3532 128.244C57.3532 128.244 57.6075 128.244 57.8619 128.244C57.989 128.244 58.1162 127.989 58.1162 127.989C58.1162 127.989 58.1162 127.989 57.8619 127.989C57.6075 127.989 57.4804 128.244 57.4804 128.244H57.3532Z" fill="#C6D6C5"/>
<path fill-rule="evenodd" clip-rule="evenodd" d="M57.6073 127.481C57.6073 127.481 57.7345 126.972 58.2432 127.099C58.879 127.099 58.3704 127.989 58.4975 128.498C58.4975 129.134 59.0062 129.388 59.1334 129.388C59.3877 129.388 59.3877 129.388 59.3877 129.388C59.3877 129.388 59.3877 129.388 59.1334 129.261C59.0062 129.261 58.7519 129.007 58.6247 128.498C58.6247 128.244 58.6247 127.989 58.6247 127.608C58.6247 127.481 58.6247 127.226 58.6247 127.099C58.4975 127.099 58.3704 126.845 58.2432 126.845C57.6073 126.845 57.4802 127.354 57.6073 127.354V127.481Z" fill="#C6D6C5"/>
<path fill-rule="evenodd" clip-rule="evenodd" d="M57.7347 127.099C57.7347 127.099 57.9891 127.099 58.2434 127.099C58.4977 127.099 58.8793 126.718 58.7521 126.209C58.7521 125.955 58.3706 125.955 58.2434 126.082C58.1162 126.082 58.2434 126.336 58.2434 126.336H58.3706C58.3706 126.591 58.3706 126.845 58.1162 126.972C57.8619 127.099 57.7347 127.226 57.7347 127.226V127.099Z" fill="#C6D6C5"/>
<path fill-rule="evenodd" clip-rule="evenodd" d="M57.7345 127.354C57.7345 127.354 57.8617 127.354 57.9888 127.354C58.116 127.354 58.2432 127.354 58.116 127.608C58.116 127.735 57.8617 127.608 57.8617 127.735C57.8617 127.735 58.2432 127.735 58.2432 127.608C58.2432 127.354 57.9888 127.099 57.7345 127.226C57.6073 127.226 57.4802 127.354 57.4802 127.354H57.7345Z" fill="#C6D6C5"/>
<path fill-rule="evenodd" clip-rule="evenodd" d="M58.4977 126.972C58.4977 126.972 58.7521 126.972 59.0064 126.972C59.2607 126.972 59.2607 126.845 59.2607 126.845C59.2607 126.845 59.2607 126.718 59.0064 126.845C58.7521 126.845 58.6249 126.972 58.6249 127.099L58.4977 126.972Z" fill="#C6D6C5"/>
<path fill-rule="evenodd" clip-rule="evenodd" d="M58.6246 128.752C58.6246 128.752 58.6246 128.498 59.0061 128.371C59.2604 128.371 59.5148 128.752 59.5148 129.006C59.5148 129.388 59.7691 129.642 59.8963 129.642C60.0234 129.642 60.0234 129.642 60.0234 129.642C60.0234 129.642 59.6419 129.642 59.6419 129.006C59.6419 128.625 59.3876 128.116 58.8789 128.244C58.4974 128.371 58.6246 128.752 58.4974 128.752H58.6246Z" fill="#C6D6C5"/>
<path fill-rule="evenodd" clip-rule="evenodd" d="M58.6243 128.879C58.6243 128.879 58.6243 128.625 58.8786 128.498C59.0058 128.371 59.5144 128.244 59.6416 127.735C59.6416 127.481 59.5144 127.354 59.3873 127.354C59.1329 127.354 59.1329 127.481 59.1329 127.608C59.1329 127.735 59.1329 127.735 59.1329 127.735C59.1329 127.735 59.1329 127.226 59.3873 127.735C59.3873 127.989 59.0058 128.116 58.7514 128.371C58.4971 128.625 58.6243 128.879 58.6243 128.879Z" fill="#C6D6C5"/>
<path fill-rule="evenodd" clip-rule="evenodd" d="M56.7175 129.515C56.7175 129.515 56.9718 129.515 57.099 129.642C57.3533 129.642 57.6077 129.642 57.862 129.388C58.3707 129.007 58.625 129.388 58.625 129.388C58.625 129.388 58.4978 129.388 57.9892 129.642C57.7348 129.77 57.3533 129.897 57.099 129.77C56.8447 129.642 56.7175 129.515 56.7175 129.515Z" fill="#C6D6C5"/>
<path fill-rule="evenodd" clip-rule="evenodd" d="M56.7168 129.515C56.7168 129.515 57.0983 129.897 56.9711 130.532C56.9711 131.168 56.3353 131.804 56.0809 132.312C56.0809 132.567 56.0809 132.694 56.3353 132.694C56.4624 132.694 56.5896 132.567 56.5896 132.44C56.5896 132.185 56.5896 132.185 56.5896 132.185C56.5896 132.185 56.7168 132.185 56.8439 132.44C56.8439 132.567 56.8439 132.821 56.5896 132.948C56.3353 132.948 55.9538 132.694 56.0809 132.312C56.4624 131.677 56.9711 131.168 56.9711 130.66C56.9711 130.151 56.7168 129.769 56.8439 129.642L56.7168 129.515Z" fill="#C6D6C5"/>
<path fill-rule="evenodd" clip-rule="evenodd" d="M56.9712 129.897C56.9712 129.897 57.2255 129.897 57.3527 130.151C57.4798 130.151 57.3527 130.405 57.3527 130.405C57.3527 130.405 57.3527 130.405 57.0983 130.405C56.9712 130.278 56.844 130.024 56.844 130.024L56.9712 129.897Z" fill="#C6D6C5"/>
<path fill-rule="evenodd" clip-rule="evenodd" d="M56.8441 130.659C56.8441 130.659 56.8441 131.168 57.3528 131.295C57.9886 131.422 57.8615 130.532 58.243 130.024C58.4973 129.515 59.006 129.388 59.2603 129.515C59.006 129.515 58.7516 129.515 58.4973 130.024C58.4973 130.278 58.243 130.532 58.1158 130.787C58.1158 130.914 57.9886 131.041 57.8615 131.168C57.7343 131.168 57.6071 131.168 57.3528 131.168C56.717 130.914 56.9713 130.405 56.9713 130.405L56.8441 130.659Z" fill="#C6D6C5"/>
<path fill-rule="evenodd" clip-rule="evenodd" d="M56.8438 131.041C56.8438 131.041 57.0981 131.041 57.2253 131.295C57.3524 131.422 57.6068 131.931 57.2253 132.313C57.0981 132.44 56.8438 132.44 56.7166 132.313C56.7166 132.185 56.7166 132.058 56.7166 132.058C56.8438 132.058 56.8438 132.058 56.8438 132.058C56.8438 132.058 56.5894 132.313 56.8438 132.185C56.9709 132.058 56.8438 131.677 56.8438 131.55C56.8438 131.295 56.5894 131.168 56.5894 131.168L56.8438 131.041Z" fill="#C6D6C5"/>
<path fill-rule="evenodd" clip-rule="evenodd" d="M56.971 130.914C56.971 130.914 56.971 130.914 57.2254 131.041C57.3525 131.041 57.4797 131.041 57.4797 131.041C57.4797 130.914 57.3525 130.914 57.3525 130.787C57.3525 130.787 57.734 130.787 57.6069 131.168C57.6069 131.423 57.0982 131.55 56.971 131.295C56.971 131.168 56.8439 131.041 56.8439 131.041L56.971 130.914Z" fill="#C6D6C5"/>
<path fill-rule="evenodd" clip-rule="evenodd" d="M57.4804 131.423C57.4804 131.423 57.7347 131.423 57.989 131.55C58.1162 131.55 58.1162 131.804 58.1162 131.804C58.1162 131.804 58.1162 131.804 57.8619 131.804C57.7347 131.804 57.4804 131.423 57.6075 131.423H57.4804Z" fill="#C6D6C5"/>
<path fill-rule="evenodd" clip-rule="evenodd" d="M58.3703 129.897C58.3703 129.897 58.3703 130.151 58.4974 130.278C58.7518 130.278 59.1333 130.151 59.2604 129.897C59.3876 129.515 59.7691 129.515 59.8963 129.515C60.0234 129.515 60.0234 129.515 60.0234 129.515C60.0234 129.515 59.7691 129.388 59.3876 129.897C59.2604 130.151 58.7518 130.533 58.3703 130.278C58.1159 130.024 58.3703 129.643 58.3703 129.77V129.897Z" fill="#C6D6C5"/>
<path fill-rule="evenodd" clip-rule="evenodd" d="M58.3705 129.897C58.3705 129.897 58.3705 130.151 58.3705 130.405C58.3705 130.66 58.8792 130.914 58.7521 131.423C58.7521 131.677 58.4977 131.804 58.2434 131.677C57.989 131.677 58.1162 131.423 58.1162 131.423L58.2434 131.295C58.2434 131.295 58.2434 131.804 58.4977 131.295C58.4977 131.041 58.3705 130.787 58.2434 130.405C58.2434 130.024 58.2434 129.897 58.2434 129.897H58.3705Z" fill="#C6D6C5"/>
<path fill-rule="evenodd" clip-rule="evenodd" d="M58.6249 120.742C58.6249 120.742 58.8793 120.742 59.1336 120.742C59.3879 120.742 59.5151 120.996 59.7694 121.25C60.1509 121.759 60.4053 121.632 60.4053 121.632C60.4053 121.632 60.2781 121.632 60.0238 121.123C59.8966 120.869 59.5151 120.615 59.2608 120.615C59.0064 120.615 58.7521 120.615 58.7521 120.615L58.6249 120.742Z" fill="#C6D6C5"/>
<path fill-rule="evenodd" clip-rule="evenodd" d="M58.7512 120.742C58.7512 120.742 59.2599 120.615 59.3871 119.979C59.6414 119.343 59.3871 118.58 59.3871 118.071C59.3871 117.817 59.6414 117.817 59.7686 117.817C59.7686 117.817 59.7686 118.071 59.7686 118.199C59.7686 118.326 59.5142 118.326 59.5142 118.326C59.5142 118.326 59.6414 118.326 59.7686 118.199C59.7686 118.199 59.7686 117.817 59.7686 117.69C59.5142 117.436 59.0055 117.69 59.0055 118.071C59.0055 118.834 59.3871 119.47 59.1327 119.979C59.0055 120.487 58.4969 120.742 58.624 120.742H58.7512Z" fill="#C6D6C5"/>
<path fill-rule="evenodd" clip-rule="evenodd" d="M59.1335 120.487C59.1335 120.487 59.3878 120.487 59.6421 120.487C59.7693 120.487 59.8965 120.233 59.8965 120.233C59.8965 120.233 59.8965 120.233 59.6421 120.233C59.3878 120.233 59.2606 120.487 59.2606 120.487H59.1335Z" fill="#C6D6C5"/>
<path fill-rule="evenodd" clip-rule="evenodd" d="M59.3876 119.852C59.3876 119.852 59.5148 119.343 60.0235 119.47C60.6593 119.47 60.1506 120.36 60.2778 120.869C60.2778 121.505 60.7865 121.759 60.9136 121.759C61.168 121.759 61.168 121.759 61.168 121.759C61.168 121.759 61.168 121.759 60.9136 121.632C60.7865 121.632 60.5321 121.377 60.405 120.869C60.405 120.615 60.405 120.36 60.405 119.979C60.405 119.852 60.405 119.597 60.405 119.47C60.2778 119.47 60.1506 119.216 60.0235 119.216C59.3876 119.216 59.2605 119.724 59.3876 119.724V119.852Z" fill="#C6D6C5"/>
<path fill-rule="evenodd" clip-rule="evenodd" d="M59.515 119.47C59.515 119.47 59.7694 119.47 60.0237 119.47C60.278 119.47 60.6595 119.089 60.5324 118.58C60.5324 118.326 60.278 118.326 60.0237 118.453C59.8965 118.453 60.0237 118.707 60.0237 118.707H60.1509C60.1509 118.962 60.1509 119.216 59.8965 119.343C59.6422 119.47 59.515 119.597 59.515 119.597V119.47Z" fill="#C6D6C5"/>
<path fill-rule="evenodd" clip-rule="evenodd" d="M59.5146 119.597C59.5146 119.597 59.6417 119.597 59.7689 119.597C59.8961 119.597 60.0232 119.597 60.0232 119.852C60.0232 119.979 59.7689 119.852 59.7689 119.979C59.7689 119.979 60.1504 119.979 60.1504 119.852C60.1504 119.597 59.8961 119.343 59.6417 119.47C59.5146 119.47 59.3874 119.597 59.3874 119.597H59.5146Z" fill="#C6D6C5"/>
<path fill-rule="evenodd" clip-rule="evenodd" d="M60.278 119.343C60.278 119.343 60.5323 119.343 60.7867 119.343C61.041 119.343 61.041 119.216 61.041 119.216C61.041 119.216 61.041 119.089 60.7867 119.216C60.5323 119.216 60.4052 119.343 60.4052 119.47L60.278 119.343Z" fill="#C6D6C5"/>
<path fill-rule="evenodd" clip-rule="evenodd" d="M60.4049 121.123C60.4049 121.123 60.4049 120.869 60.7864 120.742C61.0407 120.742 61.295 121.123 61.295 121.377C61.295 121.759 61.5494 122.013 61.6765 122.013C61.8037 122.013 61.8037 122.013 61.8037 122.013C61.8037 122.013 61.4222 122.013 61.4222 121.377C61.4222 120.996 61.1679 120.487 60.6592 120.614C60.2777 120.742 60.4049 121.123 60.2777 121.123H60.4049Z" fill="#C6D6C5"/>
<path fill-rule="evenodd" clip-rule="evenodd" d="M60.4045 121.123C60.4045 121.123 60.4045 120.869 60.6589 120.742C60.786 120.614 61.2947 120.487 61.4219 119.979C61.4219 119.724 61.2947 119.597 61.1675 119.597C60.9132 119.597 60.9132 119.724 60.9132 119.851C60.9132 119.979 60.9132 119.979 60.9132 119.979C60.9132 119.979 60.9132 119.47 61.1675 119.979C61.1675 120.233 60.786 120.36 60.5317 120.614C60.2774 120.869 60.4045 121.123 60.4045 121.123Z" fill="#C6D6C5"/>
<path fill-rule="evenodd" clip-rule="evenodd" d="M58.4978 121.759C58.4978 121.759 58.7521 121.759 58.8793 121.886C59.1336 121.886 59.3879 121.886 59.6423 121.632C60.1509 121.25 60.4053 121.632 60.4053 121.632C60.4053 121.632 60.2781 121.632 59.7694 121.886C59.5151 122.013 59.1336 122.14 58.8793 122.013C58.6249 121.886 58.4978 121.759 58.4978 121.759Z" fill="#C6D6C5"/>
<path fill-rule="evenodd" clip-rule="evenodd" d="M58.4971 121.759C58.4971 121.759 58.8786 122.14 58.7514 122.776C58.7514 123.412 58.1156 124.048 57.8612 124.556C57.8612 124.81 57.8612 124.938 58.1156 124.938C58.2427 124.938 58.3699 124.81 58.3699 124.683C58.3699 124.429 58.3699 124.429 58.3699 124.429C58.3699 124.429 58.4971 124.429 58.6242 124.683C58.6242 124.81 58.6242 125.065 58.3699 125.192C58.1156 125.192 57.7341 124.938 57.8612 124.556C58.2427 123.92 58.7514 123.412 58.7514 122.903C58.7514 122.395 58.4971 122.013 58.6242 121.886L58.4971 121.759Z" fill="#C6D6C5"/>
<path fill-rule="evenodd" clip-rule="evenodd" d="M58.7514 122.14C58.7514 122.14 59.0058 122.14 59.1329 122.395C59.2601 122.395 59.1329 122.649 59.1329 122.649C59.1329 122.649 59.1329 122.649 58.8786 122.649C58.7514 122.522 58.6243 122.268 58.6243 122.268L58.7514 122.14Z" fill="#C6D6C5"/>
<path fill-rule="evenodd" clip-rule="evenodd" d="M58.6246 122.903C58.6246 122.903 58.6246 123.412 59.1333 123.539C59.7691 123.666 59.642 122.776 59.8963 122.268C60.1506 121.759 60.6593 121.632 60.9136 121.759C60.6593 121.759 60.405 121.759 60.1506 122.268C60.1506 122.522 59.8963 122.776 59.7691 123.031C59.7691 123.158 59.642 123.285 59.5148 123.412C59.3876 123.412 59.1333 123.412 59.0061 123.412C58.3703 123.158 58.4974 122.649 58.6246 122.649V122.903Z" fill="#C6D6C5"/>
<path fill-rule="evenodd" clip-rule="evenodd" d="M58.624 123.285C58.624 123.285 58.8784 123.285 59.0055 123.539C59.1327 123.666 59.387 124.175 59.0055 124.556C58.8784 124.683 58.624 124.683 58.4969 124.556C58.4969 124.429 58.4969 124.302 58.4969 124.302C58.624 124.302 58.624 124.302 58.624 124.302C58.624 124.302 58.3697 124.556 58.624 124.429C58.7512 124.302 58.624 123.92 58.624 123.793C58.624 123.539 58.3697 123.412 58.3697 123.412L58.624 123.285Z" fill="#C6D6C5"/>
<path fill-rule="evenodd" clip-rule="evenodd" d="M58.6243 123.158C58.6243 123.158 58.6243 123.158 58.8787 123.285C59.0058 123.285 59.133 123.285 59.133 123.285C59.133 123.158 59.0058 123.158 59.0058 123.031C59.0058 123.031 59.3873 123.031 59.2602 123.412C59.2602 123.666 58.7515 123.793 58.6243 123.539C58.6243 123.412 58.4972 123.285 58.4972 123.285L58.6243 123.158Z" fill="#C6D6C5"/>
<path fill-rule="evenodd" clip-rule="evenodd" d="M59.2606 123.793C59.2606 123.793 59.515 123.793 59.7693 123.921C59.8965 123.921 59.8965 124.175 59.8965 124.175C59.8965 124.175 59.8965 124.175 59.6421 124.175C59.515 124.175 59.2606 123.793 59.2606 123.793Z" fill="#C6D6C5"/>
<path fill-rule="evenodd" clip-rule="evenodd" d="M60.1505 122.14C60.1505 122.14 60.1505 122.395 60.2777 122.649C60.532 122.649 60.9135 122.522 61.0407 122.267C61.1679 121.886 61.5494 121.886 61.6765 121.886C61.8037 121.886 61.8037 121.886 61.8037 121.886C61.8037 121.886 61.5494 121.759 61.1679 122.267C61.0407 122.522 60.532 122.903 60.1505 122.649C59.8962 122.395 60.1505 122.013 60.1505 122.14Z" fill="#C6D6C5"/>
<path fill-rule="evenodd" clip-rule="evenodd" d="M60.1508 122.14C60.1508 122.14 60.1508 122.395 60.1508 122.649C60.1508 122.903 60.6595 123.158 60.5323 123.666C60.5323 123.92 60.278 124.048 60.0237 123.92C59.7693 123.92 59.8965 123.666 59.8965 123.539L60.0237 123.412C60.0237 123.412 60.0237 123.92 60.278 123.412C60.278 123.158 60.1508 122.903 60.0237 122.522C60.0237 122.14 60.0237 122.013 60.0237 122.013L60.1508 122.14Z" fill="#C6D6C5"/>
<path fill-rule="evenodd" clip-rule="evenodd" d="M60.4052 113.113C60.4052 113.113 60.6595 113.113 60.9139 113.113C61.1682 113.113 61.2954 113.367 61.5497 113.621C61.9312 114.13 62.1855 114.003 62.1855 114.003C62.1855 114.003 62.0584 114.003 61.804 113.494C61.6769 113.24 61.4225 112.985 61.041 112.985C60.7867 112.985 60.5324 112.985 60.5324 112.985L60.4052 113.113Z" fill="#C6D6C5"/>
<path fill-rule="evenodd" clip-rule="evenodd" d="M60.4043 112.985C60.4043 112.985 60.913 112.858 61.0402 112.222C61.2945 111.714 61.0402 110.824 61.0402 110.315C61.0402 110.061 61.2945 110.061 61.4217 110.061C61.4217 110.061 61.4217 110.315 61.4217 110.442C61.4217 110.57 61.1673 110.57 61.2945 110.697C61.2945 110.697 61.2945 110.697 61.5488 110.569C61.5488 110.569 61.5488 110.188 61.5488 110.061C61.2945 109.807 60.7858 110.061 60.7858 110.442C60.7858 111.205 61.1673 111.841 60.913 112.35C60.7858 112.858 60.2772 113.113 60.4043 113.113V112.985Z" fill="#C6D6C5"/>
<path fill-rule="evenodd" clip-rule="evenodd" d="M60.9138 112.858C60.9138 112.858 61.1681 112.858 61.4224 112.858C61.5496 112.858 61.6768 112.731 61.6768 112.731C61.6768 112.731 61.6768 112.731 61.4224 112.731C61.1681 112.731 61.0409 112.985 61.0409 112.985L60.9138 112.858Z" fill="#C6D6C5"/>
<path fill-rule="evenodd" clip-rule="evenodd" d="M61.1679 112.095C61.1679 112.095 61.2951 111.587 61.8037 111.714C62.4396 111.714 61.8037 112.604 62.0581 113.112C62.0581 113.748 62.5667 114.003 62.6939 114.003C62.9482 114.003 62.9482 114.003 62.9482 114.003C62.9482 114.003 62.9482 114.003 62.6939 113.875C62.5667 113.875 62.3124 113.621 62.1852 113.112C62.1852 112.858 62.1852 112.604 62.1852 112.222C62.1852 112.095 62.1852 111.841 62.1852 111.714C62.0581 111.714 61.9309 111.459 61.8037 111.459C61.1679 111.459 61.0407 111.968 61.1679 111.968V112.095Z" fill="#C6D6C5"/>
<path fill-rule="evenodd" clip-rule="evenodd" d="M61.1674 111.714C61.1674 111.714 61.4217 111.714 61.676 111.714C61.9304 111.714 62.3119 111.332 62.1847 110.824C62.1847 110.569 61.8032 110.569 61.676 110.697C61.5489 110.697 61.676 110.951 61.676 110.951H61.8032C61.8032 111.205 61.8032 111.459 61.5489 111.587C61.2945 111.714 61.1674 111.841 61.1674 111.841V111.714Z" fill="#C6D6C5"/>
<path fill-rule="evenodd" clip-rule="evenodd" d="M61.1679 111.841C61.1679 111.841 61.295 111.841 61.4222 111.841C61.5494 111.841 61.6765 111.841 61.6765 112.095C61.6765 112.222 61.4222 112.095 61.4222 112.222C61.4222 112.222 61.8037 112.222 61.8037 112.095C61.8037 111.841 61.5494 111.587 61.295 111.714C61.1679 111.714 61.0407 111.841 61.0407 111.841H61.1679Z" fill="#C6D6C5"/>
<path fill-rule="evenodd" clip-rule="evenodd" d="M62.0583 111.587C62.0583 111.587 62.3126 111.587 62.567 111.587C62.8213 111.587 62.8213 111.46 62.8213 111.46C62.8213 111.46 62.8213 111.332 62.567 111.46C62.3126 111.46 62.1855 111.587 62.1855 111.714L62.0583 111.587Z" fill="#C6D6C5"/>
<path fill-rule="evenodd" clip-rule="evenodd" d="M62.1851 113.367C62.1851 113.367 62.1851 113.113 62.5666 112.985C62.821 112.985 63.0753 113.367 63.0753 113.621C63.0753 114.003 63.3296 114.257 63.4568 114.257C63.584 114.257 63.584 114.257 63.584 114.257C63.584 114.257 63.2025 114.257 63.2025 113.621C63.2025 113.24 62.9481 112.731 62.4395 112.858C62.058 112.985 62.1851 113.367 62.058 113.367H62.1851Z" fill="#C6D6C5"/>
<path fill-rule="evenodd" clip-rule="evenodd" d="M62.1848 113.367C62.1848 113.367 62.1848 113.113 62.4391 112.985C62.5663 112.858 63.075 112.731 63.2021 112.223C63.2021 111.968 63.075 111.841 62.9478 111.841C62.6935 111.841 62.6935 111.968 62.6935 112.095C62.6935 112.223 62.6935 112.223 62.6935 112.223C62.6935 112.223 62.6935 111.714 62.9478 112.223C62.9478 112.477 62.5663 112.604 62.312 112.858C62.0576 113.113 62.1848 113.367 62.1848 113.367Z" fill="#C6D6C5"/>
<path fill-rule="evenodd" clip-rule="evenodd" d="M60.278 114.003C60.278 114.003 60.4052 114.003 60.6595 114.13C60.9139 114.13 61.1682 114.13 61.4225 113.876C61.9312 113.494 62.1855 113.876 62.1855 113.876C62.1855 113.876 62.0584 113.876 61.5497 114.13C61.2954 114.257 60.9139 114.384 60.6595 114.257C60.4052 114.13 60.278 114.003 60.278 114.003Z" fill="#C6D6C5"/>
<path fill-rule="evenodd" clip-rule="evenodd" d="M60.2773 114.13C60.2773 114.13 60.6588 114.511 60.5317 115.147C60.5317 115.783 59.8958 116.418 59.6415 116.927C59.6415 117.181 59.6415 117.308 59.8958 117.308C60.023 117.308 60.1502 117.181 60.1502 117.054C60.1502 116.927 60.1502 116.8 60.1502 116.8C60.1502 116.8 60.2773 116.8 60.4045 117.054C60.4045 117.181 60.4045 117.436 60.1502 117.563C59.8958 117.563 59.5143 117.308 59.6415 116.927C60.023 116.291 60.5317 115.783 60.5317 115.274C60.5317 114.765 60.2773 114.384 60.4045 114.257L60.2773 114.13Z" fill="#C6D6C5"/>
<path fill-rule="evenodd" clip-rule="evenodd" d="M60.5317 114.511C60.5317 114.511 60.786 114.511 60.9132 114.766C61.0404 114.893 60.9132 115.02 60.9132 115.02C60.9132 115.02 60.9132 115.02 60.6589 115.02C60.5317 114.893 60.4045 114.638 60.4045 114.638L60.5317 114.511Z" fill="#C6D6C5"/>
<path fill-rule="evenodd" clip-rule="evenodd" d="M60.4049 115.274C60.4049 115.274 60.4049 115.783 60.9136 115.91C61.5494 116.037 61.4222 115.147 61.6766 114.638C61.9309 114.13 62.4396 114.003 62.6939 114.13C62.4396 114.13 62.1852 114.13 61.9309 114.638C61.9309 114.893 61.6766 115.147 61.5494 115.401C61.5494 115.529 61.4222 115.656 61.2951 115.783C61.1679 115.783 61.0407 115.783 60.7864 115.783C60.1506 115.529 60.4049 115.02 60.4049 115.02V115.274Z" fill="#C6D6C5"/>
<path fill-rule="evenodd" clip-rule="evenodd" d="M60.4043 115.529C60.4043 115.529 60.6586 115.529 60.7858 115.783C60.913 115.91 61.1673 116.419 60.7858 116.8C60.6586 116.927 60.4043 116.8 60.2771 116.8C60.2771 116.673 60.2771 116.546 60.2771 116.546C60.4043 116.546 60.4043 116.546 60.4043 116.546C60.4043 116.546 60.15 116.8 60.4043 116.673C60.5315 116.546 60.4043 116.164 60.4043 116.037C60.4043 115.783 60.15 115.656 60.15 115.656L60.4043 115.529Z" fill="#C6D6C5"/>
<path fill-rule="evenodd" clip-rule="evenodd" d="M60.4046 115.401C60.4046 115.401 60.4046 115.401 60.659 115.528C60.7861 115.528 60.9133 115.528 60.9133 115.528C60.9133 115.401 60.7861 115.401 60.7861 115.274C60.7861 115.274 61.1676 115.274 61.0405 115.656C61.0405 115.91 60.5318 116.037 60.4046 115.783C60.4046 115.656 60.2774 115.528 60.2774 115.528L60.4046 115.401Z" fill="#C6D6C5"/>
<path fill-rule="evenodd" clip-rule="evenodd" d="M61.0409 116.037C61.0409 116.037 61.2953 116.037 61.5496 116.164C61.6768 116.164 61.6768 116.419 61.6768 116.419C61.6768 116.419 61.6768 116.419 61.4224 116.419C61.2953 116.419 61.0409 116.037 61.0409 116.037Z" fill="#C6D6C5"/>
<path fill-rule="evenodd" clip-rule="evenodd" d="M61.9308 114.511C61.9308 114.511 61.9308 114.765 62.058 114.893C62.3123 114.893 62.6938 114.766 62.821 114.511C62.9481 114.13 63.3296 114.003 63.4568 114.13C63.584 114.13 63.584 114.13 63.584 114.13C63.584 114.13 63.3296 114.003 62.9481 114.511C62.821 114.766 62.3123 115.147 61.9308 114.893C61.6765 114.638 61.9308 114.257 61.9308 114.384V114.511Z" fill="#C6D6C5"/>
<path fill-rule="evenodd" clip-rule="evenodd" d="M61.9311 114.384C61.9311 114.384 61.9311 114.638 61.9311 114.893C61.9311 115.147 62.4398 115.401 62.3126 115.91C62.3126 116.164 62.0583 116.291 61.8039 116.164C61.5496 116.164 61.6768 115.91 61.6768 115.91L61.8039 115.783C61.8039 115.783 61.8039 116.291 62.0583 115.783C62.0583 115.528 61.9311 115.274 61.8039 114.893C61.8039 114.511 61.8039 114.384 61.8039 114.384H61.9311Z" fill="#C6D6C5"/>
<path fill-rule="evenodd" clip-rule="evenodd" d="M53.0293 128.498C53.0293 128.498 52.775 128.498 52.6478 128.498C52.3935 128.498 52.2663 128.752 52.012 129.007C51.6305 129.515 51.3761 129.388 51.3761 129.388C51.3761 129.388 51.5033 129.388 51.7576 128.879C51.8848 128.625 52.2663 128.371 52.5206 128.371C52.775 128.371 53.0293 128.371 53.0293 128.371V128.498Z" fill="#C6D6C5"/>
<path fill-rule="evenodd" clip-rule="evenodd" d="M53.0294 128.498C53.0294 128.498 52.5207 128.371 52.3935 127.735C52.1392 127.099 52.3935 126.336 52.3935 125.828C52.3935 125.574 52.1392 125.573 52.012 125.573C52.012 125.573 52.012 125.828 52.012 125.955C52.012 126.082 52.2663 126.082 52.2663 126.082C52.2663 126.082 52.1392 126.082 52.012 125.955C52.012 125.955 52.012 125.574 52.012 125.446C52.2663 125.192 52.775 125.446 52.775 125.828C52.775 126.591 52.5207 127.226 52.6478 127.735C52.775 128.244 53.2837 128.498 53.1565 128.498H53.0294Z" fill="#C6D6C5"/>
<path fill-rule="evenodd" clip-rule="evenodd" d="M52.6475 128.244C52.6475 128.244 52.3931 128.244 52.1388 128.244C52.0116 128.244 51.8845 127.989 51.8845 127.989C51.8845 127.989 51.8845 127.989 52.1388 127.989C52.3931 127.989 52.5203 128.244 52.5203 128.244H52.6475Z" fill="#C6D6C5"/>
<path fill-rule="evenodd" clip-rule="evenodd" d="M52.3932 127.481C52.3932 127.481 52.266 126.972 51.7573 127.099C51.1215 127.099 51.7573 127.989 51.503 128.498C51.503 129.134 50.9943 129.388 50.8672 129.388C50.6128 129.388 50.6128 129.388 50.6128 129.388C50.6128 129.388 50.6128 129.388 50.8672 129.261C50.9943 129.261 51.2487 129.007 51.3758 128.498C51.3758 128.244 51.3758 127.989 51.3758 127.608C51.3758 127.481 51.3758 127.226 51.3758 127.099C51.503 127.099 51.6302 126.845 51.7573 126.845C52.3932 126.845 52.5204 127.354 52.3932 127.354V127.481Z" fill="#C6D6C5"/>
<path fill-rule="evenodd" clip-rule="evenodd" d="M52.2656 127.099C52.2656 127.099 52.0113 127.099 51.757 127.099C51.5026 127.099 51.1211 126.718 51.2483 126.209C51.2483 125.955 51.6298 125.955 51.757 126.082C51.8841 126.082 51.757 126.336 51.757 126.336H51.6298C51.6298 126.591 51.6298 126.845 51.8841 126.972C52.1385 127.099 52.2656 127.226 52.2656 127.226V127.099Z" fill="#C6D6C5"/>
<path fill-rule="evenodd" clip-rule="evenodd" d="M52.2662 127.354C52.2662 127.354 52.139 127.354 52.0118 127.354C51.8847 127.354 51.7575 127.354 51.8847 127.608C51.8847 127.735 52.139 127.608 52.139 127.735C52.139 127.735 51.7575 127.735 51.7575 127.608C51.7575 127.354 52.0118 127.099 52.2662 127.226C52.3933 127.226 52.5205 127.354 52.5205 127.354H52.2662Z" fill="#C6D6C5"/>
<path fill-rule="evenodd" clip-rule="evenodd" d="M51.5029 126.972C51.5029 126.972 51.2486 126.972 50.9943 126.972C50.7399 126.972 50.7399 126.845 50.7399 126.845C50.7399 126.845 50.7399 126.718 50.9943 126.845C51.2486 126.845 51.3758 126.972 51.3758 127.099L51.5029 126.972Z" fill="#C6D6C5"/>
<path fill-rule="evenodd" clip-rule="evenodd" d="M51.3758 128.752C51.3758 128.752 51.3758 128.498 50.9943 128.371C50.7399 128.371 50.4856 128.752 50.4856 129.006C50.4856 129.388 50.2313 129.642 50.1041 129.642C49.9769 129.642 49.9769 129.642 49.9769 129.642C49.9769 129.642 50.3584 129.642 50.3584 129.006C50.3584 128.625 50.6128 128.116 51.1214 128.244C51.5029 128.371 51.3758 128.752 51.5029 128.752H51.3758Z" fill="#C6D6C5"/>
<path fill-rule="evenodd" clip-rule="evenodd" d="M51.3754 128.879C51.3754 128.879 51.3754 128.625 51.1211 128.498C50.9939 128.371 50.4853 128.244 50.3581 127.735C50.3581 127.481 50.4853 127.354 50.6124 127.354C50.8668 127.354 50.8668 127.481 50.8668 127.608C50.8668 127.735 50.8668 127.735 50.8668 127.735C50.8668 127.735 50.8668 127.226 50.6124 127.735C50.6124 127.989 50.9939 128.116 51.2483 128.371C51.5026 128.625 51.3754 128.879 51.3754 128.879Z" fill="#C6D6C5"/>
<path fill-rule="evenodd" clip-rule="evenodd" d="M53.2832 129.515C53.2832 129.515 53.0289 129.515 52.9017 129.642C52.6474 129.642 52.393 129.642 52.1387 129.388C51.63 129.007 51.3757 129.388 51.3757 129.388C51.3757 129.388 51.5029 129.388 52.0115 129.642C52.2659 129.77 52.6474 129.897 52.9017 129.77C53.156 129.642 53.2832 129.515 53.2832 129.515Z" fill="#C6D6C5"/>
<path fill-rule="evenodd" clip-rule="evenodd" d="M53.2832 129.515C53.2832 129.515 52.9017 129.897 53.0289 130.532C53.0289 131.168 53.6647 131.804 53.9191 132.312C53.9191 132.567 53.9191 132.694 53.6647 132.694C53.6647 132.694 53.4104 132.567 53.4104 132.44C53.4104 132.185 53.4104 132.185 53.4104 132.185C53.4104 132.185 53.2832 132.185 53.1561 132.44C53.1561 132.567 53.1561 132.821 53.4104 132.948C53.6647 132.948 54.0462 132.694 53.9191 132.312C53.5376 131.677 53.0289 131.168 53.0289 130.66C53.0289 130.151 53.2832 129.769 53.1561 129.642L53.2832 129.515Z" fill="#C6D6C5"/>
<path fill-rule="evenodd" clip-rule="evenodd" d="M53.0291 129.897C53.0291 129.897 52.7747 129.897 52.6476 130.151C52.5204 130.151 52.6476 130.405 52.6476 130.405C52.6476 130.405 52.6476 130.405 52.9019 130.405C53.0291 130.278 53.1562 130.024 53.1562 130.024L53.0291 129.897Z" fill="#C6D6C5"/>
<path fill-rule="evenodd" clip-rule="evenodd" d="M53.1558 130.659C53.1558 130.659 53.1558 131.168 52.6471 131.295C52.0113 131.422 52.1385 130.532 51.8841 130.024C51.6298 129.515 51.1211 129.388 50.8668 129.515C51.1211 129.515 51.3755 129.515 51.6298 130.024C51.6298 130.278 51.8841 130.532 52.0113 130.787C52.0113 130.914 52.1385 131.041 52.2656 131.168C52.3928 131.168 52.52 131.168 52.7743 131.168C53.4102 130.914 53.1558 130.405 53.1558 130.405V130.659Z" fill="#C6D6C5"/>
<path fill-rule="evenodd" clip-rule="evenodd" d="M53.1558 131.041C53.1558 131.041 52.9015 131.041 52.7743 131.295C52.6472 131.422 52.3928 131.931 52.7743 132.313C52.9015 132.44 53.1558 132.44 53.283 132.313C53.283 132.185 53.283 132.058 53.283 132.058C53.1558 132.058 53.1558 132.058 53.1558 132.058C53.1558 132.058 53.4102 132.313 53.1558 132.185C53.0287 132.058 53.1558 131.677 53.1558 131.55C53.1558 131.295 53.4102 131.168 53.4102 131.168L53.1558 131.041Z" fill="#C6D6C5"/>
<path fill-rule="evenodd" clip-rule="evenodd" d="M53.0291 130.914C53.0291 130.914 53.0291 130.914 52.7747 131.041C52.6476 131.041 52.5204 131.041 52.5204 131.041C52.5204 130.914 52.6476 130.914 52.6476 130.787C52.6476 130.787 52.2661 130.787 52.3932 131.168C52.3932 131.423 52.9019 131.55 53.0291 131.295C53.0291 131.168 53.1562 131.041 53.1562 131.041L53.0291 130.914Z" fill="#C6D6C5"/>
<path fill-rule="evenodd" clip-rule="evenodd" d="M52.5205 131.423C52.5205 131.423 52.2662 131.423 52.0118 131.55C51.8847 131.55 51.8847 131.804 51.8847 131.804C51.8847 131.804 51.8847 131.804 52.139 131.804C52.2662 131.804 52.5205 131.423 52.3933 131.423H52.5205Z" fill="#C6D6C5"/>
<path fill-rule="evenodd" clip-rule="evenodd" d="M51.6301 129.897C51.6301 129.897 51.6301 130.151 51.503 130.278C51.2486 130.278 50.8671 130.151 50.74 129.897C50.6128 129.515 50.2313 129.515 50.1041 129.515C49.9769 129.515 49.9769 129.515 49.9769 129.515C49.9769 129.515 50.2313 129.388 50.6128 129.897C50.74 130.151 51.2486 130.533 51.6301 130.278C51.8845 130.024 51.6301 129.643 51.6301 129.77V129.897Z" fill="#C6D6C5"/>
<path fill-rule="evenodd" clip-rule="evenodd" d="M51.6299 129.897C51.6299 129.897 51.6299 130.151 51.6299 130.405C51.6299 130.66 51.1212 130.914 51.2484 131.423C51.2484 131.677 51.5027 131.804 51.7571 131.677C52.0114 131.677 51.8842 131.423 51.8842 131.423L51.7571 131.295C51.7571 131.295 51.7571 131.804 51.5027 131.295C51.5027 131.041 51.6299 130.787 51.7571 130.405C51.7571 130.024 51.7571 129.897 51.7571 129.897H51.6299Z" fill="#C6D6C5"/>
<path fill-rule="evenodd" clip-rule="evenodd" d="M51.376 120.742C51.376 120.742 51.1216 120.742 50.9945 120.742C50.7401 120.742 50.613 120.996 50.3586 121.25C49.9771 121.759 49.7228 121.632 49.7228 121.632C49.7228 121.632 49.85 121.632 50.1043 121.123C50.2315 120.869 50.613 120.615 50.8673 120.615C51.1216 120.615 51.376 120.615 51.376 120.615V120.742Z" fill="#C6D6C5"/>
<path fill-rule="evenodd" clip-rule="evenodd" d="M51.2491 120.742C51.2491 120.742 50.7404 120.615 50.6132 119.979C50.3589 119.343 50.6132 118.58 50.6132 118.071C50.6132 117.817 50.3589 117.817 50.2317 117.817C50.2317 117.817 50.2317 118.071 50.2317 118.199C50.2317 118.326 50.4861 118.326 50.4861 118.326C50.4861 118.326 50.3589 118.326 50.2317 118.199C50.2317 118.199 50.2317 117.817 50.2317 117.69C50.4861 117.436 50.9947 117.69 50.9947 118.071C50.9947 118.834 50.6132 119.47 50.8676 119.979C50.9947 120.487 51.5034 120.742 51.3762 120.742H51.2491Z" fill="#C6D6C5"/>
<path fill-rule="evenodd" clip-rule="evenodd" d="M50.8672 120.487C50.8672 120.487 50.6129 120.487 50.3585 120.487C50.2313 120.487 50.1042 120.233 50.1042 120.233C50.1042 120.233 50.1042 120.233 50.3585 120.233C50.6129 120.233 50.74 120.487 50.74 120.487H50.8672Z" fill="#C6D6C5"/>
<path fill-rule="evenodd" clip-rule="evenodd" d="M50.6129 119.852C50.6129 119.852 50.4857 119.343 49.9771 119.47C49.3412 119.47 49.8499 120.36 49.7227 120.869C49.7227 121.505 49.2141 121.759 49.0869 121.759C48.8326 121.759 48.8326 121.759 48.8326 121.759C48.8326 121.759 48.8326 121.759 49.0869 121.632C49.2141 121.632 49.4684 121.377 49.5956 120.869C49.5956 120.615 49.5956 120.36 49.5956 119.979C49.5956 119.852 49.5956 119.597 49.5956 119.47C49.7227 119.47 49.8499 119.216 49.9771 119.216C50.6129 119.216 50.7401 119.724 50.6129 119.724V119.852Z" fill="#C6D6C5"/>
<path fill-rule="evenodd" clip-rule="evenodd" d="M50.4854 119.47C50.4854 119.47 50.231 119.47 49.9767 119.47C49.7223 119.47 49.3408 119.089 49.468 118.58C49.468 118.326 49.7223 118.326 49.9767 118.453C50.1038 118.453 49.9767 118.707 49.9767 118.707H49.8495C49.8495 118.962 49.8495 119.216 50.1038 119.343C50.3582 119.47 50.4854 119.597 50.4854 119.597V119.47Z" fill="#C6D6C5"/>
<path fill-rule="evenodd" clip-rule="evenodd" d="M50.4851 119.597C50.4851 119.597 50.4851 119.597 50.2308 119.597C50.1036 119.597 49.9765 119.597 49.9765 119.852C49.9765 119.979 50.2308 119.852 50.2308 119.979C50.2308 119.979 49.8493 119.979 49.8493 119.852C49.8493 119.597 50.1036 119.343 50.358 119.47C50.4851 119.47 50.6123 119.597 50.6123 119.597H50.4851Z" fill="#C6D6C5"/>
<path fill-rule="evenodd" clip-rule="evenodd" d="M49.7227 119.343C49.7227 119.343 49.4683 119.343 49.214 119.343C48.9596 119.343 48.9596 119.216 48.9596 119.216C48.9596 119.216 48.9596 119.089 49.214 119.216C49.3412 119.216 49.5955 119.343 49.5955 119.47L49.7227 119.343Z" fill="#C6D6C5"/>
<path fill-rule="evenodd" clip-rule="evenodd" d="M49.5955 121.123C49.5955 121.123 49.5955 120.869 49.214 120.742C48.9596 120.742 48.7053 121.123 48.7053 121.377C48.7053 121.759 48.451 122.013 48.3238 122.013C48.1966 122.013 48.1966 122.013 48.1966 122.013C48.1966 122.013 48.5781 122.013 48.5781 121.377C48.5781 120.996 48.8325 120.487 49.3412 120.614C49.7227 120.742 49.5955 121.123 49.7227 121.123H49.5955Z" fill="#C6D6C5"/>
<path fill-rule="evenodd" clip-rule="evenodd" d="M49.5952 121.123C49.5952 121.123 49.5952 120.869 49.3408 120.742C49.2137 120.614 48.705 120.487 48.5778 119.979C48.5778 119.724 48.705 119.597 48.8322 119.597C49.0865 119.597 49.0865 119.724 49.0865 119.851C49.0865 119.979 49.0865 119.979 49.0865 119.979C49.0865 119.979 49.0865 119.47 48.8322 119.979C48.8322 120.233 49.2137 120.36 49.468 120.614C49.7223 120.869 49.5952 121.123 49.5952 121.123Z" fill="#C6D6C5"/>
<path fill-rule="evenodd" clip-rule="evenodd" d="M51.5029 121.759C51.5029 121.759 51.2486 121.759 51.1214 121.886C50.8671 121.886 50.6128 121.886 50.3584 121.632C49.8498 121.25 49.5954 121.632 49.5954 121.632C49.5954 121.632 49.7226 121.632 50.2313 121.886C50.4856 122.013 50.8671 122.14 51.1214 122.013C51.3758 121.886 51.5029 121.759 51.5029 121.759Z" fill="#C6D6C5"/>
<path fill-rule="evenodd" clip-rule="evenodd" d="M51.503 121.759C51.503 121.759 51.1215 122.14 51.2486 122.776C51.2486 123.412 51.8845 124.048 52.1388 124.556C52.1388 124.81 52.1388 124.938 51.8845 124.938C51.7573 124.938 51.6301 124.81 51.6301 124.683C51.6301 124.429 51.6301 124.429 51.6301 124.429C51.6301 124.429 51.503 124.429 51.3758 124.683C51.3758 124.81 51.3758 125.065 51.6301 125.192C51.8845 125.192 52.266 124.938 52.1388 124.556C51.7573 123.92 51.2486 123.412 51.2486 122.903C51.2486 122.395 51.503 122.013 51.3758 121.886L51.503 121.759Z" fill="#C6D6C5"/>
<path fill-rule="evenodd" clip-rule="evenodd" d="M51.2488 122.14C51.2488 122.14 50.9945 122.14 50.8673 122.395C50.7401 122.395 50.8673 122.649 50.8673 122.649C50.8673 122.649 50.8673 122.649 51.1216 122.649C51.2488 122.522 51.376 122.268 51.376 122.268L51.2488 122.14Z" fill="#C6D6C5"/>
<path fill-rule="evenodd" clip-rule="evenodd" d="M51.3757 122.903C51.3757 122.903 51.3757 123.412 50.867 123.539C50.2312 123.666 50.3583 122.776 50.104 122.268C49.8496 121.759 49.341 121.632 49.0866 121.759C49.341 121.759 49.5953 121.759 49.8496 122.268C49.8496 122.522 50.104 122.776 50.2312 123.031C50.2312 123.158 50.3583 123.285 50.4855 123.412C50.6127 123.412 50.867 123.412 50.9942 123.412C51.63 123.158 51.5028 122.649 51.3757 122.649V122.903Z" fill="#C6D6C5"/>
<path fill-rule="evenodd" clip-rule="evenodd" d="M51.3755 123.285C51.3755 123.285 51.1212 123.285 50.994 123.539C50.8669 123.666 50.6125 124.175 50.994 124.556C51.1212 124.683 51.3755 124.683 51.5027 124.556C51.5027 124.429 51.5027 124.302 51.5027 124.302C51.3755 124.302 51.3755 124.302 51.3755 124.302C51.3755 124.302 51.6299 124.556 51.3755 124.429C51.2484 124.302 51.3755 123.92 51.3755 123.793C51.3755 123.539 51.6299 123.412 51.6299 123.412L51.3755 123.285Z" fill="#C6D6C5"/>
<path fill-rule="evenodd" clip-rule="evenodd" d="M51.3758 123.158C51.3758 123.158 51.3758 123.158 51.1214 123.285C50.9943 123.285 50.8671 123.285 50.8671 123.285C50.8671 123.158 50.9943 123.158 50.9943 123.031C50.9943 123.031 50.6128 123.031 50.7399 123.412C50.7399 123.666 51.2486 123.793 51.3758 123.539C51.3758 123.412 51.5029 123.285 51.5029 123.285L51.3758 123.158Z" fill="#C6D6C5"/>
<path fill-rule="evenodd" clip-rule="evenodd" d="M50.7402 123.793C50.7402 123.793 50.4859 123.793 50.2316 123.921C50.1044 123.921 50.1044 124.175 50.1044 124.175C50.1044 124.175 50.1044 124.175 50.3587 124.175C50.4859 124.175 50.7402 123.793 50.7402 123.793Z" fill="#C6D6C5"/>
<path fill-rule="evenodd" clip-rule="evenodd" d="M49.8499 122.14C49.8499 122.14 49.8499 122.395 49.7227 122.649C49.4683 122.649 49.0868 122.522 48.9597 122.267C48.8325 121.886 48.451 121.886 48.3238 121.886C48.1967 121.886 48.1967 121.886 48.1967 121.886C48.1967 121.886 48.451 121.759 48.8325 122.267C48.9597 122.522 49.4683 122.903 49.8499 122.649C50.1042 122.395 49.8499 122.013 49.8499 122.14Z" fill="#C6D6C5"/>
<path fill-rule="evenodd" clip-rule="evenodd" d="M49.8496 122.14C49.8496 122.14 49.8496 122.395 49.8496 122.649C49.8496 122.903 49.3409 123.158 49.4681 123.666C49.4681 123.92 49.7224 124.048 49.9768 123.92C50.2311 123.92 50.104 123.666 50.104 123.539L49.9768 123.412C49.9768 123.412 49.9768 123.92 49.7224 123.412C49.7224 123.158 49.8496 122.903 49.9768 122.522C49.9768 122.14 49.9768 122.013 49.9768 122.013L49.8496 122.14Z" fill="#C6D6C5"/>
<path fill-rule="evenodd" clip-rule="evenodd" d="M49.5957 113.113C49.5957 113.113 49.3414 113.113 49.087 113.113C48.8327 113.113 48.7055 113.367 48.4512 113.621C48.0697 114.13 47.8154 114.003 47.8154 114.003C47.8154 114.003 47.9425 114.003 48.1969 113.494C48.324 113.24 48.5784 112.985 48.9599 112.985C49.2142 112.985 49.4685 112.985 49.4685 112.985L49.5957 113.113Z" fill="#C6D6C5"/>
<path fill-rule="evenodd" clip-rule="evenodd" d="M49.596 112.985C49.596 112.985 49.0873 112.858 48.9601 112.222C48.7058 111.714 48.9601 110.824 48.9601 110.315C48.9601 110.061 48.7058 110.061 48.5786 110.061C48.5786 110.061 48.5786 110.315 48.5786 110.442C48.5786 110.57 48.833 110.57 48.7058 110.697C48.7058 110.697 48.7058 110.697 48.4515 110.569C48.4515 110.569 48.4515 110.188 48.4515 110.061C48.7058 109.807 49.2145 110.061 49.2145 110.442C49.2145 111.205 48.833 111.841 49.0873 112.35C49.2145 112.858 49.7231 113.113 49.596 113.113V112.985Z" fill="#C6D6C5"/>
<path fill-rule="evenodd" clip-rule="evenodd" d="M49.0869 112.858C49.0869 112.858 48.8326 112.858 48.5782 112.858C48.4511 112.858 48.3239 112.731 48.3239 112.731C48.3239 112.731 48.3239 112.731 48.5782 112.731C48.8326 112.731 48.9597 112.985 48.9597 112.985L49.0869 112.858Z" fill="#C6D6C5"/>
<path fill-rule="evenodd" clip-rule="evenodd" d="M48.8326 112.095C48.8326 112.095 48.7055 111.587 48.1968 111.714C47.561 111.714 48.0696 112.604 47.9425 113.112C47.9425 113.748 47.4338 114.003 47.3066 114.003C47.0523 114.003 47.0523 114.003 47.0523 114.003C47.0523 114.003 47.0523 114.003 47.3066 113.875C47.4338 113.875 47.6881 113.621 47.8153 113.112C47.8153 112.858 47.8153 112.604 47.8153 112.222C47.8153 112.095 47.8153 111.841 47.8153 111.714C47.9425 111.714 48.0696 111.459 48.1968 111.459C48.8326 111.459 48.9598 111.968 48.8326 111.968V112.095Z" fill="#C6D6C5"/>
<path fill-rule="evenodd" clip-rule="evenodd" d="M48.832 111.714C48.832 111.714 48.5777 111.714 48.3234 111.714C48.069 111.714 47.6875 111.332 47.8147 110.824C47.8147 110.569 48.1962 110.569 48.3234 110.697C48.4505 110.697 48.3234 110.951 48.3234 110.951H48.1962C48.1962 111.205 48.1962 111.459 48.4505 111.587C48.7049 111.714 48.832 111.841 48.832 111.841V111.714Z" fill="#C6D6C5"/>
<path fill-rule="evenodd" clip-rule="evenodd" d="M48.8328 111.841C48.8328 111.841 48.7056 111.841 48.5785 111.841C48.4513 111.841 48.3241 111.841 48.3241 112.095C48.3241 112.222 48.5785 112.095 48.5785 112.222C48.5785 112.222 48.197 112.222 48.197 112.095C48.197 111.841 48.4513 111.587 48.7056 111.714C48.8328 111.714 48.96 111.841 48.96 111.841H48.8328Z" fill="#C6D6C5"/>
<path fill-rule="evenodd" clip-rule="evenodd" d="M47.9424 111.587C47.9424 111.587 47.688 111.587 47.4337 111.587C47.1794 111.587 47.1794 111.46 47.1794 111.46C47.1794 111.46 47.1794 111.332 47.4337 111.46C47.688 111.46 47.8152 111.587 47.8152 111.714L47.9424 111.587Z" fill="#C6D6C5"/>
<path fill-rule="evenodd" clip-rule="evenodd" d="M47.8152 113.367C47.8152 113.367 47.8152 113.113 47.4337 112.985C47.1794 112.985 46.925 113.367 46.925 113.621C46.925 114.003 46.6707 114.257 46.5435 114.257C46.4164 114.257 46.4164 114.257 46.4164 114.257C46.4164 114.257 46.7979 114.257 46.7979 113.621C46.7979 113.24 47.0522 112.731 47.5609 112.858C47.9424 112.985 47.8152 113.367 47.9424 113.367H47.8152Z" fill="#C6D6C5"/>
<path fill-rule="evenodd" clip-rule="evenodd" d="M47.8149 113.367C47.8149 113.367 47.8149 113.113 47.5606 112.985C47.4334 112.858 46.9247 112.731 46.7975 112.223C46.7975 111.968 46.9247 111.841 47.0519 111.841C47.3062 111.841 47.3062 111.968 47.3062 112.095C47.3062 112.223 47.3062 112.223 47.3062 112.223C47.3062 112.223 47.3062 111.714 47.0519 112.223C47.0519 112.477 47.4334 112.604 47.6877 112.858C47.9421 113.113 47.8149 113.367 47.8149 113.367Z" fill="#C6D6C5"/>
<path fill-rule="evenodd" clip-rule="evenodd" d="M49.7227 114.003C49.7227 114.003 49.5955 114.003 49.3412 114.13C49.0868 114.13 48.8325 114.13 48.5781 113.876C48.0695 113.494 47.8151 113.876 47.8151 113.876C47.8151 113.876 47.9423 113.876 48.451 114.13C48.7053 114.257 49.0868 114.384 49.3412 114.257C49.5955 114.13 49.7227 114.003 49.7227 114.003Z" fill="#C6D6C5"/>
<path fill-rule="evenodd" clip-rule="evenodd" d="M49.7227 114.13C49.7227 114.13 49.3412 114.511 49.4684 115.147C49.4684 115.783 50.1042 116.418 50.3585 116.927C50.3585 117.181 50.3585 117.308 50.1042 117.308C49.977 117.308 49.8499 117.181 49.8499 117.054C49.8499 116.927 49.8499 116.8 49.8499 116.8C49.8499 116.8 49.7227 116.8 49.5955 117.054C49.5955 117.181 49.5955 117.436 49.8499 117.563C50.1042 117.563 50.4857 117.308 50.3585 116.927C49.977 116.291 49.4684 115.783 49.4684 115.274C49.4684 114.765 49.7227 114.384 49.5955 114.257L49.7227 114.13Z" fill="#C6D6C5"/>
<path fill-rule="evenodd" clip-rule="evenodd" d="M49.4685 114.511C49.4685 114.511 49.2142 114.511 49.087 114.766C48.9599 114.893 49.087 115.02 49.087 115.02C49.087 115.02 49.087 115.02 49.3414 115.02C49.4685 114.893 49.5957 114.638 49.5957 114.638L49.4685 114.511Z" fill="#C6D6C5"/>
<path fill-rule="evenodd" clip-rule="evenodd" d="M49.5957 115.274C49.5957 115.274 49.5957 115.783 49.087 115.91C48.4512 116.037 48.5784 115.147 48.1969 114.638C47.9425 114.13 47.4339 114.003 47.1795 114.13C47.4339 114.13 47.6882 114.13 47.9425 114.638C47.9425 114.893 48.1969 115.147 48.324 115.401C48.324 115.529 48.4512 115.656 48.5784 115.783C48.7055 115.783 48.8327 115.783 49.087 115.783C49.7229 115.529 49.4685 115.02 49.4685 115.02L49.5957 115.274Z" fill="#C6D6C5"/>
<path fill-rule="evenodd" clip-rule="evenodd" d="M49.5953 115.528C49.5953 115.528 49.3409 115.528 49.2138 115.783C49.0866 115.91 48.8323 116.418 49.2138 116.8C49.3409 116.927 49.5953 116.8 49.7224 116.8C49.7224 116.673 49.7224 116.546 49.7224 116.546H49.5953C49.5953 116.546 49.8496 116.8 49.5953 116.673C49.3409 116.546 49.5953 116.164 49.5953 116.037C49.5953 115.783 49.8496 115.656 49.8496 115.656L49.5953 115.528Z" fill="#C6D6C5"/>
<path fill-rule="evenodd" clip-rule="evenodd" d="M49.5955 115.401C49.5955 115.401 49.5955 115.401 49.3412 115.528C49.214 115.528 49.0868 115.528 49.0868 115.528C49.0868 115.401 49.214 115.401 49.214 115.274C49.214 115.274 48.8325 115.274 48.9596 115.656C48.9596 115.91 49.4683 116.037 49.5955 115.783C49.5955 115.656 49.7227 115.528 49.7227 115.528L49.5955 115.401Z" fill="#C6D6C5"/>
<path fill-rule="evenodd" clip-rule="evenodd" d="M48.96 116.037C48.96 116.037 48.7056 116.037 48.4513 116.164C48.3241 116.164 48.3241 116.419 48.3241 116.419C48.3241 116.419 48.3241 116.419 48.5785 116.419C48.7056 116.419 48.96 116.037 48.96 116.037Z" fill="#C6D6C5"/>
<path fill-rule="evenodd" clip-rule="evenodd" d="M48.0696 114.511C48.0696 114.511 48.0696 114.765 47.9424 114.893C47.6881 114.893 47.3066 114.766 47.1794 114.511C47.0522 114.13 46.6707 114.003 46.5436 114.13C46.4164 114.13 46.4164 114.13 46.4164 114.13C46.4164 114.13 46.6707 114.003 47.0522 114.511C47.1794 114.766 47.6881 115.147 48.0696 114.893C48.3239 114.638 48.0696 114.257 48.0696 114.384V114.511Z" fill="#C6D6C5"/>
<path fill-rule="evenodd" clip-rule="evenodd" d="M48.0693 114.384C48.0693 114.384 48.0693 114.638 48.0693 114.893C48.0693 115.147 47.5607 115.401 47.6878 115.91C47.6878 116.164 47.9422 116.291 48.1965 116.164C48.4508 116.164 48.3237 115.91 48.3237 115.91L48.1965 115.783C48.1965 115.783 48.1965 116.291 47.9422 115.783C47.9422 115.528 48.0693 115.274 48.1965 114.893C48.1965 114.511 48.1965 114.384 48.1965 114.384H48.0693Z" fill="#C6D6C5"/>
<path fill-rule="evenodd" clip-rule="evenodd" d="M49.4681 132.44C48.1964 137.017 61.6762 137.017 60.4045 132.44H49.4681Z" fill="#C6D6C5"/>
<path d="M44.763 109.679C44.763 109.679 45.7803 108.916 46.4162 108.916H63.5838C64.2197 108.916 64.8555 109.171 65.237 109.679C65.6185 110.061 66 110.696 66 111.332L61.5491 130.787C61.5491 131.422 61.2948 132.058 60.7861 132.44C60.4046 132.821 59.896 132.948 59.3873 132.948L59.0058 133.075H50.4855C50.4855 133.075 49.4682 132.694 49.0867 132.312C48.7052 131.931 48.3237 131.295 48.3237 130.66L43.8728 111.205C43.8728 110.569 44.1272 109.934 44.6358 109.552L44.763 109.679ZM56.3353 130.787C56.3353 130.787 56.4624 131.422 56.7168 131.677C56.9711 131.931 57.2254 132.058 57.6069 132.058H59.2601C59.2601 132.058 59.896 131.931 60.1503 131.677C60.4046 131.422 60.5318 131.168 60.5318 130.787L64.9827 111.332C64.9827 111.332 64.8555 110.696 64.6012 110.442C64.3468 110.188 64.0925 110.061 63.711 110.061H59.1329C59.1329 110.061 59.6416 110.824 59.6416 111.205L55.8266 127.862L56.4624 130.532L56.3353 130.787ZM54.5549 131.931H55.5723C55.5723 131.931 55.0636 131.168 55.0636 130.787C55.0636 131.295 54.8092 131.55 54.5549 131.931ZM55.0636 119.343C55.3179 118.071 57.7341 118.198 57.2254 116.418C57.2254 116.164 57.0983 115.91 57.2254 115.655C57.2254 115.528 57.2254 115.401 57.2254 115.274V115.401V115.147C57.2254 115.147 57.2254 115.147 57.2254 115.274C57.2254 115.274 57.2254 115.147 57.2254 114.892C57.0983 114.638 57.2254 114.384 57.2254 114.13C57.7341 112.477 55.3179 112.477 55.0636 111.205C54.8092 112.477 52.3931 112.349 52.9017 114.13C52.9017 114.384 53.0289 114.638 52.9017 114.892C52.9017 115.02 52.9017 115.147 52.9017 115.274V115.147V115.401C52.9017 115.401 52.9017 115.401 52.9017 115.274C52.9017 115.274 52.9017 115.401 52.9017 115.655C53.0289 115.91 52.9017 116.164 52.9017 116.418C52.3931 118.071 54.8092 118.071 55.0636 119.343ZM49.7225 130.66C49.7225 130.66 49.8497 131.295 50.104 131.55C50.3584 131.804 50.6127 131.931 50.9942 131.931H52.6474C52.6474 131.931 53.2832 131.804 53.5376 131.55C53.7919 131.295 53.9191 131.041 53.9191 130.66L54.5549 127.989L50.7399 111.332C50.7399 111.332 50.9942 110.569 51.2486 110.188H46.6705C46.6705 110.188 46.0347 110.315 45.7803 110.569C45.526 110.824 45.3988 111.078 45.3988 111.459L49.8497 130.914L49.7225 130.66Z" fill="#C6D6C5"/>
<path d="M56.2084 131.55L61.168 109.934H60.9136L55.9541 131.55H56.2084Z" fill="#C6D6C5"/>
<path d="M53.7925 131.55L48.833 109.934H49.0873L54.0469 131.55H53.7925Z" fill="#C6D6C5"/>
</g>
<g clip-path="url(#clip1_523_27113)">
<path fill-rule="evenodd" clip-rule="evenodd" d="M31 134.213C31 135.358 30.1429 136.216 29 136.216C27.8571 136.216 27 135.358 27 134.213C27 133.069 27.8571 132.211 29 132.211C30.1429 132.211 31 133.069 31 134.213Z" fill="#C6D6C5"/>
<path fill-rule="evenodd" clip-rule="evenodd" d="M30.2861 131.209C30.2861 131.925 29.7147 132.64 28.8576 132.64C28.0004 132.64 27.429 132.068 27.429 131.209C27.429 130.351 28.0004 129.779 28.8576 129.779C29.7147 129.779 30.2861 130.351 30.2861 131.209Z" fill="#C6D6C5"/>
<path d="M28.6861 -326H29.2861V125.916H28.6861V-326Z" fill="#C6D6C5"/>
<path d="M29.0001 125.773C29.0001 125.773 27.7144 126.059 27.2859 126.488C27.2859 126.488 26.5716 127.49 26.5716 128.205C26.5716 128.92 26.8573 129.493 27.2859 129.922C27.7144 130.351 28.2859 130.637 29.0001 130.637C29.7144 130.637 30.2859 130.351 30.7144 129.922C30.7144 129.922 31.4287 128.92 31.4287 128.205C31.4287 127.49 31.143 126.918 30.7144 126.488C30.7144 126.488 29.7144 125.773 29.0001 125.773ZM30.143 127.061C30.143 127.061 30.5716 127.776 30.5716 128.205C30.5716 128.634 30.4287 129.063 30.143 129.35C30.143 129.35 29.4287 129.779 29.0001 129.779C28.5716 129.779 28.143 129.636 27.8573 129.35C27.5716 129.063 27.4287 128.634 27.4287 128.205C27.4287 127.776 27.5716 127.347 27.8573 127.061C27.8573 127.061 28.5716 126.632 29.0001 126.632C29.4287 126.632 29.8573 126.775 30.143 127.061Z" fill="#C6D6C5"/>
<path fill-rule="evenodd" clip-rule="evenodd" d="M39.7143 146.087H18.1429C18.1429 146.087 16.8571 146.659 16.8571 147.375C16.8571 148.09 17.4286 148.662 18.1429 148.662H39.7143C39.7143 148.662 41 148.09 41 147.375C41 146.659 40.4286 146.087 39.7143 146.087Z" fill="#C6D6C5"/>
<path fill-rule="evenodd" clip-rule="evenodd" d="M39.7143 174.699H18.1429C18.1429 174.699 16.8571 174.126 16.8571 173.411C16.8571 172.696 17.4286 172.124 18.1429 172.124H39.7143C39.7143 172.124 41 172.696 41 173.411C41 174.126 40.4286 174.699 39.7143 174.699Z" fill="#C6D6C5"/>
<path fill-rule="evenodd" clip-rule="evenodd" d="M19 173.125V147.518C19 147.518 18.8571 147.088 18.5714 147.088C18.2857 147.088 18.1429 147.231 18.1429 147.518V173.125C18.1429 173.125 18.2857 173.554 18.5714 173.554C18.8571 173.554 19 173.411 19 173.125Z" fill="#C6D6C5"/>
<path fill-rule="evenodd" clip-rule="evenodd" d="M39.8574 173.125V147.518C39.8574 147.518 39.7146 147.088 39.4289 147.088C39.1431 147.088 39.0003 147.231 39.0003 147.518V173.125C39.0003 173.125 39.1431 173.554 39.4289 173.554C39.7146 173.554 39.8574 173.411 39.8574 173.125Z" fill="#C6D6C5"/>
<path fill-rule="evenodd" clip-rule="evenodd" d="M24.7139 147.804V172.982H19.9996V147.804H24.7139ZM23.7139 168.833C23.7139 168.833 23.7139 168.833 23.7139 168.69C23.7139 168.547 23.7139 168.404 23.7139 168.261C23.9996 167.259 22.571 167.259 22.4282 166.544C22.2853 167.259 20.8567 167.259 21.1424 168.261C21.1424 168.404 21.1424 168.547 21.1424 168.69C21.1424 168.69 21.1424 168.69 21.1424 168.833C21.1424 168.833 21.1424 168.833 21.1424 168.976C21.1424 169.119 21.1424 169.262 21.1424 169.405C20.8567 170.407 22.2853 170.407 22.4282 171.122C22.571 170.407 23.9996 170.407 23.7139 169.405C23.7139 169.262 23.7139 169.119 23.7139 168.976V168.833ZM23.7139 163.111C23.7139 162.968 23.7139 162.825 23.7139 162.682C23.9996 161.68 22.571 161.68 22.4282 160.965C22.2853 161.68 20.8567 161.68 21.1424 162.682C21.1424 162.825 21.1424 162.968 21.1424 163.111V163.254C21.1424 163.254 21.1424 163.254 21.1424 163.397C21.1424 163.54 21.1424 163.683 21.1424 163.826C20.8567 164.827 22.2853 164.827 22.4282 165.543C22.571 164.827 23.9996 164.827 23.7139 163.826C23.7139 163.683 23.7139 163.54 23.7139 163.397V163.254V163.111ZM23.7139 157.389C23.7139 157.245 23.7139 157.102 23.7139 156.959C23.9996 155.958 22.571 155.958 22.4282 155.243C22.2853 155.958 20.8567 155.958 21.1424 156.959C21.1424 157.102 21.1424 157.245 21.1424 157.389V157.532C21.1424 157.675 21.1424 157.818 21.1424 157.961C20.8567 158.962 22.2853 158.962 22.4282 159.677C22.571 158.962 23.9996 158.962 23.7139 157.961C23.7139 157.818 23.7139 157.675 23.7139 157.532V157.389ZM23.7139 151.666C23.7139 151.523 23.7139 151.38 23.7139 151.237C23.9996 150.236 22.571 150.236 22.4282 149.52C22.2853 150.236 20.8567 150.236 21.1424 151.237C21.1424 151.38 21.1424 151.523 21.1424 151.666V151.809C21.1424 151.809 21.1424 151.809 21.1424 151.952C21.1424 152.095 21.1424 152.238 21.1424 152.382C20.8567 153.383 22.2853 153.383 22.4282 154.098C22.571 153.383 23.9996 153.383 23.7139 152.382C23.7139 152.238 23.7139 152.095 23.7139 151.952V151.809V151.666Z" fill="#C6D6C5"/>
<path fill-rule="evenodd" clip-rule="evenodd" d="M37.8574 147.804V172.982H33.1431V147.804H37.8574ZM36.8574 168.833C36.8574 168.833 36.8574 168.833 36.8574 168.69C36.8574 168.547 36.8574 168.404 36.8574 168.261C37.1431 167.259 35.7146 167.259 35.5717 166.544C35.4289 167.259 34.0003 167.259 34.286 168.261C34.286 168.404 34.286 168.547 34.286 168.69C34.286 168.69 34.286 168.69 34.286 168.833H34.1431C34.1431 168.833 34.1431 168.833 34.1431 168.976C34.1431 169.119 34.1431 169.262 34.1431 169.405C33.8574 170.407 35.286 170.407 35.4289 171.122C35.5717 170.407 37.0003 170.407 36.7146 169.405C36.7146 169.262 36.7146 169.119 36.7146 168.976V168.833H36.8574ZM36.8574 163.111C36.8574 162.968 36.8574 162.825 36.8574 162.682C37.1431 161.68 35.7146 161.68 35.5717 160.965C35.4289 161.68 34.0003 161.68 34.286 162.682C34.286 162.825 34.286 162.968 34.286 163.111V163.254C34.286 163.254 34.286 163.254 34.286 163.397C34.286 163.54 34.286 163.683 34.286 163.826C34.0003 164.827 35.4289 164.827 35.5717 165.543C35.7146 164.827 37.1431 164.827 36.8574 163.826C36.8574 163.683 36.8574 163.54 36.8574 163.397V163.254V163.111ZM36.8574 157.389C36.8574 157.245 36.8574 157.102 36.8574 156.959C37.1431 155.958 35.7146 155.958 35.5717 155.243C35.4289 155.958 34.0003 155.958 34.286 156.959C34.286 157.102 34.286 157.245 34.286 157.389V157.532C34.286 157.675 34.286 157.818 34.286 157.961C34.0003 158.962 35.4289 158.962 35.5717 159.677C35.7146 158.962 37.1431 158.962 36.8574 157.961C36.8574 157.818 36.8574 157.675 36.8574 157.532V157.389ZM36.8574 151.666C36.8574 151.523 36.8574 151.38 36.8574 151.237C37.1431 150.236 35.7146 150.236 35.5717 149.52C35.4289 150.236 34.0003 150.236 34.286 151.237C34.286 151.38 34.286 151.523 34.286 151.666V151.809C34.286 151.809 34.286 151.809 34.286 151.952C34.286 152.095 34.286 152.238 34.286 152.382C34.0003 153.383 35.4289 153.383 35.5717 154.098C35.7146 153.383 37.1431 153.383 36.8574 152.382C36.8574 152.238 36.8574 152.095 36.8574 151.952V151.809V151.666Z" fill="#C6D6C5"/>
<path fill-rule="evenodd" clip-rule="evenodd" d="M16.9996 147.232H18.9996V146.802C18.9996 146.802 17.1424 140.079 25.9996 137.361C27.1424 137.075 28.1424 136.502 28.8567 136.073C29.7139 136.645 30.571 137.075 31.7139 137.361C40.7139 140.079 38.9996 146.516 38.8567 146.802V147.232H40.7139C40.4282 147.232 39.9996 147.089 39.7139 147.089C39.7139 147.089 41.8567 139.507 31.9996 136.502C30.571 136.073 29.571 135.501 28.8567 134.929C28.1424 135.644 27.1424 136.073 25.7139 136.502C15.8567 139.65 17.9996 147.089 17.9996 147.089C17.7139 147.089 17.2853 147.089 16.9996 147.232Z" fill="#C6D6C5"/>
<path d="M28.9997 134.929L28.714 135.358C28.2854 135.93 27.714 136.502 26.8569 136.931C21.5711 139.65 21.714 145.515 21.8569 147.375H22.8569C22.714 145.801 22.5711 140.079 27.4283 137.647C28.1426 137.361 28.714 136.788 29.1426 136.216L28.8569 135.072L28.9997 134.929Z" fill="#C6D6C5"/>
<path d="M28.9993 134.929L29.285 135.358C29.7136 135.93 30.285 136.502 31.1421 136.931C36.4278 139.65 36.285 145.515 36.1421 147.375H35.1421C35.285 145.801 35.4278 140.079 30.5707 137.647C29.8564 137.361 29.285 136.788 28.8564 136.216L29.1421 135.072L28.9993 134.929Z" fill="#C6D6C5"/>
<path fill-rule="evenodd" clip-rule="evenodd" d="M16.9996 173.554H18.9996V173.983C18.9996 173.983 17.1424 180.707 25.9996 183.425C27.1424 183.711 28.1424 184.283 28.8567 184.712C29.7139 184.14 30.571 183.711 31.7139 183.425C40.7139 180.707 38.9996 174.269 38.8567 173.983V173.554H40.7139C40.4282 173.554 39.9996 173.697 39.7139 173.697C39.7139 173.697 41.8567 181.279 31.9996 184.283C30.571 184.712 29.571 185.285 28.8567 185.857C28.1424 185.142 27.1424 184.712 25.7139 184.283C15.8567 181.136 17.9996 173.697 17.9996 173.697C17.7139 173.697 17.2853 173.697 16.9996 173.554Z" fill="#C6D6C5"/>
<path d="M28.9997 185.857L28.714 185.428C28.2854 184.855 27.714 184.283 26.8569 183.854C21.5711 181.136 21.714 175.271 21.8569 173.411H22.8569C22.714 174.985 22.5711 180.707 27.4283 183.139C28.1426 183.568 28.714 183.997 29.1426 184.569L28.8569 185.714L28.9997 185.857Z" fill="#C6D6C5"/>
<path d="M28.9993 185.857L29.285 185.428C29.7136 184.855 30.285 184.283 31.1421 183.854C36.4278 181.136 36.285 175.271 36.1421 173.411H35.1421C35.285 174.985 35.4278 180.707 30.5707 183.139C29.8564 183.568 29.285 183.997 28.8564 184.569L29.1421 185.714L28.9993 185.857Z" fill="#C6D6C5"/>
<path d="M28.8574 160.393C27.4289 158.533 26.286 156.244 26.286 153.812C26.286 151.38 27.286 148.948 28.8574 147.088H28.1431C26.7146 148.948 25.7146 151.237 25.7146 153.812C25.7146 156.387 26.7146 158.533 28.1431 160.393C26.7146 162.252 25.7146 164.541 25.7146 166.973C25.7146 169.405 26.7146 171.694 28.1431 173.697H28.8574C27.4289 171.837 26.286 169.548 26.286 166.973C26.286 164.398 27.286 162.109 28.8574 160.393Z" fill="#C6D6C5"/>
<path d="M25.7146 160.393C27.1431 158.533 28.286 156.244 28.286 153.812C28.286 151.38 27.286 148.948 25.7146 147.088H26.4289C27.8574 148.948 28.8574 151.237 28.8574 153.812C28.8574 156.387 27.8574 158.533 26.4289 160.393C27.8574 162.252 28.8574 164.541 28.8574 166.973C28.8574 169.405 27.8574 171.694 26.4289 173.697H25.7146C27.1431 171.837 28.286 169.548 28.286 166.973C28.286 164.398 27.286 162.109 25.7146 160.393Z" fill="#C6D6C5"/>
<path d="M32.2861 160.393C30.8576 158.533 29.7147 156.244 29.7147 153.812C29.7147 151.38 30.7147 148.948 32.2861 147.088H31.5718C30.1433 148.948 29.1433 151.237 29.1433 153.812C29.1433 156.387 30.1433 158.533 31.5718 160.393C30.1433 162.252 29.1433 164.541 29.1433 166.973C29.1433 169.405 30.1433 171.694 31.5718 173.697H32.2861C30.8576 171.837 29.7147 169.548 29.7147 166.973C29.7147 164.398 30.7147 162.109 32.2861 160.393Z" fill="#C6D6C5"/>
<path d="M29.1433 160.393C30.5718 158.533 31.7147 156.244 31.7147 153.812C31.7147 151.38 30.7147 148.948 29.1433 147.088H29.8576C31.2861 148.948 32.2861 151.237 32.2861 153.812C32.2861 156.387 31.2861 158.533 29.8576 160.393C31.2861 162.252 32.2861 164.541 32.2861 166.973C32.2861 169.405 31.2861 171.694 29.8576 173.697H29.1433C30.5718 171.837 31.7147 169.548 31.7147 166.973C31.7147 164.398 30.7147 162.109 29.1433 160.393Z" fill="#C6D6C5"/>
</g>
<g clip-path="url(#clip2_523_27113)">
<path d="M5.0495 122.906L6.23762 126.796H10L6.93069 129.11L8.11881 133L5.0495 130.582L1.9802 133L3.16832 129.11L0 126.796H3.86139L5.0495 122.906Z" fill="#C6D6C5"/>
<path d="M4.88672 -106.821H5.38672V125.179H4.88672V-106.821Z" fill="#C6D6C5"/>
</g>
<defs>
<clipPath id="clip0_523_27113">
<rect width="22" height="465" fill="white" transform="matrix(-1 0 0 1 66 -329)"/>
</clipPath>
<clipPath id="clip1_523_27113">
<rect width="24" height="512" fill="white" transform="matrix(-1 0 0 1 41 -326)"/>
</clipPath>
<clipPath id="clip2_523_27113">
<rect width="10" height="241" fill="white" transform="matrix(-1 0 0 1 10 -108)"/>
</clipPath>
</defs>
</svg>
