<svg width="21" height="20" viewBox="0 0 21 20" fill="none" xmlns="http://www.w3.org/2000/svg">
<g clip-path="url(#clip0_523_27795)">
<path d="M17.6062 0H3.06077C1.55454 0 0.333496 1.22104 0.333496 2.72727V17.2727C0.333496 18.779 1.55454 20 3.06077 20H17.6062C19.1125 20 20.3335 18.779 20.3335 17.2727V2.72727C20.3335 1.22104 19.1125 0 17.6062 0Z" fill="#0077B5"/>
<path d="M7.538 5.45455C7.538 5.79167 7.43803 6.12123 7.25073 6.40154C7.06343 6.68185 6.79722 6.90033 6.48575 7.02934C6.17429 7.15835 5.83156 7.19211 5.50091 7.12634C5.17026 7.06057 4.86654 6.89823 4.62816 6.65984C4.38977 6.42146 4.22743 6.11773 4.16166 5.78709C4.09589 5.45644 4.12964 5.11371 4.25866 4.80224C4.38767 4.49078 4.60615 4.22457 4.88646 4.03727C5.16677 3.84997 5.49633 3.75 5.83345 3.75C6.28553 3.75 6.71908 3.92959 7.03875 4.24925C7.35841 4.56891 7.538 5.00247 7.538 5.45455Z" fill="white"/>
<path d="M7.15165 8.29541V15.8261C7.15195 15.8816 7.14127 15.9367 7.12022 15.9881C7.09916 16.0395 7.06816 16.0863 7.02898 16.1257C6.9898 16.1651 6.94322 16.1963 6.89192 16.2176C6.84063 16.239 6.78562 16.25 6.73006 16.25H4.93347C4.87792 16.2501 4.82288 16.2393 4.77152 16.2181C4.72017 16.1969 4.67351 16.1658 4.63422 16.1265C4.59494 16.0872 4.56381 16.0405 4.54262 15.9892C4.52143 15.9378 4.51059 15.8828 4.51074 15.8272V8.29541C4.51074 8.18329 4.55528 8.07577 4.63456 7.99649C4.71383 7.91722 4.82136 7.87268 4.93347 7.87268H6.73006C6.84198 7.87298 6.94921 7.91765 7.02824 7.9969C7.10727 8.07614 7.15165 8.18349 7.15165 8.29541Z" fill="white"/>
<path d="M16.5422 12.216V15.8614C16.5424 15.9125 16.5324 15.9631 16.5129 16.0103C16.4934 16.0576 16.4648 16.1005 16.4287 16.1366C16.3926 16.1727 16.3497 16.2013 16.3025 16.2208C16.2552 16.2403 16.2046 16.2502 16.1536 16.2501H14.2217C14.1707 16.2502 14.1201 16.2403 14.0728 16.2208C14.0256 16.2013 13.9827 16.1727 13.9466 16.1366C13.9105 16.1005 13.8819 16.0576 13.8624 16.0103C13.8429 15.9631 13.833 15.9125 13.8331 15.8614V12.3285C13.8331 11.8012 13.9877 10.0194 12.4547 10.0194C11.2672 10.0194 11.0252 11.2387 10.9774 11.7864V15.8614C10.9774 15.9635 10.9373 16.0615 10.8656 16.1343C10.794 16.207 10.6966 16.2486 10.5945 16.2501H8.72857C8.67758 16.2501 8.6271 16.24 8.58001 16.2205C8.53293 16.2009 8.49016 16.1723 8.45416 16.1362C8.41816 16.1001 8.38964 16.0572 8.37024 16.0101C8.35083 15.9629 8.34092 15.9124 8.34107 15.8614V8.26258C8.34092 8.21159 8.35083 8.16108 8.37024 8.11394C8.38964 8.06679 8.41816 8.02394 8.45416 7.98784C8.49016 7.95173 8.53293 7.92309 8.58001 7.90354C8.6271 7.884 8.67758 7.87394 8.72857 7.87394H10.5945C10.6975 7.87394 10.7964 7.91488 10.8693 7.98777C10.9422 8.06065 10.9831 8.1595 10.9831 8.26258V8.91939C11.424 8.25803 12.0774 7.7478 13.4717 7.7478C16.5604 7.7478 16.5422 10.6319 16.5422 12.216Z" fill="white"/>
</g>
<defs>
<clipPath id="clip0_523_27795">
<rect x="0.333496" width="20" height="20" rx="3" fill="white"/>
</clipPath>
</defs>
</svg>
