<svg width="40" height="40" viewBox="0 0 40 40" fill="none" xmlns="http://www.w3.org/2000/svg">
<g clip-path="url(#clip0_523_27532)">
<path d="M16.0862 11.326C16.1801 12.6794 17.7265 13.4205 18.8442 12.6516C19.8274 11.9747 21.1696 12.6797 21.1696 13.8743V18.7892H24.8515C24.1976 16.119 26.3148 13.5177 29.1309 13.7122C31.6087 13.8839 33.4462 16.2697 32.8275 18.7892H36.5466C39.6587 14.084 36.5245 7.27645 30.4601 6.96504C31.1458 3.34387 28.3537 0.00598145 24.6946 0.00598145C23.3728 0.00598145 22.1517 0.445356 21.1696 1.18551V8.5209C21.1696 9.71465 19.8284 10.4208 18.844 9.74364C17.648 8.92083 15.9825 9.82973 16.0862 11.326Z" fill="#EC883F" fill-opacity="0.3"/>
<path d="M8.47839 18.7894C9.67238 18.7894 10.3784 20.1309 9.70097 21.1151C8.88199 22.3051 9.78121 23.9758 11.2838 23.872C12.6403 23.778 13.3778 22.2304 12.6098 21.1148C11.9327 20.131 12.6383 18.7894 13.8326 18.7894H18.8264V15.1843C16.3014 15.8046 13.9201 13.9601 13.7486 11.4881C13.5542 8.68382 16.1446 6.55265 18.8264 7.20929V1.18569C14.6222 -1.98275 8.59941 1.63507 9.52199 6.88765C3.42144 7.21179 0.334174 14.0341 3.47316 18.7894H8.47839Z" fill="#EC883F"/>
<path d="M36.5077 21.1324H31.5179C30.3234 21.1324 29.618 19.7906 30.2952 18.8069C31.0637 17.6908 30.3243 16.1437 28.9691 16.0497C27.4668 15.9454 26.567 17.6161 27.3863 18.8067C28.0635 19.7909 27.358 21.1324 26.1637 21.1324H21.1699V24.7354C23.8441 24.0806 26.4427 26.2031 26.2477 29.0142C26.0762 31.4871 23.6943 33.3301 21.1699 32.7104V38.8143C25.3741 41.9827 31.397 38.3649 30.4744 33.1124C36.4283 32.7959 39.7377 26.1163 36.5077 21.1324Z" fill="#EC883F"/>
<path d="M23.9101 28.8521C24.0138 27.3566 22.3483 26.4468 21.1523 27.2699C20.1685 27.9464 18.8267 27.242 18.8267 26.0472V21.1324H15.1427C15.7805 23.7278 13.8037 26.2198 11.1506 26.2198C8.47256 26.2198 6.53858 23.6963 7.16678 21.1324H3.47381C0.336546 25.8872 3.4178 32.7206 9.53624 33.0349C8.85053 36.656 11.6426 39.9939 15.3018 39.9939C16.6236 39.9939 17.8447 39.5546 18.8268 38.8144V31.4007C18.8268 30.2071 20.168 29.5007 21.1521 30.1779C22.2676 30.9457 23.8161 30.2083 23.9101 28.8521Z" fill="#EC883F" fill-opacity="0.3"/>
</g>
<defs>
<clipPath id="clip0_523_27532">
<rect width="40" height="40" fill="white"/>
</clipPath>
</defs>
</svg>
