<svg width="40" height="40" viewBox="0 0 40 40" fill="none" xmlns="http://www.w3.org/2000/svg">
<path opacity="0.4" d="M36.6668 10.4167V18.9167C36.6668 21.0333 35.9668 22.8167 34.7168 24.05C33.4835 25.3 31.7002 26 29.5835 26V29.0167C29.5835 30.15 28.3168 30.8334 27.3835 30.2L25.7668 29.1333C25.9168 28.6167 25.9835 28.05 25.9835 27.45V20.6667C25.9835 17.2667 23.7168 15 20.3168 15H9.00015C8.76682 15 8.55016 15.0167 8.3335 15.0334V10.4167C8.3335 6.16671 11.1668 3.33337 15.4168 3.33337H29.5835C33.8335 3.33337 36.6668 6.16671 36.6668 10.4167Z" fill="#5A77D8"/>
<path d="M25.9835 20.6667V27.45C25.9835 28.05 25.9168 28.6166 25.7668 29.1333C25.1502 31.5833 23.1168 33.1167 20.3168 33.1167H15.7835L10.7502 36.4667C10.0002 36.9833 9.00015 36.4333 9.00015 35.5333V33.1167C7.30015 33.1167 5.8835 32.55 4.90017 31.5667C3.90017 30.5667 3.3335 29.15 3.3335 27.45V20.6667C3.3335 17.5 5.30016 15.3167 8.3335 15.0334C8.55016 15.0167 8.76682 15 9.00015 15H20.3168C23.7168 15 25.9835 17.2667 25.9835 20.6667Z" fill="#5A77D8"/>
</svg>
