<svg width="406" height="292" viewBox="0 0 406 292" fill="none" xmlns="http://www.w3.org/2000/svg">
<path fill-rule="evenodd" clip-rule="evenodd" d="M18.3545 258.081H63.3989V203.154C63.3989 190.71 48.9565 183.378 40.8751 175.183C32.7905 183.378 18.3545 190.71 18.3545 203.154V258.081Z" fill="#E5EBE1"/>
<path fill-rule="evenodd" clip-rule="evenodd" d="M40.8859 177.204C38.0078 179.986 34.7254 182.467 31.6468 184.977C26.1913 189.579 19.8271 195.396 19.8271 203.137V258.064H61.9967V203.153C62.0023 201.425 61.6944 199.711 61.0878 198.094C58.006 189.799 47.5056 183.425 40.8859 177.204Z" fill="#F7FAF4"/>
<path fill-rule="evenodd" clip-rule="evenodd" d="M21.6377 258.08H60.1206V203.153C60.1317 201.648 59.8573 200.154 59.3121 198.751C57.5464 193.893 52.7991 189.699 48.9088 186.46C46.2829 184.235 43.505 182.062 40.8791 179.733C38.292 182.062 35.5271 184.235 32.8494 186.46C27.9016 190.609 21.6409 196.07 21.6409 203.153L21.6377 258.08Z" fill="#E5EBE1"/>
<path fill-rule="evenodd" clip-rule="evenodd" d="M82.1377 269.663H117.183V218.882C117.183 211.245 111.478 205.227 106.983 200.725C104.558 198.296 102.032 195.97 99.662 193.392C97.2883 195.983 94.7626 198.296 92.3373 200.725C87.8422 205.227 82.1377 211.245 82.1377 218.882V269.663Z" fill="#E5EBE1"/>
<path fill-rule="evenodd" clip-rule="evenodd" d="M98.2968 98.3538H-16.641C-30.5466 32.9553 32.2937 29.0623 40.7761 0.282227C49.362 29.0623 112.135 32.9553 98.2968 98.3538Z" fill="#F7FAF4"/>
<path fill-rule="evenodd" clip-rule="evenodd" d="M24.1123 121.671H32.2422V116.615C32.2422 114.643 30.9292 113.075 29.8685 111.912C29.3123 111.307 28.7076 110.698 28.1514 110.04C27.5951 110.688 27.0421 111.307 26.4342 111.912C25.4252 113.075 24.1123 114.643 24.1123 116.615V121.671Z" fill="#E5EBE1"/>
<path fill-rule="evenodd" clip-rule="evenodd" d="M-0.685909 121.671H6.42858V116.615C6.42858 114.643 5.26762 113.075 4.3589 111.912C3.85442 111.307 3.34994 110.698 2.84222 110.04C2.38948 110.688 1.87208 111.307 1.38053 111.912C0.471817 113.075 -0.692383 114.643 -0.692383 116.615L-0.685909 121.671Z" fill="#E5EBE1"/>
<path fill-rule="evenodd" clip-rule="evenodd" d="M11.4873 121.671H19.3132V116.615C19.3132 114.643 18.052 113.075 17.0495 111.912C16.5418 111.307 15.937 110.698 15.4326 110.04C14.8763 110.688 14.3201 111.307 13.7671 111.912C12.7549 113.075 11.5034 114.643 11.5034 116.615L11.4873 121.671Z" fill="#E5EBE1"/>
<path fill-rule="evenodd" clip-rule="evenodd" d="M45.1181 121.671H36.5322V116.615C36.5322 114.643 37.8969 113.075 39.0094 111.912C39.6141 111.307 40.2188 110.698 40.8268 110.04C41.383 110.688 42.0395 111.307 42.5925 111.912C43.7049 113.075 45.1181 114.643 45.1181 116.615V121.671Z" fill="#E5EBE1"/>
<path fill-rule="evenodd" clip-rule="evenodd" d="M57.5424 121.671H49.4092V116.615C49.4092 114.643 50.7254 113.075 51.7829 111.912C52.3391 111.307 52.8953 110.698 53.4515 110.04C54.0078 110.688 54.6125 111.307 55.1687 111.912C56.2294 113.075 57.5424 114.643 57.5424 116.615V121.671Z" fill="#E5EBE1"/>
<path fill-rule="evenodd" clip-rule="evenodd" d="M82.3377 121.671H75.165V116.615C75.165 114.643 76.326 113.075 77.2347 111.912C77.7392 111.307 78.2954 110.698 78.7481 110.04C79.2558 110.688 79.7603 111.307 80.2648 111.912C81.1735 113.075 82.3345 114.643 82.3345 116.615L82.3377 121.671Z" fill="#E5EBE1"/>
<path fill-rule="evenodd" clip-rule="evenodd" d="M92.389 121.671H88.0459V116.615C88.0459 114.643 88.7509 113.075 89.3071 111.912C89.6111 111.307 89.9151 110.698 90.2158 110.04C90.5198 110.688 90.8238 111.307 91.1245 111.912C91.6808 113.075 92.389 114.643 92.389 116.615V121.671Z" fill="#E5EBE1"/>
<path fill-rule="evenodd" clip-rule="evenodd" d="M70.1159 121.671H62.29V116.615C62.29 114.643 63.5512 113.075 64.5537 111.912C65.1099 111.307 65.6661 110.698 66.2223 110.04C66.7268 110.688 67.2831 111.307 67.8393 111.912C68.8515 113.075 70.103 114.643 70.103 116.615L70.1159 121.671Z" fill="#E5EBE1"/>
<path d="M98.2968 98.3538H-16.641L-16.6414 100.58H98.2964L98.2968 98.3538Z" fill="#E5EBE1"/>
<path d="M98.2962 128.751H-16.6416V133.353H98.2962V128.751Z" fill="#E5EBE1"/>
<path d="M122.99 119.04H118.747V133.352H122.99V119.04Z" fill="#E5EBE1"/>
<path d="M134.151 119.04H129.96V133.352H134.151V119.04Z" fill="#E5EBE1"/>
<path fill-rule="evenodd" clip-rule="evenodd" d="M369.838 201.472C369.407 201.471 368.979 201.555 368.581 201.72C368.182 201.885 367.82 202.127 367.515 202.433C367.21 202.738 366.968 203.101 366.804 203.5C366.639 203.899 366.555 204.327 366.556 204.759V211.843H373.169V204.759C373.159 203.882 372.804 203.044 372.18 202.428C371.556 201.812 370.714 201.468 369.838 201.472Z" fill="#E5EBE1"/>
<path fill-rule="evenodd" clip-rule="evenodd" d="M382.059 201.472C381.342 201.466 380.652 201.745 380.14 202.248C379.629 202.75 379.337 203.436 379.329 204.154V211.843H384.733V204.154C384.729 203.444 384.446 202.765 383.945 202.263C383.445 201.761 382.767 201.477 382.059 201.472Z" fill="#E5EBE1"/>
<path fill-rule="evenodd" clip-rule="evenodd" d="M392.865 201.472C392.151 201.474 391.466 201.756 390.956 202.257C390.446 202.758 390.152 203.439 390.136 204.154V211.843H395.591V204.154C395.584 203.436 395.292 202.751 394.781 202.249C394.27 201.746 393.581 201.467 392.865 201.472Z" fill="#E5EBE1"/>
<path fill-rule="evenodd" clip-rule="evenodd" d="M402.712 201.472C401.995 201.466 401.305 201.745 400.794 202.248C400.282 202.75 399.99 203.436 399.983 204.154V211.843H405.387V204.154C405.382 203.444 405.099 202.765 404.599 202.263C404.098 201.761 403.42 201.477 402.712 201.472Z" fill="#E5EBE1"/>
<path fill-rule="evenodd" clip-rule="evenodd" d="M356.403 201.472C356.956 201.469 357.504 201.576 358.016 201.786C358.527 201.997 358.992 202.307 359.383 202.698C359.774 203.09 360.083 203.555 360.293 204.068C360.504 204.58 360.61 205.129 360.607 205.682V211.856H352.173V205.682C352.176 205.127 352.288 204.577 352.502 204.065C352.717 203.553 353.03 203.088 353.424 202.697C353.818 202.306 354.285 201.997 354.799 201.786C355.312 201.576 355.862 201.469 356.416 201.472H356.403Z" fill="#E5EBE1"/>
<path fill-rule="evenodd" clip-rule="evenodd" d="M342.927 201.472C343.803 201.468 344.647 201.812 345.271 202.428C345.896 203.044 346.251 203.882 346.262 204.759V211.843H339.646V204.759C339.645 204.327 339.728 203.899 339.893 203.5C340.057 203.101 340.299 202.738 340.604 202.433C340.909 202.127 341.272 201.885 341.671 201.72C342.069 201.555 342.496 201.471 342.927 201.472Z" fill="#E5EBE1"/>
<path fill-rule="evenodd" clip-rule="evenodd" d="M330.75 201.472C331.464 201.475 332.148 201.757 332.657 202.258C333.167 202.759 333.46 203.439 333.476 204.154V211.843H328.021V204.154C328.029 203.436 328.32 202.75 328.832 202.248C329.344 201.745 330.033 201.466 330.75 201.472Z" fill="#E5EBE1"/>
<path fill-rule="evenodd" clip-rule="evenodd" d="M319.891 201.472C320.608 201.466 321.297 201.745 321.809 202.248C322.321 202.75 322.613 203.436 322.62 204.154V211.843H317.216V204.154C317.221 203.444 317.504 202.765 318.004 202.263C318.505 201.761 319.183 201.477 319.891 201.472Z" fill="#E5EBE1"/>
<path d="M312.772 199.104H303.782V211.85H312.772V199.104Z" fill="#E5EBE1"/>
<path fill-rule="evenodd" clip-rule="evenodd" d="M363.269 183.729C369.377 155.052 341.806 153.332 338.067 140.688C334.332 153.319 306.757 155.052 312.817 183.729H363.269Z" fill="#F7FAF4"/>
<path d="M363.269 183.729L312.821 183.73V199.104H363.269L363.269 183.729Z" fill="#F7FAF4"/>
<path fill-rule="evenodd" clip-rule="evenodd" d="M339.94 193.998H336.202V191.773C336.202 190.911 336.809 190.205 337.262 189.7C337.514 189.447 337.818 189.195 338.071 188.89C338.323 189.195 338.575 189.447 338.827 189.7C339.335 190.205 339.94 190.911 339.94 191.773V193.998Z" fill="#E5EBE1"/>
<path fill-rule="evenodd" clip-rule="evenodd" d="M345.392 193.998H341.858V191.773C341.858 190.911 342.414 190.205 342.87 189.7C343.122 189.447 343.374 189.195 343.627 188.89C343.879 189.195 344.131 189.447 344.383 189.7C344.839 190.205 345.392 190.911 345.392 191.773V193.998Z" fill="#E5EBE1"/>
<path fill-rule="evenodd" clip-rule="evenodd" d="M356.304 193.998H353.171V191.773C353.171 190.911 353.675 190.205 354.079 189.7C354.283 189.447 354.483 189.195 354.726 188.89C354.914 189.181 355.131 189.452 355.373 189.7C355.777 190.205 356.285 190.911 356.285 191.773L356.304 193.998Z" fill="#E5EBE1"/>
<path fill-rule="evenodd" clip-rule="evenodd" d="M360.694 193.998H358.825V191.773C358.854 191.055 359.025 190.351 359.329 189.7C359.494 189.446 359.63 189.175 359.733 188.89C359.885 189.195 359.985 189.447 360.137 189.7C360.484 190.337 360.675 191.047 360.694 191.773V193.998Z" fill="#E5EBE1"/>
<path fill-rule="evenodd" clip-rule="evenodd" d="M350.949 193.998H347.515V191.773C347.515 190.911 348.071 190.205 348.485 189.7C348.737 189.447 348.989 189.195 349.241 188.89C349.45 189.183 349.688 189.454 349.95 189.7C350.402 190.205 350.959 190.911 350.959 191.773L350.949 193.998Z" fill="#E5EBE1"/>
<path fill-rule="evenodd" clip-rule="evenodd" d="M336.202 193.998H339.94V191.773C339.94 190.911 339.335 190.205 338.827 189.7C338.575 189.447 338.323 189.195 338.071 188.89C337.818 189.195 337.514 189.447 337.262 189.7C336.809 190.205 336.202 190.911 336.202 191.773V193.998Z" fill="#E5EBE1"/>
<path fill-rule="evenodd" clip-rule="evenodd" d="M330.749 193.998H334.284V191.773C334.284 190.911 333.728 190.205 333.275 189.7C333.008 189.443 332.754 189.173 332.515 188.89C332.263 189.195 332.011 189.447 331.758 189.7C331.306 190.205 330.749 190.911 330.749 191.773V193.998Z" fill="#E5EBE1"/>
<path fill-rule="evenodd" clip-rule="evenodd" d="M319.841 193.998H322.972V191.773C322.972 190.911 322.467 190.205 322.063 189.7C321.834 189.441 321.618 189.171 321.416 188.89C321.212 189.195 320.96 189.447 320.769 189.7C320.365 190.205 319.861 190.911 319.861 191.773L319.841 193.998Z" fill="#E5EBE1"/>
<path fill-rule="evenodd" clip-rule="evenodd" d="M315.44 193.998H317.309V191.773C317.29 191.047 317.1 190.337 316.753 189.7C316.653 189.447 316.501 189.195 316.349 188.89C316.249 189.195 316.097 189.447 315.996 189.7C315.65 190.337 315.459 191.047 315.44 191.773V193.998Z" fill="#E5EBE1"/>
<path fill-rule="evenodd" clip-rule="evenodd" d="M325.194 193.998H328.628V191.773C328.628 190.911 328.072 190.205 327.619 189.7C327.415 189.447 327.163 189.195 326.911 188.89C326.702 189.183 326.465 189.454 326.203 189.7C325.75 190.205 325.194 190.911 325.194 191.773V193.998Z" fill="#E5EBE1"/>
<path d="M363.269 183.729L312.821 183.73V184.74H363.269L363.269 183.729Z" fill="#E5EBE1"/>
<path d="M391.45 188.784H387.259V199.103H391.45V188.784Z" fill="#E5EBE1"/>
<path d="M380.289 188.784H376.046V199.103H380.289V188.784Z" fill="#E5EBE1"/>
<path d="M388.419 115.448H385.845V131.785H388.419V115.448Z" fill="#E5EBE1"/>
<path d="M381.649 115.448H379.075V131.785H381.649V115.448Z" fill="#E5EBE1"/>
<path fill-rule="evenodd" clip-rule="evenodd" d="M385.693 109.228C385.566 109.226 385.444 109.272 385.35 109.357C385.258 109.442 385.199 109.559 385.188 109.685V110.657H386.158V109.685C386.158 109.625 386.146 109.566 386.124 109.51C386.101 109.455 386.067 109.405 386.025 109.362C385.982 109.32 385.932 109.286 385.877 109.263C385.821 109.24 385.762 109.228 385.702 109.228H385.693Z" fill="#E5EBE1"/>
<path fill-rule="evenodd" clip-rule="evenodd" d="M387.409 109.227C387.358 109.228 387.308 109.24 387.262 109.261C387.217 109.283 387.176 109.314 387.143 109.352C387.11 109.39 387.085 109.434 387.07 109.483C387.055 109.531 387.05 109.582 387.056 109.632V110.646H387.813V109.632C387.818 109.578 387.811 109.523 387.792 109.472C387.774 109.42 387.744 109.374 387.705 109.335C387.667 109.296 387.62 109.267 387.569 109.248C387.518 109.229 387.463 109.222 387.409 109.227Z" fill="#E5EBE1"/>
<path fill-rule="evenodd" clip-rule="evenodd" d="M383.775 109.226C383.935 109.23 384.087 109.295 384.2 109.409C384.313 109.522 384.377 109.675 384.38 109.835V110.645H383.167V109.835C383.164 109.754 383.177 109.674 383.207 109.599C383.236 109.523 383.281 109.455 383.338 109.398C383.395 109.34 383.463 109.296 383.538 109.266C383.614 109.237 383.694 109.223 383.775 109.226Z" fill="#E5EBE1"/>
<path fill-rule="evenodd" clip-rule="evenodd" d="M381.855 109.228C381.915 109.228 381.974 109.24 382.029 109.263C382.085 109.286 382.135 109.32 382.177 109.362C382.22 109.405 382.253 109.455 382.276 109.51C382.299 109.566 382.311 109.625 382.311 109.685V110.657H381.341V109.685C381.351 109.559 381.409 109.442 381.503 109.357C381.597 109.272 381.719 109.226 381.845 109.228H381.855Z" fill="#E5EBE1"/>
<path fill-rule="evenodd" clip-rule="evenodd" d="M380.088 109.228C380.141 109.228 380.194 109.238 380.243 109.258C380.292 109.279 380.337 109.308 380.375 109.346C380.412 109.384 380.442 109.428 380.462 109.478C380.482 109.527 380.493 109.58 380.492 109.633V110.647H379.732V109.633C379.726 109.583 379.731 109.532 379.746 109.483C379.761 109.434 379.787 109.39 379.82 109.351C379.854 109.313 379.895 109.283 379.941 109.261C379.987 109.24 380.037 109.229 380.088 109.228Z" fill="#E5EBE1"/>
<path d="M388.574 108.216H378.927V108.417H388.574V108.216Z" fill="#E5EBE1"/>
<path d="M312.772 211.85H303.782L303.782 291.43H312.772L312.772 211.85Z" fill="#E5EBE1"/>
<path d="M288.28 71.1943H264.999V77.0113H288.28V71.1943Z" fill="#F7FAF4"/>
<path fill-rule="evenodd" clip-rule="evenodd" d="M281.258 73.5697C280.964 73.5727 280.683 73.6907 280.474 73.8987C280.266 74.1077 280.148 74.3897 280.146 74.6837V77.0097H282.41V74.6837C282.407 74.5347 282.375 74.3867 282.315 74.2497C282.255 74.1127 282.169 73.9887 282.061 73.8847C281.953 73.7807 281.826 73.6997 281.686 73.6457C281.547 73.5917 281.397 73.5657 281.249 73.5697H281.258Z" fill="#E5EBE1"/>
<path fill-rule="evenodd" clip-rule="evenodd" d="M285.5 73.5708C285.376 73.5638 285.252 73.5828 285.135 73.6248C285.018 73.6668 284.911 73.7327 284.821 73.8177C284.73 73.9027 284.657 74.0058 284.607 74.1198C284.558 74.2337 284.531 74.3567 284.53 74.4807V77.0107H286.399V74.4807C286.4 74.3617 286.376 74.2428 286.331 74.1328C286.285 74.0218 286.219 73.9207 286.134 73.8367C286.05 73.7517 285.949 73.6848 285.839 73.6398C285.728 73.5938 285.61 73.5708 285.491 73.5708H285.5Z" fill="#E5EBE1"/>
<path fill-rule="evenodd" clip-rule="evenodd" d="M276.663 73.5713C277.035 73.5793 277.39 73.7313 277.653 73.9953C277.916 74.2583 278.068 74.6143 278.076 74.9873V77.0113H275.198V74.9873C275.209 74.6063 275.369 74.2443 275.642 73.9803C275.916 73.7153 276.283 73.5683 276.663 73.5713Z" fill="#E5EBE1"/>
<path fill-rule="evenodd" clip-rule="evenodd" d="M272.015 73.5697C272.309 73.5727 272.591 73.6907 272.799 73.8987C273.007 74.1077 273.125 74.3897 273.127 74.6837V77.0097H270.864V74.6837C270.866 74.5347 270.898 74.3867 270.958 74.2497C271.018 74.1127 271.104 73.9887 271.212 73.8847C271.32 73.7807 271.447 73.6997 271.587 73.6457C271.726 73.5917 271.875 73.5657 272.025 73.5697H272.015Z" fill="#E5EBE1"/>
<path fill-rule="evenodd" clip-rule="evenodd" d="M267.825 73.5707C267.944 73.5707 268.063 73.5937 268.173 73.6397C268.284 73.6847 268.384 73.7517 268.468 73.8367C268.553 73.9207 268.62 74.0217 268.665 74.1327C268.711 74.2427 268.734 74.3617 268.733 74.4807V77.0107H266.864V74.4807C266.865 74.3567 266.892 74.2337 266.942 74.1197C266.992 74.0057 267.064 73.9027 267.155 73.8177C267.246 73.7327 267.353 73.6667 267.469 73.6247C267.586 73.5827 267.71 73.5637 267.835 73.5707H267.825Z" fill="#E5EBE1"/>
<path d="M288.28 71.1943H264.999V71.6513H288.28V71.1943Z" fill="#E5EBE1"/>
<path fill-rule="evenodd" clip-rule="evenodd" d="M217.173 156.265C215.761 156.263 214.406 156.82 213.404 157.815C212.401 158.811 211.832 160.163 211.821 161.576V172.3H222.493V161.576C222.493 160.167 221.934 158.816 220.939 157.82C219.945 156.824 218.596 156.265 217.189 156.265H217.173Z" fill="#E5EBE1"/>
<path fill-rule="evenodd" clip-rule="evenodd" d="M236.719 156.265C235.57 156.273 234.47 156.734 233.658 157.548C232.845 158.362 232.385 159.463 232.376 160.614V172.3H241.062V160.614C241.054 159.463 240.594 158.362 239.781 157.548C238.968 156.734 237.869 156.273 236.719 156.265Z" fill="#E5EBE1"/>
<path fill-rule="evenodd" clip-rule="evenodd" d="M195.558 156.265C196.446 156.265 197.327 156.44 198.148 156.781C198.969 157.121 199.715 157.621 200.344 158.25C200.972 158.88 201.471 159.627 201.811 160.449C202.151 161.272 202.326 162.153 202.326 163.044V172.3H188.792V163.044C188.792 161.246 189.505 159.523 190.774 158.251C192.042 156.98 193.763 156.266 195.558 156.265Z" fill="#E5EBE1"/>
<path fill-rule="evenodd" clip-rule="evenodd" d="M173.946 156.265C175.358 156.263 176.713 156.82 177.715 157.815C178.718 158.811 179.287 160.163 179.298 161.576V172.3H168.626V161.576C168.626 160.167 169.185 158.816 170.18 157.82C171.174 156.824 172.523 156.265 173.93 156.265H173.946Z" fill="#E5EBE1"/>
<path fill-rule="evenodd" clip-rule="evenodd" d="M154.395 156.265C155.544 156.273 156.644 156.734 157.457 157.548C158.27 158.362 158.73 159.463 158.738 160.614V172.3H150.052V160.614C150.061 159.463 150.521 158.362 151.334 157.548C152.146 156.734 153.246 156.273 154.395 156.265Z" fill="#E5EBE1"/>
<path d="M150.06 148.374H141.323V172.296H150.06V148.374Z" fill="#E5EBE1"/>
<path fill-rule="evenodd" clip-rule="evenodd" d="M155.261 123.739H235.858C245.605 77.9171 201.579 75.1861 195.61 54.9541C189.549 75.1861 145.514 77.9171 155.261 123.739Z" fill="#F7FAF4"/>
<path fill-rule="evenodd" clip-rule="evenodd" d="M207.273 140.131H201.569V136.591C201.569 135.224 202.539 134.113 203.234 133.304C203.638 132.847 204.043 132.442 204.447 131.989C204.799 132.442 205.255 132.847 205.608 133.304C206.364 134.113 207.273 135.224 207.273 136.591V140.131Z" fill="#E5EBE1"/>
<path fill-rule="evenodd" clip-rule="evenodd" d="M224.697 140.131H219.698V136.591C219.698 135.224 220.506 134.113 221.111 133.304C221.467 132.847 221.819 132.442 222.171 131.989C222.524 132.442 222.88 132.847 223.232 133.304C223.879 134.113 224.697 135.224 224.697 136.591V140.131Z" fill="#E5EBE1"/>
<path fill-rule="evenodd" clip-rule="evenodd" d="M231.719 140.131H228.737V136.591C228.76 135.443 229.055 134.316 229.597 133.304C229.798 132.847 230.002 132.442 230.202 131.989C230.406 132.442 230.658 132.847 230.849 133.304C231.391 134.316 231.686 135.443 231.709 136.591L231.719 140.131Z" fill="#E5EBE1"/>
<path fill-rule="evenodd" clip-rule="evenodd" d="M216.111 140.131H210.614V136.591C210.614 135.224 211.522 134.113 212.231 133.304C212.635 132.847 213.039 132.442 213.391 131.989C213.744 132.442 214.148 132.847 214.552 133.304C215.261 134.113 216.118 135.224 216.118 136.591L216.111 140.131Z" fill="#E5EBE1"/>
<path fill-rule="evenodd" clip-rule="evenodd" d="M192.53 140.131H198.587V136.591C198.587 135.224 197.578 134.113 196.821 133.304C196.417 132.847 195.961 132.442 195.557 131.989C195.156 132.442 194.7 132.847 194.296 133.304C193.539 134.113 192.53 135.224 192.53 136.591V140.131Z" fill="#E5EBE1"/>
<path fill-rule="evenodd" clip-rule="evenodd" d="M183.845 140.131H189.549V136.591C189.549 135.224 188.579 134.113 187.884 133.304C187.479 132.847 187.075 132.442 186.671 131.989C186.319 132.442 185.863 132.847 185.51 133.304C184.753 134.113 183.845 135.224 183.845 136.591V140.131Z" fill="#E5EBE1"/>
<path fill-rule="evenodd" clip-rule="evenodd" d="M166.421 140.131H171.472V136.591C171.472 135.224 170.664 134.113 170.007 133.304C169.651 132.847 169.299 132.442 168.946 131.989C168.591 132.442 168.238 132.847 167.886 133.304C167.239 134.113 166.421 135.224 166.421 136.591V140.131Z" fill="#E5EBE1"/>
<path fill-rule="evenodd" clip-rule="evenodd" d="M159.399 140.131H162.429V136.591C162.392 135.438 162.081 134.311 161.52 133.304C161.32 132.847 161.116 132.442 160.916 131.989C160.712 132.442 160.46 132.847 160.269 133.304C159.916 134.113 159.409 135.224 159.409 136.591L159.399 140.131Z" fill="#E5EBE1"/>
<path fill-rule="evenodd" clip-rule="evenodd" d="M175.008 140.131H180.505V136.591C180.505 135.224 179.596 134.113 178.888 133.304C178.484 132.847 178.131 132.442 177.727 131.989C177.375 132.442 176.971 132.847 176.566 133.304C175.858 134.113 175.001 135.224 175.001 136.591L175.008 140.131Z" fill="#E5EBE1"/>
<path d="M235.858 123.743H155.261V125.31H235.858V123.743Z" fill="#E5EBE1"/>
<path d="M235.858 145.491H155.261V148.325H235.858V145.491Z" fill="#E5EBE1"/>
<path fill-rule="evenodd" clip-rule="evenodd" d="M229.041 220.952C226.357 220.964 223.787 222.04 221.894 223.946C220.001 225.851 218.939 228.431 218.942 231.119V269.661H239.192V231.119C239.191 228.423 238.122 225.838 236.218 223.931C234.315 222.025 231.733 220.953 229.041 220.952Z" fill="#E5EBE1"/>
<path fill-rule="evenodd" clip-rule="evenodd" d="M261.312 220.952C259.213 220.964 257.203 221.805 255.718 223.292C254.234 224.778 253.394 226.791 253.382 228.894V269.661H269.228V228.894C269.225 226.789 268.389 224.772 266.903 223.283C265.418 221.795 263.404 220.957 261.302 220.952H261.312Z" fill="#E5EBE1"/>
<path fill-rule="evenodd" clip-rule="evenodd" d="M290.539 220.952H290.49C288.771 220.967 287.127 221.661 285.916 222.883C284.704 224.105 284.024 225.757 284.022 227.479V269.661H297.006V227.479C297.005 225.757 296.324 224.105 295.113 222.883C293.902 221.661 292.258 220.967 290.539 220.952Z" fill="#E5EBE1"/>
<path fill-rule="evenodd" clip-rule="evenodd" d="M229.041 220.952C231.733 220.953 234.315 222.025 236.218 223.931C238.122 225.838 239.191 228.423 239.192 231.119V269.661H218.942V231.119C218.939 228.431 220.001 225.851 221.894 223.946C223.787 222.04 226.357 220.964 229.041 220.952Z" fill="#E5EBE1"/>
<path d="M303.782 192.075H141.323V194.705H303.782V192.075Z" fill="#E5EBE1"/>
<path d="M150.06 172.3H141.323V269.662H150.06V172.3Z" fill="#E5EBE1"/>
<path fill-rule="evenodd" clip-rule="evenodd" d="M190.306 220.952C192.408 220.956 194.423 221.794 195.909 223.282C197.395 224.771 198.232 226.789 198.235 228.894V269.661H182.39V228.894C182.401 226.792 183.24 224.779 184.724 223.293C186.208 221.806 188.217 220.965 190.316 220.952H190.306Z" fill="#E5EBE1"/>
<path fill-rule="evenodd" clip-rule="evenodd" d="M161.117 220.952C161.97 220.955 162.814 221.126 163.601 221.455C164.387 221.785 165.101 222.266 165.702 222.873C166.303 223.479 166.778 224.198 167.101 224.988C167.424 225.778 167.589 226.625 167.585 227.479V269.661H154.608V227.479C154.612 225.75 155.299 224.093 156.52 222.87C157.74 221.647 159.394 220.958 161.121 220.952H161.117Z" fill="#E5EBE1"/>
<path fill-rule="evenodd" clip-rule="evenodd" d="M98.2968 98.3538H-16.641C-30.5466 32.9553 32.2937 29.0623 40.7761 0.282227C49.362 29.0623 112.135 32.9553 98.2968 98.3538Z" fill="#E5EBE1"/>
<path fill-rule="evenodd" clip-rule="evenodd" d="M235.858 123.739H155.261C145.514 77.9171 189.539 75.1861 195.558 54.9541C201.569 75.1861 245.605 77.9171 235.858 123.739Z" fill="#E5EBE1"/>
<path fill-rule="evenodd" clip-rule="evenodd" d="M312.825 183.729C306.765 155.052 334.34 153.332 338.075 140.688C341.813 153.32 369.385 155.052 363.277 183.729H312.825Z" fill="#E5EBE1"/>
</svg>
