<svg width="18" height="18" viewBox="0 0 18 18" fill="none" xmlns="http://www.w3.org/2000/svg">
<path opacity="0.2" d="M11.134 3.24963L5.57273 3.24963C3.15712 3.24963 1.71704 4.68971 1.71704 7.10533L1.71704 12.6599C1.71704 15.0822 3.15712 16.5222 5.57273 16.5222H11.1273C13.5429 16.5222 14.983 15.0822 14.983 12.6665V7.10533C14.9896 4.68971 13.5496 3.24963 11.134 3.24963Z" fill="#292D32"/>
<path d="M11.864 7.33761L9.8212 10.956C9.60741 11.3353 9.28268 11.5667 9.10488 11.4665C8.92709 11.3663 8.95694 10.9686 9.17073 10.5894L11.2135 6.97095L11.864 7.33761Z" fill="#292D32"/>
<path d="M8.03719 5.58539C8.13844 5.40577 8.36613 5.34223 8.54575 5.44348L14.5473 8.82647C14.727 8.92772 14.7905 9.15541 14.6892 9.33503C14.588 9.51466 14.3603 9.57819 14.1807 9.47694L8.1791 6.09395C7.99947 5.9927 7.93594 5.76501 8.03719 5.58539Z" fill="#292D32"/>
<path d="M10.6822 2.62166C11.2593 1.59772 12.5573 1.23554 13.5813 1.81272L15.047 2.63895C16.071 3.21613 16.4332 4.51411 15.856 5.53806L13.9678 8.88777L8.79398 5.97138L10.6822 2.62166Z" fill="#292D32"/>
</svg>
