<svg width="24" height="25" viewBox="0 0 24 25" fill="none" xmlns="http://www.w3.org/2000/svg">
<g clip-path="url(#clip0_523_27711)">
<path d="M11.4828 12.0198L2.50684 21.6798C2.79826 22.6998 3.73084 23.4798 4.83826 23.4798C5.30455 23.4798 5.71255 23.3598 6.06226 23.1198L16.204 17.1798L11.4828 12.0198Z" fill="#EA4335"/>
<path d="M20.575 10.3398L16.2036 7.75983L11.3076 12.1998L16.2619 17.1798L20.6333 14.6598C21.391 14.2398 21.9156 13.3998 21.9156 12.4998C21.8573 11.5998 21.3328 10.7598 20.575 10.3398Z" fill="#FBBC04"/>
<path d="M2.50653 3.31982C2.44824 3.49982 2.44824 3.73982 2.44824 3.97982V21.0798C2.44824 21.3198 2.44824 21.4998 2.50653 21.7398L11.8322 12.3198L2.50653 3.31982Z" fill="#4285F4"/>
<path d="M11.5411 12.4998L16.204 7.75984L6.12055 1.87984C5.77084 1.63984 5.30455 1.51984 4.83826 1.51984C3.73084 1.51984 2.73998 2.29984 2.50684 3.31984L11.5411 12.4998Z" fill="#34A853"/>
</g>
<defs>
<clipPath id="clip0_523_27711">
<rect width="23.3143" height="24" fill="white" transform="translate(0 0.5)"/>
</clipPath>
</defs>
</svg>
