<svg width="1132" height="328" viewBox="0 0 1132 328" fill="none" xmlns="http://www.w3.org/2000/svg">
<g opacity="0.05" clip-path="url(#clip0_523_27015)">
<path d="M586.116 215.131C577.171 214.17 568.226 213.21 559.281 212.253C543.654 210.578 528.032 208.902 512.405 207.222C507.244 206.669 502.087 206.112 496.926 205.56C496.43 205.509 494.318 205.657 493.949 205.24C493.658 204.915 494.478 203.146 494.683 202.617C494.97 201.87 495.29 201.141 495.634 200.426C498.291 198.221 501.066 196.207 503.903 194.322C511.569 189.24 519.702 185.076 527.958 181.395C529.487 180.713 531.02 180.054 532.561 179.404C532.652 179.775 532.742 180.146 532.82 180.518C534.115 186.492 534.677 192.976 534.14 199.122C534.164 198.843 536.28 196.68 536.165 196.815C537.772 194.935 539.362 193.036 540.949 191.133C542.535 189.23 544.122 187.332 545.692 185.41C546.098 184.913 547.561 183.618 547.614 182.996C547.885 179.924 547.889 176.758 547.659 173.606C548.323 173.374 548.988 173.142 549.652 172.914C553.632 171.55 557.748 170.566 561.7 169.118C561.888 169.048 562.085 169.011 562.278 168.955C562.716 168.834 564.225 166.736 564.303 166.648C565.91 164.768 567.5 162.87 569.087 160.967C569.587 160.368 575.916 153.029 575.752 152.825C572.452 148.759 568.89 144.934 565.217 141.309C562.089 138.222 558.83 135.27 555.346 132.712C552.165 130.377 548.528 127.899 544.638 127.727C543.121 127.662 541.584 127.964 540.227 128.748C539.551 129.143 538.965 129.649 538.403 130.224C535.882 132.782 533.635 135.762 531.315 138.542C529.155 141.128 526.933 143.685 524.871 146.373C524.375 147.018 523.904 147.673 523.535 148.425C522.653 150.221 522.325 152.305 522.403 154.347C522.612 159.69 525.424 163.464 527.958 167.665C528.589 168.709 529.155 169.795 529.675 170.914C518.808 176.633 508.539 183.697 500.029 193.347C499.807 193.375 494.88 199.205 491.482 203.355C489.571 205.653 487.698 207.988 485.919 210.401C484.775 211.956 483.705 213.581 482.783 215.317C481.922 216.941 481.18 218.65 480.622 220.437C480.307 221.449 480.225 221.138 480.733 221.407C481.692 221.913 483.504 221.704 484.546 221.815C486.997 222.08 489.448 222.34 491.9 222.604C504.87 223.997 517.845 225.389 530.815 226.782C526.835 227.952 522.875 229.237 518.984 230.746C514.938 232.315 510.798 234.065 507.203 236.725C506.018 237.602 504.919 238.632 503.874 239.737C504.735 236.808 494.548 249.731 491.896 253.727C491.601 253.319 491.301 252.91 491.014 252.493C486.247 245.558 482.73 237.611 480.262 229.302C476.884 217.926 475.957 205.987 473.908 194.267C470.845 176.749 466.496 158.901 458.588 143.309C456.686 139.559 454.559 135.92 452.037 132.657C451.328 131.738 450.59 130.851 449.799 130.02C449.52 129.728 448.979 128.962 448.594 128.855C448.541 128.841 448.475 128.753 448.43 128.72C448.147 128.502 442.154 136.073 441.621 136.709C441.117 137.312 435.095 144.957 434.955 144.85C438.444 147.543 441.117 152.166 443.33 156.102C451.021 169.767 455.469 185.726 458.711 201.387C459.949 207.37 460.991 213.409 461.88 219.471C461.265 220.52 460.65 221.565 460.023 222.6C452.788 234.617 444.503 246.161 434.484 255.347C424.855 264.176 412.663 271.176 399.943 268.516C392.986 267.063 385.23 263.141 380.807 256.67C380.151 255.709 379.581 254.684 379.102 253.607C380.635 250.06 382.561 246.718 384.648 243.585C386.702 240.494 389.194 237.866 391.326 234.877C391.432 234.729 391.576 234.599 391.699 234.469C391.941 234.213 391.99 231.131 391.982 231.233C392.179 228.625 392.355 226.016 392.523 223.407C392.691 220.799 392.863 218.19 393.007 215.577C393.035 215.043 392.879 212.615 393.15 212.328C387.513 218.353 382.483 225.97 379.52 234.083C378.437 237.05 377.708 240.127 377.4 243.321C376.699 250.627 376.261 258.002 375.945 265.341C375.871 267.063 375.879 268.781 376.125 270.484C377.228 278.148 382.557 283.43 388.436 286.721C394.843 290.309 401.8 292.026 408.916 290.833C415.324 289.757 421.341 286.642 426.744 282.678C438.112 274.346 447.315 262.421 455.227 250.116C458.4 245.182 461.384 240.09 464.18 234.873C464.192 234.854 464.204 234.831 464.213 234.812C464.43 235.954 464.655 237.096 464.91 238.233C466.931 247.224 470.013 255.965 474.482 263.767C480.836 274.857 489.981 283.62 500.816 288.596C504.337 290.216 508.006 291.442 511.745 292.221C513.372 292.56 515.762 293.363 517.439 293.001C517.521 292.983 517.627 293.01 517.709 293.01C517.992 293.01 519.849 290.569 519.734 290.704C521.341 288.824 522.932 286.925 524.518 285.022C526.105 283.119 527.691 281.22 529.261 279.299C529.36 279.178 529.729 278.677 530.118 278.162C530.475 277.734 530.831 277.307 531.184 276.885C523.785 274.091 516.365 269.528 510.617 263.554C506.662 259.446 503.345 254.164 502.734 247.995C503.358 247.735 503.985 247.48 504.604 247.229C509.753 245.177 515.028 243.539 520.321 242.053C531.262 238.99 542.351 236.618 553.464 234.524C559.835 233.327 566.221 232.199 572.629 231.266C572.994 231.215 574.674 228.936 574.654 228.959C576.261 227.079 577.851 225.181 579.438 223.277C581.024 221.374 582.611 219.476 584.181 217.554C584.275 217.438 584.505 217.109 584.779 216.723C585.222 216.194 585.665 215.665 586.103 215.136L586.116 215.131ZM548.664 154.491C550.574 156.246 552.447 158.075 554.276 159.955C551.517 161.022 548.77 162.127 546.048 163.274C545.893 162.638 545.733 162.011 545.561 161.389C544.806 158.678 543.827 156.037 542.568 153.572C541.277 151.043 539.522 148.88 538.202 146.382C541.949 148.592 545.401 151.488 548.664 154.491Z" fill="black"/>
<path d="M439.059 156.705C426.777 147.111 410.048 157.146 399.475 165.367C393.347 170.129 387.595 175.648 382.57 181.859C377.093 188.631 373.596 196.652 370.317 205.007C365.451 217.396 361.679 230.282 357.752 243.079C354.267 254.437 352.32 266.316 348.742 277.632C345.565 287.691 339.752 301.231 329.585 303.844C320.476 306.184 314.061 296.534 312.745 287.45C311.732 280.459 311.064 273.39 310.453 266.344C310.08 262.059 309.752 257.77 309.511 253.477C309.502 253.31 309.486 253.017 309.461 252.479C309.396 251.193 309.511 253.648 309.457 252.39C309.629 256.452 309.765 260.523 309.867 264.584C309.941 267.518 309.843 265.995 309.892 265.545C309.896 265.503 309.884 264.835 309.892 265.313C309.896 265.824 309.892 264.7 309.892 264.719C309.892 263.322 309.908 261.92 310.015 260.527C310.089 259.562 310.187 258.592 310.425 257.664C310.63 256.865 310.4 255.064 310.384 254.41C310.322 251.796 310.236 249.178 310.15 246.565C310.06 243.952 309.97 241.334 309.859 238.721C309.822 237.834 309.47 236.293 309.679 235.476C309.056 237.913 309.121 240.633 309.121 243.144C309.117 252.488 309.543 261.855 309.99 271.18C310.421 280.19 311.183 289.176 312.126 298.13C312.864 305.149 313.061 313.244 316.742 319.227C319.505 323.72 323.961 326.914 328.929 326.301C334.365 325.633 338.788 321.051 341.945 316.317C348.598 306.337 351.283 293.999 354.026 282.121C357.035 269.091 361.068 256.368 365.188 243.743C367.361 237.077 369.689 230.472 372.338 224.034C374.309 219.244 376.318 214.286 379.032 209.965C383.02 203.615 388.206 198.138 393.523 193.241C399.914 187.355 406.949 182.105 414.61 178.591C421.087 175.621 428.671 173.648 435.484 176.373C437.026 176.99 438.464 177.849 439.809 178.898C439.719 178.828 439.76 175.24 439.768 175.644C439.707 173.03 439.62 170.413 439.534 167.799C439.444 165.186 439.354 162.568 439.243 159.955C439.223 159.458 439.362 156.942 439.063 156.71L439.059 156.705Z" fill="black"/>
<path d="M809.761 137.971C805.104 128.674 800.451 119.377 795.794 110.079C795.118 108.733 794.445 107.382 793.769 106.036C793.515 106.844 793.257 107.647 793.003 108.454C792.629 109.485 792.281 110.409 792.355 110.181C791.256 113.533 790.178 116.893 789.112 120.258C788.046 123.624 786.981 126.989 785.943 130.364C785.669 131.264 784.484 133.715 784.705 134.578C786.989 143.481 788.76 152.584 790.354 161.668C793.671 180.569 795.995 199.869 795.934 219.17C795.913 226.216 795.565 233.308 794.626 240.289C792.966 242.945 791.043 245.381 788.813 247.47C784.267 251.727 778.7 254.229 772.883 255.138C768.058 255.895 763.696 255.496 759.728 252.056C755.739 248.603 753.009 243.502 750.873 238.451C744.868 224.252 742.318 208.127 740.342 192.665C739.407 185.34 738.669 177.979 738.079 170.603C738.1 169.772 738.116 168.946 738.128 168.115C738.309 157.174 738.055 146.22 737.452 135.298C737.132 129.519 737.058 123.443 736.14 117.733C736.099 117.473 736.087 117.2 736.058 116.94C735.743 117.933 735.427 118.931 735.111 119.924C734.861 120.551 734.66 121.034 734.644 121.085C733.545 124.436 732.467 127.797 731.401 131.162C730.335 134.527 729.27 137.892 728.232 141.267C727.859 142.492 727.007 144.201 726.994 145.482C726.941 150.759 727.031 156.046 727.146 161.324C727.421 173.731 728.003 186.139 728.97 198.504C728.987 198.723 729.007 198.941 729.024 199.159C728.864 205.996 728.519 212.829 727.941 219.634C727.327 226.87 726.441 234.093 725.109 241.209C722.145 246.862 718.328 251.945 713.298 255.324C705.735 260.407 696.524 260.467 688.26 257.705C679.167 254.665 672.243 247.419 668.632 237.532C664.885 227.274 664.454 215.716 665.086 204.771C665.82 192.141 668.103 179.65 671.075 167.47C671.661 165.098 672.272 162.735 672.916 160.382C672.965 160.196 673.018 160.015 673.071 159.829C673.563 158.247 674.051 156.668 674.551 155.095C675.416 152.361 676.277 149.627 677.117 146.884C677.195 146.628 677.351 145.923 677.531 145.157C677.741 144.493 677.954 143.829 678.163 143.165C678.007 143.597 677.859 144.029 677.704 144.461C677.929 143.569 678.175 142.757 678.36 142.669C671.846 145.816 665.934 151.507 661.228 157.369C656.383 163.404 652.587 170.403 649.906 177.969C646.786 186.761 644.056 195.761 641.309 204.71C640.33 207.899 639.366 211.084 638.608 214.351C637.427 219.453 636.874 224.61 636.472 229.85C635.779 238.869 634.488 247.837 632.615 256.642C627.978 266.381 620.403 276.941 610.007 272.652C603.349 269.904 597.946 262.728 594.281 256.132C591.092 250.385 589.317 243.799 588.813 237.054C588.37 231.141 588.854 225.204 589.891 219.397C597.811 201.164 608.486 184.315 620.169 168.997C621.173 167.683 622.182 166.37 623.227 165.098C623.813 164.383 624.449 161.547 624.646 160.953C625.744 157.601 626.818 154.241 627.888 150.875C628.954 147.51 630.02 144.145 631.057 140.77C631.377 139.721 631.672 137.312 632.295 136.556C626.363 143.778 620.972 151.646 615.881 159.634C611.011 167.275 606.457 175.189 602.419 183.433C594.999 198.565 590.141 214.927 585.128 231.233C579.602 249.202 575.859 269.973 586.402 286.67C590.981 293.92 598.246 303.218 607.039 302.094C614.516 301.138 619.677 293.089 623.059 286.238C626.228 279.823 628.433 272.888 630.659 266.005C634.353 254.572 638.251 243.135 640.969 231.336C642.351 225.348 643.441 219.272 644.273 213.154C645.097 207.106 645.372 200.997 646.097 194.944C651.295 185.721 658.453 177.858 666.914 172.58C667.578 172.167 668.246 171.759 668.939 171.406C667.775 175.268 666.635 179.13 665.508 182.992C662.343 193.83 659.72 204.905 657.945 216.143C655.973 228.634 654.887 241.682 656.711 254.284C658.342 265.545 662.807 276.486 671.71 282.567C680.053 288.267 691.592 290.068 700.742 285.858C708.916 282.093 714.532 273.859 718.287 265.104C719.825 261.525 721.067 257.807 722.292 254.08C725.506 244.3 728.815 234.487 731.516 224.503C731.561 224.34 731.602 224.178 731.643 224.011C732.438 229.878 733.385 235.722 734.533 241.51C736.8 252.924 739.694 265.197 745.839 274.815C748.004 278.203 750.746 281.323 754.21 282.943C758.289 284.85 763.003 284.098 767.181 282.989C776.794 280.441 784.16 273.023 788.596 263.187C791.039 257.775 792.716 251.912 794.544 246.217C797.131 238.15 799.971 230.068 801.902 221.746C803.341 215.563 804.149 209.204 804.591 202.835C805.538 189.193 804.854 175.426 803.464 161.853C803.374 160.953 803.271 160.057 803.173 159.156C803.911 156.873 804.645 154.584 805.37 152.296C806.436 148.931 807.502 145.565 808.539 142.191C808.752 141.499 810.052 138.519 809.777 137.976L809.761 137.971ZM591.949 210.392C592.076 209.946 592.207 209.501 592.326 209.055C592.224 209.44 592.097 209.886 591.949 210.392ZM799.246 230.69C799.32 230.477 799.389 230.259 799.463 230.045C799.492 230.073 799.344 230.449 799.246 230.69Z" fill="black"/>
<path d="M1131.59 69.5846L1118.05 14.552L1104.46 32.8916C1104.46 32.8916 1110.45 38.4988 1110.49 54.6196C1110.52 67.1245 1110.84 79.634 1111.04 92.1389C1111.37 113.022 1111.69 133.901 1111.91 154.784C1112.09 172.548 1112.32 190.326 1112.02 208.09C1111.92 213.59 1112.19 220.177 1109.41 225.111C1108.3 227.093 1107.17 229.057 1105.95 230.964C1102.21 236.813 1097.99 242.276 1093.49 247.391C1079.23 263.61 1062.02 276.342 1043.53 285.486C1036.92 288.754 1030.14 291.567 1023.24 293.948C1023.24 293.948 1069.16 301.723 1104.28 258.518C1104.28 258.518 1124.06 237.319 1123.89 200.83C1123.72 164.341 1123.7 58.7275 1123.7 58.7275L1131.59 69.5846Z" fill="black"/>
<path d="M1032.69 294.686C1026.85 294.747 1023.27 294.162 1023.21 294.152L1022.39 294.013L1023.18 293.739C1030.15 291.335 1036.96 288.494 1043.45 285.287C1062.76 275.739 1079.55 262.937 1093.36 247.238C1098.11 241.835 1102.29 236.316 1105.8 230.834C1107.05 228.88 1108.2 226.875 1109.26 224.995C1111.7 220.65 1111.76 214.955 1111.81 209.928C1111.81 209.301 1111.82 208.684 1111.83 208.081C1112.11 191.588 1111.94 174.804 1111.77 158.576L1111.72 154.779C1111.52 135.01 1111.23 115.44 1110.86 92.1343C1110.8 88.4394 1110.73 84.74 1110.66 81.0451C1110.49 72.3836 1110.33 63.425 1110.31 54.615C1110.26 38.8006 1104.4 33.1051 1104.34 33.0494L1104.2 32.9148L1104.32 32.7524L1118.14 14.1064L1132 70.4898L1123.89 59.3124C1123.89 67.8858 1123.92 166.161 1124.08 200.821C1124.16 219.717 1118.81 234.436 1114.31 243.455C1109.43 253.231 1104.46 258.611 1104.41 258.666C1086.24 281.016 1065.13 289.478 1050.62 292.639C1043.6 294.171 1037.4 294.64 1032.69 294.686ZM1024.13 293.855C1027.1 294.217 1037.36 295.099 1050.57 292.222C1065.02 289.07 1086.04 280.64 1104.14 258.374C1104.2 258.309 1109.14 252.962 1113.99 243.237C1118.47 234.265 1123.79 219.625 1123.7 200.83C1123.53 164.759 1123.51 59.7859 1123.51 58.7276V58.1381L1131.17 68.6795L1117.97 14.9977L1104.72 32.873C1105.62 33.8524 1110.64 39.9564 1110.68 54.6196C1110.7 63.425 1110.87 72.3836 1111.03 81.0451C1111.1 84.7446 1111.17 88.4394 1111.23 92.1343C1111.6 115.44 1111.89 135.015 1112.1 154.784L1112.14 158.581C1112.31 174.813 1112.49 191.598 1112.2 208.099C1112.19 208.703 1112.19 209.315 1112.18 209.942C1112.13 215.025 1112.07 220.785 1109.57 225.232C1108.51 227.116 1107.35 229.131 1106.1 231.094C1102.58 236.59 1098.38 242.128 1093.62 247.545C1079.78 263.28 1062.95 276.115 1043.6 285.681C1037.36 288.763 1030.82 291.516 1024.13 293.86L1024.13 293.855Z" fill="black"/>
<path d="M1010.03 41.7711L980.93 6.60522L977.564 28.7928C977.564 28.7928 983.238 33.5227 986.054 41.8222C988.866 50.1216 1016.26 105.075 1040.72 131.357C1065.17 157.638 1093.15 215.187 1095.25 234.032C1095.25 234.032 1101.06 192.122 1073.99 154.584C1046.93 117.051 1001.41 47.3876 999.603 40.8706L1010.03 41.7711Z" fill="black"/>
<path d="M1095.23 235.546L1095.06 234.065C1093.01 215.702 1065.32 158.098 1040.59 131.519C1015.63 104.69 988.555 49.7921 985.882 41.9058C983.119 33.7549 977.515 29.0157 977.458 28.9692L977.363 28.8903L977.384 28.7604L980.811 6.15039L1010.5 42.0218L999.881 41.1074C1002.84 49.249 1047.83 117.97 1074.14 154.454C1088.15 173.88 1093.2 194.489 1094.96 208.359C1096.87 223.389 1095.45 233.963 1095.43 234.07L1095.23 235.546ZM977.769 28.7093C978.519 29.3684 983.627 34.0705 986.23 41.7573C988.899 49.6297 1015.93 104.43 1040.85 131.218C1064.99 157.165 1091.95 212.643 1095.22 232.519C1095.54 229.103 1096.08 220.117 1094.58 208.41C1092.83 194.601 1087.8 174.075 1073.85 154.728C1047.16 117.724 1001.26 47.5362 999.426 40.9403L999.344 40.6432L1009.57 41.5252L981.053 7.06482L977.773 28.7093H977.769Z" fill="black"/>
<path d="M914.533 71.8497L901.001 16.8171L887.407 35.1567C887.407 35.1567 893.397 40.7639 893.438 56.8847C893.47 69.3896 893.79 81.8991 893.987 94.404C894.319 115.287 894.634 136.166 894.856 157.049C895.04 174.813 895.27 192.591 894.962 210.355C894.868 215.855 895.139 222.442 892.359 227.376C891.244 229.358 890.113 231.322 888.895 233.229C885.153 239.078 880.934 244.541 876.437 249.657C862.18 265.875 844.962 278.607 826.474 287.751C819.866 291.019 813.086 293.832 806.187 296.213C806.187 296.213 852.112 303.988 887.227 260.783C887.227 260.783 907.006 239.584 906.834 203.095C906.666 166.606 906.646 60.9927 906.646 60.9927L914.533 71.8497Z" fill="black"/>
<path d="M815.635 296.951C809.794 297.012 806.219 296.427 806.158 296.418L805.342 296.278L806.133 296.005C813.098 293.6 819.915 290.759 826.4 287.552C845.712 278.004 862.503 265.202 876.306 249.503C881.057 244.1 885.243 238.581 888.748 233.1C889.998 231.145 891.15 229.135 892.207 227.26C894.655 222.916 894.708 217.22 894.757 212.193C894.765 211.566 894.77 210.949 894.782 210.346C895.065 193.854 894.888 177.069 894.716 160.841L894.675 157.044C894.47 137.275 894.179 117.706 893.806 94.3994C893.749 90.7046 893.679 87.0051 893.609 83.3102C893.445 74.6487 893.277 65.6902 893.257 56.8801C893.216 41.0657 887.354 35.3703 887.292 35.3146L887.149 35.18L901.091 16.3716L914.955 72.7549L906.838 61.5776C906.838 70.1509 906.867 168.426 907.027 203.086C907.113 221.983 901.763 236.702 897.262 245.72C892.38 255.496 887.411 260.876 887.358 260.931C869.194 283.281 848.082 291.743 833.574 294.904C826.552 296.436 820.354 296.905 815.639 296.951H815.635ZM807.08 296.121C810.044 296.483 820.309 297.365 833.517 294.487C847.967 291.335 868.989 282.905 887.091 260.639C887.149 260.574 892.089 255.227 896.942 245.502C901.419 236.53 906.74 221.89 906.649 203.095C906.481 167.024 906.461 62.051 906.461 60.9927V60.4032L914.114 70.9446L900.914 17.2628L887.665 35.1382C888.571 36.1176 893.589 42.2215 893.626 56.8848C893.646 65.6902 893.814 74.6487 893.978 83.3102C894.048 87.0097 894.118 90.7046 894.175 94.3994C894.548 117.706 894.835 137.28 895.044 157.049L895.085 160.846C895.257 177.078 895.438 193.863 895.151 210.364C895.138 210.968 895.134 211.58 895.126 212.207C895.077 217.29 895.02 223.05 892.515 227.497C891.453 229.381 890.297 231.396 889.043 233.359C885.53 238.855 881.328 244.393 876.564 249.81C862.729 265.545 845.901 278.38 826.544 287.946C820.309 291.029 813.762 293.781 807.076 296.125L807.08 296.121Z" fill="black"/>
<path d="M792.979 44.0363L763.877 8.87036L760.512 31.0579C760.512 31.0579 766.185 35.7879 769.002 44.0873C771.814 52.3868 799.21 107.34 823.667 133.622C848.119 159.904 876.093 217.452 878.196 236.298C878.196 236.298 884.009 194.387 856.941 156.849C829.873 119.316 784.362 49.6528 782.55 43.1358L792.979 44.0363Z" fill="black"/>
<path d="M878.176 237.806L878.012 236.325C875.962 217.963 848.271 160.359 823.539 133.78C798.578 106.955 771.502 52.0526 768.829 44.1663C766.07 36.0247 760.462 31.2761 760.405 31.2297L760.311 31.1508L763.758 8.41553L793.446 44.287L782.828 43.3726C785.784 51.5142 830.775 120.235 857.089 156.719C871.1 176.145 876.142 196.755 877.905 210.624C879.815 225.654 878.397 236.228 878.381 236.335L878.176 237.811V237.806ZM760.716 30.9698C761.467 31.6289 766.57 36.331 769.177 44.0178C771.846 51.8902 798.873 106.691 823.793 133.478C847.935 159.426 874.896 214.904 878.172 234.78C878.483 231.363 879.024 222.377 877.532 210.671C875.773 196.861 870.748 176.335 856.797 156.989C830.111 119.985 784.206 49.7967 782.373 43.2008L782.291 42.9037L792.515 43.7857L764 9.32531L760.72 30.9698H760.716Z" fill="black"/>
<path d="M1078.49 68.8188L1064.2 20.6514L1054.67 36.8418C1054.67 36.8418 1058.56 41.4278 1058.65 50.1822C1058.73 58.9412 1066.18 233.712 1060.56 270.61C1060.56 270.61 1071.6 249.745 1071.48 216.348C1071.37 182.955 1069.01 58.6766 1069.01 58.6766L1078.49 68.8188Z" fill="black"/>
<path d="M1060.14 271.881L1060.34 270.563C1065.09 239.31 1060.43 107.86 1058.9 64.6643C1058.62 56.7501 1058.43 51.5189 1058.42 50.1821C1058.33 41.6227 1054.55 37.0552 1054.51 37.0134L1054.39 36.8695L1064.26 20.0896L1078.97 69.6867L1069.23 59.2706C1069.4 68.6609 1071.58 184.519 1071.69 216.347C1071.8 249.429 1060.85 270.526 1060.74 270.735L1060.13 271.881H1060.14ZM1054.95 36.8185C1055.61 37.6865 1058.78 42.2911 1058.86 50.1774C1058.88 51.505 1059.06 56.7316 1059.34 64.6411C1060.85 107.225 1065.41 235.541 1060.98 269.217C1063.29 264.227 1071.36 244.718 1071.26 216.343C1071.14 183.331 1068.81 59.9205 1068.78 58.6765L1068.77 58.0823L1077.99 67.9507L1064.13 21.2083L1054.95 36.8138V36.8185Z" fill="black"/>
<path d="M940.609 70.2575L926.323 22.0901L916.796 38.2805C916.796 38.2805 920.678 42.8666 920.768 51.6209C920.854 60.3799 928.299 235.151 922.683 272.048C922.683 272.048 933.718 251.184 933.603 217.786C933.489 184.394 931.127 60.1153 931.127 60.1153L940.609 70.2575Z" fill="black"/>
<path d="M922.264 273.32L922.465 272.002C927.22 240.749 922.559 109.299 921.026 66.103C920.747 58.1889 920.559 52.9576 920.547 51.6208C920.46 43.0614 916.677 38.4939 916.636 38.4521L916.513 38.3082L926.384 21.5283L941.093 71.1254L931.352 60.7093C931.529 70.0996 933.705 185.958 933.816 217.786C933.931 250.868 922.973 271.965 922.863 272.174L922.256 273.32H922.264ZM917.074 38.2572C917.734 39.1252 920.907 43.7298 920.989 51.6161C921.001 52.9437 921.186 58.1703 921.469 66.0798C922.977 108.663 927.532 236.98 923.105 270.656C925.412 265.666 933.484 246.157 933.386 217.782C933.271 184.769 930.934 61.3592 930.91 60.1152L930.897 59.521L940.121 69.3894L926.257 22.647L917.074 38.2525V38.2572Z" fill="black"/>
<path d="M835.288 71.353L821.002 23.1855L811.475 39.376C811.475 39.376 815.357 43.962 815.447 52.7164C815.533 61.4753 822.977 236.247 817.361 273.144C817.361 273.144 828.397 252.279 828.282 218.882C828.167 185.489 825.806 61.2108 825.806 61.2108L835.288 71.353Z" fill="black"/>
<path d="M816.943 274.416L817.144 273.097C821.899 241.844 817.238 110.395 815.705 67.1985C815.426 59.2843 815.238 54.0531 815.225 52.7162C815.139 44.1708 811.355 39.5894 811.314 39.5476L811.191 39.4037L811.29 39.2366L821.067 22.6238L835.779 72.2209L826.039 61.8048C826.216 71.195 828.392 187.053 828.503 218.882C828.618 251.963 817.664 273.06 817.554 273.269L816.947 274.416H816.943ZM811.753 39.3526C812.413 40.2207 815.586 44.8253 815.668 52.7116C815.68 54.0391 815.865 59.2658 816.148 67.1753C817.656 109.759 822.211 238.075 817.783 271.751C820.091 266.761 828.163 247.252 828.064 218.877C827.95 185.865 825.613 62.4546 825.588 61.2106L825.576 60.6165L834.8 70.4849L820.936 23.7424L811.753 39.348V39.3526Z" fill="black"/>
<path d="M214.749 90.5884C210.404 81.9083 206.059 73.2329 201.713 64.5528C201.082 63.2949 200.455 62.037 199.823 60.7791C199.586 61.531 199.344 62.283 199.106 63.0349C198.758 63.9958 198.43 64.8592 198.499 64.6456C197.474 67.7742 196.47 70.912 195.474 74.0498C194.478 77.1923 193.482 80.3301 192.518 83.4819C192.26 84.322 191.157 86.6104 191.362 87.4181C193.494 95.7268 195.146 104.221 196.634 112.706C199.729 130.35 201.898 148.364 201.844 166.379C201.824 172.956 201.5 179.575 200.623 186.092C199.073 188.571 197.278 190.846 195.195 192.795C190.952 196.768 185.754 199.103 180.327 199.953C175.822 200.658 171.755 200.282 168.045 197.075C164.323 193.853 161.773 189.091 159.777 184.375C154.173 171.118 151.787 156.07 149.946 141.634C149.073 134.796 148.385 127.927 147.835 121.043C147.852 120.268 147.868 119.493 147.88 118.717C148.048 108.506 147.811 98.2798 147.249 88.0865C146.954 82.6928 146.88 77.0205 146.027 71.6872C145.986 71.4458 145.978 71.1905 145.949 70.9445C145.654 71.8728 145.359 72.8012 145.064 73.7295C144.83 74.3144 144.642 74.7646 144.625 74.8111C143.601 77.9396 142.596 81.0774 141.6 84.2152C140.604 87.3577 139.608 90.4955 138.644 93.6473C138.296 94.7892 137.501 96.3859 137.488 97.5835C137.439 102.513 137.521 107.443 137.632 112.367C137.89 123.949 138.431 135.53 139.337 147.069C139.354 147.273 139.37 147.478 139.386 147.682C139.239 154.064 138.915 160.442 138.374 166.792C137.8 173.546 136.972 180.29 135.73 186.933C132.963 192.21 129.4 196.954 124.702 200.11C117.643 204.854 109.043 204.915 101.328 202.334C92.8421 199.493 86.3774 192.73 83.0077 183.502C79.511 173.926 79.1092 163.139 79.6995 152.922C80.3841 141.132 82.5158 129.477 85.287 118.105C85.8322 115.891 86.4061 113.686 87.0046 111.486C87.0497 111.314 87.103 111.142 87.1481 110.97C87.6072 109.494 88.0664 108.018 88.5296 106.551C89.3372 103.998 90.1406 101.45 90.9277 98.8878C91.0015 98.6511 91.145 97.9873 91.3131 97.2771C91.5098 96.6551 91.7066 96.0378 91.9034 95.4158C91.7558 95.8196 91.6164 96.2235 91.4729 96.6273C91.682 95.7918 91.9116 95.0398 92.0837 94.9563C86.0003 97.8945 80.4866 103.205 76.0921 108.677C71.5705 114.312 68.0286 120.843 65.5239 127.903C62.6093 136.11 60.0636 144.512 57.5015 152.867C56.5873 155.842 55.6854 158.817 54.9803 161.862C53.8776 166.625 53.3611 171.438 52.988 176.331C52.3403 184.746 51.1351 193.12 49.3888 201.341C45.0599 210.434 37.9926 220.288 28.2852 216.287C22.0706 213.725 17.0284 207.027 13.6095 200.867C10.6293 195.506 8.97721 189.356 8.50578 183.061C8.09585 177.542 8.54678 172 9.51423 166.578C16.9095 149.562 26.871 133.836 37.7753 119.53C38.7099 118.304 39.6528 117.079 40.6284 115.891C41.1778 115.222 41.7681 112.576 41.9525 112.024C42.9774 108.895 43.9817 105.758 44.9779 102.62C45.974 99.4773 46.9702 96.3395 47.9335 93.1877C48.2328 92.2083 48.5074 89.9617 49.0896 89.2515C43.5554 95.9914 38.5214 103.339 33.7661 110.794C29.2199 117.924 24.9689 125.313 21.1974 133.009C14.2736 147.134 9.73969 162.406 5.05821 177.63C-0.0987952 194.406 -3.59556 213.79 6.24703 229.377C10.5186 236.144 17.303 244.824 25.51 243.775C32.4871 242.884 37.308 235.369 40.4645 228.973C43.4201 222.985 45.4821 216.51 47.5564 210.086C51.004 199.414 54.6401 188.738 57.1776 177.723C58.4648 172.135 59.4855 166.462 60.2603 160.753C61.0269 155.104 61.2852 149.409 61.9616 143.755C66.8152 135.149 73.4931 127.806 81.3926 122.881C82.0116 122.496 82.6388 122.115 83.2824 121.786C82.1961 125.388 81.1302 128.999 80.0767 132.601C77.1251 142.715 74.6737 153.052 73.0176 163.547C71.177 175.203 70.1603 187.387 71.8656 199.15C73.3906 209.663 77.5556 219.87 85.865 225.547C93.6497 230.867 104.427 232.547 112.962 228.615C120.591 225.102 125.834 217.42 129.339 209.245C130.774 205.903 131.934 202.436 133.077 198.955C136.078 189.824 139.165 180.666 141.686 171.346C141.727 171.192 141.764 171.039 141.805 170.886C142.547 176.363 143.432 181.817 144.502 187.22C146.618 197.878 149.319 209.329 155.058 218.311C157.079 221.476 159.637 224.387 162.872 225.9C166.68 227.678 171.083 226.977 174.977 225.946C183.951 223.57 190.825 216.644 194.97 207.463C197.249 202.408 198.819 196.94 200.52 191.625C202.935 184.092 205.583 176.549 207.391 168.783C208.731 163.009 209.49 157.077 209.904 151.131C210.789 138.394 210.15 125.545 208.854 112.878C208.768 112.038 208.674 111.202 208.58 110.362C209.268 108.232 209.953 106.096 210.629 103.961C211.625 100.819 212.622 97.681 213.585 94.5292C213.782 93.884 214.995 91.1036 214.741 90.593L214.749 90.5884ZM11.4368 158.186C11.5557 157.768 11.6787 157.355 11.7894 156.938C11.691 157.295 11.5721 157.717 11.4368 158.186ZM204.935 177.134C205.005 176.934 205.071 176.73 205.14 176.53C205.165 176.558 205.03 176.906 204.935 177.134Z" fill="black"/>
<path d="M242.675 48.7292L228.388 0.561768L218.861 16.7522C218.861 16.7522 222.743 21.3382 222.834 30.0926C222.92 38.8516 230.364 213.623 224.748 250.52C224.748 250.52 235.784 229.655 235.669 196.258C235.554 162.865 233.193 38.587 233.193 38.587L242.675 48.7292Z" fill="black"/>
<path d="M224.33 251.792L224.53 250.473C229.286 219.221 224.625 87.7709 223.092 44.5747C222.813 36.6605 222.624 31.4293 222.612 30.0925C222.526 21.547 218.742 16.9656 218.701 16.9238L218.578 16.7799L218.677 16.6128L228.453 0L243.166 49.5971L233.426 39.181C233.602 48.5713 235.779 164.429 235.89 196.258C236.005 229.34 225.051 250.436 224.94 250.645L224.334 251.792H224.33ZM219.14 16.7289C219.8 17.5969 222.973 22.2015 223.055 30.0878C223.067 31.4154 223.251 36.642 223.534 44.5515C225.043 87.1349 229.597 215.451 225.17 249.127C227.478 244.137 235.55 224.628 235.451 196.253C235.336 163.241 233 39.8309 232.975 38.5869L232.963 37.9927L242.186 47.8611L228.322 1.1233L219.14 16.7289Z" fill="black"/>
<path d="M939.35 239.412C939.354 239.37 939.358 239.329 939.362 239.287C939.362 238.855 939.354 238.971 939.35 239.412Z" fill="black"/>
<path d="M939.571 239.445L939.133 239.408C939.133 239.254 939.133 239.134 939.145 239.041C939.162 238.837 939.211 238.767 939.367 238.767C939.588 238.767 939.588 238.962 939.588 239.287L939.571 239.445Z" fill="black"/>
<path d="M1020.38 204.158C1020.38 204.158 1017.66 199.419 1015.94 201.698C1014.21 203.977 1010.96 222.539 1008.98 224.962C1008.98 224.962 1004.62 207.059 1002.82 206.716C1001.03 206.372 1001.07 210.165 998.427 207.612C995.783 205.059 995.746 200.83 999.177 197.14C1002.61 193.45 1009.05 204.418 1009.45 215.215C1009.45 215.215 1011.88 193.134 1017.79 193.594C1023.7 194.053 1022.22 202.464 1020.38 204.158Z" fill="black"/>
<path d="M957.047 93.587C957.047 93.587 955.223 90.4121 954.067 91.9392C952.911 93.4663 950.738 105.902 949.41 107.522C949.41 107.522 946.487 95.5273 945.286 95.2998C944.085 95.0724 944.114 97.6068 942.343 95.8986C940.572 94.1905 940.547 91.359 942.843 88.8849C945.138 86.4109 949.459 93.7588 949.726 100.991C949.726 100.991 951.349 86.202 955.309 86.5084C959.269 86.8194 958.281 92.4498 957.047 93.587Z" fill="black"/>
<path d="M622.728 229.627C622.728 229.627 620.001 224.888 618.28 227.167C616.554 229.451 613.307 248.009 611.323 250.432C611.323 250.432 606.961 232.528 605.166 232.185C603.37 231.841 603.415 235.634 600.771 233.081C598.127 230.528 598.09 226.299 601.522 222.609C604.949 218.919 611.397 229.887 611.799 240.684C611.799 240.684 614.221 218.603 620.133 219.063C626.044 219.522 624.568 227.933 622.728 229.627Z" fill="black"/>
<path d="M603.259 93.8932C603.259 93.8932 600.533 89.154 598.811 91.4331C597.085 93.7168 593.838 112.275 591.854 114.698C591.854 114.698 587.493 96.7943 585.697 96.4508C583.902 96.1073 583.947 99.8997 581.303 97.3467C578.659 94.7937 578.622 90.5651 582.053 86.8749C585.48 83.1847 591.928 94.1532 592.33 104.95C592.33 104.95 594.753 82.8691 600.664 83.3286C606.575 83.7881 605.099 92.199 603.259 93.8932Z" fill="black"/>
<path d="M126.929 153.155C126.929 153.155 124.203 148.415 122.481 150.694C120.755 152.978 117.508 171.536 115.524 173.959C115.524 173.959 111.163 156.056 109.367 155.712C107.572 155.369 107.617 159.161 104.973 156.608C102.328 154.055 102.292 149.826 105.723 146.136C109.15 142.446 115.598 153.415 116 164.211C116 164.211 118.423 142.13 124.334 142.59C130.245 143.049 128.769 151.46 126.929 153.155Z" fill="black"/>
<path d="M148.569 278.472C148.569 278.472 145.843 273.733 144.122 276.012C142.396 278.296 139.149 296.854 137.165 299.277C137.165 299.277 132.803 281.374 131.008 281.03C129.212 280.687 129.257 284.479 126.613 281.926C123.969 279.373 123.932 275.144 127.363 271.454C130.795 267.764 137.239 278.732 137.64 289.529C137.64 289.529 140.063 267.448 145.974 267.908C151.886 268.367 150.41 276.778 148.569 278.472Z" fill="black"/>
<path d="M345.897 116.935C345.897 116.935 343.17 112.196 341.449 114.475C339.723 116.759 336.476 135.316 334.492 137.739C334.492 137.739 330.13 119.836 328.335 119.493C326.539 119.149 326.584 122.941 323.94 120.388C321.296 117.835 321.259 113.607 324.69 109.917C328.118 106.226 334.566 117.195 334.968 127.992C334.968 127.992 337.39 105.911 343.302 106.37C349.213 106.83 347.737 115.241 345.897 116.935Z" fill="black"/>
<path d="M432.824 227.98C432.824 227.98 430.098 223.24 428.376 225.519C426.655 227.799 423.404 246.361 421.42 248.784C421.42 248.784 417.058 230.881 415.263 230.537C413.467 230.194 413.512 233.986 410.868 231.433C408.224 228.88 408.187 224.651 411.618 220.961C415.049 217.271 421.494 228.239 421.895 239.036C421.895 239.036 424.318 216.955 430.229 217.415C436.141 217.874 434.665 226.285 432.824 227.98Z" fill="black"/>
<path d="M416.894 73.6691C416.894 73.6691 414.168 68.9299 412.446 71.209C410.72 73.4927 407.473 92.0504 405.489 94.4734C405.489 94.4734 401.127 76.5702 399.332 76.2267C397.536 75.8832 397.581 79.6755 394.937 77.1226C392.293 74.5696 392.256 70.341 395.688 66.6508C399.119 62.9606 405.563 73.929 405.965 84.7258C405.965 84.7258 408.387 62.645 414.299 63.1045C420.21 63.564 418.734 71.9749 416.894 73.6691Z" fill="black"/>
<path d="M311.171 51.477C311.171 51.477 308.445 46.7377 306.723 49.0168C304.997 51.3006 301.751 69.8583 299.766 72.2813C299.766 72.2813 295.405 54.3781 293.609 54.0346C291.814 53.6911 291.859 57.4834 289.215 54.9304C286.571 52.3775 286.534 48.1488 289.965 44.4586C293.396 40.7685 299.84 51.7369 300.242 62.5336C300.242 62.5336 302.665 40.4528 308.576 40.9123C314.487 41.3719 313.012 49.7827 311.171 51.477Z" fill="black"/>
<path d="M46.9209 166.314C46.9209 166.314 44.1949 161.575 42.4731 163.854C40.7473 166.137 37.5006 184.695 35.5165 187.118C35.5165 187.118 31.1548 169.215 29.3592 168.871C27.5637 168.528 27.6088 172.32 24.9647 169.767C22.3206 167.214 22.2837 162.986 25.7149 159.296C29.1461 155.605 35.5903 166.574 35.992 177.371C35.992 177.371 38.4147 155.29 44.326 155.749C50.2373 156.209 48.7616 164.62 46.9209 166.314Z" fill="black"/>
<path d="M703.018 206.799C703.018 206.799 700.292 202.06 698.57 204.339C696.844 206.623 693.597 225.181 691.613 227.604C691.613 227.604 687.251 209.7 685.456 209.357C683.66 209.013 683.705 212.806 681.061 210.253C678.417 207.7 678.38 203.471 681.812 199.781C685.239 196.091 691.687 207.059 692.089 217.856C692.089 217.856 694.511 195.775 700.423 196.235C706.334 196.694 704.858 205.105 703.018 206.799Z" fill="black"/>
<path d="M882.606 122.408C882.606 122.408 879.88 117.668 878.159 119.948C876.433 122.231 873.186 140.789 871.202 143.212C871.202 143.212 866.84 125.309 865.045 124.965C863.249 124.622 863.294 128.414 860.65 125.861C858.006 123.308 857.969 119.08 861.4 115.389C864.832 111.699 871.276 122.668 871.678 133.464C871.678 133.464 874.1 111.383 880.012 111.843C885.923 112.303 884.447 120.713 882.606 122.408Z" fill="black"/>
<path d="M1055.5 200.672C1055.5 200.672 1055.01 212.912 1048.17 210.392C1041.33 207.872 1047.32 187.118 1054.42 182.356C1054.42 182.356 1046.35 199.86 1049.39 202.111C1052.42 204.362 1055.5 200.672 1055.5 200.672Z" fill="black"/>
<path d="M600.251 151.901C600.251 151.901 599.763 164.142 592.921 161.621C586.079 159.101 592.068 138.347 599.169 133.585C599.169 133.585 591.101 151.089 594.135 153.34C597.168 155.591 600.251 151.901 600.251 151.901Z" fill="black"/>
<path d="M610.609 48.9101C610.609 48.9101 610.121 61.1504 603.28 58.6299C596.438 56.1094 602.427 35.3562 609.527 30.5938C609.527 30.5938 601.459 48.0978 604.493 50.349C607.526 52.6003 610.609 48.9101 610.609 48.9101Z" fill="black"/>
<path d="M698.054 148.053C698.054 148.053 697.566 160.294 690.724 157.773C683.882 155.253 689.871 134.499 696.971 129.737C696.971 129.737 688.904 147.241 691.937 149.492C694.971 151.743 698.054 148.053 698.054 148.053Z" fill="black"/>
<path d="M873.875 67.1848C873.875 67.1848 873.387 79.425 866.545 76.9046C859.703 74.3841 865.692 53.6308 872.793 48.8684C872.793 48.8684 864.725 66.3724 867.759 68.6237C870.792 70.8749 873.875 67.1848 873.875 67.1848Z" fill="black"/>
<path d="M918.943 189.745C918.943 189.745 918.455 201.986 911.613 199.465C904.772 196.945 910.761 176.192 917.861 171.429C917.861 171.429 909.793 188.933 912.827 191.184C915.86 193.436 918.943 189.745 918.943 189.745Z" fill="black"/>
<path d="M991.473 99.779C991.473 99.779 990.986 112.019 984.144 109.499C977.302 106.978 983.291 86.2251 990.391 81.4626C990.391 81.4626 982.324 98.9667 985.357 101.218C988.391 103.469 991.473 99.779 991.473 99.779Z" fill="black"/>
<path d="M734.374 288.87C734.374 288.87 733.886 301.11 727.044 298.59C720.202 296.069 726.191 275.316 733.292 270.554C733.292 270.554 725.224 288.058 728.258 290.309C731.291 292.56 734.374 288.87 734.374 288.87Z" fill="black"/>
<path d="M150.832 229.521C150.832 229.521 150.344 241.761 143.502 239.24C136.66 236.72 142.649 215.967 149.75 211.204C149.75 211.204 141.682 228.708 144.716 230.96C147.749 233.211 150.832 229.521 150.832 229.521Z" fill="black"/>
<path d="M111.885 95.5644C111.885 95.5644 111.397 107.805 104.555 105.284C97.713 102.764 103.702 82.0105 110.802 77.248C110.802 77.248 102.735 94.7521 105.768 97.0033C108.802 99.2546 111.885 95.5644 111.885 95.5644Z" fill="black"/>
<path d="M184.783 153.261C184.783 153.261 184.295 165.502 177.453 162.981C170.611 160.461 176.601 139.707 183.701 134.945C183.701 134.945 175.633 152.449 178.667 154.7C181.7 156.951 184.783 153.261 184.783 153.261Z" fill="black"/>
<path d="M287.304 103.135C287.304 103.135 286.817 115.375 279.975 112.855C273.133 110.334 279.122 89.581 286.222 84.8186C286.222 84.8186 278.155 102.323 281.188 104.574C284.222 106.825 287.304 103.135 287.304 103.135Z" fill="black"/>
<path d="M282.131 296.891C282.131 296.891 281.643 309.131 274.801 306.611C267.959 304.09 273.948 283.337 281.048 278.575C281.048 278.575 272.981 296.079 276.014 298.33C279.048 300.581 282.131 296.891 282.131 296.891Z" fill="black"/>
<path d="M338.149 248.682C338.149 248.682 337.661 260.922 330.82 258.402C323.978 255.881 329.967 235.128 337.067 230.365C337.067 230.365 328.999 247.869 332.033 250.121C335.066 252.372 338.149 248.682 338.149 248.682Z" fill="black"/>
<path d="M405.772 38.0764C405.772 38.0764 405.284 50.3167 398.443 47.7962C391.601 45.2757 397.59 24.5224 404.69 19.76C404.69 19.76 396.622 37.264 399.656 39.5153C402.69 41.7665 405.772 38.0764 405.772 38.0764Z" fill="black"/>
<path d="M370.976 290.704C370.976 290.704 370.489 302.944 363.647 300.423C356.805 297.903 362.794 277.15 369.894 272.387C369.894 272.387 361.827 289.891 364.86 292.142C367.894 294.394 370.976 290.704 370.976 290.704Z" fill="black"/>
<path d="M650.455 284.646C650.455 284.646 649.967 296.886 643.125 294.366C636.283 291.845 642.273 271.092 649.373 266.33C649.373 266.33 641.305 283.834 644.339 286.085C647.372 288.336 650.455 284.646 650.455 284.646Z" fill="black"/>
<path d="M27.949 275.14C27.949 275.14 27.4612 287.38 20.6193 284.86C13.7775 282.339 19.7667 261.586 26.8668 256.823C26.8668 256.823 18.7992 274.327 21.8328 276.579C24.8663 278.83 27.949 275.14 27.949 275.14Z" fill="black"/>
<path d="M77.3387 253.639C77.3387 253.639 76.8508 265.879 70.009 263.359C63.1671 260.838 69.1563 240.085 76.2564 235.323C76.2564 235.323 68.1889 252.827 71.2224 255.078C74.2559 257.329 77.3387 253.639 77.3387 253.639Z" fill="black"/>
<path d="M774.384 205.416C774.384 205.416 773.896 217.656 767.054 215.136C760.212 212.615 766.201 191.862 773.301 187.1C773.301 187.1 765.234 204.604 768.267 206.855C771.301 209.106 774.384 205.416 774.384 205.416Z" fill="black"/>
<path d="M851.603 223.974C851.603 223.974 851.115 236.214 844.274 233.694C837.432 231.173 843.421 210.42 850.521 205.657C850.521 205.657 842.454 223.161 845.487 225.413C848.521 227.664 851.603 223.974 851.603 223.974Z" fill="black"/>
<path d="M969.37 281.36C969.37 281.36 968.997 290.745 963.75 288.814C958.502 286.883 963.098 270.967 968.542 267.314C968.542 267.314 962.356 280.738 964.684 282.464C967.013 284.191 969.374 281.36 969.374 281.36H969.37Z" fill="black"/>
<path d="M764.709 86.4155C764.709 86.4155 764.221 98.6558 757.379 96.1353C750.537 93.6148 756.526 72.8616 763.627 68.0991C763.627 68.0991 755.559 85.6032 758.593 87.8544C761.626 90.1057 764.709 86.4155 764.709 86.4155Z" fill="black"/>
<path d="M733.127 87.1024C732.258 85.0879 731.389 83.0734 730.516 81.0588C730.799 81.7087 730.024 84.2895 729.918 85.0415C729.786 85.9791 729.651 86.9214 729.532 87.8636C729.495 88.1468 729.307 88.7781 729.393 89.038C730.196 91.3821 730.881 93.7819 731.496 96.1956C732.029 98.2844 732.496 100.396 732.828 102.536C732.984 103.534 733.107 104.537 733.177 105.544C733.205 105.953 733.226 106.366 733.234 106.774C733.291 110.079 731.779 107.832 734.103 101.84C733.615 103.103 733.246 104.184 731.906 104.467C730.487 104.764 729.098 103.938 728.089 102.875C725.396 100.025 724.146 95.4297 723.186 91.5306C722.457 88.5692 721.871 85.5335 721.51 82.4839C721.137 85.1436 720.76 87.8033 720.387 90.4584C720.858 92.3336 721.198 94.26 721.473 96.1817C721.719 97.913 721.895 99.6583 721.957 101.413C721.985 102.281 721.989 103.154 721.944 104.026C721.731 108.25 723.297 96.8501 722.678 99.2313C722.555 99.7001 722.457 100.174 722.297 100.628C721.12 104.026 718.415 105.089 715.381 104.398C711.577 103.53 709.019 100.563 708.572 96.1863C708.474 95.2115 708.466 94.2228 708.527 93.2434C708.765 89.3815 707.191 100.749 707.867 97.7413C707.965 97.3003 708.052 96.8547 708.158 96.4184C708.355 95.6154 708.576 94.8077 708.855 94.0325C709.273 92.8767 709.277 91.28 709.454 90.0499C709.511 89.6507 709.716 86.1462 709.978 86.0534C708.318 86.6382 706.637 87.7847 705.551 89.3304C704.711 90.5234 704.456 91.837 704.231 93.2991C703.842 95.8567 703.304 98.4979 703.235 101.097C703.309 98.4375 704.284 95.7964 704.358 93.1227C703.116 99.2545 702.874 101.144 703.632 98.7903C703.735 98.5211 703.854 98.2612 703.989 98.0105C704.186 97.6438 704.415 97.3003 704.67 96.9847C705.182 96.3348 705.797 95.7871 706.449 95.3229C707.195 94.7891 708.011 94.3296 708.855 94.0325C709.228 91.3728 709.605 88.7131 709.978 86.058C708.515 90.1056 708.154 94.7427 707.625 99.0178C707.088 103.344 707.305 108.301 710.897 110.91C714.25 113.342 719.313 113.537 721.079 108.881C722.219 105.878 722.358 102.253 722.772 99.0688C723.063 96.8408 723.17 94.6406 723.035 92.3893C722.834 89.0612 722.321 85.6959 721.518 82.4839C721.748 83.3983 721.055 85.5056 720.919 86.4665C720.751 87.6687 720.247 89.2422 720.395 90.463C720.747 93.4477 721.317 96.4184 722.026 99.3148C723.022 103.4 724.371 108.668 727.503 111.356C728.626 112.321 730.332 112.98 731.652 112.098C732.939 111.239 733.107 109.327 733.328 107.828C733.804 104.648 734.501 101.353 734.345 98.1033C734.234 95.7871 733.824 93.4894 733.341 91.2428C732.603 87.794 731.66 84.373 730.524 81.0635C730.151 83.7232 729.774 86.3829 729.401 89.038C730.27 91.0525 731.139 93.067 732.012 95.0816C731.73 94.4317 732.504 91.8509 732.611 91.0989C732.742 90.1613 732.877 89.219 732.996 88.2768C733.029 88.0215 733.23 87.3252 733.136 87.1024H733.127Z" fill="black"/>
<path d="M508.978 121.67C508.109 119.655 507.24 117.64 506.366 115.626C506.649 116.276 505.875 118.857 505.768 119.609C505.637 120.546 505.501 121.489 505.383 122.431C505.346 122.714 505.157 123.345 505.243 123.605C506.047 125.949 506.731 128.349 507.346 130.763C507.879 132.852 508.346 134.964 508.679 137.103C508.834 138.101 508.957 139.104 509.027 140.111C509.056 140.52 509.076 140.933 509.084 141.341C509.142 144.646 507.629 142.4 509.953 136.407C509.466 137.67 509.097 138.751 507.756 139.034C506.338 139.331 504.948 138.505 503.94 137.442C501.246 134.592 499.996 129.997 499.037 126.098C498.307 123.136 497.721 120.101 497.36 117.051C496.987 119.711 496.61 122.37 496.237 125.026C496.708 126.901 497.049 128.827 497.323 130.749C497.569 132.48 497.745 134.225 497.807 135.98C497.836 136.848 497.84 137.721 497.795 138.593C497.581 142.817 499.147 131.417 498.528 133.798C498.405 134.267 498.307 134.741 498.147 135.196C496.971 138.593 494.265 139.656 491.232 138.965C487.427 138.097 484.869 135.131 484.423 130.753C484.324 129.779 484.316 128.79 484.377 127.811C484.615 123.949 483.041 135.316 483.717 132.308C483.816 131.867 483.902 131.422 484.008 130.986C484.205 130.183 484.427 129.375 484.705 128.6C485.124 127.444 485.128 125.847 485.304 124.617C485.361 124.218 485.566 120.713 485.829 120.62C484.168 121.205 482.488 122.352 481.401 123.898C480.561 125.091 480.307 126.404 480.085 127.866C479.696 130.424 479.159 133.065 479.089 135.664C479.163 133.005 480.139 130.364 480.213 127.69C478.97 133.822 478.729 135.711 479.487 133.357C479.589 133.088 479.708 132.828 479.844 132.578C480.04 132.211 480.27 131.867 480.524 131.552C481.036 130.902 481.651 130.354 482.303 129.89C483.049 129.356 483.865 128.897 484.71 128.6C485.083 125.94 485.46 123.28 485.833 120.625C484.369 124.673 484.009 129.31 483.48 133.585C482.943 137.911 483.16 142.868 486.751 145.477C490.104 147.909 495.167 148.104 496.934 143.449C498.073 140.445 498.213 136.82 498.627 133.636C498.918 131.408 499.024 129.208 498.889 126.956C498.688 123.628 498.176 120.263 497.372 117.051C497.602 117.965 496.909 120.073 496.774 121.034C496.606 122.236 496.102 123.809 496.249 125.03C496.602 128.015 497.172 130.986 497.881 133.882C498.877 137.967 500.226 143.235 503.358 145.923C504.481 146.888 506.186 147.547 507.506 146.665C508.793 145.807 508.961 143.894 509.183 142.395C509.658 139.215 510.355 135.92 510.199 132.67C510.089 130.354 509.679 128.057 509.195 125.81C508.457 122.361 507.514 118.94 506.379 115.631C506.006 118.29 505.629 120.95 505.256 123.605C506.125 125.62 506.994 127.634 507.867 129.649C507.584 128.999 508.359 126.418 508.465 125.666C508.597 124.728 508.732 123.786 508.851 122.844C508.883 122.589 509.084 121.892 508.99 121.67H508.978Z" fill="black"/>
<path d="M162.634 41.0006C161.765 38.9861 160.896 36.9716 160.023 34.957C160.306 35.6069 159.531 38.1877 159.424 38.9397C159.293 39.8773 159.158 40.8196 159.039 41.7618C159.002 42.045 158.813 42.6763 158.9 42.9362C159.703 45.2803 160.388 47.6801 161.002 50.0938C161.535 52.1826 162.003 54.2946 162.335 56.4344C162.491 57.4324 162.614 58.435 162.683 59.4423C162.712 59.8507 162.732 60.2639 162.741 60.6723C162.798 63.9773 161.285 61.7306 163.61 55.7381C163.122 57.0007 162.753 58.0822 161.412 58.3654C159.994 58.6624 158.604 57.8362 157.596 56.7733C154.903 53.9232 153.652 49.3279 152.693 45.4288C151.963 42.4674 151.377 39.4317 151.016 36.382C150.643 39.0418 150.266 41.7015 149.893 44.3566C150.365 46.2318 150.705 48.1582 150.98 50.0799C151.225 51.8112 151.402 53.5565 151.463 55.3111C151.492 56.1791 151.496 57.0518 151.451 57.9244C151.238 62.1484 152.804 50.7483 152.185 53.1295C152.062 53.5983 151.963 54.0718 151.803 54.5267C150.627 57.9244 147.921 58.9874 144.888 58.2957C141.084 57.4277 138.526 54.4617 138.079 50.0845C137.98 49.1097 137.972 48.121 138.034 47.1416C138.271 43.2797 136.697 54.6473 137.374 51.6395C137.472 51.1985 137.558 50.7529 137.665 50.3166C137.862 49.5136 138.083 48.7059 138.362 47.9307C138.78 46.7749 138.784 45.1782 138.96 43.9481C139.018 43.5489 139.223 40.0444 139.485 39.9516C137.825 40.5364 136.144 41.6829 135.058 43.2286C134.217 44.4216 133.963 45.7352 133.742 47.1973C133.352 49.7503 132.815 52.3961 132.746 54.9955C132.819 52.3357 133.795 49.6946 133.869 47.0209C132.627 53.1527 132.385 55.0419 133.143 52.6885C133.246 52.4193 133.365 52.1594 133.5 51.9087C133.697 51.542 133.926 51.1985 134.18 50.8829C134.693 50.233 135.308 49.6853 135.959 49.2211C136.706 48.6873 137.521 48.2278 138.366 47.9307C138.739 45.271 139.116 42.6113 139.489 39.9562C138.026 44.0038 137.665 48.6409 137.136 52.916C136.599 57.2421 136.816 62.1995 140.407 64.8081C143.761 67.2404 148.823 67.4354 150.59 62.7797C151.73 59.7765 151.869 56.1513 152.283 52.967C152.574 50.739 152.681 48.5388 152.545 46.2875C152.345 42.9594 151.832 39.5941 151.029 36.382C151.258 37.2965 150.565 39.4038 150.43 40.3647C150.262 41.5669 149.758 43.1404 149.905 44.3612C150.258 47.3459 150.828 50.3166 151.537 53.213C152.533 57.2978 153.882 62.5662 157.014 65.2537C158.137 66.2192 159.842 66.8783 161.162 65.9964C162.45 65.1377 162.618 63.2253 162.839 61.726C163.315 58.5464 164.011 55.2508 163.856 52.0015C163.745 49.6853 163.335 47.3876 162.851 45.141C162.113 41.6922 161.171 38.2712 160.035 34.9617C159.662 37.6214 159.285 40.2811 158.912 42.9362L161.523 48.9798C161.24 48.3299 162.015 45.7491 162.122 44.9971C162.253 44.0595 162.388 43.1172 162.507 42.175C162.54 41.9197 162.741 41.2234 162.646 41.0006H162.634Z" fill="black"/>
<path d="M663.028 77.3964C663.028 77.3964 660.867 76.3567 658.207 74.8574C658.879 72.7547 659.326 70.5359 659.498 68.2104C661.724 38.285 643.658 62.7888 644.207 69.4869C644.474 72.764 648.413 76.5423 652.361 79.5409C649.737 84.1687 645.158 89.2886 637.247 93.87C618.086 104.968 610.224 109.243 610.224 109.243C610.224 109.243 643.002 101.501 655.132 81.5322C658.153 83.5932 660.621 84.9625 660.621 84.9625L663.028 77.3918V77.3964ZM648.618 65.5321C651.303 61.8698 655.214 62.9467 655.632 65.7363C655.788 66.7854 655.936 69.459 655.042 72.9775C651.021 70.4384 647.253 67.3981 648.622 65.5321H648.618Z" fill="black"/>
<path d="M559.207 76.3754C559.207 76.3754 557.047 75.3357 554.386 73.8364C555.059 71.7337 555.506 69.5149 555.678 67.1894C557.904 37.264 539.838 61.7678 540.387 68.4659C540.654 71.743 544.593 75.5213 548.541 78.5199C545.917 83.1477 541.338 88.2676 533.426 92.849C514.266 103.947 506.403 108.222 506.403 108.222C506.403 108.222 539.182 100.48 551.312 80.5112C554.333 82.5722 556.801 83.9415 556.801 83.9415L559.207 76.3708V76.3754ZM544.798 64.5111C547.483 60.8488 551.394 61.9257 551.812 64.7153C551.968 65.7644 552.115 68.438 551.222 71.9565C547.2 69.4174 543.433 66.3771 544.802 64.5111H544.798Z" fill="black"/>
<path d="M367.754 73.1772C367.754 73.1772 365.594 72.1374 362.933 70.6381C363.606 68.5354 364.052 66.3167 364.225 63.9912C366.451 34.0658 348.385 58.5696 348.934 65.2676C349.2 68.5447 353.14 72.3231 357.088 75.3217C354.464 79.9495 349.885 85.0693 341.973 89.6508C322.813 100.749 314.95 105.024 314.95 105.024C314.95 105.024 347.729 97.2818 359.859 77.313C362.88 79.3739 365.348 80.7432 365.348 80.7432L367.754 73.1725V73.1772ZM353.345 61.3129C356.03 57.6505 359.941 58.7274 360.359 61.5171C360.515 62.5661 360.662 65.2398 359.769 68.7582C355.747 66.2192 351.98 63.1789 353.349 61.3129H353.345Z" fill="black"/>
<path d="M1048.36 251.666C1047.28 250.371 1045.56 248.816 1043.89 249.076C1042.69 249.262 1042.02 250.455 1041.31 251.425C1040.31 252.78 1039.03 254.154 1038.28 255.719C1036.93 258.527 1038.76 262.217 1041.52 262.598C1043.25 262.839 1045.23 261.739 1046.81 261.061C1047.82 260.625 1048.82 260.165 1049.81 259.65C1051 258.021 1052.19 256.396 1053.38 254.767C1047.6 258.494 1041.91 262.844 1038.29 269.361C1039.27 267.592 1040.88 266.255 1041.87 264.478C1039.06 269.546 1038.76 268.372 1040.46 266.747C1040.98 266.251 1041.52 265.773 1042.07 265.313C1043.21 264.348 1044.39 263.443 1045.59 262.57C1046.97 261.558 1048.38 260.579 1049.81 259.655C1050.48 259.223 1051.12 257.905 1051.62 257.232C1052.06 256.619 1052.74 255.106 1053.38 254.772C1052.4 255.282 1051.4 255.747 1050.39 256.183C1048.82 256.856 1046.82 257.956 1045.1 257.719C1041.97 257.288 1040.52 253.221 1042.13 250.348C1041.7 250.952 1041.27 251.555 1040.84 252.158C1040.94 252.024 1041.03 251.894 1041.13 251.759C1040.37 252.785 1039.61 253.806 1038.85 254.832C1040.78 252.832 1043.32 254.786 1044.79 256.559C1044.66 256.401 1048.55 251.899 1048.36 251.676L1048.36 251.666Z" fill="black"/>
<path d="M669.357 97.7878C678.081 93.276 686.804 88.7596 695.528 84.2478C709.425 77.0578 723.317 69.8677 737.214 62.6776C740.391 61.0344 743.568 59.3913 746.745 57.7434C747.758 57.2189 748.865 55.1905 749.611 54.2621C750.279 53.4359 750.947 52.605 751.607 51.7695C751.812 51.5096 752.152 50.8551 752.415 50.7158C743.691 55.2276 734.968 59.744 726.244 64.2558L684.558 85.826C681.381 87.4692 678.204 89.1124 675.027 90.7602C674.014 91.2847 672.908 93.3132 672.161 94.2415C671.493 95.0677 670.825 95.8986 670.165 96.7341C669.96 96.9941 669.62 97.6486 669.357 97.7878Z" fill="black"/>
<path d="M455.493 119.186L481.664 105.646C495.56 98.4562 509.453 91.2661 523.35 84.0761C526.527 82.4329 529.704 80.7897 532.881 79.1419C533.89 78.6174 535 76.5889 535.747 75.6606C536.415 74.8343 537.083 74.0035 537.743 73.1679C537.948 72.908 538.288 72.2535 538.55 72.1143C529.827 76.626 521.104 81.1425 512.38 85.6542C498.483 92.8443 484.59 100.034 470.694 107.224C467.517 108.868 464.34 110.511 461.163 112.159C460.15 112.683 459.043 114.712 458.297 115.64C457.629 116.466 456.961 117.297 456.301 118.133C456.096 118.393 455.756 119.047 455.493 119.186Z" fill="black"/>
<path d="M108.666 50.7204C117.389 46.2086 126.113 41.6922 134.836 37.1804C148.733 29.9904 162.626 22.8003 176.523 15.6102C179.7 13.967 182.877 12.3239 186.054 10.676C187.062 10.1515 188.173 8.12308 188.919 7.19473C189.588 6.3685 190.256 5.53763 190.916 4.70211C191.121 4.44218 191.461 3.78769 191.723 3.64844C183 8.16022 174.276 12.6766 165.553 17.1884C151.656 24.3785 137.763 31.5686 123.866 38.7586L114.335 43.6928C113.327 44.2173 112.216 46.2458 111.47 47.1741C110.802 48.0004 110.134 48.8312 109.474 49.6667C109.269 49.9267 108.928 50.5812 108.666 50.7204Z" fill="black"/>
<path d="M370.977 131.756C379.7 127.244 388.423 122.728 397.147 118.216C411.044 111.026 424.937 103.836 438.833 96.6459C442.01 95.0027 445.187 93.3595 448.364 91.7117C449.373 91.1872 450.484 89.1587 451.23 88.2304C451.898 87.4041 452.566 86.5733 453.226 85.7378C453.431 85.4778 453.772 84.8233 454.034 84.6841C445.31 89.1959 436.587 93.7123 427.864 98.2241C413.967 105.414 400.074 112.604 386.177 119.794C383 121.437 379.823 123.081 376.646 124.728C375.633 125.253 374.527 127.281 373.781 128.21C373.112 129.036 372.444 129.867 371.784 130.702C371.579 130.962 371.239 131.617 370.977 131.756Z" fill="black"/>
<path d="M1009.08 137.507L945.491 170.408C944.823 170.751 944.179 171.698 943.61 172.534C943.392 172.854 943.187 173.156 943.015 173.369C942.466 174.052 941.917 174.734 941.371 175.421C941.31 175.495 941.24 175.607 941.162 175.732C941.072 175.871 940.904 176.136 940.826 176.187L941.142 176.953L1004.74 144.052C1005.4 143.709 1006.05 142.762 1006.62 141.926C1006.83 141.606 1007.04 141.304 1007.21 141.091C1007.76 140.408 1008.31 139.726 1008.86 139.039C1008.92 138.965 1008.99 138.853 1009.06 138.728C1009.15 138.589 1009.32 138.324 1009.39 138.278L1009.08 137.507H1009.08Z" fill="black"/>
<path d="M1028.11 280.52C1037.24 275.437 1046.38 270.354 1055.51 265.271C1056.19 264.891 1056.9 263.586 1057.42 262.951C1057.93 262.315 1058.6 260.969 1059.28 260.588C1050.16 265.671 1041.02 270.753 1031.89 275.836C1031.21 276.217 1030.5 277.521 1029.98 278.157C1029.47 278.793 1028.8 280.139 1028.11 280.52Z" fill="black"/>
<path d="M909.597 253.115C908.519 251.82 906.793 250.265 905.125 250.525C903.928 250.71 903.259 251.903 902.542 252.873C901.542 254.229 900.271 255.603 899.521 257.167C898.168 259.975 899.992 263.665 902.759 264.046C904.489 264.287 906.465 263.187 908.048 262.51C909.06 262.073 910.06 261.614 911.044 261.099C912.237 259.469 913.426 257.84 914.619 256.215C908.835 259.943 903.145 264.292 899.529 270.809C900.509 269.041 902.116 267.704 903.104 265.926C900.292 270.995 900.001 269.82 901.698 268.196C902.218 267.699 902.755 267.226 903.305 266.761C904.448 265.796 905.629 264.891 906.826 264.018C908.207 263.006 909.613 262.027 911.044 261.103C911.716 260.671 912.36 259.353 912.852 258.68C913.299 258.067 913.975 256.554 914.619 256.22C913.639 256.731 912.635 257.195 911.622 257.631C910.056 258.304 908.052 259.404 906.334 259.168C903.206 258.736 901.755 254.67 903.37 251.796C902.94 252.4 902.509 253.003 902.079 253.607C902.177 253.472 902.272 253.342 902.37 253.208C901.607 254.233 900.849 255.255 900.087 256.28C902.013 254.28 904.555 256.234 906.027 258.007C905.895 257.849 909.79 253.347 909.601 253.124L909.597 253.115Z" fill="black"/>
<path d="M889.354 281.963C898.484 276.88 907.617 271.798 916.747 266.715C917.431 266.334 918.144 265.03 918.657 264.394C919.169 263.758 919.842 262.412 920.526 262.031C911.397 267.114 902.263 272.197 893.134 277.28C892.45 277.66 891.736 278.965 891.224 279.601C890.711 280.236 890.039 281.583 889.354 281.963Z" fill="black"/>
<path d="M1088.03 84.3406L1091.89 73.9338C1091.89 73.9338 1104.47 101.329 1090.07 140.924C1090.07 140.924 1099.92 105.331 1088.03 84.3406Z" fill="black"/>
<path d="M1008.56 115.083L1012.41 104.676C1012.41 104.676 1024.99 132.072 1010.6 171.666C1010.6 171.666 1020.45 136.073 1008.56 115.083Z" fill="black"/>
<path d="M710.47 23.0139L713.454 14.9512C713.454 14.9512 723.202 36.1733 712.048 66.8506C712.048 66.8506 719.677 39.2739 710.47 23.0093V23.0139Z" fill="black"/>
<path d="M969.644 131.863C968.587 133.446 967.648 135.21 966.992 137.052C966.582 138.199 966.201 139.545 966.418 140.794C966.709 142.451 968.41 143.504 969.665 144.108C970.956 144.73 972.436 144.85 973.818 145.008C975.129 145.161 976.429 144.864 977.302 143.653C978.556 141.912 976.523 139.188 975.638 137.763C974.527 135.975 973.309 134.258 972.022 132.624C971.874 132.434 970.964 132.457 970.739 132.425C970.595 132.406 969.501 132.378 969.456 132.253C970.345 134.588 970.604 137.373 970.423 139.879C969.997 145.793 966.558 150.351 962.073 153.117C957.383 156.009 951.976 157.211 946.721 157.885C947.549 157.778 948.451 158.363 949.287 158.256C956.715 157.309 965.84 155.206 970.526 147.863C972.83 144.256 973.49 139.712 972.731 135.391C972.567 134.458 972.358 133.501 972.026 132.624C971.169 132.499 970.317 132.373 969.46 132.253C970.349 133.385 971.198 134.564 972.014 135.767C973.162 137.456 974.707 139.503 975.109 141.643C975.302 142.669 974.785 143.43 974.039 144.006C973.449 144.461 972.858 144.372 972.26 144.674C971.628 144.994 973.387 144.66 973.182 144.85C973.145 144.888 972.526 144.614 972.555 144.623C972.17 144.461 971.797 144.256 971.436 144.029C970.349 143.337 969.136 142.455 968.96 140.951C968.825 139.805 969.153 138.607 969.517 137.549C970.173 135.66 971.133 133.85 972.215 132.234C971.965 132.606 969.919 131.459 969.649 131.863H969.644Z" fill="black"/>
<path d="M625.527 183.832C624.265 185.721 622.924 188.093 622.649 190.484C622.207 194.332 626.618 195.255 629.176 195.529C630.422 195.659 632.381 195.316 632.722 193.603C632.935 192.535 632.057 191.161 631.598 190.326C630.455 188.26 629.077 186.334 627.651 184.514C627.351 184.134 625.519 184.589 625.363 184.18C626.15 186.25 626.384 188.72 626.224 190.943C625.847 196.267 622.74 200.352 618.694 202.821C614.537 205.36 609.761 206.409 605.112 207.008C605.85 206.915 606.654 207.435 607.4 207.342C614.004 206.493 622.108 204.636 626.29 198.119C628.364 194.889 628.958 190.808 628.27 186.933C628.126 186.116 627.942 185.28 627.647 184.514C626.884 184.403 626.122 184.291 625.359 184.18C626.577 185.735 627.737 187.369 628.778 189.082C629.901 190.934 631.611 193.663 628.942 194.963C628.639 195.111 628.323 195.125 628.015 195.232C627.392 195.255 627.573 195.297 628.553 195.362C628.298 195.278 628.052 195.176 627.811 195.06C626.987 194.656 626.097 194.072 625.49 193.32C624.732 192.377 624.826 191.11 625.097 189.954C625.589 187.875 626.671 185.879 627.811 184.166C627.589 184.496 625.765 183.474 625.523 183.832H625.527Z" fill="black"/>
<path d="M81.3188 40.7082C79.1584 43.9435 76.8628 48.0097 76.3914 52.0991C75.6289 58.6904 83.1881 60.2732 87.5662 60.7374C89.702 60.9602 93.0553 60.3753 93.6374 57.4418C93.9982 55.6175 92.5019 53.2595 91.7107 51.8252C89.7553 48.2882 87.3982 44.9879 84.9508 41.8733C84.4384 41.2188 81.3024 42.0033 81.0359 41.3024C82.3846 44.8487 82.7823 49.0727 82.5117 52.8836C81.8681 62.0046 76.543 68.9951 69.6151 73.2191C62.4945 77.5637 54.3204 79.3647 46.3594 80.3906C47.622 80.2281 48.9994 81.124 50.2743 80.9615C61.5844 79.504 75.4608 76.329 82.6224 65.1703C86.1725 59.6373 87.1932 52.6561 86.0126 46.0184C85.7625 44.6212 85.4469 43.1916 84.9468 41.8733C83.6432 41.683 82.3354 41.4927 81.0318 41.3024C83.1184 43.9621 85.1066 46.7611 86.8857 49.6947C88.8084 52.8696 91.7353 57.5392 87.1645 59.7673C86.6398 60.0226 86.1069 60.0458 85.578 60.2268C84.5122 60.2686 84.8156 60.3428 86.4963 60.4496C86.0618 60.3057 85.6395 60.134 85.2255 59.9297C83.8194 59.2428 82.2945 58.2355 81.2532 56.9497C79.9496 55.339 80.1136 53.1667 80.5809 51.1893C81.4254 47.6245 83.2783 44.2081 85.2296 41.2792C84.8525 41.8455 81.7246 40.0955 81.3147 40.7082H81.3188Z" fill="black"/>
<path d="M1043.02 66.767L1028.3 17.1699L1018.43 33.9498L1018.55 34.0937C1018.59 34.1402 1022.38 38.7076 1022.46 47.2624C1022.48 48.5992 1022.67 53.8258 1022.94 61.7446C1024.37 101.984 1028.52 218.817 1025.23 259.882C1021.54 265.025 1016.52 268.655 1010.26 269.18C1003.07 269.783 995.7 266.641 990.055 261.716C987.85 259.794 985.661 257.45 984.378 254.609C983.308 252.242 982.869 249.476 982.459 246.881C982.102 244.63 981.811 242.364 981.565 240.09C981.861 239.473 982.16 238.851 982.455 238.233C982.918 237.254 983.332 235.745 983.968 234.938C983.136 236.001 982.262 237.05 981.36 238.071C980.787 232.06 980.512 225.993 980.262 219.977C979.913 211.622 979.708 203.253 979.614 194.884C979.999 194.243 980.377 193.598 980.746 192.944C980.897 193.482 990.933 172.915 991.162 171.62C991.777 170.357 992.326 168.988 992.339 167.697C992.334 168.199 990.715 170.854 990.687 170.909C989.694 172.896 988.719 174.887 987.743 176.883C985.218 180.587 982.402 184.083 979.561 187.518C979.54 182.537 979.553 177.552 979.602 172.576C979.602 172.283 979.606 171.995 979.61 171.703C979.602 172.334 978.962 173.917 978.843 174.354C978.253 176.493 977.679 178.643 977.105 180.787C976.536 182.936 975.966 185.085 975.416 187.239C975.207 188.056 974.773 189.082 974.765 189.927C974.752 191.064 974.744 192.201 974.732 193.343C974.547 193.566 974.367 193.789 974.182 194.011C967.086 202.752 959.908 211.52 953.739 221.142C947.696 230.565 942.994 241.125 938.215 251.393C936.489 255.101 934.673 259.089 934.431 263.354C934.209 267.267 935.775 270.201 938.534 272.485C942.617 275.869 947.705 275.841 952.345 274.091C960.322 271.083 967.619 264.218 973.153 257.158C973.797 256.341 974.375 254.814 974.806 253.946C975.248 253.064 975.683 252.177 976.117 251.291C976.376 254.772 976.704 258.249 977.134 261.702C977.528 264.849 977.962 268.075 978.889 271.088C979.737 273.845 981.377 276.11 983.254 278.078C988.526 283.606 995.864 287.259 1003.07 287.468C1012.34 287.733 1019.66 281.383 1023.76 272.271C1025.15 269.203 1026.13 265.977 1027.04 262.705C1030.27 254.54 1035.82 237.036 1035.74 213.428C1035.63 181.599 1033.45 65.7366 1033.27 56.3509L1043.02 66.767ZM947.906 231.716C947.836 231.879 947.746 232.074 947.647 232.296C947.729 232.102 947.824 231.911 947.906 231.716ZM967.267 249.903C963.102 252.293 958.179 254.006 953.522 252.558C950.099 251.495 946.385 248.552 945.479 244.458C945.126 242.87 945.147 241.236 945.384 239.617C950.218 232.505 955.6 225.844 960.933 219.244C965.48 213.618 970.35 208.118 974.699 202.209C974.707 212.295 974.875 222.386 975.207 232.464C975.33 236.237 975.47 240.016 975.662 243.794C973.014 246.138 970.194 248.218 967.271 249.898L967.267 249.903Z" fill="black"/>
<path d="M379.278 151.284C379.27 148.977 378.999 146.707 378.507 144.47C378.019 142.242 377.351 140.037 376.474 137.967C376.162 137.229 375.47 135.154 374.605 134.996C374.654 135.005 374.096 145.245 374.059 146.08C374.027 146.921 373.391 157.114 373.711 157.174C374.391 157.3 374.994 158.395 375.47 159.579C375.019 159.853 374.523 160.085 373.973 160.261C370.095 161.496 365.643 161.194 362.22 158.641C360.478 157.341 359.088 155.494 358.211 153.354C357.74 152.208 357.416 150.982 357.223 149.734C357.277 148.336 357.326 146.935 357.367 145.533C357.379 145.189 357.359 144.799 357.342 144.396C357.371 143.69 357.399 142.984 357.428 142.284C357.395 142.465 357.375 142.646 357.346 142.831C357.363 142.641 357.387 142.451 357.428 142.284C355.924 148.434 353.583 154.765 350.193 159.885C348.151 162.967 345.282 166.077 341.662 166.124C339.481 166.151 337.575 165.014 335.825 163.649C333.324 161.7 331.016 159.244 329.659 156.121C329.548 155.865 329.45 155.605 329.352 155.341C329.45 152.867 329.548 150.393 329.622 147.923C329.626 147.747 329.61 147.408 329.589 147.013C329.622 146.234 329.651 145.454 329.684 144.674C329.663 144.711 329.647 144.758 329.63 144.795C329.647 144.744 329.663 144.702 329.684 144.674C323.76 152.268 316.59 159.073 308.949 164.318C307.17 165.539 305.313 166.699 303.398 167.72C302.271 163.998 300.947 160.354 299.488 156.817C296.967 150.704 293.937 143.927 289.383 139.401C285.259 135.307 279.245 134.476 274.674 138.092C272.461 139.842 270.776 142.386 269.784 145.217C269.279 146.651 268.972 148.155 268.816 149.687C268.755 150.291 268.706 150.899 268.652 151.507C267.964 148.039 266.894 175.333 267.873 171.68C267.832 175.347 268.214 178.749 269.862 182.045C271.76 185.837 274.777 188.771 278.097 190.906C284.103 194.763 291.055 194.536 297.467 192.168C299.172 191.537 300.849 190.79 302.493 189.945C302.804 190.999 303.107 192.052 303.394 193.111C303.825 194.712 304.222 196.327 304.575 197.957C304.022 198.704 303.382 199.396 302.665 200.11C297.258 205.509 291.338 210.304 285.456 215.006C266.861 229.859 247.053 243.794 225.863 253.375C213.052 259.167 188.382 268.859 180.003 250.056C179.118 248.069 178.515 245.943 178.089 243.775C178.237 244.518 177.917 246.454 177.888 247.02C177.757 249.633 177.65 252.247 177.544 254.86C177.441 257.473 177.335 260.087 177.257 262.704C177.228 263.702 177.003 264.984 177.195 265.958C178.929 274.768 184.086 281.025 192.039 282.599C201.205 284.414 210.958 281.285 219.538 277.869C230.885 273.353 241.707 267.174 252.165 260.49C262.347 253.983 272.239 246.876 281.852 239.338C288.432 234.176 295.011 228.875 301.091 222.966C302.706 221.398 304.296 219.903 305.116 217.614C305.583 216.315 305.821 214.936 305.977 213.553C306.075 212.639 306.157 211.719 306.227 210.8C306.633 211.032 307.637 186.923 306.965 190.757C306.977 189.629 306.973 188.506 306.94 187.383C314.504 182.537 321.288 175.764 327.167 168.848C327.331 168.653 327.495 168.458 327.663 168.259C327.646 168.83 327.63 169.405 327.613 169.976C327.523 173.091 327.638 175.913 328.958 178.726C330.577 182.175 333.406 184.969 336.37 186.886C344.802 192.34 350.869 180.536 353.714 173.249C354.546 171.118 355.313 168.936 355.952 166.713C355.989 167.163 356.047 167.298 356.129 167.015C356.129 167.038 356.129 167.061 356.129 167.089C356.055 170.245 356.276 173.341 357.609 176.182C359.962 181.2 364.848 183.502 369.71 183.112C374.145 182.76 377.531 180.638 378.245 175.398C378.372 174.46 378.45 173.513 378.503 172.562C378.696 173.82 378.671 172.288 378.63 169.507C378.642 169.131 378.659 168.76 378.675 168.389C378.938 162.717 379.302 156.998 379.286 151.312L379.278 151.284ZM290.059 171.731C283.156 171.991 276.285 168.338 272.067 162.104C272.042 162.067 272.022 162.03 271.997 161.992C274.994 158.613 279.29 157.026 283.525 158.46C288.751 160.233 292.027 165.627 294.704 170.663C294.769 170.789 294.831 170.918 294.896 171.044C293.302 171.424 291.687 171.666 290.055 171.726L290.059 171.731Z" fill="black"/>
<path d="M269.657 51.1289L255.37 2.96143L245.844 19.1519C245.844 19.1519 249.726 23.7379 249.816 32.4922C249.881 39.2553 254.337 145.059 253.776 209.877C253.28 212.309 252.706 214.704 252.095 217.044C247.906 233.123 240.379 248.013 230.221 260.217C214.664 278.904 193.708 290.383 171.899 296.483C156.17 300.883 139.883 302.744 123.703 302.888C110.24 303.009 96.5158 301.867 83.5577 297.499C68.5089 292.426 54.8416 282.107 48.9508 265.267C49.1599 260.346 49.7789 255.449 50.7094 250.641C51.7097 245.465 53.0584 240.354 54.7801 235.42C55.0958 234.52 55.4155 233.615 55.7763 232.737C55.9935 232.213 55.3909 229.182 55.3745 229.047C55.0179 226.086 54.6366 223.124 54.2513 220.168C53.866 217.211 53.4806 214.249 53.0625 211.297C52.96 210.559 52.2631 208.224 52.505 207.635C51.1563 210.907 50.1314 214.389 49.2091 217.837C47.1143 225.687 45.7902 233.847 45.6139 242.053C45.3721 253.286 47.4668 264.603 49.0041 275.609C49.8363 281.559 50.9103 287.366 53.1363 292.871C57.539 303.77 65.5 311.986 74.8711 317.319C89.7805 325.804 107.178 327.847 123.633 327.995C144.638 328.186 166.045 325.47 186.071 318.062C200.529 312.715 214.311 304.708 225.912 293.484C234.652 285.027 242.035 274.824 247.561 263.401C249.545 259.297 251.292 255.046 252.788 250.687C255.547 244.476 262.745 225.668 262.651 198.662C262.536 165.27 260.175 40.9913 260.175 40.9913L269.657 51.1335V51.1289ZM46.9421 257.905C46.8478 257.413 46.7536 256.921 46.6716 256.429C46.6183 256.104 46.5732 255.779 46.5117 255.459C46.6757 256.308 46.8232 257.162 46.9667 258.016C46.9585 257.979 46.9503 257.942 46.9421 257.91V257.905Z" fill="black"/>
<path d="M462.053 275.381C463.836 270.331 470.858 273.701 471.498 277.994C471.412 275.92 471.326 273.84 471.244 271.765C471.244 275.701 463.906 274.323 461.827 274.699C460.958 274.857 460.552 275.093 460.45 276.045C460.237 278.004 460.544 280.348 460.692 282.302C460.901 285.124 461.647 287.9 462.106 290.676C462.27 291.669 462.422 292.662 462.553 293.66C462.741 295.09 462.651 296.807 463.012 298.186C462.84 297.527 462.934 294.162 462.901 296.747C462.889 297.587 462.864 298.423 462.811 299.263C462.713 300.818 462.532 302.354 462.295 303.886C461.979 305.933 462.86 308.208 462.549 310.231C464.205 299.5 462.504 288.624 460.708 278.087C460.655 277.767 460.614 277.447 460.556 277.126C460.524 276.945 460.524 276.755 460.491 276.574C460.569 276.973 460.614 281.94 460.745 281.88C461.122 281.703 461.348 281.207 461.913 281.077C464.094 280.589 466.374 281.169 468.575 280.64C470.813 280.102 471.551 279.197 471.473 276.746C471.408 274.634 471.744 271.835 470.633 269.992C468.784 266.938 463.434 264.427 461.807 269.041C461.54 269.802 461.872 271.399 461.905 272.215C461.938 273.032 462.327 274.625 462.061 275.386L462.053 275.381Z" fill="black"/>
<path d="M539.735 259.511C539.579 261.507 537.821 269.31 538.94 265.754C539.149 265.095 539.436 264.454 539.817 263.897C540.883 262.333 542.498 261.637 544.212 261.595C548.606 261.493 552.956 261.883 557.358 261.451C557.735 258.792 558.117 256.132 558.494 253.472C555.862 255.371 553.329 257.464 550.877 259.646C547.122 262.992 542.777 266.882 540.625 271.844C540.223 272.768 539.993 273.705 539.825 274.713C539.411 277.196 538.952 279.763 538.759 282.283C538.563 284.841 539.399 287.816 541.018 289.645C545.294 294.468 553.521 290.69 557.276 286.893C560.625 283.509 563.077 278.482 564.118 273.538C564.672 270.92 564.704 268.168 565.254 265.559C564.475 269.254 562.868 272.907 560.843 275.915C557.51 280.858 551.242 284.906 545.577 283.653C543.379 283.165 541.65 281.592 540.727 279.285C540.198 277.962 540.186 276.62 539.858 275.26C539.858 275.172 539.858 275.084 539.854 274.996C539.522 277.242 539.19 279.489 538.862 281.731C538.956 281.453 539.005 281.146 539.096 280.863C539.26 280.348 539.473 279.851 539.702 279.368C541.854 274.875 545.675 271.315 549.139 268.168C551.775 265.777 554.517 263.503 557.362 261.447C557.785 261.14 557.883 258.049 557.965 257.464C558.01 257.148 558.379 253.481 558.498 253.467C556.297 253.681 554.079 253.774 551.869 253.802C549.951 253.825 548.04 253.718 546.122 253.63C544.822 253.57 543.523 253.709 542.383 254.47C541.026 255.375 540.219 256.944 539.85 258.643C539.255 261.396 538.841 264.371 538.62 267.193C538.579 267.704 538.747 266.576 538.706 266.794C538.85 266.009 538.948 265.202 539.063 264.413C539.296 262.788 539.608 261.14 539.735 259.502V259.511Z" fill="black"/>
<path d="M474.687 51.8159C470.776 50.7436 466.172 49.0772 463.225 45.8605C460.868 43.289 461.663 40.9263 463.061 37.9602C463.725 36.5491 464.705 37.0272 461.655 39.5338C462.016 39.2367 462.335 38.8654 462.692 38.5637C463.34 38.0206 464.037 37.5286 464.783 37.1711C465.767 36.7023 467.177 36.2521 468.083 37.1526C469.058 38.1273 468.657 39.803 468.394 41.0284C467.919 43.2611 467.156 45.4288 466.341 47.5269C463.86 53.9186 460.565 59.9714 456.695 65.4023C456.416 65.7922 456.125 66.1774 455.846 66.5673C454.789 68.0481 457.855 64.2279 456.084 66.2517C455.362 67.0779 454.616 67.8856 453.854 68.6608C452.382 70.1554 450.841 71.5619 449.217 72.8383C445.831 75.5027 442.126 77.5729 438.149 78.8308C436.94 80.3487 435.726 81.8619 434.517 83.3798C440.933 75.9576 447.861 67.2682 450.82 57.2699C451.644 54.4849 452.136 51.4213 451.542 48.5109C451.193 46.8167 450.386 44.7511 448.611 44.6815C447.094 44.6258 445.823 45.9626 444.848 47.1091C442.962 49.3279 440.838 51.6441 439.543 54.3967C436.907 60.0039 437.821 66.5163 442.79 69.914C443.126 70.1461 446.225 65.1052 446.491 65.2909C442.917 62.8493 441.17 58.7042 441.925 54.0253C442.236 52.0944 442.909 50.2237 443.864 48.5852C443.97 48.3995 444.097 48.2231 444.2 48.0328C445.29 46.0787 441.437 51.296 441.662 51.1335C441.978 50.9014 442.249 50.5301 442.56 50.2794C443.089 49.857 443.687 49.4857 444.331 49.3604C447.77 48.6873 448.238 54.4802 448.045 57.061C447.66 62.2644 445.294 67.194 442.831 71.4969C441.412 73.9802 439.846 76.3568 438.19 78.6405C437.883 79.0676 437.571 79.49 437.256 79.9077C437.128 80.0795 436.993 80.2466 436.87 80.4183C435.817 81.8665 438.461 78.3945 438.33 78.608C438.399 78.492 438.219 78.7473 438.075 78.9098C437.37 79.7267 436.706 80.5854 436.03 81.4302C435.677 81.8712 434.935 83.3008 434.443 83.454C442.285 80.966 448.787 75.3263 454.26 68.6561C459.687 62.0416 464.586 55.1301 468.271 47.0859C469.546 44.3009 470.71 41.4276 471.575 38.443C471.977 37.0597 472.695 35.0591 472.338 33.5691C471.395 29.6051 466.218 33.9544 464.984 35.3052C463.373 37.0737 461.848 39.0186 460.413 40.9727C459.277 42.5138 457.978 44.5933 457.884 46.6728C457.72 50.2794 461.757 52.5307 464.16 53.77C466.341 54.8933 468.649 55.7985 470.981 56.439C471.227 56.504 472.654 54.4013 472.854 54.146C473.047 53.9046 474.457 51.7509 474.687 51.8112V51.8159Z" fill="black"/>
</g>
<defs>
<clipPath id="clip0_523_27015">
<rect width="1132" height="328" fill="white"/>
</clipPath>
</defs>
</svg>
