<svg width="40" height="40" viewBox="0 0 40 40" fill="none" xmlns="http://www.w3.org/2000/svg">
<g clip-path="url(#clip0_523_27520)">
<path d="M29.166 26.25C29.166 24.1789 30.8449 22.5 32.916 22.5C34.9871 22.5 36.666 24.1789 36.666 26.25V30.8333H29.166V26.25Z" fill="#EA5578"/>
<path d="M36.666 35.4167C36.666 37.4878 34.9871 39.1667 32.916 39.1667C30.8449 39.1667 29.166 37.4878 29.166 35.4167V30.8334H36.666V35.4167Z" fill="#EA5578" fill-opacity="0.3"/>
<path d="M5 1.66667C5 0.746192 5.74619 0 6.66667 0H23.3333C24.2538 0 25 0.746192 25 1.66667V9.16667H5V1.66667Z" fill="#EA5578"/>
<path fill-rule="evenodd" clip-rule="evenodd" d="M22.5 9.16663H7.5C7.5 11.0027 6.63553 12.7316 5.16667 13.8333L2.5 15.8333V36.6666C2.5 37.5871 3.24619 38.3333 4.16667 38.3333H25.8333C26.7538 38.3333 27.5 37.5871 27.5 36.6666V15.8333L24.8333 13.8333C23.3645 12.7316 22.5 11.0027 22.5 9.16663Z" fill="#EA5578" fill-opacity="0.3"/>
<path d="M21.6667 18.3334H9.16667C8.24619 18.3334 7.5 19.0796 7.5 20V32.5C7.5 33.4205 8.24619 34.1667 9.16667 34.1667H21.6667C22.5871 34.1667 23.3333 33.4205 23.3333 32.5V20C23.3333 19.0796 22.5871 18.3334 21.6667 18.3334Z" fill="#EA5578"/>
<path d="M15.416 26.25H12.291M15.416 26.25V23.125M15.416 26.25V29.375M15.416 26.25H18.541" stroke="white" stroke-opacity="0.6" stroke-linecap="round" stroke-linejoin="round"/>
</g>
<defs>
<clipPath id="clip0_523_27520">
<rect width="40" height="40" fill="white"/>
</clipPath>
</defs>
</svg>
