<svg width="19" height="18" viewBox="0 0 19 18" fill="none" xmlns="http://www.w3.org/2000/svg">
<g opacity="0.7">
<path opacity="0.4" d="M9.125 15.75C13.06 15.75 16.25 12.56 16.25 8.625C16.25 4.68997 13.06 1.5 9.125 1.5C5.18997 1.5 2 4.68997 2 8.625C2 12.56 5.18997 15.75 9.125 15.75Z" fill="#292D32"/>
<path d="M16.4749 16.5C16.3399 16.5 16.2049 16.4475 16.1074 16.35L14.7124 14.955C14.5099 14.7525 14.5099 14.4225 14.7124 14.2125C14.9149 14.01 15.2449 14.01 15.4549 14.2125L16.8499 15.6075C17.0524 15.81 17.0524 16.14 16.8499 16.35C16.7449 16.4475 16.6099 16.5 16.4749 16.5Z" fill="#292D32"/>
<path d="M10.4524 6.66746C9.97995 6.51746 9.47745 6.60746 9.11745 6.88496C8.74995 6.60746 8.26245 6.51746 7.78995 6.66746C6.76995 6.99746 6.44745 8.15996 6.73245 9.04496C7.16745 10.4025 8.59995 11.1075 9.11745 11.1075C9.61995 11.1075 11.0824 10.3875 11.5024 9.04496C11.7949 8.15996 11.4724 6.99746 10.4524 6.66746Z" fill="#292D32"/>
</g>
</svg>
