<svg width="15" height="15" viewBox="0 0 15 15" fill="none" xmlns="http://www.w3.org/2000/svg">
<path d="M6.71154 1.00862C7.09127 0.316936 8.085 0.316936 8.46473 1.00863L10.0469 3.89056C10.1905 4.15218 10.4435 4.33598 10.7367 4.39173L13.9664 5.00586C14.7416 5.15325 15.0487 6.09835 14.5082 6.67324L12.2562 9.0685C12.0518 9.28594 11.9552 9.58333 11.9928 9.8794L12.4067 13.1409C12.5061 13.9237 11.7022 14.5078 10.9884 14.1714L8.01445 12.7698C7.74448 12.6426 7.43179 12.6426 7.16182 12.7698L4.18789 14.1714C3.47412 14.5078 2.67017 13.9237 2.76953 13.1409L3.18352 9.8794C3.2211 9.58333 3.12447 9.28594 2.92004 9.0685L0.668059 6.67323C0.127566 6.09835 0.434648 5.15325 1.20982 5.00586L4.43962 4.39173C4.73281 4.33598 4.98579 4.15218 5.12941 3.89056L6.71154 1.00862Z" fill="#FBBC04"/>
</svg>
