<svg width="1272" height="203" viewBox="0 0 1272 203" fill="none" xmlns="http://www.w3.org/2000/svg">
<g opacity="0.15">
<path fill-rule="evenodd" clip-rule="evenodd" d="M404.443 3.45765C400.266 8.75058 398.751 13.7459 399.284 20.4826C400.082 30.5795 406.534 38.6701 416.921 42.5946L421.973 44.5042L421.294 49.4038C420.92 52.0991 420.092 54.7509 419.454 55.2959C417.967 56.5667 417.947 60.4371 419.424 61.217C421.557 62.3438 420.601 65.5986 417.875 66.4839C414.061 67.7228 410.374 72.1092 410.374 75.4085C410.374 78.814 413.035 83.4798 415.423 84.2626C418.242 85.1874 417.524 86.3616 410.453 92.4035C404.733 97.2895 400.689 99.4359 383.023 106.956C368.227 113.255 360.426 117.2 355.744 120.751C348.602 126.165 341.451 134.505 339.05 140.22C338.213 142.213 337.121 143.844 336.623 143.844C335.196 143.844 335.572 137.592 337.077 136.306C338.132 135.404 338.132 135.146 337.077 135.146C336.31 135.146 335.72 133.828 335.72 132.114C335.72 129.919 334.47 127.922 331.195 124.887C328.707 122.58 326.671 120.006 326.671 119.165C326.671 118.325 326.154 117.91 325.521 118.244C324.889 118.578 324.631 119.21 324.948 119.649C325.266 120.088 323.238 122.428 320.443 124.851C314.933 129.626 315.067 129.147 315.143 143.602C315.177 149.87 314.841 151.575 313.576 151.575C312.496 151.575 311.966 150.483 311.966 148.26C311.966 145.557 311.495 144.887 309.421 144.636C307.209 144.367 306.947 143.883 307.415 140.944C309.045 130.736 306.431 125.193 297.85 120.663C295.661 119.506 293.868 117.974 293.868 117.258C293.868 116.542 293.145 115.339 292.263 114.585C291.379 113.83 290.172 110.211 289.578 106.543L288.502 99.8727L288.222 105.671C288.07 108.86 287.985 111.744 288.033 112.079C288.082 112.415 287.124 113.46 285.905 114.403C284.685 115.347 283.688 116.674 283.688 117.355C283.688 118.035 281.708 119.807 279.29 121.293C271.489 126.083 269.789 129.17 270.366 137.49C270.835 144.239 270.711 144.737 268.511 145.005C266.98 145.193 266.271 145.887 266.49 146.991C266.673 147.926 266.307 149.448 265.675 150.373C264.841 151.599 264.518 149.51 264.492 142.716C264.468 136.082 264.868 133.257 265.872 132.968C267.002 132.643 267.002 132.267 265.869 131.094C264.807 129.993 264.51 123.887 264.683 106.687C264.907 84.5196 264.837 83.6934 262.572 82.1462C261.283 81.2658 259.669 79.6751 258.985 78.6121C258.045 77.1519 257.731 77.0513 257.705 78.2023C257.687 79.0392 256.359 80.7778 254.757 82.064L251.842 84.4037L252.639 96.7223C253.216 105.632 253.068 109.42 252.105 110.41C251.197 111.347 251.151 111.979 251.96 112.407C252.639 112.765 253.147 116.584 253.147 121.326C253.147 128.078 252.779 129.862 251.167 130.933C249.429 132.088 249.397 132.356 250.907 133.138C252.276 133.845 252.584 135.871 252.413 143.042C252.295 148.001 252.158 155.21 252.107 159.064C252.034 164.653 251.669 166.071 250.298 166.071C249.062 166.071 248.745 165.391 249.167 163.655C249.489 162.326 250.023 160.135 250.351 158.787C251.545 153.889 248.885 148.993 242.383 144.121C238.987 141.576 236.203 139.094 236.195 138.605C236.187 138.115 235.429 137.004 234.51 136.138C232.681 134.412 231.95 131.866 231.584 125.965C231.387 122.776 231.205 123.157 230.541 128.143C230.089 131.542 228.919 134.958 227.868 135.95C226.84 136.92 226 138.348 226 139.121C226 139.895 224.601 141.238 222.889 142.107C214.419 146.408 211.188 152.024 212.428 160.286L213.086 164.663L208.785 162.845C203.738 160.711 198.375 161.211 193.877 164.233L190.935 166.211V162.952C190.935 161.159 191.545 159.171 192.292 158.533C193.347 157.631 193.347 157.115 192.292 156.213C190.835 154.969 190.36 141.758 191.73 140.587C192.168 140.213 192.433 137.441 192.321 134.427C192.148 129.738 191.625 128.524 188.698 126.025L185.279 123.103L181.86 126.025C178.933 128.524 178.41 129.738 178.237 134.427C178.125 137.441 178.39 140.213 178.828 140.587C180.235 141.789 179.717 154.969 178.209 156.334C177.078 157.359 177.078 157.704 178.209 158.057C179.138 158.349 179.623 160.614 179.623 164.666V170.831L173.119 165.197C168.542 161.231 164.94 159.075 160.96 157.916C149.939 154.711 149.684 154.507 149.317 148.61C149.026 143.967 149.349 143 151.862 140.984C155.154 138.342 155.703 133.706 153.078 130.74C151.532 128.993 151.414 129.142 151.381 132.901C151.335 138.086 147.188 141.306 141.314 140.719L137.477 140.337L140.012 142.091C141.406 143.055 143.789 143.844 145.308 143.844C147.927 143.844 148.052 144.105 147.728 148.885C147.354 154.386 146.758 154.869 137.206 157.41C128.864 159.629 123.124 163.901 116.683 172.688C116.547 172.873 114.996 172.296 113.235 171.408C109.904 169.726 107.231 165.974 107.231 162.979C107.231 162.021 106.722 161.239 106.1 161.239C105.478 161.239 104.969 162.021 104.969 162.979C104.969 166.033 102.361 169.579 98.5414 171.717C96.502 172.86 94.5135 174.883 94.1232 176.214C93.2489 179.189 93.2692 179.189 87.2731 176.188C81.7 173.397 80.139 171.408 79.9524 166.859C79.8325 163.945 79.6628 164.118 78.077 168.775L76.3339 173.895L65.9309 178.131C53.2803 183.284 49.1505 186.912 49.7568 192.338C50.0532 195.002 49.7342 196.029 48.6076 196.029C47.3973 196.029 47.1145 194.458 47.3486 189.022C47.6642 181.673 46.0241 176.271 43.1951 175.344C42.28 175.044 40.8084 173.378 39.925 171.642C38.7169 169.266 38.3097 168.979 38.2758 170.48C38.252 171.577 36.7047 173.723 34.8383 175.251C32.9719 176.779 31.4449 178.817 31.4449 179.781C31.4449 180.744 31.0037 181.533 30.4653 181.533C29.9258 181.533 29.7437 184.627 30.0604 188.411L30.6361 195.288L24.8198 190.185C20.5057 186.402 18.973 184.312 18.8871 182.1L18.7717 179.117L17.619 182.177C16.9856 183.86 13.9836 187.497 10.9476 190.259C6.29867 194.491 5.42883 195.874 5.42883 199.038C5.42883 202.149 5.04085 202.794 3.16656 202.794C0.949542 202.794 0.904297 203.438 0.904297 234.685V266.575H843.598V234.685C843.598 203.607 843.542 202.794 841.371 202.794C839.855 202.794 839.353 202.331 839.797 201.342C841.041 198.573 838.965 194.909 833.378 190.008C829.241 186.38 827.732 184.298 827.647 182.1L827.532 179.117L826.301 182.409C825.625 184.219 822.838 187.665 820.108 190.064L815.145 194.428L815.387 188.705C815.622 183.138 812.872 175.735 810.569 175.735C810.054 175.735 808.623 174.322 807.39 172.594C806.157 170.866 805.147 170.132 805.144 170.963C805.142 171.795 803.613 173.723 801.747 175.251C799.88 176.779 798.353 178.817 798.353 179.781C798.353 180.744 797.921 181.533 797.392 181.533C796.863 181.533 796.676 184.794 796.975 188.781C797.311 193.256 797.089 196.029 796.394 196.029C795.775 196.029 795.268 194.365 795.268 192.33C795.268 186.541 792.421 183.946 780.688 179.037C769.049 174.167 766.728 172.196 766.59 167.063C766.503 163.785 766.434 163.845 764.782 168.627C763.261 173.029 762.428 173.895 757.514 176.18C752.343 178.583 751.913 178.64 751.238 177.006C750.84 176.041 748.044 173.196 745.024 170.682C740.236 166.698 739.517 165.586 739.404 161.985L739.274 157.856L738.482 161.239C737.447 165.663 735.425 168.757 731.855 171.381L728.956 173.511L725.479 169.136C720.582 162.974 714.706 159.288 705.893 156.848C697.725 154.587 696.893 153.675 696.667 146.743C696.565 143.616 696.818 143.353 700.015 143.255C704.996 143.102 707.208 140.944 702.382 140.944C696.945 140.944 692.781 137.054 693.398 132.549L693.869 129.096L691.816 131.262C688.992 134.242 689.247 137.372 692.592 140.769C694.767 142.977 695.415 144.723 695.403 148.332C695.38 154.313 694.807 154.997 688.633 156.385C681.429 158.007 674.775 161.536 670.069 166.233L666.021 170.274L666.406 128.433L663.381 126.038C661.717 124.72 660.339 123.078 660.321 122.388C660.299 121.632 659.825 121.81 659.128 122.834C658.49 123.769 656.689 125.628 655.125 126.964L652.281 129.393L653.083 142.9C653.735 153.887 653.603 156.407 652.369 156.407C651.19 156.407 651.155 156.665 652.211 157.566C652.957 158.204 653.568 160.365 653.568 162.369V166.013L649.326 163.545C645.861 161.531 644.268 161.19 640.617 161.684C638.159 162.018 635.486 162.759 634.678 163.332C632.855 164.625 632.95 164.914 632.736 157.373C632.527 150.018 630.906 147.469 623.585 142.976C620.79 141.261 618.503 139.376 618.503 138.786C618.503 138.197 617.736 136.99 616.799 136.106C615.862 135.22 614.787 132.577 614.412 130.231C613.459 124.281 612.847 124.262 612.847 130.184C612.847 133.757 612.357 135.367 611.151 135.763C610.217 136.069 609.454 137.102 609.454 138.058C609.454 139.041 606.959 141.328 603.717 143.318C596.362 147.832 594.383 151.684 595.181 159.925C595.662 164.891 595.461 166.071 594.131 166.071C592.757 166.071 592.487 163.381 592.487 149.722C592.487 137.505 592.844 133.271 593.901 132.968C595.017 132.647 595.003 132.238 593.833 131.027C592.8 129.957 592.418 126.678 592.57 120.208C592.69 115.101 592.466 110.647 592.073 110.31C591.003 109.396 591.206 96.6836 592.3 96.1057C592.821 95.8313 593.074 93.1727 592.866 90.1972C592.578 86.118 591.749 84.0007 589.494 81.5857L586.502 78.3821L579.867 84.8376L580.673 96.932C581.259 105.714 581.113 109.402 580.142 110.403C579.229 111.343 579.18 111.98 579.989 112.407C581.867 113.398 581.427 126.498 579.404 129.812C578.27 131.67 578.072 132.812 578.845 133.033C579.598 133.247 579.973 136.855 579.854 142.716C579.749 147.854 579.464 150.428 579.221 148.434C578.875 145.611 578.288 144.81 576.564 144.81C574.538 144.81 574.373 144.181 574.597 137.32C574.881 128.595 573.723 126.516 565.897 121.715C563.102 120.001 560.815 118.039 560.815 117.358C560.815 116.675 559.918 115.424 558.822 114.576C557.491 113.547 556.739 111.355 556.56 107.984C556.196 101.144 555.159 100.655 555.159 107.325C555.159 110.908 554.597 113.08 553.463 113.885C552.53 114.547 551.766 115.894 551.766 116.878C551.766 117.862 550.366 119.294 548.656 120.06C546.945 120.825 543.763 123.036 541.586 124.973C537.697 128.432 537.627 128.639 537.636 136.652C537.643 143.684 537.379 144.81 535.724 144.81C534.323 144.81 533.71 145.787 533.453 148.434C533.217 150.878 532.549 152.058 531.406 152.058C530.003 152.058 529.674 150.05 529.508 140.47L529.306 128.882L525.549 126.043C523.482 124.481 521.194 121.868 520.463 120.236C519.732 118.603 519.097 118.003 519.049 118.902C519.002 119.801 516.673 122.521 513.873 124.948C508.393 129.698 508.487 129.375 508.603 142.877L508.667 150.125L506.108 143.359C503.271 135.86 501.169 132.657 495.327 126.932C486.785 118.562 473.565 111.087 456.751 105.12C447.241 101.746 436.121 95.2988 431.502 90.4813C429.214 88.0963 427.341 85.8852 427.341 85.5691C427.341 85.2522 428.614 83.82 430.169 82.3858C434.049 78.8092 434.008 73.5057 430.069 69.5058C428.458 67.8706 426.422 66.5322 425.544 66.5322C423.568 66.5322 423.425 62.3892 425.312 59.808C426.425 58.285 426.321 57.6085 424.747 56.1212C423.478 54.9238 422.817 52.6702 422.817 49.5439V44.7883L429.942 44.6617C438.536 44.509 446.669 41.3509 452.116 36.0512C454.12 34.101 455.573 32.346 455.345 32.1518C455.118 31.9566 452.873 32.6678 450.358 33.7309C439.791 38.1975 426.319 36.7653 417.375 30.2238C408.958 24.0698 404.765 14.0541 406.954 5.33534C407.617 2.69516 407.97 0.373891 407.738 0.17578C407.507 -0.0223302 406.024 1.45431 404.443 3.45765ZM261.065 90.6978C261.065 92.8519 256.92 93.8994 256.052 91.9647C255.703 91.1877 255.96 89.686 256.623 88.6268C257.587 87.0893 258.156 86.9327 259.447 87.8489C260.336 88.4799 261.065 89.7614 261.065 90.6978ZM589.094 91.2931C589.094 92.9466 588.459 93.5912 586.831 93.5912C585.102 93.5912 584.569 92.9466 584.569 90.8534C584.569 89.3468 584.904 87.8285 585.313 87.4787C586.601 86.379 589.094 88.8945 589.094 91.2931ZM327.576 133.407C328.322 134.044 328.933 136.001 328.933 137.755C328.933 140.654 328.624 140.944 325.539 140.944C322.651 140.944 322.146 140.575 322.146 138.465C322.146 135.773 323.965 132.247 325.353 132.247C325.829 132.247 326.829 132.769 327.576 133.407ZM514.439 137.136C514.439 139.877 513.964 140.944 512.742 140.944C510.981 140.944 510.39 136.764 511.73 133.782C512.888 131.202 514.439 133.123 514.439 137.136ZM520.999 133.407C521.746 134.044 522.357 136.001 522.357 137.755C522.357 140.654 522.048 140.944 518.963 140.944C515.879 140.944 515.57 140.654 515.57 137.755C515.57 134.876 517.19 132.247 518.963 132.247C519.336 132.247 520.253 132.769 520.999 133.407ZM526.864 137.804C526.875 139.958 526.348 140.944 525.184 140.944C523.972 140.944 523.488 139.888 523.488 137.24C523.488 135.202 523.835 133.239 524.259 132.877C525.489 131.826 526.845 134.389 526.864 137.804ZM321.015 137.079C321.015 139.205 320.506 140.944 319.884 140.944C319.262 140.944 318.753 139.205 318.753 137.079C318.753 134.953 319.262 133.213 319.884 133.213C320.506 133.213 321.015 134.953 321.015 137.079ZM333.457 137.079C333.457 139.205 332.948 140.944 332.326 140.944C331.704 140.944 331.195 139.205 331.195 137.079C331.195 134.953 331.704 133.213 332.326 133.213C332.948 133.213 333.457 134.953 333.457 137.079ZM187.161 135.694C188.105 137.793 185.711 139.767 183.997 138.303C182.55 137.066 183.447 134.18 185.279 134.18C185.941 134.18 186.787 134.861 187.161 135.694ZM661.486 136.653C661.486 137.419 660.468 138.045 659.224 138.045C656.754 138.045 656.094 135.573 658.375 134.874C660.289 134.287 661.486 134.972 661.486 136.653ZM41.5855 187.267C42.2291 188.296 42.7562 190.688 42.7562 192.583C42.7562 195.768 42.4983 196.029 39.3628 196.029C36.0599 196.029 35.9694 195.903 35.9694 191.358C35.9694 188.789 36.3088 186.397 36.7239 186.043C38.1457 184.827 40.4148 185.399 41.5855 187.267ZM808.494 187.267C809.137 188.296 809.664 190.688 809.664 192.583C809.664 195.768 809.406 196.029 806.271 196.029C802.968 196.029 802.878 195.903 802.878 191.358C802.878 188.789 803.217 186.397 803.632 186.043C805.054 184.827 807.323 185.399 808.494 187.267ZM33.7072 191.197C33.7072 193.854 33.1981 196.029 32.576 196.029C31.3284 196.029 30.9947 188.039 32.1994 187.009C33.5488 185.857 33.7072 186.297 33.7072 191.197ZM46.1496 191.197C46.1496 193.854 45.6406 196.029 45.0185 196.029C43.7708 196.029 43.4372 188.039 44.6418 187.009C45.9913 185.857 46.1496 186.297 46.1496 191.197ZM800.615 191.197C800.615 193.854 800.106 196.029 799.484 196.029C798.237 196.029 797.903 188.039 799.108 187.009C800.457 185.857 800.615 186.297 800.615 191.197ZM813.058 191.197C813.058 193.854 812.549 196.029 811.927 196.029C810.679 196.029 810.345 188.039 811.55 187.009C812.899 185.857 813.058 186.297 813.058 191.197Z" fill="#97BDB2"/>
<path fill-rule="evenodd" clip-rule="evenodd" d="M831.941 3.45765C827.764 8.75058 826.249 13.7459 826.782 20.4826C827.58 30.5795 834.032 38.6701 844.42 42.5946L849.471 44.5042L848.792 49.4038C848.418 52.0991 847.59 54.7509 846.952 55.2959C845.465 56.5667 845.445 60.4371 846.922 61.217C849.055 62.3438 848.099 65.5986 845.373 66.4839C841.559 67.7228 837.873 72.1092 837.873 75.4085C837.873 78.814 840.533 83.4798 842.921 84.2626C845.74 85.1874 845.022 86.3616 837.951 92.4035C832.232 97.2895 828.187 99.4359 810.521 106.956C795.725 113.255 787.924 117.2 783.242 120.751C776.1 126.165 768.949 134.505 766.548 140.22C765.711 142.213 764.619 143.844 764.122 143.844C762.694 143.844 763.07 137.592 764.575 136.306C765.63 135.404 765.63 135.146 764.575 135.146C763.808 135.146 763.218 133.828 763.218 132.114C763.218 129.919 761.968 127.922 758.693 124.887C756.205 122.58 754.169 120.006 754.169 119.165C754.169 118.325 753.652 117.91 753.019 118.244C752.387 118.578 752.129 119.21 752.446 119.649C752.764 120.088 750.736 122.428 747.941 124.851C742.431 129.626 742.566 129.147 742.641 143.602C742.675 149.87 742.339 151.575 741.074 151.575C739.994 151.575 739.464 150.483 739.464 148.26C739.464 145.557 738.993 144.887 736.919 144.636C734.708 144.367 734.445 143.883 734.913 140.944C736.543 130.736 733.929 125.193 725.349 120.663C723.159 119.506 721.366 117.974 721.366 117.258C721.366 116.542 720.643 115.339 719.761 114.585C718.877 113.83 717.67 110.211 717.077 106.543L716 99.8727L715.72 105.671C715.568 108.86 715.483 111.744 715.531 112.079C715.58 112.415 714.622 113.46 713.403 114.403C712.183 115.347 711.186 116.674 711.186 117.355C711.186 118.035 709.206 119.807 706.788 121.293C698.988 126.083 697.287 129.17 697.864 137.49C698.333 144.239 698.209 144.737 696.009 145.005C694.478 145.193 693.77 145.887 693.988 146.991C694.171 147.926 693.805 149.448 693.174 150.373C692.339 151.599 692.016 149.51 691.99 142.716C691.967 136.082 692.366 133.257 693.37 132.968C694.5 132.643 694.5 132.267 693.367 131.094C692.305 129.993 692.008 123.887 692.181 106.687C692.405 84.5196 692.335 83.6934 690.07 82.1462C688.781 81.2658 687.167 79.6751 686.483 78.6121C685.543 77.1519 685.23 77.0513 685.203 78.2023C685.185 79.0392 683.858 80.7778 682.255 82.064L679.34 84.4037L680.137 96.7223C680.714 105.632 680.566 109.42 679.603 110.41C678.695 111.347 678.649 111.979 679.459 112.407C680.137 112.765 680.645 116.584 680.645 121.326C680.645 128.078 680.277 129.862 678.666 130.933C676.927 132.088 676.895 132.356 678.405 133.138C679.774 133.845 680.082 135.871 679.911 143.042C679.793 148.001 679.656 155.21 679.606 159.064C679.532 164.653 679.167 166.071 677.796 166.071C676.561 166.071 676.243 165.391 676.665 163.655C676.987 162.326 677.521 160.135 677.849 158.787C679.043 153.889 676.383 148.993 669.881 144.121C666.486 141.576 663.701 139.094 663.693 138.605C663.685 138.115 662.927 137.004 662.009 136.138C660.18 134.412 659.448 131.866 659.082 125.965C658.885 122.776 658.703 123.157 658.039 128.143C657.587 131.542 656.417 134.958 655.367 135.95C654.338 136.92 653.498 138.348 653.498 139.121C653.498 139.895 652.099 141.238 650.387 142.107C641.917 146.408 638.686 152.024 639.927 160.286L640.584 164.663L636.283 162.845C631.236 160.711 625.873 161.211 621.375 164.233L618.433 166.211V162.952C618.433 161.159 619.044 159.171 619.79 158.533C620.845 157.631 620.845 157.115 619.79 156.213C618.333 154.969 617.858 141.758 619.228 140.587C619.666 140.213 619.932 137.441 619.82 134.427C619.646 129.738 619.123 128.524 616.196 126.025L612.777 123.103L609.358 126.025C606.431 128.524 605.908 129.738 605.735 134.427C605.623 137.441 605.888 140.213 606.326 140.587C607.733 141.789 607.215 154.969 605.708 156.334C604.576 157.359 604.576 157.704 605.708 158.057C606.636 158.349 607.121 160.614 607.121 164.666V170.831L600.617 165.197C596.04 161.231 592.438 159.075 588.458 157.916C577.437 154.711 577.183 154.507 576.815 148.61C576.524 143.967 576.847 143 579.36 140.984C582.652 138.342 583.201 133.706 580.576 130.74C579.03 128.993 578.912 129.142 578.879 132.901C578.833 138.086 574.686 141.306 568.812 140.719L564.975 140.337L567.51 142.091C568.904 143.055 571.287 143.844 572.806 143.844C575.425 143.844 575.55 144.105 575.226 148.885C574.852 154.386 574.256 154.869 564.704 157.41C556.362 159.629 550.622 163.901 544.181 172.688C544.045 172.873 542.494 172.296 540.733 171.408C537.402 169.726 534.729 165.974 534.729 162.979C534.729 162.021 534.22 161.239 533.598 161.239C532.976 161.239 532.467 162.021 532.467 162.979C532.467 166.033 529.859 169.579 526.04 171.717C524 172.86 522.012 174.883 521.621 176.214C520.747 179.189 520.767 179.189 514.771 176.188C509.198 173.397 507.637 171.408 507.451 166.859C507.331 163.945 507.161 164.118 505.575 168.775L503.832 173.895L493.429 178.131C480.778 183.284 476.649 186.912 477.255 192.338C477.551 195.002 477.232 196.029 476.106 196.029C474.895 196.029 474.613 194.458 474.847 189.022C475.162 181.673 473.522 176.271 470.693 175.344C469.778 175.044 468.307 173.378 467.423 171.642C466.215 169.266 465.808 168.979 465.774 170.48C465.75 171.577 464.203 173.723 462.336 175.251C460.47 176.779 458.943 178.817 458.943 179.781C458.943 180.744 458.502 181.533 457.963 181.533C457.424 181.533 457.242 184.627 457.559 188.411L458.134 195.288L452.318 190.185C448.004 186.402 446.471 184.312 446.385 182.1L446.27 179.117L445.117 182.177C444.484 183.86 441.482 187.497 438.446 190.259C433.797 194.491 432.927 195.874 432.927 199.038C432.927 202.149 432.539 202.794 430.665 202.794C428.448 202.794 428.402 203.438 428.402 234.685V266.575H1271.1V234.685C1271.1 203.607 1271.04 202.794 1268.87 202.794C1267.35 202.794 1266.85 202.331 1267.29 201.342C1268.54 198.573 1266.46 194.909 1260.88 190.008C1256.74 186.38 1255.23 184.298 1255.15 182.1L1255.03 179.117L1253.8 182.409C1253.12 184.219 1250.34 187.665 1247.61 190.064L1242.64 194.428L1242.88 188.705C1243.12 183.138 1240.37 175.735 1238.07 175.735C1237.55 175.735 1236.12 174.322 1234.89 172.594C1233.65 170.866 1232.64 170.132 1232.64 170.963C1232.64 171.795 1231.11 173.723 1229.24 175.251C1227.38 176.779 1225.85 178.817 1225.85 179.781C1225.85 180.744 1225.42 181.533 1224.89 181.533C1224.36 181.533 1224.17 184.794 1224.47 188.781C1224.81 193.256 1224.59 196.029 1223.89 196.029C1223.27 196.029 1222.77 194.365 1222.77 192.33C1222.77 186.541 1219.92 183.946 1208.19 179.037C1196.55 174.167 1194.23 172.196 1194.09 167.063C1194 163.785 1193.93 163.845 1192.28 168.627C1190.76 173.029 1189.93 173.895 1185.01 176.18C1179.84 178.583 1179.41 178.64 1178.74 177.006C1178.34 176.041 1175.54 173.196 1172.52 170.682C1167.73 166.698 1167.02 165.586 1166.9 161.985L1166.77 157.856L1165.98 161.239C1164.95 165.663 1162.92 168.757 1159.35 171.381L1156.45 173.511L1152.98 169.136C1148.08 162.974 1142.2 159.288 1133.39 156.848C1125.22 154.587 1124.39 153.675 1124.16 146.743C1124.06 143.616 1124.32 143.353 1127.51 143.255C1132.49 143.102 1134.71 140.944 1129.88 140.944C1124.44 140.944 1120.28 137.054 1120.9 132.549L1121.37 129.096L1119.31 131.262C1116.49 134.242 1116.75 137.372 1120.09 140.769C1122.27 142.977 1122.91 144.723 1122.9 148.332C1122.88 154.313 1122.31 154.997 1116.13 156.385C1108.93 158.007 1102.27 161.536 1097.57 166.233L1093.52 170.274L1093.9 128.433L1090.88 126.038C1089.21 124.72 1087.84 123.078 1087.82 122.388C1087.8 121.632 1087.32 121.81 1086.63 122.834C1085.99 123.769 1084.19 125.628 1082.62 126.964L1079.78 129.393L1080.58 142.9C1081.23 153.887 1081.1 156.407 1079.87 156.407C1078.69 156.407 1078.65 156.665 1079.71 157.566C1080.46 158.204 1081.07 160.365 1081.07 162.369V166.013L1076.82 163.545C1073.36 161.531 1071.77 161.19 1068.11 161.684C1065.66 162.018 1062.98 162.759 1062.18 163.332C1060.35 164.625 1060.45 164.914 1060.23 157.373C1060.02 150.018 1058.4 147.469 1051.08 142.976C1048.29 141.261 1046 139.376 1046 138.786C1046 138.197 1045.23 136.99 1044.3 136.106C1043.36 135.22 1042.29 132.577 1041.91 130.231C1040.96 124.281 1040.35 124.262 1040.35 130.184C1040.35 133.757 1039.86 135.367 1038.65 135.763C1037.72 136.069 1036.95 137.102 1036.95 138.058C1036.95 139.041 1034.46 141.328 1031.21 143.318C1023.86 147.832 1021.88 151.684 1022.68 159.925C1023.16 164.891 1022.96 166.071 1021.63 166.071C1020.26 166.071 1019.98 163.381 1019.98 149.722C1019.98 137.505 1020.34 133.271 1021.4 132.968C1022.52 132.647 1022.5 132.238 1021.33 131.027C1020.3 129.957 1019.92 126.678 1020.07 120.208C1020.19 115.101 1019.96 110.647 1019.57 110.31C1018.5 109.396 1018.7 96.6836 1019.8 96.1057C1020.32 95.8313 1020.57 93.1727 1020.36 90.1972C1020.08 86.118 1019.25 84.0007 1016.99 81.5857L1014 78.3821L1007.36 84.8376L1008.17 96.932C1008.76 105.714 1008.61 109.402 1007.64 110.403C1006.73 111.343 1006.68 111.98 1007.49 112.407C1009.36 113.398 1008.92 126.498 1006.9 129.812C1005.77 131.67 1005.57 132.812 1006.34 133.033C1007.1 133.247 1007.47 136.855 1007.35 142.716C1007.25 147.854 1006.96 150.428 1006.72 148.434C1006.37 145.611 1005.79 144.81 1004.06 144.81C1002.04 144.81 1001.87 144.181 1002.09 137.32C1002.38 128.595 1001.22 126.516 993.395 121.715C990.6 120.001 988.313 118.039 988.313 117.358C988.313 116.675 987.416 115.424 986.32 114.576C984.989 113.547 984.237 111.355 984.058 107.984C983.694 101.144 982.658 100.655 982.658 107.325C982.658 110.908 982.095 113.08 980.961 113.885C980.028 114.547 979.264 115.894 979.264 116.878C979.264 117.862 977.864 119.294 976.154 120.06C974.443 120.825 971.261 123.036 969.084 124.973C965.195 128.432 965.125 128.639 965.134 136.652C965.141 143.684 964.877 144.81 963.222 144.81C961.821 144.81 961.208 145.787 960.951 148.434C960.715 150.878 960.047 152.058 958.904 152.058C957.501 152.058 957.172 150.05 957.006 140.47L956.804 128.882L953.047 126.043C950.98 124.481 948.692 121.868 947.961 120.236C947.231 118.603 946.595 118.003 946.547 118.902C946.5 119.801 944.171 122.521 941.371 124.948C935.891 129.698 935.985 129.375 936.101 142.877L936.165 150.125L933.606 143.359C930.769 135.86 928.667 132.657 922.825 126.932C914.283 118.562 901.063 111.087 884.249 105.12C874.74 101.746 863.619 95.2988 859 90.4813C856.712 88.0963 854.84 85.8852 854.84 85.5691C854.84 85.2522 856.112 83.82 857.667 82.3858C861.547 78.8092 861.506 73.5057 857.567 69.5058C855.956 67.8706 853.92 66.5322 853.042 66.5322C851.066 66.5322 850.924 62.3892 852.81 59.808C853.923 58.285 853.819 57.6085 852.245 56.1212C850.976 54.9238 850.315 52.6702 850.315 49.5439V44.7883L857.44 44.6617C866.034 44.509 874.167 41.3509 879.614 36.0512C881.618 34.101 883.071 32.346 882.843 32.1518C882.616 31.9566 880.371 32.6678 877.856 33.7309C867.289 38.1975 853.817 36.7653 844.873 30.2238C836.456 24.0698 832.263 14.0541 834.452 5.33534C835.115 2.69516 835.468 0.373891 835.236 0.17578C835.005 -0.0223302 833.522 1.45431 831.941 3.45765ZM688.563 90.6978C688.563 92.8519 684.419 93.8994 683.55 91.9647C683.201 91.1877 683.458 89.686 684.121 88.6268C685.085 87.0893 685.654 86.9327 686.945 87.8489C687.835 88.4799 688.563 89.7614 688.563 90.6978ZM1016.59 91.2931C1016.59 92.9466 1015.96 93.5912 1014.33 93.5912C1012.6 93.5912 1012.07 92.9466 1012.07 90.8534C1012.07 89.3468 1012.4 87.8285 1012.81 87.4787C1014.1 86.379 1016.59 88.8945 1016.59 91.2931ZM755.074 133.407C755.82 134.044 756.431 136.001 756.431 137.755C756.431 140.654 756.122 140.944 753.038 140.944C750.149 140.944 749.644 140.575 749.644 138.465C749.644 135.773 751.463 132.247 752.851 132.247C753.327 132.247 754.327 132.769 755.074 133.407ZM941.937 137.136C941.937 139.877 941.462 140.944 940.24 140.944C938.479 140.944 937.888 136.764 939.228 133.782C940.386 131.202 941.937 133.123 941.937 137.136ZM948.497 133.407C949.244 134.044 949.855 136.001 949.855 137.755C949.855 140.654 949.546 140.944 946.461 140.944C943.377 140.944 943.068 140.654 943.068 137.755C943.068 134.876 944.688 132.247 946.461 132.247C946.835 132.247 947.751 132.769 948.497 133.407ZM954.362 137.804C954.374 139.958 953.846 140.944 952.683 140.944C951.47 140.944 950.986 139.888 950.986 137.24C950.986 135.202 951.333 133.239 951.757 132.877C952.987 131.826 954.343 134.389 954.362 137.804ZM748.513 137.079C748.513 139.205 748.004 140.944 747.382 140.944C746.76 140.944 746.251 139.205 746.251 137.079C746.251 134.953 746.76 133.213 747.382 133.213C748.004 133.213 748.513 134.953 748.513 137.079ZM760.956 137.079C760.956 139.205 760.446 140.944 759.824 140.944C759.202 140.944 758.693 139.205 758.693 137.079C758.693 134.953 759.202 133.213 759.824 133.213C760.446 133.213 760.956 134.953 760.956 137.079ZM614.659 135.694C615.603 137.793 613.209 139.767 611.496 138.303C610.048 137.066 610.945 134.18 612.777 134.18C613.439 134.18 614.285 134.861 614.659 135.694ZM1088.98 136.653C1088.98 137.419 1087.97 138.045 1086.72 138.045C1084.25 138.045 1083.59 135.573 1085.87 134.874C1087.79 134.287 1088.98 134.972 1088.98 136.653ZM469.084 187.267C469.727 188.296 470.254 190.688 470.254 192.583C470.254 195.768 469.996 196.029 466.861 196.029C463.558 196.029 463.468 195.903 463.468 191.358C463.468 188.789 463.807 186.397 464.222 186.043C465.644 184.827 467.913 185.399 469.084 187.267ZM1235.99 187.267C1236.64 188.296 1237.16 190.688 1237.16 192.583C1237.16 195.768 1236.9 196.029 1233.77 196.029C1230.47 196.029 1230.38 195.903 1230.38 191.358C1230.38 188.789 1230.72 186.397 1231.13 186.043C1232.55 184.827 1234.82 185.399 1235.99 187.267ZM461.205 191.197C461.205 193.854 460.696 196.029 460.074 196.029C458.826 196.029 458.493 188.039 459.697 187.009C461.047 185.857 461.205 186.297 461.205 191.197ZM473.648 191.197C473.648 193.854 473.139 196.029 472.517 196.029C471.269 196.029 470.935 188.039 472.14 187.009C473.489 185.857 473.648 186.297 473.648 191.197ZM1228.11 191.197C1228.11 193.854 1227.6 196.029 1226.98 196.029C1225.73 196.029 1225.4 188.039 1226.61 187.009C1227.96 185.857 1228.11 186.297 1228.11 191.197ZM1240.56 191.197C1240.56 193.854 1240.05 196.029 1239.42 196.029C1238.18 196.029 1237.84 188.039 1239.05 187.009C1240.4 185.857 1240.56 186.297 1240.56 191.197Z" fill="#97BDB2"/>
<path fill-rule="evenodd" clip-rule="evenodd" d="M568.589 7.09042C564.464 12.3103 562.968 17.2366 563.494 23.8803C564.283 33.8378 570.655 41.8167 580.913 45.6871L585.902 47.5703L585.232 52.4022C584.862 55.0603 584.044 57.6754 583.414 58.213C581.945 59.4662 581.926 63.2832 583.384 64.0523C585.491 65.1636 584.547 68.3735 581.855 69.2465C578.088 70.4683 574.447 74.7941 574.447 78.0479C574.447 81.4064 577.075 86.0077 579.433 86.7797C582.217 87.6918 581.509 88.8497 574.524 94.8082C568.876 99.6268 564.882 101.744 547.435 109.16C532.823 115.372 525.119 119.263 520.495 122.764C513.442 128.104 506.379 136.329 504.008 141.964C503.181 143.93 502.103 145.538 501.612 145.538C500.202 145.538 500.573 139.373 502.059 138.104C503.102 137.215 503.102 136.961 502.059 136.961C501.302 136.961 500.719 135.661 500.719 133.97C500.719 131.806 499.485 129.837 496.251 126.843C493.793 124.568 491.782 122.029 491.782 121.2C491.782 120.372 491.272 119.963 490.647 120.292C490.023 120.622 489.768 121.245 490.081 121.678C490.395 122.11 488.392 124.419 485.631 126.808C480.19 131.517 480.323 131.044 480.398 145.3C480.431 151.481 480.1 153.163 478.85 153.163C477.784 153.163 477.26 152.086 477.26 149.894C477.26 147.228 476.795 146.567 474.746 146.32C472.563 146.055 472.303 145.577 472.766 142.679C474.376 132.612 471.794 127.145 463.32 122.677C461.157 121.536 459.386 120.026 459.386 119.32C459.386 118.613 458.673 117.427 457.801 116.684C456.929 115.939 455.737 112.37 455.15 108.752L454.087 102.174L453.811 107.893C453.66 111.038 453.576 113.882 453.624 114.212C453.672 114.543 452.726 115.574 451.522 116.504C450.318 117.435 449.332 118.744 449.332 119.415C449.332 120.086 447.378 121.834 444.989 123.299C437.286 128.023 435.607 131.067 436.176 139.272C436.639 145.928 436.517 146.419 434.344 146.684C432.832 146.869 432.133 147.554 432.348 148.642C432.529 149.564 432.167 151.065 431.544 151.978C430.719 153.186 430.401 151.126 430.375 144.426C430.352 137.883 430.746 135.097 431.738 134.812C432.854 134.492 432.854 134.122 431.735 132.965C430.686 131.879 430.393 125.857 430.564 108.894C430.785 87.0332 430.716 86.2184 428.479 84.6925C427.206 83.8243 425.612 82.2556 424.936 81.2072C424.008 79.7672 423.698 79.668 423.673 80.8031C423.655 81.6285 422.343 83.343 420.76 84.6115L417.882 86.9189L418.669 99.0674C419.239 107.854 419.093 111.59 418.142 112.566C417.245 113.49 417.199 114.113 417.999 114.535C418.669 114.889 419.171 118.654 419.171 123.331C419.171 129.99 418.808 131.749 417.216 132.805C415.499 133.945 415.468 134.209 416.959 134.98C418.311 135.678 418.615 137.675 418.446 144.748C418.33 149.638 418.195 156.748 418.144 160.549C418.072 166.06 417.711 167.458 416.357 167.458C415.137 167.458 414.823 166.788 415.24 165.076C415.558 163.765 416.085 161.605 416.409 160.275C417.589 155.445 414.962 150.616 408.541 145.812C405.187 143.302 402.437 140.854 402.429 140.372C402.421 139.888 401.673 138.793 400.766 137.938C398.959 136.236 398.236 133.726 397.876 127.907C397.681 124.762 397.501 125.137 396.846 130.054C396.399 133.407 395.244 136.775 394.206 137.754C393.191 138.71 392.361 140.118 392.361 140.881C392.361 141.644 390.979 142.969 389.289 143.825C380.924 148.067 377.732 153.606 378.958 161.753L379.607 166.07L375.359 164.277C370.375 162.173 365.079 162.665 360.636 165.647L357.731 167.596V164.383C357.731 162.615 358.334 160.653 359.071 160.024C360.113 159.135 360.113 158.626 359.071 157.737C357.632 156.51 357.163 143.481 358.516 142.326C358.948 141.958 359.211 139.224 359.1 136.252C358.929 131.627 358.412 130.43 355.522 127.966L352.145 125.084L348.768 127.966C345.878 130.43 345.361 131.627 345.19 136.252C345.079 139.224 345.342 141.958 345.774 142.326C347.164 143.512 346.652 156.51 345.163 157.856C344.046 158.867 344.046 159.207 345.163 159.556C346.08 159.843 346.56 162.077 346.56 166.073V172.153L340.136 166.597C335.615 162.685 332.059 160.559 328.127 159.416C317.244 156.255 316.992 156.054 316.629 150.239C316.342 145.66 316.66 144.706 319.143 142.718C322.393 140.112 322.936 135.541 320.344 132.616C318.816 130.893 318.7 131.039 318.668 134.747C318.622 139.86 314.527 143.035 308.726 142.457L304.937 142.079L307.44 143.809C308.816 144.76 311.17 145.538 312.67 145.538C315.256 145.538 315.38 145.795 315.06 150.51C314.691 155.935 314.102 156.411 304.668 158.917C296.43 161.105 290.762 165.319 284.4 173.984C284.266 174.167 282.734 173.598 280.995 172.722C277.705 171.064 275.065 167.363 275.065 164.409C275.065 163.465 274.563 162.693 273.948 162.693C273.334 162.693 272.831 163.465 272.831 164.409C272.831 167.421 270.256 170.918 266.484 173.027C264.47 174.153 262.506 176.149 262.12 177.461C261.257 180.396 261.277 180.396 255.355 177.436C249.851 174.683 248.31 172.722 248.125 168.236C248.007 165.362 247.839 165.532 246.273 170.125L244.552 175.174L234.278 179.352C221.784 184.434 217.706 188.012 218.305 193.363C218.597 195.99 218.282 197.003 217.17 197.003C215.974 197.003 215.695 195.454 215.926 190.093C216.238 182.845 214.618 177.518 211.824 176.604C210.921 176.307 209.467 174.664 208.595 172.953C207.402 170.61 206.999 170.327 206.966 171.807C206.943 172.889 205.414 175.005 203.571 176.512C201.728 178.019 200.22 180.029 200.22 180.979C200.22 181.929 199.784 182.707 199.252 182.707C198.72 182.707 198.54 185.759 198.853 189.49L199.421 196.272L193.677 191.24C189.416 187.509 187.903 185.448 187.818 183.266L187.704 180.324L186.566 183.343C185.94 185.002 182.975 188.589 179.977 191.313C175.386 195.487 174.527 196.85 174.527 199.971C174.527 203.038 174.143 203.674 172.292 203.674C170.103 203.674 170.058 204.31 170.058 235.125V266.575H1002.3V235.125C1002.3 204.477 1002.24 203.674 1000.1 203.674C998.599 203.674 998.103 203.218 998.541 202.243C999.77 199.512 997.72 195.898 992.201 191.065C988.116 187.488 986.626 185.434 986.542 183.266L986.428 180.324L985.213 183.571C984.545 185.357 981.792 188.754 979.097 191.121L974.195 195.425L974.434 189.781C974.666 184.29 971.951 176.989 969.676 176.989C969.167 176.989 967.754 175.595 966.536 173.891C965.319 172.187 964.321 171.464 964.319 172.284C964.317 173.103 962.806 175.005 960.963 176.512C959.12 178.019 957.612 180.029 957.612 180.979C957.612 181.929 957.185 182.707 956.662 182.707C956.141 182.707 955.955 185.924 956.251 189.855C956.583 194.268 956.363 197.003 955.677 197.003C955.066 197.003 954.565 195.362 954.565 193.355C954.565 187.646 951.754 185.087 940.166 180.245C928.671 175.443 926.379 173.499 926.242 168.437C926.156 165.204 926.088 165.263 924.457 169.979C922.955 174.32 922.133 175.174 917.279 177.428C912.173 179.798 911.748 179.855 911.081 178.243C910.688 177.291 907.927 174.485 904.944 172.006C900.215 168.077 899.506 166.981 899.394 163.429L899.266 159.357L898.484 162.693C897.462 167.056 895.464 170.108 891.939 172.695L889.076 174.796L885.642 170.481C880.806 164.405 875.002 160.769 866.299 158.363C858.232 156.133 857.41 155.233 857.187 148.397C857.086 145.313 857.337 145.054 860.494 144.958C865.413 144.807 867.597 142.679 862.832 142.679C857.462 142.679 853.35 138.842 853.958 134.4L854.424 130.995L852.397 133.13C849.607 136.07 849.86 139.156 853.163 142.505C855.311 144.683 855.951 146.405 855.939 149.964C855.917 155.863 855.35 156.537 849.253 157.907C842.138 159.506 835.567 162.987 830.919 167.618L826.921 171.604L827.302 130.341L824.314 127.978C822.671 126.678 821.31 125.059 821.292 124.378C821.271 123.633 820.803 123.809 820.114 124.819C819.484 125.74 817.705 127.574 816.16 128.891L813.352 131.287L814.144 144.608C814.789 155.443 814.658 157.928 813.439 157.928C812.275 157.928 812.24 158.182 813.283 159.071C814.02 159.7 814.623 161.831 814.623 163.808V167.401L810.434 164.968C807.011 162.981 805.438 162.645 801.832 163.132C799.405 163.461 796.765 164.192 795.968 164.757C794.167 166.032 794.261 166.317 794.05 158.881C793.843 151.627 792.242 149.113 785.012 144.682C782.252 142.992 779.993 141.132 779.993 140.551C779.993 139.969 779.236 138.779 778.311 137.907C777.385 137.034 776.324 134.427 775.953 132.113C775.012 126.246 774.408 126.226 774.408 132.067C774.408 135.591 773.924 137.179 772.732 137.569C771.81 137.871 771.056 138.89 771.056 139.832C771.056 140.801 768.592 143.057 765.391 145.02C758.127 149.471 756.172 153.27 756.961 161.398C757.436 166.295 757.237 167.458 755.924 167.458C754.567 167.458 754.3 164.806 754.3 151.336C754.3 139.287 754.653 135.112 755.696 134.812C756.799 134.496 756.784 134.093 755.629 132.899C754.609 131.844 754.232 128.609 754.383 122.228C754.501 117.192 754.28 112.8 753.891 112.467C752.834 111.566 753.036 99.0293 754.116 98.4593C754.63 98.1887 754.88 95.5668 754.674 92.6324C754.391 88.6096 753.572 86.5214 751.344 84.1397L748.389 80.9804L741.837 87.3468L742.633 99.2742C743.212 107.935 743.068 111.572 742.108 112.559C741.206 113.486 741.158 114.114 741.957 114.535C743.812 115.513 743.377 128.432 741.38 131.7C740.259 133.533 740.064 134.659 740.828 134.876C741.571 135.088 741.942 138.646 741.824 144.426C741.72 149.493 741.439 152.031 741.199 150.065C740.857 147.281 740.277 146.491 738.575 146.491C736.574 146.491 736.411 145.871 736.632 139.105C736.912 130.5 735.768 128.45 728.04 123.715C725.28 122.024 723.021 120.09 723.021 119.418C723.021 118.745 722.135 117.511 721.053 116.675C719.738 115.66 718.995 113.498 718.819 110.173C718.459 103.428 717.436 102.946 717.436 109.523C717.436 113.057 716.881 115.2 715.76 115.994C714.839 116.646 714.084 117.974 714.084 118.945C714.084 119.915 712.702 121.328 711.013 122.083C709.323 122.837 706.181 125.018 704.031 126.928C700.19 130.339 700.121 130.544 700.13 138.446C700.136 145.381 699.876 146.491 698.242 146.491C696.858 146.491 696.252 147.455 695.999 150.065C695.765 152.475 695.106 153.639 693.977 153.639C692.592 153.639 692.266 151.659 692.102 142.211L691.903 130.783L688.192 127.983C686.151 126.443 683.892 123.866 683.17 122.256C682.448 120.646 681.82 120.055 681.774 120.941C681.727 121.827 679.427 124.51 676.662 126.903C671.249 131.587 671.342 131.269 671.457 144.585L671.52 151.733L668.993 145.061C666.191 137.665 664.116 134.506 658.346 128.86C649.909 120.605 636.854 113.234 620.248 107.349C610.857 104.021 599.875 97.6636 595.312 92.9126C593.053 90.5605 591.204 88.3799 591.204 88.0682C591.204 87.7556 592.461 86.3432 593.997 84.9289C597.828 81.4016 597.788 76.1713 593.897 72.2266C592.306 70.6141 590.296 69.2941 589.429 69.2941C587.477 69.2941 587.336 65.2084 589.2 62.6628C590.299 61.1608 590.196 60.4936 588.641 59.0269C587.388 57.8461 586.735 55.6235 586.735 52.5404V47.8505L593.772 47.7256C602.26 47.575 610.292 44.4605 615.67 39.234C617.65 37.3107 619.085 35.58 618.86 35.3884C618.635 35.1959 616.419 35.8973 613.935 36.9457C603.499 41.3507 590.194 39.9382 581.361 33.487C573.049 27.418 568.908 17.5406 571.069 8.94219C571.724 6.33846 572.072 4.04924 571.843 3.85387C571.616 3.65849 570.151 5.11475 568.589 7.09042ZM426.991 93.1261C426.991 95.2504 422.897 96.2835 422.04 94.3755C421.695 93.6092 421.949 92.1282 422.604 91.0837C423.555 89.5674 424.117 89.413 425.393 90.3165C426.271 90.9388 426.991 92.2026 426.991 93.1261ZM750.949 93.7132C750.949 95.3438 750.322 95.9795 748.714 95.9795C747.006 95.9795 746.48 95.3438 746.48 93.2795C746.48 91.7937 746.811 90.2964 747.215 89.9514C748.487 88.8669 750.949 91.3477 750.949 93.7132ZM492.676 135.245C493.413 135.874 494.016 137.804 494.016 139.534C494.016 142.393 493.711 142.679 490.665 142.679C487.812 142.679 487.314 142.315 487.314 140.233C487.314 137.579 489.11 134.102 490.481 134.102C490.951 134.102 491.939 134.616 492.676 135.245ZM677.22 138.923C677.22 141.626 676.751 142.679 675.545 142.679C673.805 142.679 673.222 138.556 674.545 135.615C675.689 133.071 677.22 134.966 677.22 138.923ZM683.699 135.245C684.437 135.874 685.04 137.804 685.04 139.534C685.04 142.393 684.735 142.679 681.689 142.679C678.642 142.679 678.337 142.393 678.337 139.534C678.337 136.695 679.937 134.102 681.689 134.102C682.057 134.102 682.962 134.616 683.699 135.245ZM689.492 139.582C689.503 141.706 688.982 142.679 687.833 142.679C686.635 142.679 686.157 141.637 686.157 139.026C686.157 137.016 686.5 135.08 686.919 134.723C688.133 133.686 689.473 136.214 689.492 139.582ZM486.197 138.867C486.197 140.963 485.694 142.679 485.08 142.679C484.465 142.679 483.962 140.963 483.962 138.867C483.962 136.77 484.465 135.055 485.08 135.055C485.694 135.055 486.197 136.77 486.197 138.867ZM498.485 138.867C498.485 140.963 497.982 142.679 497.368 142.679C496.753 142.679 496.251 140.963 496.251 138.867C496.251 136.77 496.753 135.055 497.368 135.055C497.982 135.055 498.485 136.77 498.485 138.867ZM354.004 137.501C354.936 139.571 352.572 141.518 350.879 140.074C349.449 138.854 350.335 136.008 352.145 136.008C352.799 136.008 353.634 136.679 354.004 137.501ZM822.443 138.446C822.443 139.202 821.438 139.82 820.209 139.82C817.77 139.82 817.118 137.382 819.371 136.692C821.261 136.113 822.443 136.789 822.443 138.446ZM210.235 188.362C210.87 189.376 211.391 191.735 211.391 193.604C211.391 196.745 211.136 197.003 208.04 197.003C204.778 197.003 204.688 196.879 204.688 192.397C204.688 189.863 205.023 187.504 205.433 187.155C206.838 185.956 209.078 186.52 210.235 188.362ZM967.626 188.362C968.262 189.376 968.783 191.735 968.783 193.604C968.783 196.745 968.528 197.003 965.431 197.003C962.169 197.003 962.08 196.879 962.08 192.397C962.08 189.863 962.415 187.504 962.825 187.155C964.229 185.956 966.47 186.52 967.626 188.362ZM202.454 192.238C202.454 194.858 201.951 197.003 201.337 197.003C200.105 197.003 199.775 189.123 200.965 188.108C202.298 186.971 202.454 187.406 202.454 192.238ZM214.742 192.238C214.742 194.858 214.239 197.003 213.625 197.003C212.393 197.003 212.063 189.123 213.253 188.108C214.586 186.971 214.742 187.406 214.742 192.238ZM959.846 192.238C959.846 194.858 959.343 197.003 958.729 197.003C957.497 197.003 957.167 189.123 958.357 188.108C959.69 186.971 959.846 187.406 959.846 192.238ZM972.134 192.238C972.134 194.858 971.631 197.003 971.017 197.003C969.785 197.003 969.455 189.123 970.645 188.108C971.978 186.971 972.134 187.406 972.134 192.238Z" fill="#97BDB2"/>
</g>
</svg>
