<svg width="21" height="20" viewBox="0 0 21 20" fill="none" xmlns="http://www.w3.org/2000/svg">
<rect x="0.333496" width="20" height="20" rx="3" fill="#1DA1F2"/>
<path d="M16.9101 5.66178C16.6936 5.75777 16.4711 5.83879 16.2437 5.90457C16.5129 5.60013 16.7182 5.24192 16.8434 4.84993C16.8715 4.76206 16.8424 4.66589 16.7702 4.60842C16.6981 4.55091 16.5979 4.54403 16.5184 4.59109C16.0356 4.87748 15.5146 5.0833 14.9683 5.20365C14.4181 4.66598 13.6707 4.35999 12.8981 4.35999C11.2673 4.35999 9.94046 5.68675 9.94046 7.31756C9.94046 7.446 9.94859 7.57373 9.96468 7.69968C7.94095 7.522 6.05953 6.52731 4.76756 4.9425C4.72151 4.88602 4.65058 4.85557 4.57796 4.8614C4.5053 4.86708 4.44001 4.90806 4.4033 4.97104C4.14126 5.42067 4.00273 5.93493 4.00273 6.45816C4.00273 7.17081 4.25717 7.84697 4.70663 8.37531C4.56996 8.32798 4.43734 8.26883 4.31077 8.19856C4.24281 8.16074 4.15988 8.16132 4.09237 8.20003C4.02482 8.23874 3.98247 8.30994 3.98069 8.38776C3.98038 8.40087 3.98038 8.41398 3.98038 8.42727C3.98038 9.49102 4.5529 10.4487 5.42821 10.9707C5.35301 10.9632 5.27786 10.9523 5.20319 10.9381C5.12622 10.9233 5.04706 10.9503 4.99515 11.009C4.94315 11.0677 4.92595 11.1495 4.94991 11.2241C5.2739 12.2357 6.10806 12.9797 7.11648 13.2065C6.2801 13.7304 5.32363 14.0048 4.31957 14.0048C4.11006 14.0048 3.89936 13.9925 3.69314 13.9681C3.5907 13.9559 3.49274 14.0164 3.45786 14.1138C3.42297 14.2113 3.45994 14.3199 3.5471 14.3758C4.83698 15.2028 6.32845 15.64 7.8602 15.64C10.8714 15.64 12.7551 14.22 13.8051 13.0288C15.1144 11.5435 15.8653 9.57742 15.8653 7.63484C15.8653 7.55369 15.8641 7.47173 15.8616 7.39005C16.3782 7.00086 16.8229 6.52984 17.1848 5.98848C17.2398 5.90626 17.2338 5.7976 17.1702 5.72191C17.1066 5.64618 17.0006 5.62169 16.9101 5.66178Z" fill="white"/>
</svg>
