<svg width="18" height="18" viewBox="0 0 18 18" fill="none" xmlns="http://www.w3.org/2000/svg">
<g clip-path="url(#clip0_523_27568)">
<path opacity="0.2" d="M15.364 2.63605C13.6641 0.936176 11.404 0 9 0C6.59602 0 4.33589 0.936176 2.63602 2.63605C0.936141 4.33593 0 6.59602 0 9C0 11.404 0.936141 13.6641 2.63602 15.3639C4.33589 17.0638 6.59602 18 9 18C11.404 18 13.6641 17.0638 15.364 15.3639C17.0639 13.6641 18 11.404 18 9C18 6.59602 17.0639 4.33589 15.364 2.63605ZM9 16.2335C5.01142 16.2335 1.76653 12.9885 1.76653 9C1.76653 8.99346 1.76674 8.98699 1.76678 8.98052C1.76678 8.97887 1.76653 8.97729 1.76653 8.97564C1.76653 8.97286 1.76688 8.97019 1.76695 8.96745C1.7845 5.02668 4.9692 1.82053 8.9017 1.7678C8.90993 1.76741 8.91809 1.76657 8.92642 1.76657C8.93141 1.76657 8.93626 1.76716 8.94122 1.7673C8.96084 1.76716 8.98038 1.76657 9.00004 1.76657C12.9886 1.76657 16.2335 5.01149 16.2335 9.00004C16.2335 12.9886 12.9886 16.2335 9 16.2335Z" fill="#292D32"/>
<path d="M14.4953 9.43461C14.2012 9.43461 13.9628 9.19618 13.9628 8.90206C13.9628 8.60795 14.2012 8.36952 14.4953 8.36952H15.1372C14.8357 5.41372 12.4386 3.0689 9.4598 2.84875V3.40756C9.4598 3.70168 9.22137 3.94011 8.92725 3.94011C8.63313 3.94011 8.3947 3.70168 8.3947 3.40756V2.86148C5.46 3.14906 3.12236 5.50179 2.85788 8.4431H3.43275C3.72687 8.4431 3.9653 8.68153 3.9653 8.97565C3.9653 9.26976 3.72687 9.50819 3.43275 9.50819H2.85352C3.09838 12.4969 5.48289 14.8887 8.46832 15.1452V14.4701C8.46832 14.176 8.70675 13.9376 9.00087 13.9376C9.29498 13.9376 9.53341 14.176 9.53341 14.4701V15.1452C12.5433 14.8866 14.9423 12.4575 15.1537 9.43461H14.4953ZM11.1566 7.59741L9.37746 9.37664C9.27758 9.47652 9.14216 9.53263 9.0009 9.53263C8.85968 9.53263 8.72419 9.47652 8.62434 9.37664L5.52732 6.27962C5.31934 6.07167 5.31934 5.73449 5.52732 5.5265C5.73527 5.31852 6.07246 5.31852 6.28044 5.5265L9.00094 8.24696L10.4036 6.8443C10.6115 6.63631 10.9487 6.63631 11.1567 6.8443C11.3646 7.05225 11.3646 7.38947 11.1566 7.59741Z" fill="#292D32"/>
</g>
<defs>
<clipPath id="clip0_523_27568">
<rect width="18" height="18" fill="white"/>
</clipPath>
</defs>
</svg>
    